/* XPM */
static char * abort_xpm[] = {
/* width height ncolors chars_per_pixel */
"64 48 6 1",
/* colors */
" 	s background	c NavyBlue",
".	c white",
"X	c black",
"o	c yellow",
"O	c #7A007A007A00",
"+	c grey",
/* pixels */
"                                                                ",
"           ..                                                   ",
"         ..                                                     ",
"       ...............                                          ",
"                                                                ",
"                                                      XXXXXXXXXX",
"                                                     X..XXXXXXXX",
"                                                    X....XXXXXXX",
"    ..oo..oo..oo                                    X....XXXXXXX",
"    ..oo..oo..oo                                   X......XOOOOO",
"    oo..oo..oo..                                   X......XOOOOO",
"    oo..oo..oo..                                   X......XOOOOO",
"    ..oo..oo..oo..oo..oo..oo..oo..oo..oo..oo      X...XX...XOOOO",
"    ..oo..oo..oo..oo..oo..oo..oo..oo..oo..oo      X...XX...X++++",
"    ooXXXX..oo..oo..ooXXXXXXXXXXXXXXXXXXXXXX      X...XX...X++++",
"    ooXXXX..oo..oo..ooXXXXXXXXXXXXXXXXXXXXXX      X...XX...X....",
"    ..XXXXoo..oo..oo..oo..oo..oo..oo..oo..oo      X...XX...X....",
"    ..XXXXoo..oo..oo..oo..oo..oo..oo..oo..oo      X...XX...X++++",
"    oo..oo..oo..oo..oo      oo..      ..oo        X...XX...X++++",
"    oo..oo..oo..oo..oo      oo..      ..oo        X...XX...X++++",
"    ..oo..oo..oo..oo..                             X......XOOOOO",
"    ..oo..oo..oo..oo..                             X......XOOOOO",
"    oo..oo..oo..oo                                 X......XOOOOO",
"    oo..oo..oo..oo                                  X....XXXXXXX",
"    ..oo..oo..oo                                    X....XXXXXXX",
"    ..oo..oo..oo                                     X..XXXXXXXX",
"    oo..oo..oo..                                      XXXXXXXXXX",
"    oo..oo..oo..                                                ",
"                                                                ",
"                                                                ",
"                                                                ",
"                                                                ",
"                                                                ",
"                                                                ",
"                    .     ..                                    ",
"                    .      .                                    ",
"                   . .     .                  .                 ",
"                   . .     . ..    ...  . .......               ",
"                  .   .    .. ..  .. ..  ..   .                 ",
"                  .   .    .   .  .   .  .    .                 ",
"                  .....    .   .  .   .  .    .                 ",
"                 .     .   .   .  .   .  .    .                 ",
"                 .     .   .  ..  .. ..  .    .                 ",
"                ...   ...  ....    ...  ...    ..               ",
"                                                                ",
"                                                                ",
"                                                                ",
"                                                                "};
