/* XPM */
static char * create_xpm[] = {
/* width height ncolors chars_per_pixel */
"64 48 6 1",
/* colors */
" 	s background	c NavyBlue",
".	c grey",
"X	c #690069006900",
"o	c white",
"O	c #7F007F007F00",
"+	c Red",
/* pixels */
"                                                                ",
"                                              .                 ",
"          .......                         .........             ",
"        ...........                     .............           ",
"      ...............                  ...............          ",
"     .................                .................         ",
"    ...................              ...................        ",
"    ...................    XXXXX    .....................       ",
"   ..................... XXXXXXXXX  .....................       ",
"   ....................XXXXXXXXXXXXX......................      ",
"  .....................XXXXXXXXXXXXX..........o...........      ",
"  ....................XXXXXXXXXXXXXXX........o.o..........      ",
"  .......Ooo..........XXXXXoooXXXXXXX.......o...o.........      ",
"  .......o..o........XXXXXXoXXoXXXXXXX......o...o..........     ",
"  .......o...........XXXXXXoXXoXXXXXXX......ooooo.........      ",
"  .......o...........XXXXXXoooXXXXXXXX......o...o.........      ",
"  .......o...........XXXXXXoXXoXXXXXXX......o...o.........      ",
"   ......o..o........XXXXXXoXXoXXXXXXX....................      ",
"   .......oo..........XXXXXoooXXXXXXX....................       ",
"    ..................XXXXXXXXXXXXXXX....................       ",
"    ...................XXXXXXXXXXXXX ...................        ",
"     ................. XXXXXXXXXXXXX  .................         ",
"      ...............    XXXXXXXXX     ...............          ",
"        ...........        XXXXX        .............           ",
"          .......            +            .........             ",
"             +               +                +                 ",
"              ++             +              ++                  ",
"                +            +            ++                    ",
"                 ++          +           +                      ",
"                   ++        +         ++                       ",
"                     +       +       ++                         ",
"                      ++     +     ++                           ",
"                        +    +    +                             ",
"                         ++  +  ++                              ",
"                           +++++                                ",
"                             +                                  ",
"                             +                                  ",
"      oo                                 ooooo o     o oooo     ",
"     o  o                  o             o      o   o  o   o    ",
"    o                      o             o       o o   o   o    ",
"    o     o o    o     o o o      o      o       o o   o   o    ",
"    o     oo o  o o   oooo oooo  o o     ooo      o    oooo     ",
"    o     o    o   o o   o o    o   o    o        o    o        ",
"    o     o    ooooo o   o o    ooooo    o       o o   o        ",
"    o     o    o     o   o o    o        o       o o   o        ",
"     o  o o     o  o  o oo  o o  o  o    o      o   o  o        ",
"      oo  o      oo    o o   o    oo     ooooo o     o o        ",
"                                                                "};
