/* XPM */
static char * download_xpm[] = {
/* width height ncolors chars_per_pixel */
"64 48 7 1",
/* colors */
" 	s background	c NavyBlue",
".	c white",
"X	c black",
"o	c #7A007A007A00",
"O	c #7F007F007F00",
"+	c grey",
"@	c #690069006900",
/* pixels */
"                                                                ",
"       .  .   . .   .   .                                       ",
"       .  .  ..  . .     .                                      ",
"       .  .   .  . .  .  . .........                            ",
"       .  .   .  . .  .  .         .                            ",
"       ... .   ..   .. ..        . . .                          ",
"       .                          ...                           ",
"       ..                                                       ",
"                                                                ",
"                   XXXXXXXXXXXXXXXXXXXXXXXXXXXXXXX              ",
"                    XXooO++++++.......++++++OooXX               ",
"                     XXooO++++++.....++++++OooXX                ",
"                      XXooO++++++...++++++OooXX                 ",
"                       XXooO+++++...+++++OooXX                  ",
"                        XXooO+++++.+++++OooXX                   ",
"                         XXooOOO+++++OOOooXX                    ",
"                          XXoXOOOOOOOOOXoXX                     ",
"                           XXXXOOOOOOOXXXX                      ",
"                            XXXXXXXXXXXXX                       ",
"                            XX@@++.++@@XX                       ",
"                            XX@@++.++@@XX                       ",
"                            XX@@++.++@@XX                       ",
"                            XX@@++.++@@XX                       ",
"                            XX@@++.++@@XX                       ",
"                            XX@@++.++@@XX                       ",
"                            XX@@++.++@@XX                       ",
"                            XX@@++.++@@XX                       ",
"                            XX@@++.++@@XX                       ",
"                            XX@@++.++@@XX                       ",
"                            XX@@++.++@@XX                       ",
"                            XXXXXXXXXXXXX                       ",
"                                                                ",
"                                                                ",
"                                                                ",
"                                                                ",
"                                                                ",
"   .......                            ..                   ..   ",
"     .   ..                            .                    .   ",
"     .    .                            .                    .   ",
"     .     .   ...  ... ... ..... ..   .   ...    ...    ....   ",
"     .     .  .. ..  .   .   .  .. ..  .  .. ..  ..  .  ..  .   ",
"     .     .  .   .  .   .   .  .   .  .  .   .     ..  .   .   ",
"     .     .  .   .   .  .  .   .   .  .  .   .   .. .  .   .   ",
"     .    .   .   .   ... ...   .   .  .  .   .  .   .  .   .   ",
"     .   ..   .. ..    .   .    .   .  .  .. ..  ..  .  .. ..   ",
"   .......     ...     .   .   ... ......  ...    ... .  ... .  ",
"                                                                ",
"                                                                "};
