/* XPM */
static char * fscc_input_xpm[] = {
"48 48 3 1",
" 	s LightBlue	c LightBlue",
".	s Red	c Red",
"X	s black	c black",
"                                                ",
"                                                ",
"                                                ",
"                                                ",
"                                                ",
"                                                ",
"                                                ",
"                                                ",
"                                                ",
"                                                ",
"                                                ",
"                                                ",
"                                                ",
"                                                ",
"                                                ",
"                                                ",
"                                                ",
"                                                ",
"           .....  ...    ....    ....           ",
"           .     .   .  .    .  .    .          ",
"           .     .      .       .               ",
"           ....   ...   .       .               ",
"           .         .  .       .               ",
"           .     .   .  .       .               ",
"           .     .   .  .    .  .    .          ",
"           .      ...    ....    ....           ",
"                                                ",
"                                                ",
"                                                ",
"                                            X   ",
"                                            XX  ",
"                                            XXX ",
"X   X   X   X   X   X   X   X   X   X   X   XXXX",
"X   X   X   X   X   X   X   X   X   X   X   XXXX",
"X   X   X   X   X   X   X   X   X   X   X   XXXX",
"                                            XXX ",
"                                            XX  ",
"                                            X   ",
"                                                ",
"                                                ",
"                                                ",
"                                                ",
"                                                ",
"                                                ",
"                                                ",
"                                                ",
"                                                ",
"                                                "};
