/* XPM */
static char * hl_ana_xpm[] = {
"32 32 3 1",
" 	s LightBlue	c LightBlue",
".	s Red	c Red",
"X	s black	c black",
"                                ",
"                                ",
"        .    ... ...    .       ",
"       ...    ..  .    ...      ",
"       . .    . . .    . .      ",
"       . .    . . .    . .      ",
"      .....   .  ..   .....     ",
"      .   .   .  ..   .   .     ",
"     ... ... ...  .  ... ...    ",
"                                ",
"                                ",
"                                ",
"XXXXXXXXXXXXXXXXX               ",
"                X               ",
"                X               ",
"       XXXXXXXXXXXXXXXXXXX      ",
"       X                 X      ",
"        X               X       ",
"         X             X        ",
"          X           X         ",
"           XXXXXXXXXXX          ",
"           X         X          ",
"           X         X          ",
"           X         XXXXXX     ",
"           X         X    X     ",
"           X         XXX  X     ",
"           X         X  X X     ",
"           X         X  XXX     ",
"           X         X   X      ",
"           X         X   X      ",
"           XXXXXXXXXXX   X      ",
"                         X      "};
