/* XPM */
static char * into_folder_xpm[] = {
"32 32 6 1",
" 	c black",
".	c grey50",
"X	c goldenrod",
"o	c white",
"O	c blue",
"+	c blanchedalmond",
"           .............XXXXXXXX",
" ooooooooo .OOOOOOOOOOO.XXXXXXXX",
" o   o  oo .OOOOOOOOOOO.XXXXXXXX",
" o   o  oo .OOOOOOOOOOO.XXXXXXXX",
" ooooooooo .OOOOOOOOOOO.XXXXXXXX",
" o       o ........OOOO.XXXXXXXX",
" o       o XXXXXXX.OOOO.XXXXXXXX",
" ooooooooo XXXX....OOOO....XXXXX",
" o   oo  o XXXX.OOOOOOOOOO.XXXXX",
" o   oo  o XXXXX.OOOOOOOO.XXXXXX",
" ooooooooo XXXXXX.OOOOOO.XXXXXXX",
" o     o o XXXXX +.OOOO.+ XXXXXX",
" o     o o      +++.OO.+++      ",
" ooooooooo +++++++++..+++++++++ ",
" ooooooooo ++++++++++++++++++++ ",
"           ++++++++++++++++++++ ",
"                         ++++++ ",
" +++++++++++++++++++++++ ++++++ ",
"X +++++++++++++++++++++++ +++++ ",
"X +++++++++++++++++++++++ +++++ ",
"XX +++++++++++++++++++++++ ++++ ",
"XX +++++++++++++++++++++++ ++++ ",
"XXX +++++++++++++++++++++++ +++ ",
"XXX +++++++++++++++++++++++ +++ ",
"XXXX +++++++++++++++++++++++ ++ ",
"XXXX +++++++++++++++++++++++ ++ ",
"XXXXX +++++++++++++++++++++++ + ",
"XXXXX +++++++++++++++++++++++ + ",
"XXXXXX +++++++++++++++++++++++  ",
"XXXXXX +++++++++++++++++++++++  ",
"XXXXXXX +++++++++++++++++++++++ ",
"XXXXXXX                         "};
