/* XPM */
static char * outof_folder_r_xpm[] = {
"32 32 5 1",
" 	c goldenrod",
".	c grey50",
"X	c blue",
"o	c black",
"O	c blanchedalmond",
"                          ..    ",
"                          .X.   ",
"                          .XX.  ",
"                          .XXX. ",
"                  .........XXXX.",
"                  .XXXXXXXXXXXXX",
"                  .XXXXXXXXXXXXX",
"                  .XXXX....XXXX.",
"                  .XXXX.  .XXX. ",
"                  .XXXX.  .XX.  ",
"                 o.XXXX.o .X.   ",
"                oO.XXXX.Oo..    ",
"          ooooooOO.XXXX.OOoooooo",
"          oOOOOOOO.XXXX.OOOOOOOo",
"          oOOOOOOO.XXXX.OOOOOOOo",
"          oOOOOOOO......OOOOOOOo",
"oooooooooooooooooooooooooOOOOOOo",
"oOOOOOOOOOOOOOOOOOOOOOOOoOOOOOOo",
" oOOOOOOOOOOOOOOOOOOOOOOOoOOOOOo",
" oOOOOOOOOOOOOOOOOOOOOOOOoOOOOOo",
"  oOOOOOOOOOOOOOOOOOOOOOOOoOOOOo",
"  oOOOOOOOOOOOOOOOOOOOOOOOoOOOOo",
"   oOOOOOOOOOOOOOOOOOOOOOOOoOOOo",
"   oOOOOOOOOOOOOOOOOOOOOOOOoOOOo",
"    oOOOOOOOOOOOOOOOOOOOOOOOoOOo",
"    oOOOOOOOOOOOOOOOOOOOOOOOoOOo",
"     oOOOOOOOOOOOOOOOOOOOOOOOoOo",
"     oOOOOOOOOOOOOOOOOOOOOOOOoOo",
"      oOOOOOOOOOOOOOOOOOOOOOOOoo",
"      oOOOOOOOOOOOOOOOOOOOOOOOoo",
"       oOOOOOOOOOOOOOOOOOOOOOOOo",
"       ooooooooooooooooooooooooo"};
