/* XPM */
static char * outof_folder_l_xpm[] = {
"32 32 5 1",
" 	c goldenrod",
".	c grey50",
"X	c blue",
"o	c black",
"O	c blanchedalmond",
"      ...                       ",
"     ..X.                       ",
"    ..XX.                       ",
"   ..XXX.                       ",
"  ..XXXX................        ",
" ..XXXXXXXXXXXXXXXXXXXX.        ",
" ..XXXXXXXXXXXXXXXXXXXX.        ",
"  ..XXXXXXXXXXXXXXXXXXX.        ",
"   ..XXX...........XXXX.        ",
"    ..XX.         .XXXX.        ",
"     ..X.        o.XXXX.o       ",
"      ...       oO.XXXX.Oo      ",
"          ooooooOO.XXXX.OOoooooo",
"          oOOOOOOO.XXXX.OOOOOOOo",
"          oOOOOOOO.XXXX.OOOOOOOo",
"          oOOOOOOO......OOOOOOOo",
"oooooooooooooooooooooooooOOOOOOo",
"oOOOOOOOOOOOOOOOOOOOOOOOoOOOOOOo",
" oOOOOOOOOOOOOOOOOOOOOOOOoOOOOOo",
" oOOOOOOOOOOOOOOOOOOOOOOOoOOOOOo",
"  oOOOOOOOOOOOOOOOOOOOOOOOoOOOOo",
"  oOOOOOOOOOOOOOOOOOOOOOOOoOOOOo",
"   oOOOOOOOOOOOOOOOOOOOOOOOoOOOo",
"   oOOOOOOOOOOOOOOOOOOOOOOOoOOOo",
"    oOOOOOOOOOOOOOOOOOOOOOOOoOOo",
"    oOOOOOOOOOOOOOOOOOOOOOOOoOOo",
"     oOOOOOOOOOOOOOOOOOOOOOOOoOo",
"     oOOOOOOOOOOOOOOOOOOOOOOOoOo",
"      oOOOOOOOOOOOOOOOOOOOOOOOoo",
"      oOOOOOOOOOOOOOOOOOOOOOOOoo",
"       oOOOOOOOOOOOOOOOOOOOOOOOo",
"       ooooooooooooooooooooooooo"};
