/* XPM */
static char * outof_folder_xpm[] = {
"32 32 6 1",
" 	c goldenrod",
".	c grey50",
"X	c blue",
"o	c white",
"O	c black",
"+	c blanchedalmond",
"           ...                  ",
"          ..X.    ooooooooo     ",
"         ..XX.    oooooooooooooo",
"        ..XXX.    oooooooooooooo",
"       ..XXXX.....oooooooooooooo",
"      ..XXXXXXXXXXoooooooooooooo",
"      ..XXXXXXXXXXoooooooooooooo",
"       ..XXXXXXXXXXXXXXooooooooo",
"        ..XXX......XXXX.        ",
"         ..XX.    .XXXX.        ",
"          ..X.   O.XXXX.O       ",
"           ...  O+.XXXX.+O      ",
"          OOOOOO++.XXXX.++OOOOOO",
"          O+++++++.XXXX.+++++++O",
"          O+++++++.XXXX.+++++++O",
"          O+++++++......+++++++O",
"OOOOOOOOOOOOOOOOOOOOOOOOO++++++O",
"O+++++++++++++++++++++++O++++++O",
" O+++++++++++++++++++++++O+++++O",
" O+++++++++++++++++++++++O+++++O",
"  O+++++++++++++++++++++++O++++O",
"  O+++++++++++++++++++++++O++++O",
"   O+++++++++++++++++++++++O+++O",
"   O+++++++++++++++++++++++O+++O",
"    O+++++++++++++++++++++++O++O",
"    O+++++++++++++++++++++++O++O",
"     O+++++++++++++++++++++++O+O",
"     O+++++++++++++++++++++++O+O",
"      O+++++++++++++++++++++++OO",
"      O+++++++++++++++++++++++OO",
"       O+++++++++++++++++++++++O",
"       OOOOOOOOOOOOOOOOOOOOOOOOO"};
