/* XPM */
static char * roc_btn_xpm[] = {
"50 50 9 1",
" 	s None	c None",
".	s black	c black",
"X	c #A9A9A9A9A9A9",
"o	c #555555555555",
"O	c #878787878787",
"+	c white",
"@	c blue",
"#	c grey10",
"$	s Red	c Red",
"                                                  ",
"                                                  ",
"         ......................................   ",
"        .XXXXXXXXXXXXXXXXXXXXXXXXXXXXXXXXXXXX..   ",
"       .XXXXXXXXXXXXXXXXXXXXXXXXXXXXXXXXXXXX.o.   ",
"      .XXXXXXXXXXXXXXXXXXXXXXXXXXXXXXXXXXXX.oo.   ",
"     .XXXXXXXXXXXXXXXXXXXXXXXXXXXXXXXXXXXX.ooo.   ",
"    .XXXXXXXXXXXXXXXXXXXXXXXXXXXXXXXXXXXX.oooo.   ",
"   ......................................ooooo.   ",
"   .OOOOOOOOOOOOOOOOOOOOOOOOOOOOOOOOOOOO.ooooo.   ",
"   ......................OOOOOOOOOOOOOOO.ooooo.   ",
"   ..+++.+++.+++.+++.+++.OOOOOOOOOOOOOOO.ooooo.   ",
"   ..+@+.+.+.+.+.+.+.+++.OO.........OOOO.ooooo.   ",
"   ..+++.+++.+++.+++.+++.OO.XXXXXXX.OOOO.ooooo.   ",
"   ..+@+.+.+.+.+.+.+.+++.OO.XXXXXXX.OOOO.ooooo.   ",
"   ..+++.+++.+++.+++.+++.OO.XXXXXXX.OOOO.ooooo.   ",
"   ..+@+.+++.+++.+++.+++.OO.XXXXXXX.OOOO.ooooo.   ",
"   ..+++.+++.+++.+++.+++.OO.#######.OOOO.ooooo.   ",
"   ..+++.+++.+++.+++.+++.OO.+++++++.OOOO.ooooo.   ",
"   ..+++.+++.+++.+++.+++.OO.+++++++.OOOO.ooooo.   ",
"   ..+++.+.+.+.+.+.+.+++.OO.+++++++.OOOO.ooooo.   ",
"   ..+++.+.+.+.+.+.+.+++.OO.+++++++.OOOO.ooooo.   ",
"   ..+++.+.+.+.+.+.+.+++.OO.+++++++.OOOO.ooooo.   ",
"   ..+++.+.+.+.+.+.+.+++.OO.++.++++.OOOO.ooooo.   ",
"   ..+++.+++.+++.+++.+++.OO.++..+++.OOOO.ooooo.   ",
"   ..+++.+.+.+.+.+.+.+...........++.OOOO.ooooo.   ",
"   ..+++.+.+.+.+.+.+.+............+.OOOO.ooooo.   ",
"   ..+$+.+.+.+.+.+.+.+...........++.OOOO.ooooo.   ",
"   ..+++.+.+.+.+.+.+.+++.OO.++..+++.OOOO.ooooo.   ",
"   ..+$+.+++.+++.+++.+++.OO.++.++++.OOOO.ooooo.   ",
"   ..+++.+.+.+.+.+.+.+++.OO.+++++++.OOOO.ooooo.   ",
"   ..+++.+.+.+.+.+.+.+++.OO.+++++++.OOOO.ooooo.   ",
"   ..+++.+.+.+.+.+.+.+++.OO.+++++++.OOOO.ooooo.   ",
"   ..+++.+.+.+.+.+.+.+++.OO.+++++++.OOOO.ooooo.   ",
"   ..+++.+++.+++.+++.+++.OO.+++++++.OOOO.ooooo.   ",
"   ..+.+.+.+.+.+.+.+.+++.OO.+++++++.OOOO.ooooo.   ",
"   ..+.+.+.+.+.+.+.+.+++.OO.+++++++.OOOO.ooooo.   ",
"   ..+.+.+.+.+.+.+.+.+++.OO.+++++++.OOOO.ooooo.   ",
"   ..+.+.+.+.+.+.+.+.+++.OO.........OOOO.ooooo.   ",
"   ..+++.+++.+++.+++.+++.OOOOOOOOOOOOOOO.ooooo.   ",
"   ..+++.+++.+++.+++.+++.OOOOOOOOOOOOOOO.oooo.    ",
"   ..+++.+++.+++.+++.+++.OOOOOOOOOOOOOOO.ooo.     ",
"   ..+++.+++.+++.+++.+++.OOOOOOOOOOOOOOO.oo.      ",
"   ......................OOOOOOOOOOOOOOO.o.       ",
"   .OOOOOOOOOOOOOOOOOOOOOOOOOOOOOOOOOOOO..        ",
"   ......................................         ",
"                                                  ",
"                                                  ",
"                                                  ",
"                                                  "};
