/* XPM */
static char * scratch_xpm[] = {
"50 50 8 1",
" 	s None	c None",
".	s black	c black",
"X	c white",
"o	c #555555555555",
"O	c #878787878787",
"+	c blue",
"@	c yellow",
"#	s Red	c Red",
"                                                  ",
"                                                  ",
"         ......................................   ",
"        .XXXXXXXXXXXXXXXXXXXXXXXXXXXXXXXXXXXX..   ",
"       .XXXXXXXXXXXXXXXXXXXXXXXXXXXXXXXXXXXX.o.   ",
"      .XXXXXXXXXXXXXXXXXXXXXXXXXXXXXXXXXXXX.oo.   ",
"     .XXXXXXXXXXXXXXXXXXXXXXXXXXXXXXXXXXXX.ooo.   ",
"    .XXXXXXXXXXXXXXXXXXXXXXXXXXXXXXXXXXXX.oooo.   ",
"   ......................................ooooo.   ",
"   .OOOOOOOOOOOOOOOOOOOOOOOOOOOOOOOOOOOO.ooooo.   ",
"   .OOOOOOOOOOOOOOOOOOOOOOOOOOOOOOOOOOOO.ooooo.   ",
"   .OOOOOOOOOOOOOOOOOOOOOOOOOOOOOOOOOOOO.ooooo.   ",
"   .OOOOOOOOOOOOOOOOOOOOOOOOOOOOOOOOOOOO.ooooo.   ",
"   .OOOOOOOO++++OOOOOOOOOOOOOOOOOOOOOOOO.ooooo.   ",
"   .OO@@@@@@+++++OOOOOOOOOOOOOOOOOOOOOOO.ooooo.   ",
"   .OOOOOOOO+++++####OOOOOOOOOOOOOOOOOOO.ooooo.   ",
"   .OOOOOOOO+++++OOO#OOOOOOOOOOOOOOOOOOO.ooooo.   ",
"   .OO@@@@@@+++++OOO#OOOOOOOOOOOOOOOOOOO.ooooo.   ",
"   .OOOOOOOO++++OOOO#OOOOOOOOOOOOOOOOOOO.ooooo.   ",
"   .OOOOOOOOOOOOOOOO#OOOOOOOOOOOOOOOOOOO.ooooo.   ",
"   .OOOOOOOOOOOOOOOO#OOOOOOOOOOOOOOOOOOO.ooooo.   ",
"   .OOOOOOOOOOOOOOOO#OOOOO++++OOOOOOOOOO.ooooo.   ",
"   .OOOOOOOO++++OOOO######+++++OOOOOOOOO.ooooo.   ",
"   .OO@@@@@@+++++OOO#OOOOO+++++OOOOOOOOO.ooooo.   ",
"   .OOOOoOOO+++++####OOOOO+++++......OOO.ooooo.   ",
"   .OOOOoOOO+++++OOOOO####+++++OOOOOOOOO.ooooo.   ",
"   .OO@@@@@@+++++OOOOO#OOO++++OOOOOOOOOO.ooooo.   ",
"   .OOOOoOOO++++OOOOOO#OOOOOOOOOOOOOOOOO.ooooo.   ",
"   .OOOOoOOOOOOOOOOOOO#OOOOOOOOOOOOOOOOO.ooooo.   ",
"   .OOOOoOOOOOOOOOOOOO#OOOOOOOOOOOOOOOOO.ooooo.   ",
"   .OOOOoOOO+OOOOOOOOO#OOOOOOOOOOOOOOOOO.ooooo.   ",
"   .OOOOoOOO++OOOOOOOO#OOOOOOOOOOOOOOOOO.ooooo.   ",
"   .OOOOoOOO+++OOOOOOO#OOOOOOOOOOOOOOOOO.ooooo.   ",
"   .OOOOoOOO++++OOOOOO#OOOOOOO...OOOOOOO.ooooo.   ",
"   .OO@@@@@@++++#######OOOOOO.OOO.OOOOOO.ooooo.   ",
"   .OOOOOOOO++++OOOOOOOOOOOOO.OOO.OOOOOO.ooooo.   ",
"   .OOOOOOOO+++OOOOOOOOOOOOOOOOOO.OOOOOO.ooooo.   ",
"   .OOOOOOOO++OOOOOOOOOOOOOOOOOO.OOOOOOO.ooooo.   ",
"   .OOOOOOOO+OOOOOOOOOOOOOOOOOO.OOOOOOOO.ooooo.   ",
"   .OOOOOOOOOOOOOOOOOOOOOOOOOOO.OOOOOOOO.ooooo.   ",
"   .OOOOOOOOOOOOOOOOOOOOOOOOOOOOOOOOOOOO.oooo.    ",
"   .OOOOOOOOOOOOOOOOOOOOOOOOOOO.OOOOOOOO.ooo.     ",
"   .OOOOOOOOOOOOOOOOOOOOOOOOOOOOOOOOOOOO.oo.      ",
"   .OOOOOOOOOOOOOOOOOOOOOOOOOOOOOOOOOOOO.o.       ",
"   .OOOOOOOOOOOOOOOOOOOOOOOOOOOOOOOOOOOO..        ",
"   ......................................         ",
"                                                  ",
"                                                  ",
"                                                  ",
"                                                  "};
