/* XPM */
static char * skull_xpm[] = {
"32 32 3 1",
" 	c goldenrod",
".	c blanchedalmond",
"X	c grey",
"                                ",
"            ........            ",
"          ...........           ",
"         ....X......XX          ",
"        ...X..X....X.X.         ",
"        X.....XXXX......        ",
"       XXX......X.....X.X       ",
"       XXX.   ..X..  ...XX      ",
"      XXX..   .....    .XX      ",
"      XXX. XX .. .. XX ..X      ",
"      XX..    .  X..   X.X      ",
"      XX...  ..   X.  .X..      ",
"      X.... ...   X.. .X..      ",
"       X.......   ......XX      ",
"       X..X..... ......XX       ",
"       XXXXXX........XX.        ",
"          .XXX......XXX         ",
"          ..XX.....XXX.         ",
"           .XXXXXXXXX.          ",
"           .XXXXXXXXX.          ",
"           .X.X..XXXX           ",
"           XXX.....XX           ",
"           X........X           ",
"            X.XXX..X            ",
"            X..XX.X             ",
"  X....        ..        .....  ",
"   XXXX.....         ....XXX    ",
"       XXXXX.........XXXX       ",
"          .....XX.....          ",
"     .....XXXXXXXXXXXX.....     ",
".....XXXX     XXXX   XXXXXX.....",
"XXXXXXXX                  XXXXXX"};
