/* XPM */
static char * sxpmout_xpm[] = {
"48 48 3 1",
" 	c LightBlue",
".	c Red",
"X	c black",
"                                                ",
"                                                ",
"                                                ",
"                                                ",
"                                                ",
"                                                ",
"           ......      ....      .... .         ",
"             .  ..    ..  ..    ..   ..         ",
"             .   .    .    .    .     .         ",
"             .   .   .      .  .      .         ",
"             .  ..   .      .  .                ",
"             ....    .      .  .                ",
"             .  .    .      .  .                ",
"             .   .    .    .   ..     .         ",
"             .   ..   ..  ..    ..   .          ",
"           ....   ..   ....      ....           ",
"                                                ",
"                                                ",
"    XXXXX         XXXXX         XXXXX           ",
"   X     X       X     X       X     X          ",
"  X       X     X       X     X       X         ",
" X         X   X         X   X         X        ",
" X         X   X         X   X         X        ",
" X         X   X         X   X         X        ",
" X         X   X         X   X         X        ",
" X         X   X         X   X         X        ",
"  X       X     X       X     X       X         ",
"   X     X       X     X       X     X          ",
"    XXXXX         XXXXX         XXXXX           ",
"     XX            XX            XX             ",
"     XX            XX            XX        X    ",
"     XX    XXXXXXXXXXXXXXXXXX    XX       XX    ",
"     XX            XX            XX      XX     ",
"     XX            XX            XX     XX      ",
"     XX            XX            XX    XX       ",
"    XXXXXXXXXXXXXXXXXXXXXXXXXXXXXXXXXXXXX       ",
"   XXXXXXXXXXXXXXXXXXXXXXXXXXXXXXXXXXXXX        ",
"  XX                                            ",
" XX                                             ",
"XX                                              ",
"                                                ",
"                                                ",
"                                                ",
"                                                ",
"                                                ",
"                                                ",
"                                                ",
"                                                "};
