/* XPM */
static char * trig_btn_xpm[] = {
"48 48 3 1",
" 	s LightBlue	c LightBlue",
".	s Red	c Red",
"X	s black	c black",
"                                                ",
"                                                ",
"                                                ",
"                                                ",
"                                                ",
"   .......       .                              ",
"   .  .  .       .                              ",
"   .  .  .                                      ",
"      .    . .....   ....   ....   ...  . ...   ",
"      .     ..   .  .. .   .. .   .   .  ..     ",
"      .     .    .  .   .  .   .  .....  .      ",
"      .     .    .  ..  .  ..  .  .      .      ",
"      .     .    .   ...    ...   .      .      ",
"      .     .    .   .      .     ..   . .      ",
"     ...   ...  ...  ....   ....   .... ...     ",
"                    .    . .    .               ",
"                    ..  .. ..  ..               ",
"                     ...    ...                 ",
"                                                ",
"                                                ",
"                                                ",
"                                                ",
"                      X X X                     ",
"                      X X X                     ",
"                      X X X                     ",
"                      X X X                     ",
"                      X X X                     ",
"                      X X X                     ",
"                      X X X                     ",
"                      X X X                     ",
"   XXXXXXXXXXXX   XXXXXXXXXXXX    XXXXXXXXXXXX  ",
"   XX        XX   XX        XX    XX        XX  ",
"   XX        XX   XX        XX    XX        XX  ",
"   XX        XX   XX        XX    XX        XX  ",
"   XX        XX   XX        XX    XX        XX  ",
"   XX        XX   XX        XX    XX        XX  ",
"   XX        XXXXXXX        XXXXXXXX        XX  ",
"   XX        XXXXXXX        XXXXXXXX        XX  ",
"   XX        XXXXXXX        XXXXXXXX        XX  ",
"   XX        XXXXXXX        XXXXXXXX        XX  ",
"   XX        XX   XX        XX    XX        XX  ",
"   XX        XX   XX        XX    XX        XX  ",
"   XX        XX   XX        XX    XX        XX  ",
"   XX        XX   XX        XX    XX        XX  ",
"   XX        XX   XX        XX    XX        XX  ",
"   XX        XX   XX        XX    XX        XX  ",
"   XXXXXXXXXXXX   XXXXXXXXXXXX    XXXXXXXXXXXX  ",
"                                                "};
