/* XPM */
static char *wind04[] = {
/* width height num_colors chars_per_pixel */
"    70    70       30            1",
/* colors */
". c #e8e8e8",
"# c #e6e6e6",
"a c #d8d8d8",
"b c #c3c3c3",
"c c #b9b9cf",
"d c #a6a5bc",
"e c #9894cc",
"f c #9796b2",
"g c #8b87c0",
"h c #8785a6",
"i c #7e7ab3",
"j c #7b77b5",
"k c #7672a7",
"l c #6f6ca6",
"m c #6e6c91",
"n c #626174",
"o c #615f99",
"p c #545390",
"q c #44448a",
"r c #3f3f83",
"s c #3c3c7a",
"t c #393a6a",
"u c #39394d",
"v c #37387c",
"w c #303171",
"x c #2a2b65",
"y c #282938",
"z c #212331",
"A c #202020",
"B c #1c1d29",
/* pixels */
"dcbaacdfdhhdcbkppppppppppppppppppppppppppppppppppnpoopppnpppppqqspstss",
"ccfbdccbcfkhddmmmmmmnpppponnnmmmmmmmmmmknnnnnnoppppppnpppppppppppppqsp",
"fdkmmmkdbbfffmmmmmmonnppsqmookmmmlkkiiddfmpokkmmppooopppppppppppppppqp",
"hkmpppqpdcbbdmmmmlomnonnppmllkkkkklkddccccppoopmmpooooonpppppppppppppp",
"ppppqppnmmhfdkllklloommmolkkkkiiiikkdcccfcomomooopmommmmnnnppppppppppp",
"ppnppommmmmmlooojjjjkkhkkkfccaaaddfccbbacddhcdkooommmmmmmmmnpppppppppp",
"ppppppmppmmpmmkfiiiijjgfie#abaaaagcaaifdiidachdkmmmmmmmmmmnppppppppppp",
"npmmppnppmmoigiffiiiiiiffbaaaaaabccafjjcefgcbcb#mkmmlommmmpppppppppppp",
"nnmmppmmpmhkfaegggggfiiigbaaaaaaaccbgccbcdkd#ab#bdklloooonppppnmmmmnpt",
"mmmmmmkmkhhhcbaggggdfigdcbaaaa##accbaabceemmmadaabcmmokklonpppnnnnoppp",
"mmkmmkkhfhhhheggggigkiiccba###.#aabaa#aedgimkffddccdhhhgkkmnpponpppppp",
"mpmmkkkffdmmggacggfkikhcaaaa#####aaa##adgijedfdeffffffhkkmkmmpoppppppo",
"mommmkkffhjiggcaaachkkhcaaa####a##a####bcgjjjhfddccbbbbchhmmmmnnppponn",
"mmmhkffhfficdce##abhhhdaabaaadaaaaa#a##acffcbaaaaabbbbbbhkhkomnnoppnmm",
"hmhkhhhkfhkigfgfaahhhhcaaaaaaaabcaaabcghcaaaaaaaaaaaaaaadkhhkompppponn",
"mmmmhhkmhcfkmidgcaedfhafbbbcabbbacbcgfc##a####aabbhnnnnhfpppommppnoppp",
"kmmkhkmmkccdffffbfdba#bfccfdbabbcfifc#####abmuuzyunnnnnnnnppmmppppnnnp",
"dhkkiifkdbbbbcefkdabcddhfddccdcddfc####bhuyBuhbaaaaaaaaaadppppppppmmmm",
"ddkmiiddabaaaacdbbbcdhkihiccdfida####duzAuda####aaaaaaaaabmpppppppppmm",
"ecmmihfcaaaa#aaabaaccdkhgigggda###amyAAnb#########aaabbbaadpppppppppmm",
"ccefehhffdfba##aaacdecefgggda###buBAAna######bbhnuyyzBBBzyhpppppppmnmm",
"bbeddfffhdhh#a####accceggc###amyAAAna####abnuzAynhdbbbbbbbdnpppppmnmmm",
"bdffedddcaabbca###ceeeec###bnzAAAna####bnzABnba##########aahppppmmmkkk",
"ceefeedcbaaabfca##cfdca#bmyBAAAna.##afuBAub###############acppppommkkk",
"ffggedcbacccdffdceca##duzAAABna#.#bnzAAub#########aabbbbbbbbpppppmmkhh",
"ggffdccdefeeeeeca##bnyBAAABh#..#fuBAAub..##.#abhnuyyBBBBBBBzmppmommkkm",
"ffffeddecccca###bduzAAAAyh#.#bnzAAAub.#..#afnuBBunfbbbaababbhpmokmmkmh",
"hgfgffec###abfnuuyzBBByf#.afuBAAAub....#dnyAznb#############dmpnmmmmki",
"hhhhfgekuuuzzBzyyyyzud##bnzAAAAub....bnyAAub#.##############bhppommmmk",
"fffffffdyyyyBzyuyunb.ahuBAAAAub...#bnzAAna.....#...##aaaaaaa#fppmmmmmk",
"ffffffd#nyzyyyumb##bnzAAAAAnb...ahuAAAna......#adhnuuyyyzzzyunsqmmmmmk",
"khffffd#dnnhb###bnuBAAAABna..#bnyAAAub.....abnuyAAyumfdbbbddfhkqpmmmmm",
"hgggffdb###bdhnuyzBBAABna..ahuBAAAub....#bnuBAynb##...########hppkhkkm",
"ffffffdtuuyzBBzyyyzzzna.#bnyAAAAub....afuzABnb.....###########dpmfhkdm",
"ccffffemyyyzBzyyyyuf#.afuzAAAAub....bnyBABf#...............###bkmhhhfg",
"ccffffedyzBzyyyuha.#bnyAAAAAub...#duzAABh#........##abbdfhfdfbbfmkfffd",
"fffffffduyyumb#.#bhuzAAAAAub...amyBAAAn#......#bdnnuyyyyyyyzzzynnmkkhf",
"ffggggk#...#abdnnuBAAAAAub..#bnzAAAAn#.....adnuyzyzyyyzzzBBBBBBuhhhhff",
"ffffgjkmhnuuuuyzzzBBBAub..ahuBAAAAna.....bnuzzzzzzzzzzzBBBBBAAAzhhhkhh",
"ggggeekuzzyBBBBzzzzzub.#bnyAAAAAua....#dnyBBBzzBBBBBBzBBBBBBBBABkihhhm",
"ggggggktzzBzzzzyyuha.ahuzAAAAAub....ahuzzzBBBBBzzBBBBBBBBBzBBBBBiiiihh",
"eeeeeeghzzBBzyufa.#bnyAAAAAAub...#bnuzBBBBBBBBBBBzyutpppljiijkliggiigi",
"eeeeeedcnnhdb#.#bnuzAAAAAAub...#fuyzzzBBBBBBBBytnhfiiigggggggggggggiii",
"eeeegeb###abbhnnuBBAAAAAub...bhuyzzBzBBBBBBzuskggggigegggeeeegegegggig",
"ggggggnuunuyyzzzzBBBBBub..#bnuyzzzzzzBBBBynngggggggggggggggggggeegiijj",
"ggggggnyyyyBBBzzzzBznb..ahnyzzzzzzzzzBzunligiggggigjiiiiiggigggggijiij",
"gggggghyyzBBzzzzzuf#.#bnuyyzzzzzzzzzzuslkkjkjjjiijjjijjjjjjjjjjjjjjjjj",
"gggiiihuzBBBBzufa..afnuyyyyyzzzzzBytpkllllloljjjjjjklkjllljjjjjjlijjll",
"jjiiiihnnnndb#.#abnuyyyyyyyzzzzzunpllopppoollkkjjljjjllljjjllollljllll",
"iijjkh##..##abfmnuyyyyyyyzzzzyutojjkoooooppplllkllloollloollllljlojlll",
"lljjlmnnnnnntuyyyyyyyyyyyyyyxqpllooooooooolooooooooooooooljkopljlllljl",
"lllopouuuuyyyyyyyyyyyyyyyxwploooooppopppppppppppooooopooopppoloooloooo",
"poooooxyyyyyyyyyyyyyyyuxspoppopppqppqpqqqppoooooooppooppppooooppoopooo",
"opopppxuuyzzyyyyyyyyuwqopqqppqpqqqppqpoqqqpqpqqppppppqqqpppppqqqpqpooo",
"qppqqqwuyyyyyyyyxxxspqqrqqqppqpoqqrrrrqqqqpqrppqqqqqqqqqrrrrrqppqppqrq",
"rrrrqqwtyyyuxxwwtvqqqqpqqrrrrrrqqqrrrvqqsqrrprqqrppqqpqqrrrqqqrrqqqppq",
"rrrrrrrrrrqpqqvqqqqrqvwrqqqrrrvqqvsrqqsrrrvqrqqqprqqrrrsrrrssssqrqqqqp",
"rrqrrrqrrrqrsrqrsrqrrpqswwsssqsssqrsqrvrrqqrqqrqqqqrvqrswvvsqwvqrqrqqq",
"sssvsssvsssrsvvvqqssrwvrqqswssswqrvvrvrrqqrvrvssrrqvvqrswtssvvwwssrrqq",
"swsrswsrswssrrrqswwrssrrwwwwwwwsswsrvrrrrrrrrrrrsrwwswsstvwssrrrvrqrvv",
"vsssssssvsssrrswssrrsxxxssswxxtwsssqrvwwsrvsrrswwvvsxxttwwwwwsswvvrrqq",
"wswsvswssstswwssrsssvtttxxwttsswtttxwwvrrwtxvwsswtttxtwsstxxwwwwvwwvrs",
"wxtvsswwwwvssrwwwwwsssswtxtttxxxxxxtwtwxxxxtwtxxtxwxtxxxxwttwxxwswxwxw",
"wwswwwwwrsrrwxwtttwwwwxwwxxxtswssstwsswttsttxxttwxxwwxwwwxwwwswwxwwwss",
"swtswwwwwxwxssswxxtwssssswxtxxwxxxxtxxtxwxxwxtwsstxxwwwwwwwwwwwwsssvxw",
"wsswswwwwwwxxxwttwwwwttxxwsstwxtxxwxxxxxwxttwwxxxxwtxxxxwwxwxxxxxxwxww",
"xxtsswswwwwwxxwwtwwwwwwwwwwxxwsstwxtxxxxxtwwxtxwwxwwxxwwwwwwssxwwxwssx",
"xxxtxsswswxxxxxwxxxtwwtwwxxtwttxxwtwwwwwtxxwxwtxxxxxxwwxwtwwwwwwwsvwww",
"tttxxwxtswswwwxxwwwwwwwwwtttxxxtwttxxxxxxxxxxwwxxtxxxxxxwwwwwwwwwwwwww",
"xxxttxxwxtswswwxxwwwwwwxwxxtwsttxxxxxxwxxxxxwxxxwxxxxtwwwxxxxwwwxxxxww"
};
