/* XPM */
static char *g_wind19[] = {
/* width height num_colors chars_per_pixel */
"    70    70       30            1",
/* colors */
". c #e8e8e8",
"# c #e6e6e6",
"a c #d8d8d8",
"b c #c3c3c3",
"c c #bcbcbc",
"d c #a8a8a8",
"e c #9e9e9e",
"f c #9a9a9a",
"g c #919191",
"h c #8a8a8a",
"i c #848484",
"j c #828282",
"k c #7b7b7b",
"l c #767676",
"m c #727272",
"n c #646464",
"o c #686868",
"p c #5c5c5c",
"q c #4e4e4e",
"r c #494949",
"s c #454545",
"t c #414141",
"u c #3c3c3c",
"v c #424242",
"w c #3a3a3a",
"x c #333333",
"y c #2b2b2b",
"z c #242424",
"A c #202020",
"B c #1e1e1e",
/* pixels */
"kkkkkkkkkkkkkkkkkkkkkkkkkkkklooooollolllllllllllommmmmmmmmpppppppppppp",
"kkkkkkkkkkkkkkkkkkkkkkjjjjjjkllllkkkkllllllllllllpppommmmppppppppppppp",
"kkkkkkkkkkkkkkjjjjjjjjjkkjjjkkkkkkkkkllllllllllllopppppppppppppppppppp",
"kkkkkkkkkkkkkjjjjjjjjjjjjjjkkkkjkkjklllllllllllllopppppppppppppppppppp",
"kkkkkkkkjjjjjiiiiiiiiiiiiijkkjkkkkkkkkllllooolklloppppppppoommmmmmmmoo",
"kkkkkkkkjiiiiiiiiiiiiiiiiiikkkkkklllkklmoooollllllopppppppppmmmmmmmmmo",
"kkkkkkkjiiiiiiiiiiiiiiiiiiiijkkjklloomllllmllkkijlmoooooooopommmmmmmmm",
"kkkkkjjiiiiiiiiiiiiiiiiiiiiijjjjjjklllkkllikkkjlkillllklooooooommmmmpp",
"jkkkjjiiggggiiiiiiiiiiiiiiijjjjjjjjjkkkkkklmllookkmoolllloooooommmmmpp",
"kkljkjggggggggiiiiiiiiiiiijjjjjjjjjjjjjjjjkkloldcbdciojjlllloooooommpo",
"ddfddcbcgggggggiiiiiiiiiijjjjjjjjkjjjjjjjkklmkbaaaabdcbabkkkkkklloooom",
"fddccbaabgggggggiiiiiiiiiijjjjjjjjjjjjjjkohfibbcbbbbabbfbcggijjjklkkll",
"ddcbbbbaaagagggggggggggggggiijjjjjjjjjjjibcbacfddccbbbbcfdiiijjkkkkkkj",
"ddcbbbbbaaaabdggggggggggggggggijjjjjjjjjfddcbaaaaaaaaaabfbabgggijjkkkk",
"dccbcbbaaaaabcgggggggggggggggggijjjkigihcaaaaaaaaaaaaaaadabadeegggijkj",
"dccccaaaaaaabgggggggggggggggggggikkjifc##a####aabbhnnnnhfbacbeeeeeggii",
"ddddbcfabccbcgggggggggggggggggggikjfc#####abmuuzyuunnnnnndbacaaeeeecgg",
"dcdfiiffdccceeeggggggggggggggggiihc####bhuyBuhbaaaaaaaaaadabbaaaceeeee",
"effggfggfeeeeeeeeeggeeggggggggida####duzAuda####aaaaaaaaabbccbaaaeeeee",
"egfffggfeeeeeeeeeeeeeggggggggda###amyAAnb#########aaabbbaacccccaaaeeee",
"efgfggfeeeeeeeeeeeeeegggggfda###buBAAna######bbhnuyyzBBBzyfaabbaaaeeee",
"eeeeefeeeeeeeeeeeeeeeegggc###amyAAAna####abnuzAynhdbbbbbbbdaaababbbceg",
"eeeeeeeeeeeeeeeeeeeeeeec###bnzAAAna####bnzABnba##########aabccccccceeg",
"eeeeeeeeeeeeeeeeeeffdca#bmyBAAAna.##afuBAub###############acabcaacccef",
"eeeeeeeeeeeeeeeeegca##duzAAABna#.#bnzAAub#########aabbbbbbbbcbcdefeeee",
"eeeeeeeeeeeeeeeca##bnyBAAABh#..#fuBAAub..##.#abhnuyyBBBBBBBzdcdeeeeeee",
"eeeeeeeecccca###bduzAAAAyh#.#bnzAAAub.#..#afnuBBunfbbbaababbfccccceeee",
"eeefeeec###abfnuuyzBBByf#.afuBAAAub....#dnyAznb#############dbaabbbdee",
"eeefeeekuuuzzBzyyyyzud##bnzAAAAub....bnyAAub#.##############bdbcccbbde",
"cdeeeeedyyyyBzyuyunb.ahuBAAAAub...#bnzAAna.....#...##aaaaaaa#fdccdebbd",
"aaeeeed#nyzyyyumb##bnzAAAAAnb...ahuAAAna......#adhnuuyyyzzzyundccccedf",
"aa#abdd#dnnhb###bnuBAAAABna..#bnyAAAub.....abnuyAAyumfdbbbddfhdddcdddd",
"##aaaaab###bdhnuyzBBAABna..ahuBAAAub....#bnuBAynb##...########heeeedde",
"bdabaaatuuyzBBzyyyzzzna.#bnyAAAAub....afuzABnb.....###########dggeeegg",
"dcccaaamyyyzBzyyyyuf#.afuzAAAAub....bnyBABf#...............###bfiiigee",
"dccdccbdyzBzyyyuha.#bnyAAAAAub...#duzAABh#........##abbdfhfdfbbfijjijk",
"dfggededuyyumb#.#bhuzAAAAAub...amyBAAAn#......#bdnnuyyyyyyyzzzyniiiiii",
"ddeeeed#...#abdnnuBAAAAAub..#bnzAAAAn#.....adnuyzyzyyyzzzBBBBBBuiiiiii",
"gggeegdmhnuuuuyzzzBBBAub..ahuBAAAAna.....bnuzzzzzzzzzzzBBBBBAAAzfiiiii",
"gggeeefuzzyBBBBzzzzzub.#bnyAAAAAua....#dnyBBBzzBBBBBBzBBBBBBBBABgiiigi",
"ggggggetzzBzzzzyyuha.ahuzAAAAAub....ahuzzzBBBBBzzBBBBBBBBBzBBBBBggiiii",
"gggeeeehzzBBzyufa.#bnyAAAAAAub...#bnuzBBBBBBBBBBBzyutpggiiggggggggiigi",
"eeeeeedcnnhdb#.#bnuzAAAAAAub...#fuyzzzBBBBBBBBytmkikgggggggggggggggiii",
"eeeegeb###abbhnnuBBAAAAAub...bhuyzzBzBBBBBBzumkjlglggeggggggggggggggig",
"ggggggnuunuyyzzzzBBBBBub..#bnuyzzzzzzBBBBynmkiiiiiiggggggggggggeegiijj",
"ggggggnyyyyBBBzzzzBznb..ahnyzzzzzzzzzBzunligiggggigjiiiiiggigggggijiij",
"gggggghyyzBBzzzzzuf#.#bnuyyzzzzzzzzzzunlkkjkjjjiijjjijjjjjjjjjjjjjjjjj",
"gggiiihuzBBBBzufa..afnuyyyyyzzzzzBytpkllllloljjjjjjklkjllljjjjjjlijjll",
"jjiiiihnnnndb#.#abnuyyyyyyyzzzzzunmllopppoollkkjjljjjllljjjllollljllll",
"iijjkh##..##abfmnuyyyyyyyzzzzyupmljkoooooppplllkllloollloollllljlojkll",
"lljjlmnnnnnntuyyyyyyyyyyyyyyqmoollllloooooloooooppppppppppooqqqpploppp",
"qqoopouuuuyyyyyyyyyyyyyyyqpppppppppppppppoooooopppqqqqppppqqqqqqqsqpqq",
"qqoooowyyyyyyyyyyyyyyyuqpqqqqqqqqqppppppppppppppppppqqqqqqqqqqqqqqppqp",
"qqqpppwuuyzzyyyyyyyyuqpqrssssrrsrrrqqppqqqqqqqqqqqqqqqqqpppppqppppppsq",
"qpqqqqwuyyyyyyyyyqqqqpqrqqsrssssrsrrrrqqqqqqrqqqqqqqqqppppqsttsstssrss",
"rrrrqqwtyyyuwwwwoqqqqqprtvsssvrrssrssssssrrrqrqqrppqqpqqrrqqqqrqqqqqqs",
"rrrrrrrrrrqpqqvqqqqrqvwrssrssrssrssrqqsrrswrrqqrqrqrrrrsrrqrsssqrqqqqp",
"rrqrrrqrrrqqsrqrsrqrrpqssrpqsqsssqrsqrsrrqqrrqrqsrsrvqrswssrsvrqrqrqqq",
"sssvsssvsssrrrvvqqssrwvqqrtvsssvrrrsrsrrqqrvrvssrrqvvqrswtssvswsstvwsr",
"swsrswsrswssrrrqswwrssrssrssrsvrssrssrssrsvsvssrvrwwswsstvwssrrrsrqrvv",
"vsssssssvsssrrswssrssvwwssswxtsssvwwssswxtswxssqrvssxxttwwwwwsswvvrrqq",
"wswsvswssstswwssrsssvwsswwwtwsssvwsswwwtwsssttwxttsswtwsstxxwwwwvwwvrs",
"wxtvsswwwwvssrwwwwwsssswtwtwxtwsssswtwtwxtwssssswxwxtxxxxwttwxxwswxwxw",
"wwswwwwwrsrrwxwtttwwwwxwwxxxtswwwwxwwxxxtswwwwwxwwxwwwxwwwxxwswwxwwwss",
"swtswwwwwxwxwttwxxtwssssswxtxxwwssssswxtxxwxxxxtxxwwxwwwwwwwwwwwsssvxw",
"wsswswwwwwwxxxwwwwwwwwtwwwsttwxwwwtwwwsttwxxwwwxxxwtxxxwwxxxxxxxxxwxww",
"xxtsswswwwtwwxwwwwwwwxwxwwwwwwswwxwxwwwwwwswwwxwwxwwxxxwwxwwwwxwwwwssx",
"xxxtxsswswwxwwwxwwwwwxxwwxxwxttwwxxwwxxwxttxxwtwxxxxwxxxwwwwwxxxwwwwww",
"tttxxwxtswswwwxxwxwxwwwwwtttxxxxwwwwwtttxxxtwttxxtxxxxxwxwxwwwwwxxxxww",
"xxxttxxwxtswswwxxwwwwwwxwxxtwstwwwwxwxxtwsttxxxxxxxxxtwwwxxxxwwwxxxxww"
};
