/* XPM */
static char *wind17[] = {
/* width height num_colors chars_per_pixel */
"    70    70       30            1",
/* colors */
". c #e8e8e8",
"# c #e6e6e6",
"a c #d8d8d8",
"b c #c3c3c3",
"c c #b9b9cf",
"d c #a6a5bc",
"e c #9894cc",
"f c #9796b2",
"g c #8b87c0",
"h c #8785a6",
"i c #7e7ab3",
"j c #7b77b5",
"k c #7672a7",
"l c #6f6ca6",
"m c #6e6c91",
"n c #626174",
"o c #615f99",
"p c #545390",
"q c #44448a",
"r c #3f3f83",
"s c #3c3c7a",
"t c #393a6a",
"u c #39394d",
"v c #37387c",
"w c #303171",
"x c #2a2b65",
"y c #282938",
"z c #212331",
"A c #202020",
"B c #1c1d29",
/* pixels */
"pppppppppppppppooooooooooooooooooollolllllllloooopoooopppppppppppoofhf",
"pppppppppppopppoooooookllllllllllkkkklllmlloooppppppppopppppppppppodcc",
"ppppppppoolllllooklllkloollkkkkkkkkkklllkfaabkloooppppppppppppppoppdaa",
"pppppppolkkkkkkkkkklkkkkkkkkkkkkkkjjjkkkkkcaacilopppppppppppppppppicaa",
"pppppoollkkkjjkkkkkkkjjkkkkkkkkklkkkkkjfcdbbcbfooopmplopppooooooofaboh",
"ooolllkkkkjjjkkkkkkkifdfikokkhoiihhkkkicbabbcbaccoppllloooooooooolfooo",
"oolkkkjjkkkjiiiikfdcdbbbbfkkhcbfflddikjdbacddcccckollkkloooooooooooooo",
"kkkkkjiiiiiiikjkidcccbbbbbcddaaaccabdikfddccccbaaphkkjklooooooooooooop",
"kkkkkkkjjjjjjjjjiccccdcbbbcccbaabbccbcdccbcccdacbdfikijloooooooooooooo",
"kkkhiiiikkkkkkkjiifkhfddbabbbbbaaabbaaabcabeeedeffggfggillooollloooooo",
"hhfffiiiijkkjjjjkkkkklhcccbaabbaaaaaaaaaabcceeggefggggggijkkkkjjkkkkkl",
"ffdddfijjjkkkkjkkkkloolcccbbccbaaaaaaaaaaaabbcddfggfijjiigggijkkkjjjjk",
"ffabacggijkjkjjkkkkklllccbbacdcbaaaaaaaaaaabbcfddccbbbbcjggggggiiijjkk",
"dbababbfggijkkkjkkkkkloofcabdddbaaaaabbabcdcbaaaaaaaaaabiggggggggggggg",
"abbaabbfffiijkklllolokldcdddddcaaaaaadifcaaaaaaaaaaaaaaadfeeeeeefefeef",
"abaaabdffffggggiiillokccdddddcbaaaadffc##a####aabbhnnnnhfgeeeeeeeeeeee",
"aceccdfgfggggfeeeeggiicccccccbbaaadfc#####abmuuzyuunnnnnnkeeeeeeeeeeee",
"gfggggggggggggggggggggifccdccbbbbdc####bhuyBuhbaaaaaaaaaadeeeeeeeeeeee",
"eggggfgggfggggggggggggigfdigdggda####duzAuda####aaaaaaaaabeeeeeeeeeeee",
"egfffggffffggeeeeggggiiiiiiggda###amyAAnb#########aaabbbaabeeeeeeeeegg",
"efgfggfegggggggggggggiiiigfda###buBAAna######bbhnuyyzBBBzyheeefeeeeeeg",
"eeeeefeeeeeeeeeeeeeegiigec###amyAAAna####abnuzAynhdbbbbbbbdceeeeeeeeeg",
"eeeeeeeeeeeeeeeeeeeegedc###bnzAAAna####bnzABnba##########aaceeeeeeeeeg",
"eeeeeeeeeeeeeeeeegffdca#bmyBAAAna.##afuBAub###############aceeeeeeeeef",
"eeeeeeeeeeeeeeggggca##duzAAABna#.#bnzAAub#########aabbbbbbbbeeeeeeeeee",
"eeeefeeeeggggiica##bnyBAAABh#..#fuBAAub..##.#abhnuyyBBBBBBBzhefeeeeeee",
"eeeeeffgcccca###bduzAAAAyh#.#bnzAAAub.#..#afnuBBunfbbbaababbheeeeeeeee",
"eeefeffc###abfnuuyzBBByf#.afuBAAAub....#dnyAznb#############deeeeeeeee",
"eeefeffkuuuzzBzyyyyzud##bnzAAAAub....bnyAAub#.##############bdeeeeeeee",
"eeeeeefdyyyyBzyuyunb.ahuBAAAAub...#bnzAAna.....#...##aaaaaaa#feeeeeeee",
"eeeeeed#nyzyyyumb##bnzAAAAAnb...ahuAAAna......#adhnuuyyyzzzyuneeeeeeef",
"bdeeeed#dnnhb###bnuBAAAABna..#bnyAAAub.....abnuyAAyumfdbbbddfhfeeeeeee",
"aabdeecb###bdhnuyzBBAABna..ahuBAAAub....#bnuBAynb##...########heeeeeeg",
"aaaacectuuyzBBzyyyzzzna.#bnyAAAAub....afuzABnb.....###########dggeeegg",
"abaacedmyyyzBzyyyyuf#.afuzAAAAub....bnyBABf#...............###bfiiigee",
"bcadeeddyzBzyyyuha.#bnyAAAAAub...#duzAABh#........##abbdfhfdfbbfijjijk",
"ddeeeedduyyumb#.#bhuzAAAAAub...amyBAAAn#......#bdnnuyyyyyyyzzzyniiiiii",
"ddeeeed#...#abdnnuBAAAAAub..#bnzAAAAn#.....adnuyzyzyyyzzzBBBBBBuiiiiii",
"gggeegdmhnuuuuyzzzBBBAub..ahuBAAAAna.....bnuzzzzzzzzzzzBBBBBAAAzfiiiii",
"gggeeefuzzyBBBBzzzzzub.#bnyAAAAAua....#dnyBBBzzBBBBBBzBBBBBBBBABgiiigi",
"ggggggetzzBzzzzyyuha.ahuzAAAAAub....ahuzzzBBBBBzzBBBBBBBBBzBBBBBggiiii",
"gggeeeehzzBBzyufa.#bnyAAAAAAub...#bnuzBBBBBBBBBBBzyutpggiiggggggggiigi",
"eeeeeedcnnhdb#.#bnuzAAAAAAub...#fuyzzzBBBBBBBBytmkikgggggggggggggggiii",
"eeeegeb###abbhnnuBBAAAAAub...bhuyzzBzBBBBBBzumkjlglggeggggggggggggggig",
"ggggggnuunuyyzzzzBBBBBub..#bnuyzzzzzzBBBBynmkiiiiiiggggggggggggeegiijj",
"ggggggnyyyyBBBzzzzBznb..ahnyzzzzzzzzzBzunligiggggigjiiiiiggigggggijiij",
"gggggghyyzBBzzzzzuf#.#bnuyyzzzzzzzzzzunlkkjkjjjiijjjijjjjjjjjjjjjjjjjj",
"gggiiihuzBBBBzufa..afnuyyyyyzzzzzBytpkllllloljjjjjjklkjllljjjjjjlijjll",
"jjiiiihnnnndb#.#abnuyyyyyyyzzzzzunmllopppoollkkjjljjjllljjjllollljllll",
"iijjkh##..##abfmnuyyyyyyyzzzzyupmljkoooooppplllkllloollloollllljlojkll",
"lljjlmnnnnnntuyyyyyyyyyyyyyyqmoollllloooooloooooppppppppppooqqqpploppp",
"qqoopouuuuyyyyyyyyyyyyyyyqpppppppppppppppoooooopppqqqqppppqqqqqqqsqpqq",
"qqoooowyyyyyyyyyyyyyyyuqpqqqqqqqqqppppppppppppppppppqqqqqqqqqqqqqqppqp",
"qqqpppwuuyzzyyyyyyyyuqpqrssssrrsrrrqqppqqqqqqqqqqqqqqqqqpppppqppppppsq",
"qpqqqqwuyyyyyyyyyqqqqpqrqqsrssssrsrrrrqqqqqqrqqqqqqqqqppppqsttsstssrss",
"rrrrqqwtyyyuwwwwoqqqqqprtvsssvrrssrssssssrrrqrqqrppqqpqqrrqqqqrqqqqqqs",
"rrrrrrrrrrqpqqvqqqqrqvwrssrssrssrssrqqsrrswrrqqrqrqrrrrsrrqrsssqrqqqqp",
"rrqrrrqrrrqqsrqrsrqrrpqssrpqsqsssqrsqrsrrqqrrqrqsrsrvqrswssrsvrqrqrqqq",
"sssvsssvsssrrrvvqqssrwvqqrtvsssvrrrsrsrrqqrvrvssrrqvvqrswtssvswsstvwsr",
"swsrswsrswssrrrqswwrssrssrssrsvrssrssrssrsvsvssrvrwwswsstvwssrrrsrqrvv",
"vsssssssvsssrrswssrssvwwssswxtsssvwwssswxtswxssqrvssxxttwwwwwsswvvrrqq",
"wswsvswssstswwssrsssvwsswwwtwsssvwsswwwtwsssttwxttsswtwsstxxwwwwvwwvrs",
"wxtvsswwwwvssrwwwwwsssswtwtwxtwsssswtwtwxtwssssswxwxtxxxxwttwxxwswxwxw",
"wwswwwwwrsrrwxwtttwwwwxwwxxxtswwwwxwwxxxtswwwwwxwwxwwwxwwwxxwswwxwwwss",
"swtswwwwwxwxwttwxxtwssssswxtxxwwssssswxtxxwxxxxtxxwwxwwwwwwwwwwwsssvxw",
"wsswswwwwwwxxxwwwwwwwwtwwwsttwxwwwtwwwsttwxxwwwxxxwtxxxwwxxxxxxxxxwxww",
"xxtsswswwwtwwxwwwwwwwxwxwwwwwwswwxwxwwwwwwswwwxwwxwwxxxwwxwwwwxwwwwssx",
"xxxtxsswswwxwwwxwwwwwxxwwxxwxttwwxxwwxxwxttxxwtwxxxxwxxxwwwwwxxxwwwwww",
"tttxxwxtswswwwxxwxwxwwwwwtttxxxxwwwwwtttxxxtwttxxtxxxxxwxwxwwwwwxxxxww",
"xxxttxxwxtswswwxxwwwwwwxwxxtwstwwwwxwxxtwsttxxxxxxxxxtwwwxxxxwwwxxxxww"
};
