/* XPM */
static char * Button5_xpm[] = {
"97 72 21 1",
" 	c #186118611861",
".	c #28A228A228A2",
"X	c #104010401040",
"o	c #38E338E338E3",
"O	c #492449244924",
"+	c #410341034103",
"@	c #30C230C230C2",
"#	c #082008200820",
"$	c #000000000000",
"%	c #69A669A669A6",
"&	c #AEBAAAAAAEBA",
"*	c #C71BC30BC71B",
"=	c #514451445144",
"-	c #208120812081",
";	c #618561856185",
":	c #596559655965",
">	c #71C671C671C6",
",	c #79E779E779E7",
"<	c #8E388A288E38",
"1	c #861782078617",
"2	c #965892489658",
"                                                                                                 ",
" ..............................................................................XoOO+@ #$$$$$$$%&*",
" .%%%%%%%%%%%%%%%%%%%%%%%%%%%%%%%%%%%%%%%%%%%%%%%%%%%%%%%%%%%%%%%%%%%%%%%%%%%%%=+@@.- X#XXXXXX%&&",
" .%Oo@@@@@@@@@@@@@@..................................oooooooooo+++++++oo....@;O@.-   X# ------%&*",
" .%----------------                                  ..........@@@@@@@......;+.- XXX##X-@o----%&*",
" .%----------------                                  -.........@@@@@@@.....:O. X###### .+Oo---%&*",
" .%----------------                                  -.........@@@@@@@....@=o-X######X @O::---%&*",
" .%-----------------                                 -.........@@@@@@@....O+. #######X @=;;o--%&*",
" .%-----------------                                 -.........@@@@@@@@...Oo-X#######X-o:>>:--%&*",
" .%-----------------                                 -..........@@@@@@@...+@ X#######X.+%,,;--%&*",
" .%-----------------                                 -..........@@@@@@@...o. X######X @=><1%--%&*",
" .%-----------------                                 -..........@@@@@@@...@. X#####X .O%1<1:--%&*",
" .%------------------                                --.........@@@@@@@....-X#XXXXX .+;,<2,+--%&*",
" .%------------------                                --.........@@@@@@@.... #X   -.@O;,<2<>.--%&*",
" .%------------------                                --.........@@@@@@@....X -.@@o+=%,<221=---%&*",
" .2------------------                                --.........@@@@@@@@....-@+O=:;>1<221%----%&*",
" .<------------------                                --..........@@@@@@@.....oO:;>,1<2<1%.----%&*",
" .>-------------------                               --..........@@@@@@@......+:;>,11,>=------%&*",
" .%-------------------                               --..........@@@@@@@........+:;%:+.-------%&*",
" .%-------------------                              --..........@@@@@@@..........-------------%&*",
" .%-------------------                              ---.........@@@@@@@..........------------.%&*",
" .%-------------------                              ---.........@@@@@@@... ....XX..X...XX.....%&*",
" .%-------------------                              -.........@@@@@@@.... ....................%&*",
" .%-------------------                              -.........@@@@@@@@........................%&*",
" .%-------------------                              -..........@@@@@@@........................%&*",
" .%-------------------                              -..........@@@@@@@..... ..................%&*",
" .%-------------------                              -..........@@@@@@@........................%&*",
" .%-----------------                                --.........@@@@@@@........................%&*",
" .%-----------------                                --.........@@@@@@@........................%&*",
" .%----------------                                  -.........@@@@@@@........................%&*",
" .%----------------                                  -.........@@@@@@@........................%&*",
" .%-----------------                                 -.........@@@@@@@........................%&*",
" .%-----------------                                 -.........@@@@@@@@.......................%&*",
" .%---------------                                 -.........@@@@@@@..........................%&*",
" .;---------------                                 -.........@@@@@@@@.........................%&*",
" .%---------------                                 -..........@@@@@@@.........................%&*",
" .%---------------                                 -..........@@@@@@@.........................%&*",
" .%---------------                                 -..........@@@@@@@.........................%&*",
" .%----------------                                --.........@@@@@@@.........................%&*",
" .2----------------                                --.........@@@@@@@.........................%&*",
" .<---------------                                 -.........@@@@@@@..........................%&*",
" .>---------------                                 -.........@@@@@@@@.........................%&*",
" .%---------------                                 -..........@@@@@@@.........................%&*",
" .%---------------                                 -..........@@@@@@@..@......................%&*",
" .%----------------                                 -.........@@@@@@@.........................%&*",
" .%----------------                                 -.........@@@@@@@@........................%&*",
" .%----------------                                 -..........@@@@@@@........................%&*",
" .%----------------                                 -..........@@@@@@@........................%&*",
" .%----------------                                 -..........@@@@@@@........................%&*",
" .%-----------------                                --.........@@@@@@@........................%&*",
" .%-----------------                                --.........@@@@@@@........................%&*",
" .%----------------                                 -..........@@@@@@@........................%&*",
" .%----------------                                 -..........@@@@@@@........................%&*",
" .%-----------------                                --.........@@@@@@@........................%&*",
" .%-----------------                                --.........@@@@@@@........................%&*",
" .%----------------                                  -.........@@@@@@@........................%&*",
" .%-----------------                                 -.........@@@@@@@........................%&*",
" .%-----------------                                 -.........@@@@@@@@.......................%&*",
" .;-----------------                                 -..........@@@@@@@.......................%&*",
" .%-----------------                                 -..........@@@@@@@.......................%&*",
" .%-----------------                                 -..........@@@@@@@.......................%&*",
" .%------------------                                --.........@@@@@@@.......................%&*",
" .%------------------                                --.........@@@@@@@.......................%&*",
" .%------------------                                --.........@@@@@@@.......................%&*",
" .%------------------                                --.........@@@@@@@@......................%&*",
" .%------------------                                --..........@@@@@@@......................%&*",
" .%-------------------                               --..........@@@@@@@......................%&*",
" .%-------------------                               --..........@@@@@@@......................%&*",
" ..-------------------                               ---.........@@@@@@@......................%&*",
" ..%%%%%%%%%%%%%%%%%%%%%%%%%%%%%%%%%%%%%%%%%%%%%%%%%%%%%%%%%%%%%%%%%%%%%%%%%%%%%%%%%%%%%%%%%%%%&*",
" ..&&&&&&&&&&&&&&&&&&&&&&&&&&&&&&&&&&&&&&&&&&&&&&&&&&&&&&&&&&&&&&&&&&&&&&&&&&&&&&&&&&&&&&&&&&&&&*",
" ************************************************************************************************"};
