/* XPM */
static char *magick[] = {
/* columns rows colors chars-per-pixel */
"97 24 24 1",
"   c black",
".  c gray3",
"X  c #104010401040",
"o  c #208120812081",
"O  c #410341034103",
"+  c #861782078617",
"@  c DimGray",
"#  c gray22",
"$  c #492449244924",
"%  c gray19",
"&  c #186118611861",
"*  c #79e779e779e7",
"=  c #514451445144",
"-  c #28a228a228a2",
";  c #9e799a699e79",
":  c gray38",
">  c #aebaaaaaaeba",
",  c gray35",
"<  c #71c671c671c6",
"1  c #8e388a288e38",
"2  c #965892489658",
"3  c #b6dab2cab6da",
"4  c #befbbaeabefb",
"5  c #c71bc30bc71b",
/* pixels */
"                                                     .........XXXXXXX...........              oO+",
"                                                     .........................                oo@",
"                                                     ......................... X#$$O%&.       o%*",
"    .XXXXXXX.........................................&&&&&&&&&&ooooooo&&&&&&&&$=O%%-o&X.XXXXXXo=;",
"   oooooooooooooooo&&&&&&&&&&&&&&&&&&&&&&&&&&&&&&&&&&----------%%%%%%%------%:$%-o&&&X.&oooooo%:>",
"   oooooooooooooooo&&&&&&&&&&&&&&&&&&&&&&&&&&&&&&&&&&o---------%%%%%%%------:O-o&XXX..Xo%#oooo%@>",
"   oooooooooooooooo&&&&&&&&&&&&&&&&&&&&&&&&&&&&&&&&&&o---------%%%%%%%-----,$-&X......&-O$#ooo#@>",
"   ooooooooooooooooo&&&&&&&&&&&&&&&&&&&&&&&&&&&&&&&&&o---------%%%%%%%----%=#oX......X&%$,,ooo#@>",
"   ooooooooooooooooo&&&&&&&&&&&&&&&&&&&&&&&&&&&&&&&&&o---------%%%%%%%%---$O-&.......X&%=::#oo#@>",
"   ooooooooooooooooo&&&&&&&&&&&&&&&&&&&&&&&&&&&&&&&&&o----------%%%%%%%---$#oX.......Xo#,<<,oo#@>",
"   ooooooooooooooooo&&&&&&&&&&&&&&&&&&&&&&&&&&&&&&&&&o----------%%%%%%%---O%&X.......X-O@**:oo#@>",
"   ooooooooooooooooo&&&&&&&&&&&&&&&&&&&&&&&&&&&&&&&&&o----------%%%%%%%---#-&X......X&%=<1+@oo#@>",
"   oooooooooooooooooo&&&&&&&&&&&&&&&&&&&&&&&&&&&&&&&&oo---------%%%%%%%---%-&X.....X&-$@+1+,oo#@>",
"   oooooooooooooooooo&&&&&&&&&&&&&&&&&&&&&&&&&&&&&&&&oo---------%%%%%%%----oX.XXXXX&-O:*12*Ooo#@>",
"   oooooooooooooooooo&&&&&&&&&&&&&&&&&&&&&&&&&&&&&&&&oo---------%%%%%%%----&.X&&&o-%$:*121<-oo#@>",
"   oooooooooooooooooo&&&&&&&&&&&&&&&&&&&&&&&&&&&&&&&&oo---------%%%%%%%%---X&o-%%#O=@*122+=ooo#@>",
"   oooooooooooooooooo&&&&&&&&&&&&&&&&&&&&&&&&&&&&&&&&oo----------%%%%%%%----o%O$=,:<+122+@oooo#@>",
"   ooooooooooooooooooo&&&&&&&&&&&&&&&&&&&&&&&&&&&&&&&oo----------%%%%%%%-----#$,:<*+121+@-oooo#@>",
"   ooooooooooooooooooo&&&&&&&&&&&&&&&&&&&&&&&&&&&&&&&oo----------%%%%%%%------O,:<*++*<=oooooo#@>",
"   ooooooooooooooooooo&&&&&&&&&&&&&&&&&&&&&&&&&&&&&&&ooo---------%%%%%%%--------O,:@,O-ooooooo#@>",
"   ooooooooooooooooooo&&&&&&&&&&&&&&&&&&&&&&&&&&&&&&&ooo---------%%%%%%%---------ooooooooooooo#@>",
"-oo-%%%%%%%%%%%%%%%%%%%%%%%%%%%%%%%%%%%%%%%%%%%%%%%%%##########OOOOOOOOOOOO########%%%%%%%%%##$<3",
"oooO===================$$$$$$$$$$$$$$$$$$$$$$$$$$$$$$===,,,,,,,,,::::::::,,,,,,,,=============:14",
"ooo=::@@:::::::::::::::::::::::::::::::::::::::::::::@@@@@@@@@@<<<<<<<<<<<<@@@@@@@@@@@@@@@@@@@<25"
};
