/* XPM */
static char * Button4_xpm[] = {
"97 72 26 1",
" 	c #BEFBBAEABEFB",
".	c #AEBAAAAAAEBA",
"X	c #79E779E779E7",
"o	c #514451445144",
"O	c #410341034103",
"+	c #38E338E338E3",
"@	c #492449244924",
"#	c #208120812081",
"$	c #000000000000",
"%	c #186118611861",
"&	c #CF3CCB2BCF3C",
"*	c #965892489658",
"=	c #71C671C671C6",
"-	c #618561856185",
";	c #596559655965",
":	c #69A669A669A6",
">	c #30C230C230C2",
",	c #8E388A288E38",
"<	c #B6DAB2CAB6DA",
"1	c #28A228A228A2",
"2	c #861782078617",
"3	c #104010401040",
"4	c #082008200820",
"5	c #C71BC30BC71B",
"6	c #A699A289A699",
"7	c #9E799A699E79",
" .XoOOOOOOO++++++++++++++++++++++++++++++++++++++++++@@@@@@@@@ooooooo@@@@@@@@@OOOOOOOOOOOOOOO+#$%",
"& *=---------------;;;;;;;;;;;;;;;;;;;;;;;;;;;;;;;;;;:::::::::========::::::::::-------------->$%",
"& ,-ooooooo@@@@@@@@@@@@@@@@@@@@@@@@@@@@@@@@@@@@@@@@@@;;;;;;;;;;-------;;;;;;;;oo-:==:;ooooooo@#$%",
"&<=@+>>>>>>>>>>>>>>1111111111111111111111111111111111++++++++++OOOOOOO++++++++;X2222X:;O>>>>>>#$%",
"&.:################%%%%%%%%%%%%%%%%%%%%%%%%%%%%%%%%%%1111111111>>>>>>>111111>:2,*,2X=-;@+#####3$%",
"&.:################%%%%%%%%%%%%%%%%%%%%%%%%%%%%%%%%%%#111111111>>>>>>>111111:2***2=-;o@+>#####4$%",
"&.:################%%%%%%%%%%%%%%%%%%%%%%%%%%%%%%%%%%#111111111>>>>>>>11111o2**,X:oO+>>1#%3###4$$",
"&.:#################%%%%%%%%%%%%%%%%%%%%%%%%%%%%%%%%%#111111111>>>>>>>1111>=,*,X-@>1#%%%343###4$$",
"&.:#################%%%%%%%%%%%%%%%%%%%%%%%%%%%%%%%%%#111111111>>>>>>>>111@2**X-O1%3334443####4$$",
"&.:#################%%%%%%%%%%%%%%%%%%%%%%%%%%%%%%%%%#1111111111>>>>>>>111-2*2:@1%3444444%1>##4$$",
"&.:#################%%%%%%%%%%%%%%%%%%%%%%%%%%%%%%%%%#1111111111>>>>>>>111:2,=o>#34444443%1+##4$$",
"&.:#################%%%%%%%%%%%%%%%%%%%%%%%%%%%%%%%%%#1111111111>>>>>>>111:22:@1%44444443%>O##4$$",
"&.:##################%%%%%%%%%%%%%%%%%%%%%%%%%%%%%%%%##111111111>>>>>>>111;==;+#344444443#+@##4$$",
"&.:##################%%%%%%%%%%%%%%%%%%%%%%%%%%%%%%%%##111111111>>>>>>>111O:-o>%3444444431OO##4$$",
"&.:##################%%%%%%%%%%%%%%%%%%%%%%%%%%%%%%%%##111111111>>>>>>>1111;;@>%34444443%>o1##4$$",
"& *##################%%%%%%%%%%%%%%%%%%%%%%%%%%%%%%%%##111111111>>>>>>>>111O@O1%4444443%1@o###4$$",
"& ,##################%%%%%%%%%%%%%%%%%%%%%%%%%%%%%%%%##1111111111>>>>>>>1111+>#3443333%1O;####4$$",
"&<=###################%%%%%%%%%%%%%%%%%%%%%%%%%%%%%%%##1111111111>>>>>>>11111#%43%%%#1>@->####4$$",
"&.:###################%%%%%%%%%%%%%%%%%%%%%%%%%%%%%%%##1111111111>>>>>>>1111113%#1>>+Ooo######4$$",
"&.:###################%%%%%%%%%%%%%%%%%%%%%%%%%%%%%%##1111111111>>>>>>>111111111>+@oo@>#######4$$",
"&.:###################%%%%%%%%%%%%%%%%%%%%%%%%%%%%%%###111111111>>>>>>>1111111111############14$$",
"&.:###################%%%%%%%%%%%%%%%%%%%%%%%%%%%%%%###111111111>>>>>>>111%11113311311133111111$$",
"&.:###################%%%%%%%%%%%%%%%%%%%%%%%%%%%%%%#111111111>>>>>>>1111%111111111111111111111$$",
"&.:###################%%%%%%%%%%%%%%%%%%%%%%%%%%%%%%#111111111>>>>>>>>1111111111111111111111111$$",
"&.:###################%%%%%%%%%%%%%%%%%%%%%%%%%%%%%%#1111111111>>>>>>>1111111111111111111111111$$",
"&.:###################%%%%%%%%%%%%%%%%%%%%%%%%%%%%%%#1111111111>>>>>>>11111%1111111111111111111$$",
"&.:###################%%%%%%%%%%%%%%%%%%%%%%%%%%%%%%#1111111111>>>>>>>1111111111111111111111111$$",
"&.:#################%%%%%%%%%%%%%%%%%%%%%%%%%%%%%%%%##111111111>>>>>>>1111111111111111111111111$$",
"&.:#################%%%%%%%%%%%%%%%%%%%%%%%%%%%%%%%%##111111111>>>>>>>1111111111111111111111111$$",
"&.:################%%%%%%%%%%%%%%%%%%%%%%%%%%%%%%%%%%#111111111>>>>>>>1111111111111111111111111$$",
"&.:################%%%%%%%%%%%%%%%%%%%%%%%%%%%%%%%%%%#111111111>>>>>>>1111111111111111111111111$$",
"&.:#################%%%%%%%%%%%%%%%%%%%%%%%%%%%%%%%%%#111111111>>>>>>>1111111111111111111111111$$",
"&.:#################%%%%%%%%%%%%%%%%%%%%%%%%%%%%%%%%%#111111111>>>>>>>>111111111111111111111111$$",
"&.:###############%%%%%%%%%%%%%%%%%%%%%%%%%%%%%%%%%#111111111>>>>>>>111111111111111111111111111$$",
"56-###############%%%%%%%%%%%%%%%%%%%%%%%%%%%%%%%%%#111111111>>>>>>>>11111111111111111111111111$$",
"&.:###############%%%%%%%%%%%%%%%%%%%%%%%%%%%%%%%%%#1111111111>>>>>>>11111111111111111111111111$$",
"&.:###############%%%%%%%%%%%%%%%%%%%%%%%%%%%%%%%%%#1111111111>>>>>>>11111111111111111111111111$$",
"&.:###############%%%%%%%%%%%%%%%%%%%%%%%%%%%%%%%%%#1111111111>>>>>>>11111111111111111111111111$$",
"&.:################%%%%%%%%%%%%%%%%%%%%%%%%%%%%%%%%##111111111>>>>>>>11111111111111111111111111$$",
"& *################%%%%%%%%%%%%%%%%%%%%%%%%%%%%%%%%##111111111>>>>>>>11111111111111111111111111$$",
"& ,###############%%%%%%%%%%%%%%%%%%%%%%%%%%%%%%%%%#111111111>>>>>>>111111111111111111111111111$$",
"&<=###############%%%%%%%%%%%%%%%%%%%%%%%%%%%%%%%%%#111111111>>>>>>>>11111111111111111111111111$$",
"&.:###############%%%%%%%%%%%%%%%%%%%%%%%%%%%%%%%%%#1111111111>>>>>>>11111111111111111111111111$$",
"&.:###############%%%%%%%%%%%%%%%%%%%%%%%%%%%%%%%%%#1111111111>>>>>>>11>11111111111111111111111$$",
"&.:################%%%%%%%%%%%%%%%%%%%%%%%%%%%%%%%%%#111111111>>>>>>>11111111111111111111111111$$",
"&.:################%%%%%%%%%%%%%%%%%%%%%%%%%%%%%%%%%#111111111>>>>>>>>1111111111111111111111111$$",
"&.:################%%%%%%%%%%%%%%%%%%%%%%%%%%%%%%%%%#1111111111>>>>>>>1111111111111111111111111$$",
"&.:################%%%%%%%%%%%%%%%%%%%%%%%%%%%%%%%%%#1111111111>>>>>>>1111111111111111111111111$$",
"&.:################%%%%%%%%%%%%%%%%%%%%%%%%%%%%%%%%%#1111111111>>>>>>>1111111111111111111111111$$",
"&.:#################%%%%%%%%%%%%%%%%%%%%%%%%%%%%%%%%##111111111>>>>>>>1111111111111111111111111$$",
"&.:#################%%%%%%%%%%%%%%%%%%%%%%%%%%%%%%%%##111111111>>>>>>>1111111111111111111111111$$",
"&.:################%%%%%%%%%%%%%%%%%%%%%%%%%%%%%%%%%#1111111111>>>>>>>1111111111111111111111111$$",
"&.:################%%%%%%%%%%%%%%%%%%%%%%%%%%%%%%%%%#1111111111>>>>>>>1111111111111111111111111$$",
"&.:#################%%%%%%%%%%%%%%%%%%%%%%%%%%%%%%%%##111111111>>>>>>>1111111111111111111111111$$",
"&.:#################%%%%%%%%%%%%%%%%%%%%%%%%%%%%%%%%##111111111>>>>>>>1111111111111111111111111$$",
"&.:################%%%%%%%%%%%%%%%%%%%%%%%%%%%%%%%%%%#111111111>>>>>>>1111111111111111111111111$$",
"&.:#################%%%%%%%%%%%%%%%%%%%%%%%%%%%%%%%%%#111111111>>>>>>>1111111111111111111111111$$",
"&.:#################%%%%%%%%%%%%%%%%%%%%%%%%%%%%%%%%%#111111111>>>>>>>>111111111111111111111111$$",
"56-#################%%%%%%%%%%%%%%%%%%%%%%%%%%%%%%%%%#1111111111>>>>>>>111111111111111111111111$$",
"&.:#################%%%%%%%%%%%%%%%%%%%%%%%%%%%%%%%%%#1111111111>>>>>>>111111111111111111111111$$",
"&.:#################%%%%%%%%%%%%%%%%%%%%%%%%%%%%%%%%%#1111111111>>>>>>>111111111111111111111111$$",
"&.:##################%%%%%%%%%%%%%%%%%%%%%%%%%%%%%%%%##111111111>>>>>>>111111111111111111111111$$",
"&.:##################%%%%%%%%%%%%%%%%%%%%%%%%%%%%%%%%##111111111>>>>>>>111111111111111111111111$$",
"&.:##################%%%%%%%%%%%%%%%%%%%%%%%%%%%%%%%%##111111111>>>>>>>111111111111111111111111$$",
"&.:##################%%%%%%%%%%%%%%%%%%%%%%%%%%%%%%%%##111111111>>>>>>>>11111111111111111111111$$",
"&.:##################%%%%%%%%%%%%%%%%%%%%%%%%%%%%%%%%##1111111111>>>>>>>11111111111111111111111$$",
"&.:###################%%%%%%%%%%%%%%%%%%%%%%%%%%%%%%%##1111111111>>>>>>>11111111111111111111111$$",
"&.:###################%%%%%%%%%%%%%%%%%%%%%%%%%%%%%%%##1111111111>>>>>>>11111111111111111111111$$",
"&.:###################%%%%%%%%%%%%%%%%%%%%%%%%%%%%%%%###111111111>>>>>>>11111111111111111111111$$",
"56-###################%%%%%%%%%%%%%%%%%%%%%%%%%%%%%%%###111111111>>>>>>>11111111111111111111111$$",
"7X+#3333$$$$$$$$$$$$$$$$$$$$$$$$$$$$$$$$$$$$$$$$$$$$$$$$$$$$$$$$$$$$$$$$$$$$$$$$$$$$$$$$$$$$$$$$$",
"X;#4$$$$$$$$$$$$$$$$$$$$$$$$$$$$$$$$$$$$$$$$$$$$$$$$$$$$$$$$$$$$$$$$$$$$$$$$$$$$$$$$$$$$$$$$$$$$$"};
