/* XPM */
static char *magick[] = {
/* columns rows colors chars-per-pixel */
"30 30 13 1",
"  c #375e65",
". c #9a9a9a",
"X c #acbd9a",
"o c #9a9acf",
"O c #9acfcf",
"+ c #cf9acf",
"@ c #cfcf9a",
"# c #cfcfff",
"$ c #dcf2cf",
"% c #cfffff",
"& c #ffcfff",
"* c #ffffcf",
"= c Gray100",
/* pixels */
"=#*=#*%&*%&$=&$=#*=#$$=%&=%&% ",
"%*&%*#=*#=$&=$&%*&%*&$#*=#*=o ",
"&%$$$$.o$$&$$$$$$$=$$$oX+$$$. ",
"%*$$$o.O$$$$$O$oO$$%$$$$$O$O..",
"&%+O$O$$$$#$o@$$$$=$$O$$$$O$..",
"$=..O+Xo.$$$O$$$$$$$$ O$#$$$. ",
"=$OXO@o.OO$$O+O$O$o   o$$$#*..",
"#=$$$$$$.$$$XO$$o.    O$$$$$o.",
"=$$$#$$O+O$O$OX.      $$O$#$..",
"%=$$$$$$X$.$o.      . o$$$$$..",
"&%$O$$$O+$$O       . ..$$$$O.o",
"%&$$$$OXOO.       .....+O$$O .",
"=$O+O$$O.      .......O$.$$$  ",
"#=XO$$.        . ... .X$O$$$  ",
"*#O+$.        ....... $$o$OO  ",
"==$$$$o      .........o$O$$$  ",
"#*#$$$$$.  . ...... ...$$$$$..",
"*%$+O$$O$O. .  ........$$$O$..",
"=&O...$O+$$$. ....... .O$o$o .",
"#=o...o$$$$$$.... o.. .O+X$$  ",
"*%$$.o$$$#$$#$O. ......$O+O$..",
"#=$O$O$%$$O$$$+$o.....O+X.$=.o",
"*&$Xo@$$$$$$$$X.O$$...o$o$$$O.",
"=%$o.$$$Xo.OO$o.$$$$+ O$@O$$. ",
"&$$$$#$$oXo$$$O.O$$OO$$$#$o$. ",
"%=$$$$$$$$.$$$@o$+$..$$=$$@O  ",
"=&$#$$$$$$$$#$O$$OoO$$$%$$o$  ",
"=%$$$#$O$$O$$$@o$O@.o$$&$$$.. ",
"#@ ......o.oO...   ...... . ..",
"=   ......Oo@o...   ..oO.  ..O"
};
