/* XPM */
static char *magick[] = {
/* columns rows colors chars-per-pixel */
"30 30 13 1",
"  c #375e65",
". c #9a9a9a",
"X c #acbd9a",
"o c #9a9acf",
"O c #9acfcf",
"+ c #cf9acf",
"@ c #cfcf9a",
"# c #cfcfff",
"$ c #dcf2cf",
"% c #cfffff",
"& c #ffcfff",
"* c #ffffcf",
"= c Gray100",
/* pixels */
"=#*=#*%&*%&$=&$=#*=#$$=%&=%&% ",
"%*&%*#=*#=$&=$&%*&%*&$#*=#*=o ",
"&%$O$$*$$$OO$$O$$$o$$=$$$O$.. ",
"%*$$O$#$#$$$$$O$$O$$O$$$o@o$..",
"&%$O$$$$$$$$$$$$$$oX+.$O$$$$..",
"$=+$$#$$O$$O.OoO$$$+OXo@#$$$. ",
"=$X$$$$$$$$+$$$$$$OO$+$$$=%&..",
"#=o$$OoO$o..OX$o.....OoO$$$$o.",
"=$$$O     .... ...  ... $$$$..",
"%=$$$$   . .. .........+O.$o..",
"&%$%$$    ...... ......$O.O..o",
"%&=$=$o    ........o..$$$$o@ .",
"=$$$$$$.    ....... ..$$$+OO  ",
"#=$O$$Oo    . ...... oO$O$$$  ",
"*#$o$$$$.   .........$...o$o  ",
"==$$$$O$X     ... ..O+XoO@O@  ",
"#*$O@$+OO.     ..  .$$$$$$$$..",
"*%$$oOOX$o       ..$#$$O$$#$..",
"=&$$$$$$O$O     . $$$$$O$$$$ .",
"#=&$#$$$$.$.     .$$$O$.o.$O  ",
"*%$$$$O$O$$O     O$$#$$oX$$$..",
"#=$$$.O.+X+O.   .$+$$$$Xo$$$.o",
"*&oO$o.$O$OXO   $OO$$%$$$$$OO.",
"=%..$Xo$$$$O$. o$$$o$$$$$$$$. ",
"&$$oO+@$$$$$$$.$$$..oO@$#$$#. ",
"%=$$$OO$#$$$O$$$$O...$o.$$$$  ",
"=&$$O.X$$$O$+O+$$+..$OXo$$#$  ",
"=%$$+.O$$$$$OXO$#$Oo$$$$$$$$. ",
"#@ ......o.oO...   ...... . ..",
"=   ......Oo@o...   ..oO.  ..O"
};
