/* XPM */
static char * 5arrow2_xpm[] = {
"30 30 23 1",
" 	c #FFFFFFFFFFFF",
".	c #CF3CCF3CFFFF",
"X	c #FFFFFFFFCF3C",
"o	c #CF3CFFFFFFFF",
"O	c #FFFFCF3CFFFF",
"+	c #CF3CFFFFCF3C",
"@	c #CF3CCF3CCF3C",
"#	c #FFFFCF3CCF3C",
"$	c #659565956595",
"%	c #9A699A69CF3C",
"&	c #9A69CF3CCF3C",
"*	c #CF3C9A699A69",
"=	c #9A699A699A69",
"-	c #CF3C9A69CF3C",
";	c #65959A699A69",
":	c #659565959A69",
">	c #9A69CF3C9A69",
",	c #9A6965959A69",
"<	c #65959A696595",
"1	c #CF3CCF3C9A69",
"2	c #30C265956595",
"3	c #659530C26595",
"4	c #9A699A696595",
" .X .XoOXoO+ O+ .X .@@ o# o#o$",
"oXOoX. X. +O +OoXOoXO+.X .X %$",
"Oo@@@@@@@@%&@.@&*&@@@@@&=-@@;:",
"oX@.@@%>&@==-+@-&-@&@@@*=&@@,<",
"Oo+@@@=%@==;&@@@@&@@@.@&&@@@;=",
"+ .@@.@1&%==@@@=@@@@@@@1-&%@=:",
" @@@@@@@@@%@@@%2=@&@@@@%>@===;",
". &@@@@@o@@&&@:2$&*&@&@=%@&%%=",
" @@@@%>@@@+-@=$$3=&->-=&=@@@=;",
"o @@@>%@@.@@&:2$2$&@@&@&@@@@==",
"#o&@=%=@&@@@=$$$$$,@=@@@@.+O=%",
"oO@@@@&@@@@@$;:$$22&@&@@@@@@$;",
" +@.@@&@@.@;;$:$23$$%@*&&%@@$$",
". @@@@@@@@=$$=;$$2$2=&&-@1&@:$",
"X.1&1&%>-&=;:=;;$:$$$*@&@@@@$$",
"  %@%===@=;,;=,;=4:2$;@@@@%@:$",
".X@@@&@&%:=;==;=:;:$2$%&@@&@;;",
"Xo&&-@@@=<:;=;====:$$$=@@@@@==",
" #1%@@@@;=%=====;=;:$22%@ @ $;",
". =&=&@=;==;=:;;===;$$$:@@o@$$",
"Xo%@=&-;===;====:;=:;$2$@@@@;=",
". @@@@:==;::=;=:=,;;$$$$$&@@=%",
"XO+@@@&%&=====%@>&==%@&%&@@%&=",
" oOo @@@-@&&@@@@@@-@@@@@@@@>=$",
"O+@@@.1%>&-@@@&%&=&@@&@@.@@-;$",
"o @@@@&@=->%@@@@@@@@@@@@@@&@$:",
" #@%1%@@@&@@&@@&@@@@@.+.@&@@$$",
" o=@&@@@ @@%@@@&@@&&@@@X@@&@;:",
".1:;==;==%=%&=;=:$:;====;:<:==",
" $$$;=====&%1%=;=$$:==%&=$:==&"};
