/* XPM */
static char * coda_st_xpm[] = {
"216 70 5 1",
"       s background 	c #780078007800",
".	c #AA00AA00AA00",
"X	c #C800C800C800",
"o	c #FF00FF00FF00",
"O	c #8C008C008C00",
"                                                                                                                                                                                                                        ",
"                                                                                                                                                                                                                        ",
"                                                                                                                                                                                                                        ",
"                                                                                                                                                                                                                        ",
"                                                                                                                                                                                                                        ",
"                                                                                                                                                                                                                        ",
"                                                                                                                                                                                                                        ",
"                                                                                                                                                                                                                        ",
"                                                                                                                                                                                                                        ",
"                                                                                                                                                                                                                        ",
"                        .XXooooooooXX        oo                            XXXXXXXXX.                                                                                                                                   ",
"                     .XooooooooooooooooX.   .oo                        .XooooooooooooooX                      .XXXXXXXXXXXXXXXXXXX.                                                      .X.                            ",
"                   .ooooooooooooooooooooooooooo                      .oooooooooooooooooooX                    ooooooooooooooooooooooooooXX                                              .ooX                            ",
"                 .ooooooooXO...XXXXoooooooooooo                     oooooooXO...XXXooooooooX                 XoXXXooooooooooooooooooooooooooX.                                         .oooo                            ",
"                .oooooooXO....XXXXXXooooooooooo                   .ooooooX O...XXXXoooooooooo               .oXXXooooooooooooo...XoooooooooooooX                                       oooooX                           ",
"               oooooooo O...XXXXXXXoooooooooooo                  Xoooooo. O..XXXXXoooooooooooo.             XXXXooooooooooooO...XXXXXXXoooooooooo.                                    Xoooooo                           ",
"              oooooooo OOOO      O.oooooooooooo                 ooooooo. OOO     .Xoooooooooooo.              O.oooooooooooXO.XXXXXXXXXXooooooooooo                                   ooooooo.                          ",
"             oooooooo               Ooooooooooo                .oooooo             OXooooooooooo.                ooooooooooX .....XXXXoooooooooooooo.                                .oooooooX                          ",
"            .ooooooo                  .oooooooo               .oooooo.               Xooooooooooo                .oooooooooX        .Xooooooooooooooo.                               oooooooooO                         ",
"           .ooooooo                    OoooooooX             .ooooooX                 .ooooooooooo                oooooooooX          O.oooooooooooooo.                             .ooooooooo.                         ",
"           ooooooo.                     OooooooX             ooooooo                   .oooooooooo.               oooooooooX             Xooooooooooooo                             Xoooooooooo                         ",
"          Xooooooo                       ooooooX            .ooooooX                    Xoooooooooo               XooooooooX              Xooooooooooooo                            ooooooooooo.                        ",
"          oooooooX                        oooooX            ooooooo.                     ooooooooooX              XooooooooX               .oooooooooooo.                          XooooXooooooo                        ",
"         Xooooooo                         XooooX           .ooooooo                      .oooooooooo              Xoooooooo.                .oooooooooooo                          ooooXoooooooo.                       ",
"         oooooooX                          ooooX           oooooooX                       oooooooooo.             Xoooooooo                  Xooooooooooo.                        .oooo.ooooooooX                       ",
"        OoooooooX                          XooXO          OoooooooX                       XoooooooooX             Xoooooooo                   oooooooooooo                        ooooo.oooooooooO                      ",
"        Xooooooo                            oX.           Xooooooo                        .oooooooooo             Xoooooooo                   .ooooooooooo                       .oooo..oooooooooX                      ",
"        oooooooo                            XXO           oooooooo                         oooooooooo             Xoooooooo                    ooooooooooo.                      Xoooo Xoooooooooo                      ",
"       Ooooooooo                                         .oooooooo                         oooooooooo             Xoooooooo                    .ooooooooooX                      ooooX .oooooooooo.                     ",
"       .oooooooX                                         ooooooooo                         XoooooooooX            Xoooooooo                     ooooooooooX                     Xoooo   ooooooooooo                     ",
"       XoooooooX                                         ooooooooX                         XoooooooooX            ooooooooo                     Xoooooooooo                     ooooX   Xoooooooooo.                    ",
"       ooooooooX                                         ooooooooX                          oooooooooX            ooooooooo                     Xoooooooooo                    .oooo.    ooooooooooX                    ",
"       ooooooooX                                        XooooooooX                          oooooooooX            ooooooooo                     .oooooooooo                    ooooo     oooooooooooO                   ",
"      OooooooooX                                        XooooooooX                          oooooooooX            ooooooooo                      oooooooooo                   .ooooX     .ooooooooooX                   ",
"      .ooooooooX                                        XooooooooX                          oooooooooX            ooooooooo                      oooooooooo                   ooooo       ooooooooooo                   ",
"      .ooooooooX                                        XooooooooX                          oooooooooX            ooooooooo                      oooooooooo                   ooooX       Xoooooooooo.                  ",
"      .ooooooooX                                        XooooooooX                          ooooooooo.            ooooooooo                      oooooooooX                  Xoooo         ooooooooooo                  ",
"      .ooooooooX                                        XooooooooX                          ooooooooo             ooooooooo                      oooooooooX                  ooooo         Xoooooooooo.                 ",
"      .ooooooooo                                        Xooooooooo                          ooooooooo             ooooooooo                      oooooooooX                 Xoooo.         .ooooooooooo                 ",
"      .ooooooooo                                        Xooooooooo                          ooooooooo             ooooooooo                      ooooooooo.                 oooooooooooooooooooooooooooO                ",
"       ooooooooo.                                       Xooooooooo                         .ooooooooX             ooooooooo                      ooooooooo                 .oooooooooooooooooooooooooooX                ",
"       oooooooooX                                        oooooooooX                        Xoooooooo.             ooooooooo                     XooooooooX                 oooooXXXXXXXXXXXXXXXXXoooooooO               ",
"       Xooooooooo                                        oooooooooX                        Xoooooooo              ooooooooo                     Xoooooooo.                 ooooX................oooooooo.               ",
"       .oooooooooX                                       oooooooooo                        ooooooooX              ooooooooo                     ooooooooo                 Xoooo................oooooooooo               ",
"        oooooooooo                                       Xooooooooo.                       oooooooo               ooooooooo                     oooooooo.                 ooooo OOOOOOOOOOOOOOooooooooooo.              ",
"        XoooooooooX                                       oooooooooX                       oooooooX               ooooooooo                    XoooooooX                 XooooX               Xooooooooooo              ",
"        .oooooooooo.                          XO          .ooooooooo.                     .ooooooo                ooooooooo                    Xooooooo                  ooooo                 oooooooooooO             ",
"         Xoooooooooo                         ooo           oooooooooo                     ooooooo.                ooooooooo                   .ooooooo.                 .ooooX                 XooooooooooX             ",
"         Oooooooooooo                       ooo.           .oooooooooX                   Ooooooo.                 ooooooooo                  .ooooooo.                  ooooo.                 .oooooooooooO            ",
"          Xooooooooooo.                   .ooo.             oooooooooo.                 .oooooo.                  ooooooooo                 .ooooooo.                  .ooooo                   oooooooooooX            ",
"           XoooooooooooX                .oooo. .            Ooooooooooo.               .oooooo.                   ooooooooo               .oooooooo.                   XooooX                   .oooooooooooO           ",
"           OoooooooooooooX            .ooooo                 Oooooooooooo             .oooooo.                    oooooooooX            Xooooooooo                     oooooX                    oooooooooooX           ",
"            OXoXXoooooooooooXX.  XXXoooooo.                   XoooooooooooX         Xooooooo                     .ooooooooooX.     .XXoooooooooo.                     .oooooo                    XoooooooooooO          ",
"             OXXXXXooooooooooooooooooooo.                      .oooXXooooooooXXXXXXooooooo.                      ooooooooooooooooooooooooooooo.                      .ooooooo.                   Xoooooooooooo          ",
"               XXXXXXooooooooooooooooX.                         OXXXXXXooooooooooooooooo.                     ooooooooooooooooooooooooooooX.O                      .oooooooooooXX                .oooooooooooooX.       ",
"                OXXXXXXXXooooooooooX.O                           OXXXXXXXXooooooooooX.O                      ooooooooooooooooooooooooX...OOO                      .oooooooooooooo              .ooooooooooooooooo.      ",
"                  .XXXXXXXX........OO                              OXXXXXXXXX.......OO                      .o..........................OO                       .oX............O             .oX................       ",
"                    O.XXX.........O                                  O.XXXX........OO                       o.........................OO                         oX............O             .o.................        ",
"                        OOOOOOOOO                                       OOOO....OOO                                   OOOOOOOOOOO                                .OOOOOOOOOOOOO              ..................         ",
"                                                                                                                                                                                                                        ",
"                                                                                                                                                                                                                        ",
"                                                                                                                                                                                                                        ",
"                                                                                                                                                                                                                        ",
"                                                                                                                                                                                                                        ",
"                                                                                                                                                                                                                        ",
"                                                                                                                                                                                                                        ",
"                                                                                                                                                                                                                        ",
"                                                                                                                                                                                                                        ",
"                                                                                                                                                                                                                        ",
"                                                                                                                                                                                                                        "};
