/* XPM */
static char *home_xpm[] = {
/* columns rows colors chars-per-pixel */
"30 30 14 1",
"  c Gray0",
". c #306565",
"X c #9a9a9a",
"o c #acbd9a",
"O c #9a9acf",
"+ c #9acfcf",
"@ c #cf9acf",
"# c #cfcf9a",
"$ c #cfcfff",
"% c #ddf1cf",
"& c #cfffff",
"* c #ffcfff",
"= c #ffffcf",
"- c Gray100",
/* pixels */
"-$=-$=&*=&*%-*%-$=-$%%-&*-&*&.",
"&=*&=$-=$-%*-     &=*%$=-$=-O.",
"*&%%%%XO%%*%% XXX -%%%Oo@%%%X.",
"&=%%%OXX%%%%% XXX %&%%%%%+%+X.",
"*&@+%+                 %%%+%XX",
"%-XX+X XXXXXXXXXXXXXXXX $%%%X.",
"-%+o+ XXXXXXXXXXXXXXXXXX %$=XX",
"$-%% XXXXXXXXXXXXXXXXXXXX %%OX",
"-%%                        %XX",
"&-%%%%% XXXXXXXXXXXXXX %%%%%XX",
"*&%+%%% XXXXXXXXXXXXXX %%%%+XO",
"&*%%%%+ XXXXXXXXXXXXXX @+%%+.X",
"-%+@+%% X    XXX    XX %X%%%..",
"$-o+%%X X -- XXX -- XX %+%%%..",
"=$+@%X. X -- XXX -- XX %O%++..",
"--%%%%O X    XXX    XX %+%%%..",
"$=$%%%% XXXXXXXXXXXXXX %%%%%XX",
"=&%@+%% XXXXXXXXXXXXXX %%%+%XX",
"-*+XXX% XXXX     XXXXX +%O%O.X",
"$-OXXXO XXXX --- XXXXX +@o%%..",
"=&%%XO% XXXX --- XXXXX %+@+%XX",
"$-%+%+% XXXX --- XXXXX @oX%-XO",
"=*%oO#% XXXX --- XXXXX %O%%%+X",
"-&%OX%% XXXX --- XXXXX %#+%%X.",
"*%%%%$%                %$%O%X.",
"&-%%%%%%%%X%%%#O%@%XX%%-%%#+..",
"-*%$%%%%%%%%$%+%%+O+%%%&%%O%..",
"-&%%%$%+%%+%%%#O%+#XO%%*%%%XX.",
"$#.XXXXXXOXO+XXX...XXXXXX...XX",
"-...XXXXXX+O#OXXX...XXO+X..XX+"
};
