/* XPM */
static char *RCLogo_xpm[] = {
/* columns rows colors chars-per-pixel */
"94 29 10 1",
"  c #0c0c0c",
". c #171918",
"X c #262727",
"o c #363939",
"O c #444444",
"+ c #504e50",
"@ c #555555",
"# c #656465",
"$ c #808082",
"% c Gray58",
/* pixels */
"XXXoooOOOOOoooOOooooXXXX..   ...XXoOO+++@@@@@@@@@@##################@@+OooXXXXXXXXooOOOOOooXXX",
"XXXoooOOOOOooooOoooooXXX...  ..XXXoOO+++@@@@@@@@@@@##################@+OooXXXXXXXoooOOOOOooXXX",
"XXooooOOoooooOoooooooooXX......XoooOOOO+@@@@@@@@@@@@##@@@@@##########@@+OooXXXooooooOOOOOooXXX",
"oooooOOooo+####$$#+++++X .....O####$##+oXO+@@@+++@@@@@@@#@@Oo+@#######@+OooXX+@@+..OOOOOooooXX",
"oooOOOoo@#####$$######OX .XXo@####$$####+oXO+################OoX@#####@@OOooO###OX oOOOOOoooXX",
"OOOOOOo######$$######OoX .X+#####$$#####@@X.O##########$#######+Xo#####@+Ooo###OOo.XOOOOOOoooX",
"OOOOOO############$#OooX .#############@@@@o.+#################@@XX####@+OOO##@OOO. OOOOOOOooo",
"+++OO######@+OO+@###OooX X#####@OoO+@#@@@@@+XoO+@###++++@###@@@@@@XX####@+O@###OOOX.XOOOOOOooo",
"++++######OoooOO+@##@ooX #####OoooO++@#@@@+++.X@####ooOOO+@##@@@@+O.X###@+O####@OOO. OOOOOOOOo",
"@@++#####OoooX  o@@##ooXO####+oooX  O@###++++o.O####OOoXX++@###@+++o.o##@+######OOOX XOOOOOOOO",
"@@@#####@ooo.  ..X###ooX#####oooX  XXO####+OOO.O####OOo. X+@@###++++..##@+###+##@OOO. OOOOOOOO",
"@@@@####OooX  ....O##oo@####+ooo. .XXX####+OOOXO####OOo. XO@####+OOOX.+#@###+.##@OOOX XOOOOOOO",
"@@@#####oooX  .....#+oo+####+ooo  XXXX#####OOOXO####OOo. XOO#####OOOX.o#@###o.o##+OOO.XOOOOOOO",
"@@#####+ooo.  .....oOoXO####OOOX  XXXX+####OOOXO####OOo. XOO@####OOOX.o@####..X#@@OOOX oOOOOOO",
"@@#####+OOO.  .......XX#####OOOX  XXXX+####OOOXO####OOO. XOO@####OOOX..@###o.. ###+OOo..OOOOOO",
"++#####+OOO. .X......XX@####OOOX  Xooo@####OOOXO####OOO. XoO#####+OOX. ####..oo###@OOOX oOOOOO",
"O+#####+OOO. .XXX....XXO####OOOX  oooo@####OOOXO####OOO. XoO#####+OOX. ###+X+######OOOo..OOOOO",
"OOO####+OOOX .XXXXXXXXXO####OOOo. oooO@####oooXO####OOO. XOO#####oooX.O###+########@OOOX oOOOO",
"OOO####@OOOX..XXXXXXX@XO####+OOO. oOOO#####oooXO####OOO. XO+#####oooX O#############OOOo..ooOO",
"ooo@####OO++X.XXXXX+##+X####+OOOX.XOO@####+ooo O####OOO. X+#####+ooo. ###OoOOOooO###+OOOX oooO",
"oooO####@+++@Oooo####+++####@++++XXO+#####OooX O####OOO@+#######oooX.O###oooXXoo+###@OOOo.XooO",
"XXXX+####@@@@##%#####+OOO####@++@########+ooo.o#####OO$$#######Oooo.X###@ooo. XX+####++O+XXXoO",
"XXXXo@@@##@@##%#####@ooo o@###@@##%#####@oooXO######O#%#######OoooX@####+X+#+. +#####@++@@O .o",
"XXXXXo@@@####%$####+oooX .+@@####%$####@oooX o#######%$#####@Oooo..O####+@#Oo. O######@@#OX  o",
".....XX++@#######@OoooX  oO+@@@######@OoooX  O###########++OoooX..o#######Ooo. o########ooX  o",
".......XO++O+++OOoooX. .OOOO+++OO++OOoooo.  X+OooooooooOOOOoooX.X+##OoooooooX  .OoooooooooX XO",
"...   ...XOOOOOOOoXX .oOOOOOOO+OOOOOOoXX  XXXXXoooooXOOoOOXX.Xo+####@OXXXX...  ...    .....XXO",
".       ..XXXoooXXXXOOOOOOOOOOOOOOOXXXX.XXXXXXXXXXXXXXXooO++@#######@@+OooXXX.........XXXXXooO",
".       ..XXXXoooOOOOOOOOOOOOOOOOOOooooXXXXXXXXXXXXXXXXooOO+@@#####@@+OOoXXX...  .....XXXXXooO"
};
