/* XPM */
static char * rcOpen_xpm[] = {
"32 32 2 1",
" 	s background	c white",
".	c blue",
"                                ",
"                                ",
"                                ",
"                                ",
"                                ",
"  ........            ........  ",
"  .      .    ...     .      .  ",
"  .      .    .       .      .  ",
"  .      ...... .......      .  ",
"  .      .    .       .      .  ",
"  .      .    ...     .      .  ",
"  ........            ........  ",
"                                ",
"                                ",
"                                ",
"                                ",
"                                ",
"                                ",
"                                ",
"                                ",
"      ...  . ..   ...  . ..     ",
"     .   . ..  . .   . ..  .    ",
"     .   . ..  . ..... .   .    ",
"     .   . . ..  .     .   .    ",
"      ...  .      ...  .   .    ",
"           .                    ",
"           .                    ",
"                                ",
"                                ",
"                                ",
"                                ",
"                                "};
