/* XPM */
static char *reload_xpm[] = {
/* columns rows colors chars-per-pixel */
"30 30 14 1",
"  c #306565",
". c #9a9a9a",
"X c #acbd9a",
"o c #9a9acf",
"O c #9acfcf",
"+ c #cf9acf",
"@ c #cfcf9a",
"# c #cfcfff",
"$ c #cfffcf",
"% c #cfffff",
"& c #ffcfcf",
"* c #ffcfff",
"= c #ffffcf",
"- c Gray100",
/* pixels */
"-#=-#=%*=%*$-*$-#=-###-%&-%&% ",
"%=*%=#-=#-$*-$*%=*%=*$#=-#=-o ",
"*%###+Xo###-#######*##o.####. ",
"%=O#O#####%##Oo#O##$##O.o###. ",
"*%#O####O##-####@o######O#O+..",
"$-###                    O... ",
"-#=##                    OXO..",
"#-#$#                    ###o.",
"-#### ......  ..    ..   ###..",
"%-###  .   ..  .     .   ###..",
"&%O##  .    .  .     .   #O#.o",
"%*O##  .   ..  .   ...   ### .",
"-$###  .....   .  .  .   O+O  ",
"#-###  .  .    .  .  .   #OX  ",
"=#OO#  .   .   .  .  .   #+O  ",
"--###  .    .  .  .  .   ###  ",
"#=### ...   .....  .. .  #$#..",
"=%#O#                    O+#..",
"-&o#o                    ..O .",
"#-##X                    ..o  ",
"=%#O+                    .##..",
"#--#.                    #O#.o",
"=*###                    oX#O.",
"-%##O                    .o#. ",
"*$#o#####OO##O.O###oXo######. ",
"%-O@##-##..#+#o@###.########  ",
"-&#o##%###OoO##O############  ",
"-%.###*$#o.@O#o@###O##O##$##. ",
"#@ ......o.oO...   ......   ..",
"-   ......Oo@o...   ..oO.  ..O"
};
