/* XPM */
static char * reoad_xpm[] = {
"30 30 21 1",
" 	c #FFFFFFFFFFFF",
".	c #CF3CCF3CFFFF",
"X	c #FFFFFFFFCF3C",
"o	c #CF3CFFFFFFFF",
"O	c #FFFFCF3CFFFF",
"+	c #CF3CFFFFCF3C",
"@	c #CF3CCF3CCF3C",
"#	c #FFFFCF3CCF3C",
"$	c #659565956595",
"%	c #9A699A69CF3C",
"&	c #CF3C9A69CF3C",
"*	c #9A69CF3C9A69",
"=	c #9A699A699A69",
"-	c #65959A699A69",
";	c #659565959A69",
":	c #9A69CF3CCF3C",
">	c #9A6965959A69",
",	c #65959A696595",
"<	c #CF3CCF3C9A69",
"1	c #30C265956595",
"2	c #CF3C9A699A69",
" .X .XoOXoO+ O+ .X .@@ o# o#o$",
"oXOoX. X. +O +OoXOoXO+.X .X %$",
"Oo@@@&*%@@@ @@@@@@@O@@%=@@@@-;",
"oX:@:@@@@@o@@:%@:@@+@@:=%@@@>,",
"Oo@:@@@@:@@ @@@@<%@.@@@@:@:&-=",
"+ @@@11111111111111111111:===;",
" @X.@11111111111111111111:2:=-",
". @+@11111111111111111111@@@%=",
" @@.@1======11==1111==111.@@=-",
"o @@@11=111==11=11111=111@@@==",
"#o:@@11=1111=11=11111=111@:@=%",
"oO:@@11=111==11=111===111@@@$-",
" +@@@11=====111=11=11=111:&:$$",
". @@@11=11=1111=11=11=111@:2;$",
"X.::@11=111=111=11=11=111@&:$$",
"  @@@11=1111=11=11=11=111@@@;$",
".X@@@1===111=====11==1=11@+.--",
"Xo@:@11111111111111111111:&@==",
" #%@%11111111111111111111-=:$-",
". @@*11111111111111111111==%$$",
"Xo@:&11111111111111111111=@@-=",
".  @=11111111111111111111@:@=%",
"XO@@@11111111111111111111%*@:=",
" o@@:11111111111111111111=%@=$",
"O+@%@.@@@::@@:=:@@@%*%@@.@@@-$",
"o :<@@ @@==@&@%<@@@=@@@@@@@@$;",
" #@%@@o@@@:%:@@:@.@@@@@@@@.@$$",
" o=@@@O+@%=<:@%<@@@:@@:@.+@@-;",
".<;-==-==%=%:=-=;$;-====-;,;==",
" $$$-=====:%<%=-=$$;==%:=$;==:"};
