/* XPM */
static char * startup_xpm[] = {
"33 32 6 1",
" 	c #C30BC30BC30B",
".	c #FFFFFFFF0000",
"X	c #FFFF00000000",
"o	c #000000000000",
"O	c #FFFFFFFFFFFF",
"+	c #820782078207",
"                                 ",
"        .....                    ",
"      ..XXXXX..                  ",
"     .XXXooooXX.                 ",
"    .XXooOOOOooX.                ",
"   .XXoOOOooooooX.               ",
"  .XXoOOOoo   oooX.     oooo     ",
"  .XXoOOo       oo.   ooOOoOo    ",
"  .XoOOo         oX. o O OOoOo   ",
" .XXoOOo    oooo oo.o OOOOOOoOo  ",
" .XoOOOo   ooOOoooo.oOO O  Oo o  ",
" .XoOOo    oOooOOooo OO  OO Oo o ",
" .XoOOo    oO  ooOooO O O O OoOo ",
" .XoOOo    oOO   o oOO O OO Oo o ",
" .Xo Oo    o   O  o OO OOOOO OoOo",
" .XoO o    oOoo  OOOO OOOooOOOo o",
" .Xo Oo    o OOoo  OOOOOoOOoOOoOo",
" .XXo Oo   oO++OOooOOOOOoOOoOOo o",
"  .Xo  o   ooOO++OOOOOOOoOOoOOoOo",
"  .XXo+o   ++ooOO++OOOOOoOOoOOo o",
"  .XXo +o +++++oo  OOOOOoOOoOOo o",
"   .XXo++oo+++oooo OOOOOoOOoOOo+o",
"    .XXoo+ooooooXoo OOOOOooOOOo+o",
"     .XXXooooooX. o O OOOOOOOOo+o",
"      ..XXXXXX..   oOO O OOOOo+o ",
"        ......     o O OO O Oo+o ",
"                   o O O   OOo+o ",
"                    oOO OOOOo+o  ",
"                    o OOO O o+o  ",
"                     o  OO o+o   ",
"                      oo  o+oo   ",
"                        oooo     "};
