/* XPM */
static char * sxpmout_xpm[] = {
"94 29 20 1",
" 	c #220022002200",
".	c #28002A002A00",
"X	c #360039003900",
"o	c #400040004000",
"O	c #1A001C001B00",
"+	c #110011001100",
"@	c #440044004400",
"#	c #4B004B004B00",
"$	c #50004E005000",
"%	c #550055005500",
"&	c #600060006000",
"*	c #470045004700",
"=	c #6F006F006F00",
"-	c #800080008200",
";	c #4F004D004F00",
":	c #660066006600",
">	c #630061006400",
",	c #650065006500",
"<	c #0C000C000C00",
"1	c #940094009400",
" ..XXXoooooXXXooXXXX..  OO+++OOO .Xo@#$$%%%%%%%%%%&&&&&&&&&&&&&&&&&&%%#@XX.     ..XXoooooXX.. ",
" ..XXXoooooXXXXoXXXXX.. OOO++OO  .Xo*#$$%%%%%%%%%%%&&&&&&&&&&&&&&&&&&%#@XX..   ..XXXoooooXX.. ",
"..XXXXooXXXXXoXXXXXXXXX  OOOOOO XXXoo@@#%%%%%%%%%%%%&&%%%%%&&&&&&&&&&%%#oXX.. XXXXXXoooooXX...",
"XXXXXooXXX#&===--&#;$$$.+OOOOOo&===-=:#X.o$%%%$$$%%%%%%%&%%*X#%&&&&&&&%#@XX..$%%#OOoooooXXXX..",
"XXXoooXX%=====--=>>=,:o +O  X%====--=>&&$X @$&============>>>*X.%&&&&&%%*oXXo=:&* +XoooooXXX..",
"ooooooX>=====--=:>:=:oX +O.#=====--=>>&&%%.O@&=========-=:>>&&&; X&&&&&%#@XX>=&**XO.ooooooXXX.",
"*@@@oo,===:&&&&&&&-=*XX +O>===:>&&&&&&&%%%%XO;=::::====:>,>&&&&%%..&&&&%$*o*==%***O+o**ooooXXX",
"###@*,==:&&%#oo$%&&&*XX + ===&&%oXo#%&%%%%%$.X*#%&&&##;$%&&&%%%%%%..&&&&%#@%=>&***.O.***oooXXX",
"$$$#&==>&&oXXXo*;%&&%XX +===&&oXXXo#$%&%%%$;;O.%=&&&XX@**#%&&%%%%$@O.&&&%#*==&&%***O+***@ooooX",
"%%$$==>&&oXXX <<X%%&&XX @==&&#XXX <+o%&&&$;##XOo=&&&ooX..;$%&&&%$;;XOX&&%$&=:&&&***.+.**@ooooo",
"%%%&==&&%XXXO<<OO.&&&XX ==&&&XXX.<+..*>&&&#***Oo=&&&ooXO+.$%%&&&##;#OO&&%$==&#&&%***O+***ooooo",
"%%%%=&&&@XX.<<OOOOo&&XX%=:&&#XXXO<O  .:>&&$*** @=&&&ooXO+.*%&&&&$*** O$&%>=:#O&&%***.+.**ooooo",
"%%%==&&&XXX.<<OOOOO&$XX$=>&&#XXX+<....::&&&@*@.@=&&&ooXO+.o*:>&&&@*@.OX&%==&XOX&&;***O @ooooo*",
"%%&=:&&#XXXO<+OOOOOX@X *=&&&ooo.+<....;=&&&ooo.@=&&&ooXO+ o@%:&&&oo@.OX%&==&OO.&%%***.+Xooooo*",
"%%&=:&&;oooO<+OOOOOOO  &=&&&ooo.+<....$=&&&ooo.@=&&&oooO+ o@%=&&&*oo.OO%==>XOO+&&&;**XOOooooo@",
"$$&=&&&;oooO<O OOOOOO  %=&&&ooo.+<.XXX%=&&&ooo.@=&&&oooO+ Xo&=&&&;oo.O+&==&OOXX>&&%*** +Xooooo",
"*#&=&&&;oooO+O   OOOO  *=&&&ooo.+<XXXX%=&&&ooo.@=&&&oooO+ Xo&=&&&#oo.O+==:;.;>>>&&&***XOOooooo",
"@@@:>&&$@@@ +O         *=&&&oooXO<XXXo%=&&&XXX.@=&&&oooO+ o@:=&&&XXX.Oo==&$&&,,,&&&%*** +Xoooo",
"ooo:>&&%@**.OO.. .. .% o=&&&#@o@O+Xooo==&&&XXX o=&&&oooO+ o$==&&&XXX +@=:&&&&&&&&&&&***XOOXXoo",
"XXX%>&&&**##.O.... #=&# :>&&$***.O.oo%=:&&#XXX+o=&&&oooO+.$:=:&&#XXXO+==>*Xo@oXX*&&&;*** +XXXo",
"XXXo&&&&%;;$%oXXX&===###&>&&%###$..o$==>&&oXX.+o=&&&ooo%$,===&&&XXX.O@==&XXX..XX#>&&%***XO XXo",
"....$&&&&%%%%&=1====:#ooo&&&&%$$%&=====&&#XXXOX:=&&&oo--====>&&oXXXO.==>%XXXO+..#:&&&;#*#. .Xo",
" ...X%%%&&%%&=1====>%XXX+X%&&&%%&:1===>&%XXX.o===&&&o=1====>&&oXXX %===&#.#&#O+#==>&&%#$%%@+OX",
"     X%%%&&&:1-==:&#XXX <O$%%&&&>1-==&&%XXX.+X===&&&>1-=:>&&%oXXXOO@==>&;%&oXO<*==:&&&%%&o.+<X",
"OOOOO .$$%&&&&&&&%oXXX <<Xo;%%%&&:>&&%oXXX.<<@:>&&&&&&&&&;#@XXX.OOX:=&&&&&oXXO<X=>&&&&&&XX +<X",
"OOOOOOO.o##*$$;*oXXX.O+Oooo@#;#**$;ooXXXXO<+.#*XXXXXXXXooooXXX.O.$&:@XXXXXXX.<<O@XXXXXXXXX + o",
"OOO+++OOO.o*@ooooX. +OXooo****;**@oooX. <+ ....XXXXX ooXoo..O.X$&&&&%@..  OOO++OOO++++OOOOO .o",
"O+++++++OO  .XXX ...oooo@********oo.   O......     ....XX@#$%&&&&&&&%%#@XX.  OOOOOOOOO  ...XXo",
"O+++++++OO  ..XXXoooooo@*********ooXXXX.....         ..XXo*$%%&&&&&%%$*oX.. OOO++OOOOO   ..XXo"};
