/* XPM */
static char *g_wind09[] = {
/* width height num_colors chars_per_pixel */
"    70    70       30            1",
/* colors */
". c #e8e8e8",
"# c #e6e6e6",
"a c #d8d8d8",
"b c #c3c3c3",
"c c #bcbcbc",
"d c #a8a8a8",
"e c #9e9e9e",
"f c #9a9a9a",
"g c #919191",
"h c #8a8a8a",
"i c #848484",
"j c #828282",
"k c #7b7b7b",
"l c #767676",
"m c #727272",
"n c #646464",
"o c #686868",
"p c #5c5c5c",
"q c #4e4e4e",
"r c #494949",
"s c #454545",
"t c #414141",
"u c #3c3c3c",
"v c #424242",
"w c #3a3a3a",
"x c #333333",
"y c #2b2b2b",
"z c #242424",
"A c #202020",
"B c #1e1e1e",
/* pixels */
"baaaaaabbcaaaaadaaaaaabbaaaaaaaacdhmoolkkkkkkjjjjjjijkkfdcccddmmmppppp",
"abaaaaaaaaaaabbaaaaaaaaaaaaacaaabbbdkjkjjjjkjjkkkkkkkkkfbbcccckpmmkkmp",
"bbbaaaaaaaaaaaabbaaaaaaaaaaacabbacabjjjiiijjjkmkhkmdbccdcabcdcdmkfddhi",
"ccccbbbaaaaaaaabcbcbaaaaaaaacbcbcdacjiiiiijkkkfkkkkmkhhaaaabdcdhfdccdd",
"dccdcacbcbaaaaaaaaccbbbbbaaacaadcjjdiiiiiiiiggdfdddddcbaaaaabcdddccccd",
"fdccdaacbaaaaaaaabbcccbbbbabbacijjidiiiiiiiiiiiddcaaaadaaaabbccccccccc",
"abcccbabaaaaaaaaaaabbcbcbbbbbbbcdgiiiiiiiiffiifdcaaaacaaaabccccccccccb",
"aaabbaaaabbbbaaaaaaaaabcbcbdbcbcccdijijijifkgdcbcaabcbbbccccdfddddcccb",
"aaabaaaaabccdccbaaaaaabdcccccdbddccmmokjjkiiidaaaaabcccccddfhhhhfdccbb",
"aaabaaaacbbdddccbaaaaabcccccdfigddcmppmmkjjkkfaaaa#abccdcchhkkkffdccbb",
"dbaaaaaabbbccccccbbaaabcccccccegccammpppmkmkbaaaaaabcccbacchkkkhdddcbb",
"hdbabaaabbcdccccccbbbbcccccccccccdddffhkmmhfbaba##abcccabccccffffdddcd",
"hhdcddaaacfdcccccccccccddddcccccdddddhmmppdaacfdddddddbcbbcccfdffddddf",
"hhffffaabdfcccccddccccdfffdcccdddcddhkppmkfcbaaaaaaaaaabcabcccdddddddd",
"hhhhhfdcchhdcccdffdddddhhcccdddddcdhkmlhcaaaaaaaaaaaaaaadbbbdcccccccdc",
"hhikkdadhjiffdfgiiigigfhffccddddddfkkfc##a####aabbhnnnnhfkkadddcccccdc",
"hhhikdcijiiihhhiiiigigihfdcfdddddfhfc#####abmuuzyuuuuuuunmknmhhfdbbcdd",
"hhfffcchkkkjkkjiijjhdffigidfhfhkkhc####bhuyBuhbaaaaaaaaaafmpknnkdcbbcd",
"hfdccbbbbfkkmgjjijjififhheihkkhda####duzAuda####aaaaaaaaabmppnnmhcbbbd",
"hfcbbbbbbbcfhfdjiikjjiigdkhkida###amyAAnb#########aaabbbaaammmimkdcbbb",
"ffdbbbbbbaabbecjigjifiifechda###buBAAna######bbhnuyyzBBBzyfpnmmiihddcb",
"cddddabbbbabaccfhfddfdgobc###amyAAAna####abnuzAynhdbbbbbbbdmppmidddfhb",
"bbbcdcabbbbccccfiiiiiikc###bnzAAAna####bnzABnba##########aampmmkjlppmf",
"bbbbdcccbabccbadfhhidca#bmyBAAAna.##afuBAub###############ackmommkmmmk",
"cbbbdccccabdcaacffca##duzAAABna#.#bnzAAub#########aabbbbbbbbkmppmkmmmk",
"hffdhkcccccdbccca##bnyBAAABh#..#fuBAAub..##.#abhnuyyBBBBBBBzkmppmmmmkh",
"kkkkmhebcccca###bduzAAAAyh#.#bnzAAAub.#..#afnuBBunfbbbaababbhopppmmmkk",
"mppmpkcc###abfnuuyzBBByf#.afuBAAAub....#dnyAznb#############dkppommmmk",
"mmmmpkkkuuuzzBzyyyyzud##bnzAAAAub....bnyAAub#.##############bfmppmmmmm",
"fffmmmkdyyyyBzyuyunb.ahuBAAAAub...#bnzAAna.....#...##aaaaaaa#fmpppmmmm",
"ffffffc#nyzyyyumb##bnzAAAAAnb...ahuAAAna......#adhnuuyyyzzzyunmopommmm",
"hfddcdd#dnnhb###bnuBAAAABna..#bnyAAAub.....abnuyAAyumfdbbbddfhkpmmmmom",
"gffcbbcb###bdhnuyzBBAABna..ahuBAAAub....#bnuBAynb##...########hmmmmooo",
"fffdacctuuyzBBzyyyzzzna.#bnyAAAAub....afuzABnb.....###########dkmoommm",
"fffdbcdmyyyzBzyyyyuf#.afuzAAAAub....bnyBABf#...............###bhkmllll",
"ffdcbbcdyzBzyyyuha.#bnyAAAAAub...#duzAABh#........##abbdfhfdfbbflkkkkk",
"dfddddcduyyumb#.#bhuzAAAAAub...amyBAAAn#......#bdnnuyyyyyyyzzzynhikkjk",
"fdddhhh#...#abdnnuBAAAAAub..#bnzAAAAn#.....adnuyzyzyyyzzzBBBBBBukkiiig",
"dfffgjkmhnuuuuyzzzBBBAub..ahuBAAAAna.....bnuzzzzzzzzzzzBBBBBAAAzgggggi",
"geegeekuzzyBBBBzzzzzub.#bnyAAAAAua....#dnyBBBzzBBBBBBzBBBBBBBBABgiiggg",
"ggfgggjtzzBzzzzyyuha.ahuzAAAAAub....ahuzzzBBBBBzzBBBBBBAAAyzzzyygiiiii",
"eeeeeeghzzBBzyufa.#bnyAAAAAAub...#bnuzBBBBBBBBBBBzyutpojiiggggggggiigi",
"eeeeeedcnnhdb#.#bnuzAAAAAAub...#fuyzzzBBBBBBBBytmkikkkiggggggggggggiii",
"eeeegeb###abbhnnuBBAAAAAub...bhuyzzBzBBBBBBzupkjllllkeggggggggggggggig",
"ggggggnuunuyyzzzzBBBBBub..#bnuyzzzzzzBBBBynmkiiiiiiggggggggggggeegiijj",
"ggggggnyyyyBBBzzzzBznb..ahnyzzzzzzzzzBzunligiggggigjiiiiiggigggggijiij",
"gggggghyyzBBzzzzzuf#.#bnuyyzzzzzzzzzzuplkkjkjjjiijjjijjjjjjjjjjjjjjjjj",
"gggiiihuzBBBBzufa..afnuyyyyyzzzzzBytpkllllloljjjjjjklkjllljjjjjjlijjll",
"jjiiiihnnnndb#.#abnuyyyyyyyzzzzzunpllopppoollkkjjljjjllljjjllollljllll",
"iijjkh##..##abfmnuyyyyyyyzzzzyutojjkoooooppplllkllloollloollllljlojkll",
"lljjlmnnnnnntuyyyyyyyyyyyyyyxqplllllloooooloooooooooppppppooqqqpploppp",
"qqoopouuuuyyyyyyyyyyyyyyyxwploooooppoppppoooloopllqqqqppppqqqqqqqsqpqq",
"qqooooxyyyyyyyyyyyyyyyuxspoppoppppooqqpooppoppoopppoppqqqqqqqqqqqqppqp",
"qqqpppxuuyzzyyyyyyyyuwqopqqppqpqqpoppoopqqpqpqqppppppqqqpppppqppppppsq",
"qppqqqwuyyyyyyyyxxxspqqrqqqppqpoqqrrrrqqqqpqrppqqqqqqqppppqsttsstssrss",
"rrrrqqwtyyyuxxwwtvqqqqpqqrrrrrrqqqrsssssvrrrprqqrppqqpqqrrqqqqrqqqqqqs",
"rrrrrrrrrrqpqqvqqqqrqvwrqqqsrrvqqvsrqqsrrswrrqqrqrqrrrrsrrqrsssqrqqqqp",
"rrqrrrqrrrqqsrqrsrqrrpqssrpqsqsssqrsqrvrrqqrrqrqsrsrvqrswssrsvrqrqrqqq",
"sssvsssvsssrrrvvqqssrwvqqrtvsssvrrrsrvrrqqrvrvssrrqvvqrswtssvswsstvwsr",
"swsrswsrswssrrrqswwrssrssrssrsvsvssrvrrrrrrrrrrrsrwwswsstvwssrrrsrqrvv",
"vsssssssvsssrrswssrssvwwssrwxtswxssqrwxssqswsrrvsvssxxttwwwwwsswvvrrqq",
"wswsvswssstswwssrsssvwstsswttsswwwwwwwsrrwtwswsswtsswtwsstxxwwwwvwwvrs",
"wxtvsswwwwvssrwwwwwsssswwwtwwxtwwwxtwtwwwxxtwtxxtxwxtxxxxwttwxxwswxwxw",
"wwswwwwwrsrrwxwtttwwwwxwwxxxtswwwwwxxtwwtttwxxtwwwxwwxwwwxwwwswwxwwwss",
"swtswwwwwxwxssswxxtwssssswxtxxwxxxxtxxwwxxxwwwxsstxxwwwwwwwwwwwwsssvxw",
"wsswswwwwwwxxxwttwwwwwtwwwsttwxxwwwxxxxxwxttwwxxxxwtxxxxwwxwxxxxxxwxww",
"xxtsswswwwtwwxwwtwwwwxwxwwwwwwswwwxwwxwwwtwwxtxwwxwwxxxtwwwwwsxwwtwssx",
"xxxtxsswswwxwwwxwwwwwxxwwxxwxttxxwtwxxwxttwtwwwwxxxxwxxxwtwwtxxxwwwwww",
"tttxxwxtswswwwxxwxwxwwwwwtttxxxtwttxxxxxxxxwwtwxxtxxxxxwxwxwwwwwwxxxww",
"xxxttxxwxtswswwxxwwwwwwxwxxtwsttxxxxxxwxxxxxwxxxwxxxxtwwwxxxxwwwxxxxww"
};
