#define auto_scaleR_width 16
#define auto_scaleR_height 16
static unsigned char auto_scaleR_bits[] = {
   0xff, 0xff, 0xff, 0xff, 0xff, 0xff, 0x70, 0x00, 0xf8, 0x80, 0xdc, 0xc1,
   0x8c, 0xc1, 0x8e, 0xe3, 0x06, 0x63, 0x06, 0x77, 0x02, 0x3e, 0x00, 0x1c,
   0xff, 0xff, 0xff, 0xff, 0xff, 0xff, 0x00, 0x00};
