#define auto_scale_width 16
#define auto_scale_height 16
static unsigned char auto_scale_bits[] = {
   0xff, 0xff, 0xff, 0xff, 0xff, 0xff, 0x00, 0x00, 0xf0, 0x00, 0xf8, 0x01,
   0x9c, 0x83, 0x0e, 0xc7, 0x06, 0xee, 0x02, 0x7c, 0x00, 0x38, 0x00, 0x00,
   0xff, 0xff, 0xff, 0xff, 0xff, 0xff, 0x00, 0x00};
