#define from_to_width 16
#define from_to_height 16
static unsigned char from_to_bits[] = {
   0x1f, 0xff, 0x1f, 0xff, 0x03, 0x18, 0x03, 0x18, 0x03, 0x18, 0x03, 0x18,
   0x03, 0x18, 0xdf, 0x1b, 0xdf, 0x1b, 0x03, 0x18, 0x03, 0x18, 0x03, 0x18,
   0x03, 0x18, 0x03, 0x18, 0x03, 0x18, 0x03, 0x18};
