#define pan_width 16
#define pan_height 16
static unsigned char pan_bits[] = {
   0x00, 0x00, 0x00, 0x00, 0x00, 0x00, 0x20, 0x04, 0x30, 0x0c, 0xf8, 0x1f,
   0xfc, 0x3f, 0xfe, 0x7f, 0xfc, 0x3f, 0xf8, 0x1f, 0x30, 0x0c, 0x20, 0x04,
   0x00, 0x00, 0x00, 0x00, 0x00, 0x00, 0x00, 0x00};
