#define pan_right_width 16
#define pan_right_height 16
static unsigned char pan_right_bits[] = {
   0x00, 0x00, 0x00, 0x01, 0x00, 0x03, 0x00, 0x07, 0x00, 0x0f, 0xfc, 0x1f,
   0xfc, 0x3f, 0xfc, 0x7f, 0xfc, 0x3f, 0xfc, 0x1f, 0x00, 0x0f, 0x00, 0x07,
   0x00, 0x03, 0x00, 0x01, 0x00, 0x00, 0x00, 0x00};
