#define pan_up_width 16
#define pan_up_height 16
static unsigned char pan_up_bits[] = {
   0x00, 0x00, 0x00, 0x01, 0x80, 0x03, 0xc0, 0x07, 0xe0, 0x0f, 0xf0, 0x1f,
   0xf8, 0x3f, 0xfc, 0x7f, 0xc0, 0x07, 0xc0, 0x07, 0xc0, 0x07, 0xc0, 0x07,
   0xc0, 0x07, 0xc0, 0x07, 0x00, 0x00, 0x00, 0x00};
