/* XPM */
static char * StripDialogIcon_xpm[] = {
/* width height ncolors cpp [x_hot y_hot] */
"48 48 10 1 0 0",
/* colors */
" 	s iconGray6	m black	c #636363636363",
".	s iconGray8	m black	c #212121212121",
"X	s iconGray5	m black	c #737373737373",
"o	s iconGray2	m white	c #bdbdbdbdbdbd",
"O	s iconGray1	m white	c #dededededede",
"+	s iconColor3	m black	c red",
"@	s iconGray7	m black	c #424242424242",
"#	s iconColor5	m black	c blue",
"$	s iconColor4	m white	c green",
"%	s iconColor8	m black	c magenta",
/* pixels */
"                                                ",
" ..... ............................ ..... ..... ",
" ..... .......  .  .... ........... ..... .   . ",
" .   . ........ . ..  . .  ........ .. .. . X . ",
" ..... .......  . .. .. . ......... ..... .   . ",
" ..... ............................ ..... ..... ",
"                                                ",
" oooooooooooooooooooooooooooooooooooooooooooooo ",
" oooooooooooOOOOO.ooooooooooooooOOOOOOOOOOOO.oo ",
" oooooooooooO++++.ooooooooooooooOooooooooooo.oo ",
" o@@o@@o@o@oO++++.ooOOO.ooOOO.ooOo@o@oo@o@oo.oo ",
" o@o@o@o@oooO++++.ooOoo.ooOoo.ooOooooooooooo.oo ",
" o@o@ooo@@ooO....oooO...ooO...ooO............oo ",
" oooooooooooooooooooooooooooooooooooooooooooooo ",
" oooooooooooOOOOO.ooooooooooooooOOOOOOOOOOOO.oo ",
" oooooooooooO####.ooooooooooooooOooooooooooo.oo ",
" oo@o@@o@oooO####.ooOOO.ooOOO.ooOo@o@oo@o@oo.oo ",
" o@@oo@oo@ooO####.ooOoo.ooOoo.ooOooooooooooo.oo ",
" o@oo@oo@o@oO.....ooO...ooO...ooO............oo ",
" oooooooooooooooooooooooooooooooooooooooooooooo ",
" oooooooooooOOOOO.ooooooooooooooOOOOOOOOOOOO.oo ",
" oooooooooooO$$$$.ooooooooooooooOooooooooooo.oo ",
" o@ooo@oo@ooO$$$$.ooOOO.ooOOO.ooOo@o@oo@o@oo.oo ",
" oo@oo@o@@@oO$$$$.ooOoo.ooOoo.ooOooooooooooo.oo ",
" o@@@o@oo@ooO.....ooO...ooO...ooO............oo ",
" oooooooooooooooooooooooooooooooooooooooooooooo ",
" oooooooooooOOOOO.ooooooooooooooOOOOOOOOOOOO.oo ",
" oooooooooooO%%%%.ooooooooooooooOooooooooooo.oo ",
" oo@@o@oo@ooO%%%%.ooOOO.ooOOO.ooOo@o@oo@o@oo.oo ",
" oo@oo@@o@@oO%%%%.ooOoo.ooOoo.ooOooooooooooo.oo ",
" o@@oo@ooo@oO.....ooO...ooO...ooO............oo ",
" oooooooooooooooooooooooooooooooooooooooooooooo ",
" oooooooooooooooooooooooooooooooooooooooooooooo ",
" oOOOOOOOOOOOOOOOOOOOOOOOOOOOOOOOOOOOOOOOOOOOoo ",
" o...........................................oo ",
" oooooooooooooooooooooooooooooooooooooooooooooo ",
" oooooooooooooooooooooooooooooooooooooooooooooo ",
" oOOOOOOOOOOOOOOOOOOOO.oOOOOOOOOOOOOOOOOOOOO.oo ",
" oOooooooooooooooooooo.oOooooooooooooooooooo.oo ",
" oOoooooo@@ooo@o@ooooo.oOooo@@oo@oo@o@oo@@oo.oo ",
" oOooooo@oo@oo@@oooooo.oOoo@ooo@o@o@@@o@oooo.oo ",
" oOooooo@oo@oo@o@ooooo.oOoo@ooo@@@o@o@o@oooo.oo ",
" oOoooooo@@ooo@o@ooooo.oOooo@@o@o@o@o@oo@@oo.oo ",
" oOooooooooooooooooooo.oOooooooooooooooooooo.oo ",
" oO....................oO....................oo ",
" oooooooooooooooooooooooooooooooooooooooooooooo ",
" oooooooooooooooooooooooooooooooooooooooooooooo ",
"                                                "};
