#define zoom_inY_width 16
#define zoom_inY_height 16
static unsigned char zoom_inY_bits[] = {
   0xfe, 0x3f, 0xfc, 0x1f, 0xf8, 0x0f, 0xf0, 0x07, 0xe0, 0x03, 0xc0, 0x01,
   0x80, 0x00, 0x00, 0x00, 0x00, 0x00, 0x80, 0x00, 0xc0, 0x01, 0xe0, 0x03,
   0xf0, 0x07, 0xf8, 0x0f, 0xfc, 0x1f, 0xfe, 0x3f};
