#define logo00_width 64
#define logo00_height 64
static char logo00_bits[] = {
 0x00,0x00,0x00,0x00,0x00,0x00,0x00,0x00,0x00,0x00,0x00,0x00,0x00,0x00,0x00,
 0x00,0x00,0x00,0x00,0x00,0x00,0x00,0x00,0x00,0x00,0x00,0x00,0x00,0x00,0x00,
 0x00,0x00,0x00,0x00,0x00,0x00,0x00,0x00,0x00,0x00,0x00,0x00,0x00,0x00,0x00,
 0x00,0x00,0x00,0x00,0x00,0x00,0x00,0x00,0x00,0x00,0x00,0x00,0x00,0x00,0x00,
 0x00,0x00,0x00,0x00,0x00,0x00,0x00,0x00,0x00,0x00,0x00,0x00,0x00,0x00,0x00,
 0x00,0x00,0x00,0x00,0x00,0x00,0x00,0x00,0x00,0x00,0x00,0x00,0x00,0x00,0x00,
 0x00,0x00,0x00,0x00,0x00,0x00,0x00,0x00,0x00,0x00,0x00,0x00,0x00,0x00,0x00,
 0x00,0x00,0x00,0x00,0x00,0x00,0x00,0x00,0x00,0x00,0x00,0x00,0x00,0x00,0x00,
 0x00,0x00,0x00,0x00,0x00,0x00,0x00,0x00,0x00,0x00,0x00,0x00,0x00,0x00,0x00,
 0x00,0x00,0x00,0x00,0x00,0x00,0x00,0x00,0x00,0x00,0x00,0x00,0x00,0xfe,0x01,
 0x00,0x00,0x00,0x00,0x00,0xc0,0xff,0x1f,0x00,0x00,0x00,0x00,0x00,0xf0,0xff,
 0x7f,0x00,0x00,0x00,0x00,0x00,0xfc,0x00,0x7f,0x00,0x00,0x00,0x00,0x01,0x1f,
 0x00,0x70,0x00,0x00,0x00,0x00,0xc6,0x03,0xfe,0x41,0x00,0x00,0x00,0x00,0xf8,
 0xc0,0xff,0x1f,0x00,0x00,0x00,0x00,0x00,0xf0,0xff,0x7f,0x00,0x00,0x00,0x00,
 0x00,0xfc,0x00,0x7f,0x00,0x00,0x00,0x00,0x01,0x1f,0x00,0x70,0x00,0x00,0x00,
 0x00,0xc6,0x03,0xfe,0x41,0x00,0x00,0x00,0x00,0xf8,0xc0,0xff,0x1f,0x00,0x00,
 0x00,0x00,0x00,0xf0,0xff,0x7f,0x00,0x00,0x00,0x00,0x00,0xfc,0x00,0x7f,0x00,
 0x00,0x00,0x00,0x01,0x1f,0x00,0x70,0x00,0x00,0x00,0x00,0xc6,0x03,0xfe,0x41,
 0x00,0x00,0x00,0x00,0xf8,0xc0,0xff,0x1f,0x00,0x00,0x00,0x00,0x00,0xf0,0xff,
 0x7f,0x00,0x00,0x00,0x00,0x00,0xfc,0x00,0x7f,0x00,0x00,0x00,0x00,0x01,0x1f,
 0x00,0x70,0x00,0x00,0x00,0x00,0xc6,0x03,0xfe,0x41,0x00,0x00,0x00,0x00,0xf8,
 0xc0,0xff,0x1f,0x00,0x00,0x00,0x00,0x00,0xf0,0xff,0x7f,0x00,0x00,0x00,0x00,
 0x00,0xfc,0x00,0x7f,0x00,0x00,0x00,0x00,0x01,0x1f,0x00,0x70,0x00,0x00,0x00,
 0x00,0xc6,0x03,0x00,0x40,0x00,0x00,0x00,0x00,0xf8,0x00,0x00,0x00,0x00,0x00,
 0x00,0x00,0x00,0x00,0x00,0x00,0x00,0x00,0x00,0x00,0x00,0x00,0x00,0x00,0x00,
 0x00,0x00,0x00,0x00,0x00,0x00,0x00,0x00,0x00,0x00,0x00,0x00,0x00,0x00,0x00,
 0x00,0x00,0x00,0x00,0x00,0x00,0x00,0x00,0x00,0x00,0x00,0x00,0x00,0x00,0x00,
 0x00,0x00,0x00,0x00,0x00,0x00,0x00,0x00,0x00,0x00,0x00,0x00,0x00,0x00,0x00,
 0x00,0x00,0x00,0x00,0x00,0x00,0x00,0x00,0x00,0x00,0x00,0x00,0x00,0x00,0x00,
 0x00,0x00,0x00,0x00,0x00,0x00,0x00,0x00,0x00,0x00,0x00,0x00,0x00,0x00,0x00,
 0x00,0x00,0x00,0x00,0x00,0x00,0x00,0x00,0x00,0x00,0x00,0x00,0x00,0x00,0x00,
 0x00,0x00,0x00,0x00,0x00,0x00,0x00,0x00,0x00,0x00,0x00,0x00,0x00,0x00,0x00,
 0x00,0x00,0x00,0x00,0x00,0x00,0x00,0x00,0x00,0x00,0x00,0x00,0x00,0x00,0x00,
 0x00,0x00,0x00,0x00,0x00,0x00,0x00,0x00,0x00,0x00,0x00,0x00,0x00,0x00,0x00,
 0x00,0x00};
