#define logo01_width 64
#define logo01_height 64
static char logo01_bits[] = {
 0x00,0x00,0x00,0x00,0x00,0x00,0x00,0x00,0x00,0x00,0x00,0x00,0x00,0x00,0x00,
 0x00,0x00,0x00,0x00,0x00,0x00,0x00,0x00,0x00,0x00,0x00,0x00,0x00,0x00,0x00,
 0x00,0x00,0x00,0x00,0x00,0x00,0x00,0x00,0x00,0x00,0x00,0x00,0x00,0x00,0x00,
 0x00,0x00,0x00,0x00,0x00,0x00,0x00,0x00,0x00,0x00,0x00,0x00,0x00,0x00,0x00,
 0x00,0x00,0x00,0x00,0x00,0x00,0x00,0x00,0x00,0x00,0x00,0x00,0x00,0x00,0x00,
 0x00,0x00,0x00,0x00,0x00,0x00,0x00,0x00,0x00,0x00,0x00,0x00,0x00,0x00,0x00,
 0x00,0x00,0x00,0x00,0x00,0x00,0x00,0x00,0x00,0x00,0x00,0x00,0x00,0x00,0x00,
 0x00,0x00,0x00,0x00,0x00,0x00,0x00,0x00,0x00,0x00,0x00,0x00,0x00,0x00,0x00,
 0x00,0x00,0x00,0x00,0x00,0x00,0x00,0x00,0x00,0x00,0x00,0x00,0x00,0x00,0x00,
 0x00,0x00,0x00,0x00,0x00,0x00,0x00,0x00,0x00,0x00,0x00,0x00,0x00,0xfb,0x01,
 0x00,0x00,0x00,0x00,0x00,0xc0,0xff,0x2f,0x00,0x00,0x00,0x00,0x00,0xe8,0xff,
 0x7f,0x00,0x00,0x00,0x00,0x00,0xfc,0x00,0xbf,0x00,0x00,0x00,0x00,0x01,0x1f,
 0x00,0x68,0x00,0x00,0x00,0x00,0xa3,0x09,0xfe,0x41,0x00,0x00,0x00,0x00,0xec,
 0xc0,0xff,0x2f,0x00,0x00,0x00,0x00,0x00,0xe8,0xff,0x7f,0x00,0x00,0x00,0x00,
 0x00,0xfc,0x80,0x77,0x00,0x00,0x00,0x00,0x01,0x2f,0x00,0xa8,0x00,0x00,0x00,
 0x00,0xe3,0x01,0xfd,0x42,0x00,0x00,0x00,0x00,0x78,0xe4,0xfd,0x1f,0x00,0x00,
 0x00,0x00,0x00,0xf0,0xff,0x7f,0x00,0x00,0x00,0x00,0x00,0xfc,0x80,0x7e,0x00,
 0x00,0x00,0x00,0x01,0x1f,0x00,0x58,0x00,0x00,0x00,0x00,0xc9,0x09,0xfe,0x21,
 0x00,0x00,0x00,0x00,0xf4,0xc0,0xff,0x8f,0x00,0x00,0x00,0x00,0x00,0xe8,0xff,
 0xbf,0x00,0x00,0x00,0x00,0x00,0xf6,0x00,0x7f,0x00,0x00,0x00,0x00,0x01,0x1f,
 0x00,0x28,0x01,0x00,0x00,0x00,0xaa,0x05,0xfe,0x22,0x00,0x00,0x00,0x00,0xf4,
 0xe0,0xfe,0x1f,0x00,0x00,0x00,0x00,0x00,0xf0,0xff,0x7f,0x00,0x00,0x00,0x00,
 0x00,0x7c,0x82,0x7e,0x00,0x00,0x00,0x80,0x00,0x2f,0x00,0xb0,0x00,0x00,0x00,
 0x00,0xc3,0x03,0x00,0x00,0x01,0x00,0x00,0x00,0x5c,0x02,0x00,0x00,0x00,0x00,
 0x00,0x00,0x00,0x00,0x00,0x00,0x00,0x00,0x00,0x00,0x00,0x00,0x00,0x00,0x00,
 0x00,0x00,0x00,0x00,0x00,0x00,0x00,0x00,0x00,0x00,0x00,0x00,0x00,0x00,0x00,
 0x00,0x00,0x00,0x00,0x00,0x00,0x00,0x00,0x00,0x00,0x00,0x00,0x00,0x00,0x00,
 0x00,0x00,0x00,0x00,0x00,0x00,0x00,0x00,0x00,0x00,0x00,0x00,0x00,0x00,0x00,
 0x00,0x00,0x00,0x00,0x00,0x00,0x00,0x00,0x00,0x00,0x00,0x00,0x00,0x00,0x00,
 0x00,0x00,0x00,0x00,0x00,0x00,0x00,0x00,0x00,0x00,0x00,0x00,0x00,0x00,0x00,
 0x00,0x00,0x00,0x00,0x00,0x00,0x00,0x00,0x00,0x00,0x00,0x00,0x00,0x00,0x00,
 0x00,0x00,0x00,0x00,0x00,0x00,0x00,0x00,0x00,0x00,0x00,0x00,0x00,0x00,0x00,
 0x00,0x00,0x00,0x00,0x00,0x00,0x00,0x00,0x00,0x00,0x00,0x00,0x00,0x00,0x00,
 0x00,0x00,0x00,0x00,0x00,0x00,0x00,0x00,0x00,0x00,0x00,0x00,0x00,0x00,0x00,
 0x00,0x00};
