/* XPM */
static char *wind06[] = {
/* width height num_colors chars_per_pixel */
"    70    70       30            1",
/* colors */
". c #e8e8e8",
"# c #e6e6e6",
"a c #d8d8d8",
"b c #c3c3c3",
"c c #b9b9cf",
"d c #a6a5bc",
"e c #9894cc",
"f c #9796b2",
"g c #8b87c0",
"h c #8785a6",
"i c #7e7ab3",
"j c #7b77b5",
"k c #7672a7",
"l c #6f6ca6",
"m c #6e6c91",
"n c #626174",
"o c #615f99",
"p c #545390",
"q c #44448a",
"r c #3f3f83",
"s c #3c3c7a",
"t c #393a6a",
"u c #39394d",
"v c #37387c",
"w c #303171",
"x c #2a2b65",
"y c #282938",
"z c #212331",
"A c #202020",
"B c #1c1d29",
/* pixels */
"baaaabbbaabbbabcbaacbbcccdiijjjjjjjjjjjjjkmkhhmoppppppnpoopppnpkjjkkjj",
"aaaaaaabbaaaaaaaaaaaccdhhijjjjijjjiijjkkkkfkkkfmnnnoppppppnpppnmllkklj",
"aaaaaaabcbcaaaaaaaaaabimolkjjjiiiiiiijkkfkmmmmhkokkmmppooopppppnnppppl",
"cbaaaaaaaaccbbaaaaaaadioojiiiiiiiiiiiihfdfkmkhhbbcopmmpookkkcppppppppp",
"cbaaaaaaabbdffdbaaabacdkljjjiiiiiigfeddcddihhaaaabdookkkkkkkhachmkpppp",
"cbaaaaaaaabcfhhfcbbcbbcddfkhjiiihdddddccccccbaa#aaaioffkkkkkkkdcbdpppp",
"cdbbbaaaaaabdhhhhfhmkbdiijjdcdigdddffdccaaaada#a#aachmmkkkkkdccbcfpppp",
"fcccdccbaaabdhkhfffkmmmigiigdffdddddccca#aabaa###adabchkkkkdcbabddmppp",
"dccdffdcbaabdhkfhfdfiijedfiicccdfaa#abcaa#daaaaacficabkfkmmkdbcddmmmpt",
"bbbdffffdccdkfhfhdcciiigcccccdddfda##aaa#aaaaacgcebccbcbcffffdffhkkmpp",
"bbcdffffkhkkkdhfhhfiiiiidddcdddddkcaaaaa#aaaadcccccbbbbbbkdfffddfkmnmm",
"bchihfhkkkkfffffmgiiiiiijfgddcddhfbaaaaa#adfbabcceeckfchbkkdhddfkddfff",
"bdhjkkihfffhghigfiiiecccffdddcdhfdbaaa###aacacfddccbbbbchddddbbcccbdhf",
"dhmiiiiiihhiiiiifgigccccddddddfkcaaaa###acdbbaaaaaaaaaabffdfffcbbbbbbd",
"kkijijjiiiiiiiiiiiiggccfdddddfhhdaaa#acfcaaaaaaaaaaaaaaadakhfhddbbbbbc",
"mmkijiiiihhhiiiiiijigedfhfhkkkkkaabaffc##a####aabbhnnnnhfnnpnhhdbccdfb",
"mimmmkmkjkkjiijjicfkidihkkkdkkffdfffc#####abmuuzyuunnnnnnmnnnhccbbbbbd",
"bfmmhfkkkmjiiijiibbdfkhkkkhbaahhhfc####bhuyBuhbaaaaaaaaaadfmmfbbabbbbb",
"cccfhfdkhhiiiiijfbaabchkkfcdgdfda####duzAuda####aaaaaaaaabijkkdccbccdc",
"baacbecmkkkkiiedabaaaachdggffda###amyAAnb#########aaabbbaadidcdfhbbbhm",
"ababacceffmmihfdccdccffgdccda###buBAAna######bbhnuyyzBBBzyhjjlppmffhmm",
"bbbccccedfkkhhhhhiiiggifbc###amyAAAna####abnuzAynhdbbbbbbbdgijopppnmmm",
"babccbadfekkhffhiiiiigdc###bnzAAAna####bnzABnba##########aaejklpnppmmm",
"babdcaacffedcffffigddca#bmyBAAAna.##afuBAub###############ackkkloppmmk",
"hccdbccfhffddhhhffca##duzAAABna#.#bnzAAub#########aabbbbbbbbjikpomhkhh",
"hhbcccfffdccdefca##bnyBAAABh#..#fuBAAub..##.#abhnuyyBBBBBBBziikppkbcdd",
"febbaabecccca###bduzAAAAyh#.#bnzAAAub.#..#afnuBBunfbbbaababbhikpnmcbbb",
"hcbbbabc###abfnuuyzBBByf#.afuBAAAub....#dnyAznb#############diklophhhf",
"hhhhcackuuuzzBzyyyyzud##bnzAAAAub....bnyAAub#.##############bfjjijjopm",
"fffffffdyyyyBzyuyunb.ahuBAAAAub...#bnzAAna.....#...##aaaaaaa#fookjjjjk",
"ffffffc#nyzyyyumb##bnzAAAAAnb...ahuAAAna......#adhnuuyyyzzzyunpqpppmmm",
"kfcccdd#dnnhb###bnuBAAAABna..#bnyAAAub.....abnuyAAyumfdbbbddfhhqppmmmm",
"idbbbbcb###bdhnuyzBBAABna..ahuBAAAub....#bnuBAynb##...########hppkkmkm",
"fidbacctuuyzBBzyyyzzzna.#bnyAAAAub....afuzABnb.....###########dpmfhkfm",
"gdbbbcdmyyyzBzyyyyuf#.afuzAAAAub....bnyBABf#...............###bhmhhhfg",
"fbbbbbcdyzBzyyyuha.#bnyAAAAAub...#duzAABh#........##abbdfhfdfbbfmkfffd",
"dabcddcduyyumb#.#bhuzAAAAAub...amyBAAAn#......#bdnnuyyyyyyyzzzynnmkkhf",
"fcbdhhh#...#abdnnuBAAAAAub..#bnzAAAAn#.....adnuyzyzyyyzzzBBBBBBuhhhhff",
"ddffgjkmhnuuuuyzzzBBBAub..ahuBAAAAna.....bnuzzzzzzzzzzzBBBBBAAAzhhhkhh",
"ggggeekuzzyBBBBzzzzzub.#bnyAAAAAua....#dnyBBBzzBBBBBBzBBBBBBBBABkihhhm",
"ggggggjtzzBzzzzyyuha.ahuzAAAAAub....ahuzzzBBBBBzzBBBBBBBBBzBBBBBiiiihh",
"eeeeeeghzzBBzyufa.#bnyAAAAAAub...#bnuzBBBBBBBBBBBzyutppolkjjkkliggiigi",
"eeeeeedcnnhdb#.#bnuzAAAAAAub...#fuyzzzBBBBBBBBytmkikkllkiiiggggggggiii",
"eeeegeb###abbhnnuBBAAAAAub...bhuyzzBzBBBBBBzupkjllllkegggeeeegegegggig",
"ggggggnuunuyyzzzzBBBBBub..#bnuyzzzzzzBBBBynmkiiiiiiggggggggggggeegiijj",
"ggggggnyyyyBBBzzzzBznb..ahnyzzzzzzzzzBzunligiggggigjiiiiiggigggggijiij",
"gggggghyyzBBzzzzzuf#.#bnuyyzzzzzzzzzzuplkkjkjjjiijjjijjjjjjjjjjjjjjjjj",
"gggiiihuzBBBBzufa..afnuyyyyyzzzzzBytpkllllloljjjjjjklkjllljjjjjjlijjll",
"jjiiiihnnnndb#.#abnuyyyyyyyzzzzzunpllopppoollkkjjljjjllljjjllollljllll",
"iijjkh##..##abfmnuyyyyyyyzzzzyutojjkoooooppplllkllloollloollllljlojkll",
"lljjlmnnnnnntuyyyyyyyyyyyyyyxqpllooooooooolooooooooooooooljkqsqpoloppp",
"lllopouuuuyyyyyyyyyyyyyyyxwploooooppoppppoooloopllqqqqppqqqqpqqsstqpqq",
"poooooxyyyyyyyyyyyyyyyuxspoppoppppoooooooppoppooooppppqqqqqqqqqqqqppqp",
"opopppxuuyzzyyyyyyyyuwqopqqppqpqqpoppoopqqpqpqqppppppqqqpppppqppppppsq",
"qppqqqwuyyyyyyyyxxxspqqrqqqppqpoqqrrrrqqqqpqrppqqqqqqqppppqsttsstssrss",
"rrrrqqwtyyyuxxwwtvqqqqpqqrrrrrrqqqrrrsqqsqrrprqqrppqqpqqrrqqqqrqqqqqqs",
"rrrrrrrrrrqpqqvqqqqrqvwrqqqrrrvqqvsrqqsrrrvqrqqqprqqrrrsrrrssssqrqqqqp",
"rrqrrrqrrrqrsrqrsrqrrpqswwsssqsssqrsqrvrrqqrqqrqqqqrvqrswvvsqwvqrqrqqq",
"sssvsssvsssrsvvvqqssrwvrqqswssswqrvvrvrrqqrvrvssrrqvvqrswtssvvwwssrrqq",
"swsrswsrswssrrrqswwrssrrwwwwwwwsswsrvrrrrrrrrrrrsrwwswsstvwssrrrvrqrvv",
"vsssssssvsssrrswssrrswwwtsswxxwxxssqrvwwsrvsrrswwvvsxxttwwwwwsswvvrrqq",
"wswsvswssstswwssrsssvwttsrwttsswttwwwwsrrwtxvwsswtttxtwsstxxwwwwvwwvrs",
"wxtvsswwwwvssrwwwwwsssswwwwwttwwwxxtwtwwwxxtwtxxtxwxtxxxxwttwxxwswxwxw",
"wwswwwwwrsrrwxwtttwwwwxwwxxxtswwwwwxxtwwtttwxxtwwwxwwxwwwxwwwswwxwwwss",
"swtswwwwwxwxssswxxtwssssswxtxxwxxxxtxxwwxxxwwwxsstxxwwwwwwwwwwwwsssvxw",
"wsswswwwwwwxxxwttwwwwttxxwsttwxtxxwxxxxxwxttwwxxxxwtxxxxwwxwxxxxxxwxww",
"xxtsswswwwtwwxwwtwwwwxwwwwwwwwsstwxwxxwwwtwwxtxwwxwwxxwwwwwwssxwwtwssx",
"xxxtxsswswwxwwwwwwwwwwwwwxxtwttxxwtwwwwwxxwwwwwwxxxxxwwxwtwwxxxxwwwwww",
"tttxxwxtswswwwxxwwwwwwwwwtttxxxtwttxxxxxxxxxxwwxxtxxxxxxwwxxxwwwwxxxww",
"xxxttxxwxtswswwxxwwwwwwxwxxtwsttxxxxxxwxxxxxwxxxwxxxxtwwwxxxxwwwxxxxww"
};
