/* XPM */
static char *g_wind11[] = {
/* width height num_colors chars_per_pixel */
"    70    70       30            1",
/* colors */
". c #e8e8e8",
"# c #e6e6e6",
"a c #d8d8d8",
"b c #c3c3c3",
"c c #bcbcbc",
"d c #a8a8a8",
"e c #9e9e9e",
"f c #9a9a9a",
"g c #919191",
"h c #8a8a8a",
"i c #848484",
"j c #828282",
"k c #7b7b7b",
"l c #767676",
"m c #727272",
"n c #646464",
"o c #686868",
"p c #5c5c5c",
"q c #4e4e4e",
"r c #494949",
"s c #454545",
"t c #414141",
"u c #3c3c3c",
"v c #424242",
"w c #3a3a3a",
"x c #333333",
"y c #2b2b2b",
"z c #242424",
"A c #202020",
"B c #1e1e1e",
/* pixels */
"aa#baaaaaabbcaacccdaaaaaabbaaaaaaabcdgggggggggggggggigggifbbcccckfaaaa",
"aaaaaaaaaaaaaaaacdaaaaaaaaaaabcdbbbcccegggggggggggggggffddbabcdcdhcaaa",
"baaaabaaaaaaaaaaabbbaaaaaaaabdgfdcdcddfgegggggggggggggggfaaaabdddhdbba",
"dcabbccbbbaaaaaaaabcbcccaaaabeeggfffffggggggggiifffgfedcbaaaabdfccbbba",
"ddcdccdcacbcbaaaaaaaadeecbbbbdeeeeeeggggggfgggiigddcbaaabaaaacdbaaaaaa",
"cddddccdaacbaaaaaaaabbdfccbcccfffeeeeeggggggiigfedcaaaabaaaabccbaaaaaa",
"abddccccbabaaaaaaaaaaabccbcceeefgfgggggggggiiggdcbbabbbbbaabccddbaaaaa",
"aabdcbbbaaaabbbbaaaaaaaaabcceeffggggggefggggiigecaaaabbccbcddfhdcbaaab",
"aaafdbbaaaaabccdccbaaaaaabcccdeeefffgggggeggggggeecaacccddcchhhcbaabcb",
"baaccbbaaaacbbdddccbaaaaabbbbcddffeffggggggggggggeedcefffeccchfcbbabcc",
"dcadcaaaaaabbbccccccbbaaabbabbbcdddeefggggggggggggggggffffeccccbabbabc",
"dccfdbaaaaabbccccccccbbbbbbbbbbbcdddddggiggggggfffggggffeffdccccaababd",
"dcffddcccaaabdcccccccccccccdcccccccddfkmmmmkhffddccbbbbcffgfdccccbaabd",
"ecggfdfdccbabcccccccdccccdffffhhdfdfhkmmkjfcbaaaaaaaaaabffhhfdddccbbcc",
"fdgggfdcdddcccbbccdffdddddhhhhgiijkmmmjhcaaaaaaaaaaaaaaadhhkiffffdcccc",
"gggggggeefffddcbcdfgggfigffijfigklmlifc##a####aabbhnnnnhffkiggfhmhdbbc",
"gggggggggggggffdcdfggggggggigilmmmkfc#####abmuuzyuunnnnnnhkiggffhmfbab",
"gggihffffggggggfffiggffggiigikkjkfc####bhuyBuhbaaaaaaaaaaddigfdffkhbaa",
"gghihddddffffggggiggggggggikkhida####duzAuda####aaaaaaaaabbkgfddfhhcaa",
"ikihdccccdddddffgggiigggikkggda###amyAAnb#########aaabbbaaakigfdfdcbab",
"khhdcbbbbcddcccdffgggikkjigda###buBAAna######bbhnuyyzBBBzyhfkgfffcccbc",
"hhfdcbbbbcfffdcbccfiifdffc###amyAAAna####abnuzAynhdbbbbbbbdbmkfffdcccb",
"dddcbbbccchkkhfdddfgiiic###bnzAAAna####bnzABnba##########aabmmfffidccc",
"ccbbbbbcccfkkkmkfcefdca#bmyBAAAna.##afuBAub###############achmffgggdcc",
"bbbbbbcdddhmkfhhccca##duzAAABna#.#bnzAAub#########aabbbbbbbbfmkfggggdc",
"bccbbcfikhmkhcdca##bnyBAAABh#..#fuBAAub..##.#abhnuyyBBBBBBBzhmkigggggd",
"cddddeggcccca###bduzAAAAyh#.#bnzAAAub.#..#afnuBBunfbbbaababbhmmkhigggg",
"cfgfeegc###abfnuuyzBBByf#.afuBAAAub....#dnyAznb#############dhmmkigggg",
"cggfeefkuuuzzBzyyyyzud##bnzAAAAub....bnyAAub#.##############bdmmmiiggg",
"fgffeeedyyyyBzyuyunb.ahuBAAAAub...#bnzAAna.....#...##aaaaaaa#fkmljiigg",
"fffeeec#nyzyyyumb##bnzAAAAAnb...ahuAAAna......#adhnuuyyyzzzyunhmmmjiig",
"gfeeeec#dnnhb###bnuBAAAABna..#bnyAAAub.....abnuyAAyumfdbbbddfhfkllkkii",
"eeeeeecb###bdhnuyzBBAABna..ahuBAAAub....#bnuBAynb##...########hhkkkkkj",
"eeeeedctuuyzBBzyyyzzzna.#bnyAAAAub....afuzABnb.....###########dfkkjjkk",
"eeeeedcmyyyzBzyyyyuf#.afuzAAAAub....bnyBABf#...............###bdijjiik",
"eeeeeecdyzBzyyyuha.#bnyAAAAAub...#duzAABh#........##abbdfhfdfbbfijiiii",
"eeeeeecduyyumb#.#bhuzAAAAAub...amyBAAAn#......#bdnnuyyyyyyyzzzyniiiiii",
"feeeeed#...#abdnnuBAAAAAub..#bnzAAAAn#.....adnuyzyzyyyzzzBBBBBBuiiiiii",
"eeeeegdmhnuuuuyzzzBBBAub..ahuBAAAAna.....bnuzzzzzzzzzzzBBBBBAAAzeiiiii",
"feeeeefuzzyBBBBzzzzzub.#bnyAAAAAua....#dnyBBBzzBBBBBBzBBBBBBBBABgiiigi",
"geeeegetzzBzzzzyyuha.ahuzAAAAAub....ahuzzzBBBBBzzBBBBzAAAAzAzzzAggiiii",
"eeeeeeehzzBBzyufa.#bnyAAAAAAub...#bnuzBBBBBBBBBBzzyutpojiiggggggggiigi",
"eeeeeedcnnhdb#.#bnuzAAAAAAub...#fuyzzzBBBBBBBzytmkikkkiggggggggggggiii",
"eeeegeb###abbhnnuBBAAAAAub...bhuyzzBzBBBBBByumkjllllkeggggggggggggggig",
"ggggggnuunuyyzzzzBBBBBub..#bnuyzzzzzzBBBBynmkiiiiiiggggggggggggeegiijj",
"ggggggnyyyyBBBzzzzBznb..ahnyzzzzzzzzzBzunligiggggigjiiiiiggigggggijiij",
"gggggghyyzBBzzzzzuf#.#bnuyyzzzzzzzzzzunlkkjkjjjiijjjijjjjjjjjjjjjjjjjj",
"gggiiihuzBBBBzufa..afnuyyyyyzzzzzBytpkllllloljjjjjjklkjllljjjjjjlijjll",
"jjiiiihnnnndb#.#abnuyyyyyyyzzzzzunpllopppoollkkjjljjjllljjjllollljllll",
"iijjkh##..##abfmnuyyyyyyyzzzzzutojjkoooooppplllkllloollloollllljlojkll",
"lljjlmnnnnnntuyyyyyyyyyyyzzyqkplllllloooooloooooooooppppppooqqqpploppp",
"qqoopouuuuyyyyyyyyyyyyyzzqppooooooppoppppoooloopllqqqqppppqqqqqqqsqpqq",
"qqoooowyyyyyyyyyyyyyyyuqpmmmpoppppooqqpooppoppoopppoppqqqqqqqqqqqqppqp",
"qqqpppwuuyzzyyyyzzzyuqpmmoqppqpqqpoppoopqqpqpqqppppppqqqpppppqppppppsq",
"qppqqqwuyyyyzzzyqqpmmpqrqqqppqpoqqrrrrqqqqpqrppqqqqqqqppppqsttsstssrss",
"rrrrqqwuyyyuwwwwomqqqqpqqrrrrrrqqqrsssssvrrrprqqrppqqpqqrrqqqqrqqqqqqs",
"rrrrrrrrrrqpqqvqqqqrqvwrqqqsrrvqqvsrqqsrrswrrqqrqrqrrrrsrrqrsssqrqqqqp",
"rrqrrrqrrrqqsrqrsrqrrpqssrpqsqsssqrsqrvrrqqrrqrqsrsrvqrswssrsvrqrqrqqq",
"sssvsssvsssrrrvvqqssrwvqqrtvsssvrrrsrvrrqqrvrvssrrqvvqrswtssvswsstvwsr",
"swsrswsrswssrrrqswwrssrssrssrsvrssrssrssrsvsvssrvrwwswsstvwssrrrsrqrvv",
"vsssssssvsssrrswssrssvwwssswxtsssvwwssswxtswxssqrvssxxttwwwwwsswvvrrqq",
"wswsvswssstswwssrsssvwsswwwtwsssvwsswwwtwsssttwxttsswtwsstxxwwwwvwwvrs",
"wxtvsswwwwvssrwwwwwsssswtwtwxtwsssswtwtwxtwssssswxwxtxxxxwttwxxwswxwxw",
"wwswwwwwrsrrwxwtttwwwwxwwxxxtswwwwxwwxxxtswwwwwxwwxwwwxwwwxxwswwxwwwss",
"swtswwwwwxwxssswxxtwssssswxtxxwwssssswxtxxwxxxxtxxwwxwwwwwwwwwwwsssvxw",
"wsswswwwwwwxxxwttwwwwwtwwwsttwxwwwtwwwsttwxxwwwxxxwtxxxwwwxxxxxxxxwxww",
"xxtsswswwwtwwxwwtwwwwxwxwwwwwwswwxwxwwwwwwswwwxwwxwwxxxtwxwwwsxwwtwssx",
"xxxtxsswswwxwwwxwwwwwxxwwxxwxttwwxxwwxxwxttxxwtwxxxxwxxxwtwwtxxxwwwwww",
"tttxxwxtswswwwxxwxwxwwwwwtttxxxxwwwwwtttxxxtwttxxtxxxxxwxwxwwwwwwxxxww",
"xxxttxxwxtswswwxxwwwwwwxwxxtwstwwwwxwxxtwsttxxxxxxxxxtwwwxxxxwwwxxxxww"
};
