#define logo02_width 64
#define logo02_height 64
static char logo02_bits[] = {
 0x00,0x00,0x00,0x00,0x00,0x00,0x00,0x00,0x00,0x00,0x00,0x00,0x00,0x00,0x00,
 0x00,0x00,0x00,0x00,0x00,0x00,0x00,0x00,0x00,0x00,0x00,0x00,0x00,0x00,0x00,
 0x00,0x00,0x00,0x00,0x00,0x00,0x00,0x00,0x00,0x00,0x00,0x00,0x00,0x00,0x00,
 0x00,0x00,0x00,0x00,0x00,0x00,0x00,0x00,0x00,0x00,0x00,0x00,0x00,0x00,0x00,
 0x00,0x00,0x00,0x00,0x00,0x00,0x00,0x00,0x00,0x00,0x00,0x00,0x00,0x00,0x00,
 0x00,0x00,0x00,0x00,0x00,0x00,0x00,0x00,0x00,0x00,0x00,0x00,0x00,0x00,0x00,
 0x00,0x00,0x00,0x00,0x00,0x00,0x00,0x00,0x00,0x00,0x00,0x00,0x00,0x00,0x00,
 0x00,0x00,0x00,0x00,0x00,0x00,0x00,0x00,0x00,0x00,0x00,0x00,0x00,0x00,0x00,
 0x00,0x00,0x00,0x00,0x00,0x00,0x00,0x00,0x00,0x00,0x00,0x00,0x00,0x00,0x00,
 0x00,0x00,0x00,0x00,0x00,0x00,0x00,0x00,0x00,0x00,0x00,0x00,0x00,0x7b,0x0a,
 0x00,0x00,0x00,0x00,0x00,0xc0,0xff,0x8f,0x00,0x00,0x00,0x00,0x00,0xe8,0xff,
 0xbf,0x00,0x00,0x00,0x00,0x00,0x7a,0x01,0x3f,0x01,0x00,0x00,0x00,0x84,0x1e,
 0x00,0xa8,0x00,0x00,0x00,0x00,0xe5,0x04,0xfe,0x81,0x00,0x00,0x00,0x00,0x2c,
 0xb8,0xff,0x27,0x04,0x00,0x00,0x00,0x00,0xb4,0xff,0x3f,0x01,0x00,0x00,0x00,
 0x00,0x3e,0x01,0x7f,0x00,0x00,0x00,0x40,0x80,0x0f,0x00,0xa8,0x00,0x00,0x00,
 0x00,0xe9,0x01,0xfd,0x21,0x00,0x00,0x00,0x00,0x74,0xd4,0xfd,0x8f,0x00,0x00,
 0x00,0x00,0x00,0xdc,0xf7,0xbf,0x00,0x00,0x00,0x00,0x00,0x7c,0x08,0x7f,0x00,
 0x00,0x00,0x80,0x80,0x27,0x00,0x30,0x02,0x00,0x00,0x80,0xf0,0x10,0xfe,0x11,
 0x00,0x00,0x00,0x00,0x38,0xa9,0xff,0x37,0x00,0x00,0x00,0x00,0x00,0xf0,0xff,
 0x7f,0x00,0x00,0x00,0x00,0x00,0x6e,0x84,0xbd,0x00,0x00,0x00,0x80,0x00,0x0f,
 0x20,0x98,0x00,0x00,0x00,0x00,0xb5,0x04,0xfe,0x08,0x04,0x00,0x00,0x00,0xec,
 0xd0,0xfd,0x2f,0x00,0x00,0x00,0x00,0x00,0xe8,0xff,0xbf,0x00,0x00,0x00,0x00,
 0x00,0x39,0xe1,0xb9,0x00,0x00,0x00,0x40,0xc0,0x26,0x00,0x30,0x02,0x00,0x00,
 0x00,0xe8,0x02,0x01,0x40,0x00,0x00,0x00,0x00,0x6c,0x01,0x00,0x00,0x00,0x00,
 0x00,0x00,0x00,0x00,0x00,0x00,0x00,0x00,0x00,0x00,0x00,0x00,0x00,0x00,0x00,
 0x00,0x00,0x00,0x00,0x00,0x00,0x00,0x00,0x00,0x00,0x00,0x00,0x00,0x00,0x00,
 0x00,0x00,0x00,0x00,0x00,0x00,0x00,0x00,0x00,0x00,0x00,0x00,0x00,0x00,0x00,
 0x00,0x00,0x00,0x00,0x00,0x00,0x00,0x00,0x00,0x00,0x00,0x00,0x00,0x00,0x00,
 0x00,0x00,0x00,0x00,0x00,0x00,0x00,0x00,0x00,0x00,0x00,0x00,0x00,0x00,0x00,
 0x00,0x00,0x00,0x00,0x00,0x00,0x00,0x00,0x00,0x00,0x00,0x00,0x00,0x00,0x00,
 0x00,0x00,0x00,0x00,0x00,0x00,0x00,0x00,0x00,0x00,0x00,0x00,0x00,0x00,0x00,
 0x00,0x00,0x00,0x00,0x00,0x00,0x00,0x00,0x00,0x00,0x00,0x00,0x00,0x00,0x00,
 0x00,0x00,0x00,0x00,0x00,0x00,0x00,0x00,0x00,0x00,0x00,0x00,0x00,0x00,0x00,
 0x00,0x00,0x00,0x00,0x00,0x00,0x00,0x00,0x00,0x00,0x00,0x00,0x00,0x00,0x00,
 0x00,0x00};
