/* XPM */
static char *wind01[] = {
/* width height num_colors chars_per_pixel */
"    70    70       30            1",
/* colors */
". c #e8e8e8",
"# c #e6e6e6",
"a c #d8d8d8",
"b c #c3c3c3",
"c c #b9b9cf",
"d c #a6a5bc",
"e c #9894cc",
"f c #9796b2",
"g c #8b87c0",
"h c #8785a6",
"i c #7e7ab3",
"j c #7b77b5",
"k c #7672a7",
"l c #6f6ca6",
"m c #6e6c91",
"n c #626174",
"o c #615f99",
"p c #545390",
"q c #44448a",
"r c #3f3f83",
"s c #3c3c7a",
"t c #393a6a",
"u c #39394d",
"v c #37387c",
"w c #303171",
"x c #2a2b65",
"y c #282938",
"z c #212331",
"A c #202020",
"B c #1c1d29",
/* pixels */
"jjjjjjjjjjjjjjjjjjjjjjjjjjkklkklllllloookkkhooooooooooommmmmkoppppqqss",
"jjjjjjjjjjjjjjjjjjjjjjjjjjkklkkkjlhlkklllklkkoooooooommmmmmmooopppppqq",
"jjjjjjjjjjjjjjjjjjjjjijjjjjkkkklllllkkkkkllloomommooooomommmmoooooopqs",
"jjjjjjjjjjjjjjjjjjjjjjjjjjjjjkkkkkkkkkkkkkmooommmmmmmooomnnmmooooopppp",
"jjjggjjjjjjjjjjjjjjjjjjjjjjjjjjjjjjjfjjkkkkkoommmmmmomhompommmmkmkkooo",
"gjjggjjjjjiiijjjjjjjjjjjjjjjjjjjjjjjkhihlllllloolooookhommommmmmmmkmoo",
"ajjggjjjjggcggiiiigggjjjjjjjjjjjjjjjjikikkkkkhllloookokommmmhhmmmmmmoo",
"bbjgggggegccccccccccgjjjjjijjjjjjijkkhkkjjikhhhkkkkkkkkkmmmmmmkmmmmmmo",
"acjggggggggccaaaaaaacggjjjijjiijjjjjjjkkiiihhhikhkkkkhkkmmmmmmhmkmmmkk",
"gggeggggifccca########bgjjjjiiiiijiijjjjjkkkkkkkihhkhhhkkmmmmmkmmkmmhh",
"gggggggggccb###.########gjjjiiiiiiiijjjjjjjjjkkmifhhhdhkkkkmmmmmkkkhhf",
"ggggeggggcca############ajjjjijjjjjjijjjjjjjjjjjkfffffhiifkkkkmfdmmhff",
"gcabcgggggcaa###########ecfjjijijijjijjijjjlllfddccbbbbchfghhkkhkkhfdd",
"#aaajiigcgcabbcaacbaaa##ecaiiiiijiiiijiiklkddbaaaabbbbbbhhhffhhihhhfdc",
"eaaa#fggcccacccccccbabacgggggggjijiijiihcaaaaaaaaaaaaaaadhhgfdfhhfdddc",
"gcaaadgcacccccjfdccccccgggggggggigjjjfc##a####aabbhnnnnhfhhfdfdkgffffc",
"gaeadcba#accceebcbdeeeggggggggggggjfc#####abmuuzyunnnnnnnmkddffffffddd",
"egdddaaaaccggeeaabgeegggggggggggihc####bhuyBuhbaaaaaaaaaadffdddddffddf",
"dddbaafgeeeeeeegegeeggggggggggida####duzAuda####aaaaaaaaabdaa#aadddddf",
"jjaacegeeeeeeeeeeeeeggggggggjda###amyAAnb#########aaabbbaaacca##aacddd",
"ggggegeeeeeeeeeeeeeegegggggda###buBAAna######bbhnuyyzBBBzyfccca#aacddd",
"eeeeeeeeeeeeeeeeeeeeeegggc###amyAAAna####abnuzAynhdbbbbbbbdcccccbcdddd",
"eeeeeeeeeeeeeeeeeeeeeggc###bnzAAAna####bnzABnba##########aadcccbbcbcdc",
"eeeeeeeeeeeeeeeeeeegfdb#bmyBAAAna.##afuBAub###############accccbabbbcc",
"eeeeeeeeeeeeeeeeggca##duzAAABna#.#bnzAAub#########aabbbbbbbbffcbbbcccc",
"eeeeeeeeeeeegggca##bnyBAAABh#..#fuBAAub..##.#abhnuyyBBBBBBBzhddcbbdddc",
"eeeeeeegcccca###bduzAAAAyh#.#bnzAAAub.#..#afnuBBunfbbbaababbhfffffffff",
"eeeeeeed###abfnuuyzBBByf#.afuBAAAub....#dnyAznb#############dffdddffff",
"eeeeeegkuuuzzBzyyyyzud##bnzAAAAub....bnyAAub#.##############bcbdffffff",
"cccecegdyyyyBzyuyunb.ahuBAAAAub...#bnzAAna.....#...##aaaaaaa#fffffffhh",
"ebaa#ab#nyzyyyumb##bnzAAAAAnb...ahuAAAna......#adhnuuyyyzzzyunffffffdd",
"deccacc#dnnhb###bnuBAAAABna..#bnyAAAub.....abnuyAAyumfdbbbddfhffffffdd",
"ffedbbcb###bdhnuyzBBAABna..ahuBAAAub....#bnuBAynb##...########kgfgffff",
"gdcbbactuuyzBBzyyyzzzna.#bnyAAAAub....afuzABnb.....###########dggffdcc",
"ecccccdmyyyzBzyyyyuf#.afuzAAAAub....bnyBABf#...............###bkfccccc",
"dcccccfdyzBzyyyuha.#bnyAAAAAub...#duzAABh#........##abbdfhfdfbbhdddddd",
"dccceeiduyyumb#.#bhuzAAAAAub...amyBAAAn#......#bdnnuyyyyyyyzzzynhhfffd",
"eeeeeek#...#abdnnuBAAAAAub..#bnzAAAAn#.....adnuyzyzyyyzzzBBBBBBuhhhhff",
"efeeeekmhnuuuuyzzzBBBAub..ahuBAAAAna.....bnuzzzzzzzzzzzBBBBBAAAzhhhhhh",
"ggggeekuzzyBBBBzzzzzub.#bnyAAAAAua....#dnyBBBzzBBBBBBzBBBBBBBBABkihhhk",
"ggggggktzzBzzzzyyuha.ahuzAAAAAub....ahuzzzBBBBBzzBBBBzzzzzzzzzzziiiihh",
"eeeeeeihzzBBzyufa.#bnyAAAAAAub...#bnuzBBBBBBBBBBzzyuttsqpppooopiiiiigi",
"eeeeeedcnnhdb#.#bnuzAAAAAAub...#fuyzzzBBBBBBBzytnhfggigiiiiiiiiiggiiii",
"eeeegeb###abbhnnuBBAAAAAub...bhuyzzBzBBBBBBzuskggggggiiiiiijjjiiiiigig",
"ggggggnuunuyyzzzzBBBBBub..#bnuyzzzzzzBBBBynnggggeeeggggijjjjjjjjiijjjj",
"ggggggnyyyyBBBzzzzBznb..ahnyzzzzzzzzzBzunligiggggggjiiijjjjjiijjjjjiij",
"gggggghyyzBBzzzzzuf#.#bnuyyzzzzzzzzzzuslijljiiiiijjjijjjjjjjjjjjjjjjjj",
"gggiiihuzBBBBzufa..afnuyyyyyzzzzzBywpjjjjjjjjjjjjjjlljjllljjjjjjlijjll",
"jjiiiihnnnndb#.#abnuyyyyyyyzzzzzunpijjllllllljjjjljjjllljjjllollljllll",
"iijjkh##..##abfmnuyyyyyyyzzzzyutojijjljjllljlllkllloollloollllljlojlll",
"lljjlmnnnnnntuyyyyyyyyyyyyyyxqpllookkklllljllolooooooooooljkopljlllljl",
"lllopouuuuyyyyyyyyyyyyyyyxwploooooppoppopoooooooooooopolopppoloooloooo",
"poooooxyyyyyyyyyyyyyyyuxspoppopppqppqpqqqppoooooooppooppppoooopppopooo",
"opopppxuuyzzyyyyyyyyuwqopqqppqpqqqppqpoqqqpqpqqppppppqqqpppppqqqpqpooo",
"qppqqqwuyyyyyyyyxxxspqqrqqqppqpoqqrrrrqqqqpqrppqqqqqqqqqrrrrrqppqppqrq",
"rrrrqqwtyyyuxxwwtvqqqqpqqrrrrrrqqqrrrvqqsqrrprqqrppqqpqqrrrqqqrrqqqppq",
"rrrrrrrrrrqpqqvqqqqrqvwrqqqrrrvqqvsrqqsrrrvqrqqqprqqrrrsrrsvwwssrqqqqp",
"rrqrrrqrrrqrsrqrsrqrrpqswwsssqrsrqrsqrvrrqrrrrrqqqqrvqrswvvsswvqrqrqqq",
"sssvsssvsssrsvvvqqssrwvrqqswsvvvqrvvrvrrrrrvrvvvsrqvvqrswtssvvwwssrrqq",
"swsrswsrswssrrrqswwrssrrwxwsssssswsrvrrsvvvvvvvrsrwwswxxtxwxwvrrvrqrvv",
"vsssvsssvsssrrswssrrsxxxssswxxtwsssqrvwwsrvsrrswwvvsxxttwxxwwsswvvrrqq",
"wswsvswssstswwssrsssvtttxxwttsswtttxwwvrrwtxxwsswtttxtwsstxxxxwwvwwvrs",
"wxtvsswwwwvrqqswtwwsssswtxtttxxxxxxtwtwxxxxtwtxxtxwxtxxxxxtwwwwwswxwxw",
"wwswwwwwrsrrwxwsssswwwxwwxxxtswssstwsswttsttxxttwxxwwxxwwxxxwswwxwwwss",
"swtswwwwwxwxssswxxtwssssswxtxxwxxxxtxxtxwxxwxtwsstxxxxwwxxxxwxwwsssvxw",
"wsswswwwwwwxxxwttwwwwttxxwsstwxtxxwxttwwxxttwwxxxxwtxxxxwwxwxxxxxxwxww",
"xxtsswswwwwwwxtwttwwwwttxttxxwsstwxtwwxtxtwwxtxwwxwwxxwwxwwwssxwwxwssx",
"xxxtxsswswwwwwxwwtttwwtwwxxtwttxxwswxwxwtxxwxwtxxxxxxwwxwssvwwwwwsvwww",
"tttxxwxtswswwwxxwttttwwwwtttxxxtwttxxxxwwxxxxwwxxtxxxxxxwwwwwwwwwwwwww",
"xxxttxxwxtswswwxxxttttwxwxxtwsttxxxxxxwxxxxxwxxxwxxxxtwwwxxxxwwwxxxxww"
};
