/* XPM */
static char *wind08[] = {
/* width height num_colors chars_per_pixel */
"    70    70       30            1",
/* colors */
". c #e8e8e8",
"# c #e6e6e6",
"a c #d8d8d8",
"b c #c3c3c3",
"c c #b9b9cf",
"d c #a6a5bc",
"e c #9894cc",
"f c #9796b2",
"g c #8b87c0",
"h c #8785a6",
"i c #7e7ab3",
"j c #7b77b5",
"k c #7672a7",
"l c #6f6ca6",
"m c #6e6c91",
"n c #626174",
"o c #615f99",
"p c #545390",
"q c #44448a",
"r c #3f3f83",
"s c #3c3c7a",
"t c #393a6a",
"u c #39394d",
"v c #37387c",
"w c #303171",
"x c #2a2b65",
"y c #282938",
"z c #212331",
"A c #202020",
"B c #1c1d29",
/* pixels */
"baaaaaabbcaaaaadaaaaaabbaaaaaaaacdhmoolkkkkkkjjjjjjijkmkhhfdddmmmppppp",
"abaaaaaaaaaaabbaaaaaaaaaaaaacaaabbbdkjkjjjjkjjkkkkkkkkmmkhfccckpmmmmmp",
"bbbaaaaaaaaaaaabbaaaaaaaaaaacabbacabjjjiiijjjkmkhkmdchkmkhdcdcdmkhhmmo",
"ccccbbbaaaaaaaabcbcbaaaaaaaacbcbcdacjiiiiijkkkfkkkkmkkkhfdbbdcdhfddkmm",
"dccdcacbcbaaaaaaaaccbbbbbaabdabdcjjdiiiiiiiiggdfdddddkmkdaaabcdfhdddff",
"fdccdaacbaaaaaaaabbcccbbbbbdfddijjidiiiiiiiiiiiddcaachmfbaabbccfkddccc",
"abcccbabaaaaaaaaaaabbcbcbbcgiiiiiijjiiiiiiffiifdcaaabdcbabcccccddccccb",
"aaabbaaaabbbbaaaaaaaaabcbccfiigiiiijjijijifkgdcbcaabccbbcdhddfddddcccb",
"aaabaaaaabccdccbbaaababdcccdiigiiifllmkjjkiiidaaaaabccccdhmmkkkhfdccbb",
"aaabaaaacbbdddddcbbcdcbccccdfijiifdmppmmkjjkkfaaaa#abccddfmppmmkhdccbb",
"dbaaaaaabbbcccdffddddddccccccdgiecammpppmkmkbaaaaaabcccbacfmmmmmkkdcbb",
"hdbabaaabbcdccdffffffffdcccccccccdddffhkmmhfbaba##abcccabccddhhkmmhdcd",
"hhdcddaaacfddddfffffgiifdddcccccdddddhmmppdaacfddccbbbbcbbcccfdfhkfddf",
"hhffffaabdfdffffgiiiiiigffdcccdddcddhkppmkfcbaaaaaaaaaabcabcccdddddddd",
"hhhhhfdcchhdffhfgijjiifhhcccdddddcdhkmlhcaaaaaaaaaaaaaaadbbcfcccccccdc",
"hhikkdadhiifffffiiiiiifhffccddddddfkkfc##a####aabbhnnnnhfkmfhfdcccccdc",
"hhhikdcijhhihhhiiiiihghhfdcfdddddfhfc#####abmuuzyuunnnnnnmmpmkhfdbbcdd",
"hhfffcchkhhhkihiiiiigffhgidfhfhkkhc####bhuyBuhbaaaaaaaaaafmpmpnkdcbbcd",
"hfdccbbbchhhkhhiiiihiiihheihkkhda####duzAuda####aaaaaaaaabmppnnmhcbbbd",
"hfcbbbbbdffhhhhhiiiiiihifkhkida###amyAAnb#########aaabbbaaammmimkdcbbb",
"ffdbbbbcfffffhfhhiiiigfffchda###buBAAna######bbhnuyyzBBBzyfpnmmiihddcb",
"cddddabbcdcddfffgiiigfficc###amyAAAna####abnuzAynhdbbbbbbbdmppmidddfhb",
"bbbcdcabbbbccddffggggffc###bnzAAAna####bnzABnba##########aampmmkjlppmf",
"bbbbdcccbabccbbdffggdca#bmyBAAAna.##afuBAub###############ackmommkmmhc",
"cbbbdccccabdcaacffca##duzAAABna#.#bnzAAub#########aabbbbbbbbkmppmkhdcb",
"hffdhkcccccdbccca##bnyBAAABh#..#fuBAAub..##.#abhnuyyBBBBBBBzkmppmkdbbb",
"kkkkmhebcccca###bduzAAAAyh#.#bnzAAAub.#..#afnuBBunfbbbaababbhopppkdbbb",
"mppmpkcc###abfnuuyzBBByf#.afuBAAAub....#dnyAznb#############dkppomhcbb",
"mmmmpkkkuuuzzBzyyyyzud##bnzAAAAub....bnyAAub#.##############bfmppmmkfd",
"kffmmmkdyyyyBzyuyunb.ahuBAAAAub...#bnzAAna.....#...##aaaaaaa#fmpppmmmm",
"mfffffc#nyzyyyumb##bnzAAAAAnb...ahuAAAna......#adhnuuyyyzzzyunmopommmm",
"middcdd#dnnhb###bnuBAAAABna..#bnyAAAub.....abnuyAAyumfdbbbddfhkpmmmmom",
"mkfcbbcb###bdhnuyzBBAABna..ahuBAAAub....#bnuBAynb##...########hmmmmooo",
"mmhdacctuuyzBBzyyyzzzna.#bnyAAAAub....afuzABnb.....###########dkmoommm",
"mmfdbcdmyyyzBzyyyyuf#.afuzAAAAub....bnyBABf#...............###bhkmllll",
"mhfcbbcdyzBzyyyuha.#bnyAAAAAub...#duzAABh#........##abbdfhfdfbbflkkkkk",
"kfddddcduyyumb#.#bhuzAAAAAub...amyBAAAn#......#bdnnuyyyyyyyzzzynhikkjk",
"ifddhhh#...#abdnnuBAAAAAub..#bnzAAAAn#.....adnuyzyzyyyzzzBBBBBBukkiiig",
"dfffgjkmhnuuuuyzzzBBBAub..ahuBAAAAna.....bnuzzzzzzzzzzzBBBBBAAAzgggggi",
"geegeekuzzyBBBBzzzzzub.#bnyAAAAAua....#dnyBBBzzBBBBBBzBBBBBBBBABgiiggg",
"ggfgggjtzzBzzzzyyuha.ahuzAAAAAub....ahuzzzBBBBBzzBBBBBBAAAyzzzyygiiiii",
"eeeeeeghzzBBzyufa.#bnyAAAAAAub...#bnuzBBBBBBBBBBBzyutpojiiggggggggiigi",
"eeeeeedcnnhdb#.#bnuzAAAAAAub...#fuyzzzBBBBBBBBytmkikkkiggggggggggggiii",
"eeeegeb###abbhnnuBBAAAAAub...bhuyzzBzBBBBBBzupkjllllkeggggggggggggggig",
"ggggggnuunuyyzzzzBBBBBub..#bnuyzzzzzzBBBBynmkiiiiiiggggggggggggeegiijj",
"ggggggnyyyyBBBzzzzBznb..ahnyzzzzzzzzzBzunligiggggigjiiiiiggigggggijiij",
"gggggghyyzBBzzzzzuf#.#bnuyyzzzzzzzzzzuplkkjkjjjiijjjijjjjjjjjjjjjjjjjj",
"gggiiihuzBBBBzufa..afnuyyyyyzzzzzBytpkllllloljjjjjjklkjllljjjjjjlijjll",
"jjiiiihnnnndb#.#abnuyyyyyyyzzzzzunpllopppoollkkjjljjjllljjjllollljllll",
"iijjkh##..##abfmnuyyyyyyyzzzzyutojjkoooooppplllkllloollloollllljlojkll",
"lljjlmnnnnnntuyyyyyyyyyyyyyyxqplllllloooooloooooooooppppppooqqqpploppp",
"qqoopouuuuyyyyyyyyyyyyyyyxwploooooppoppppoooloopllqqqqppppqqqqqqqsqpqq",
"qqooooxyyyyyyyyyyyyyyyuxspoppoppppooqqpooppoppoopppoppqqqqqqqqqqqqppqp",
"qqqpppxuuyzzyyyyyyyyuwqopqqppqpqqpoppoopqqpqpqqppppppqqqpppppqppppppsq",
"qppqqqwuyyyyyyyyxxxspqqrqqqppqpoqqrrrrqqqqpqrppqqqqqqqppppqsttsstssrss",
"rrrrqqwtyyyuxxwwtvqqqqpqqrrrrrrqqqrsssssvrrrprqqrppqqpqqrrqqqqrqqqqqqs",
"rrrrrrrrrrqpqqvqqqqrqvwrqqqsrrvqqvsrqqsrrswrrqqrqrqrrrrsrrqrsssqrqqqqp",
"rrqrrrqrrrqqsrqrsrqrrpqssrpqsqsssqrsqrvrrqqrrqrqsrsrvqrswssrsvrqrqrqqq",
"sssvsssvsssrrrvvqqssrwvqqrtvsssvrrrsrvrrqqrvrvssrrqvvqrswtssvswsstvwsr",
"swsrswsrswssrrrqswwrssrssrssrsvsvssrvrrrrrrrrrrrsrwwswsstvwssrrrsrqrvv",
"vsssssssvsssrrswssrssvwwssrwxtswxssqrwxssqswsrrvsvssxxttwwwwwsswvvrrqq",
"wswsvswssstswwssrsssvwstsswttsswwwwwwwsrrwtwswsswtsswtwsstxxwwwwvwwvrs",
"wxtvsswwwwvssrwwwwwsssswwwtwwxtwwwxtwtwwwxxtwtxxtxwxtxxxxwttwxxwswxwxw",
"wwswwwwwrsrrwxwtttwwwwxwwxxxtswwwwwxxtwwtttwxxtwwwxwwxwwwxwwwswwxwwwss",
"swtswwwwwxwxssswxxtwssssswxtxxwxxxxtxxwwxxxwwwxsstxxwwwwwwwwwwwwsssvxw",
"wsswswwwwwwxxxwttwwwwwtwwwsttwxxwwwxxxxxwxttwwxxxxwtxxxxwwxwxxxxxxwxww",
"xxtsswswwwtwwxwwtwwwwxwxwwwwwwswwwxwwxwwwtwwxtxwwxwwxxxtwwwwwsxwwtwssx",
"xxxtxsswswwxwwwxwwwwwxxwwxxwxttxxwtwxxwxttwtwwwwxxxxwxxxwtwwtxxxwwwwww",
"tttxxwxtswswwwxxwxwxwwwwwtttxxxtwttxxxxxxxxwwtwxxtxxxxxwxwxwwwwwwxxxww",
"xxxttxxwxtswswwxxwwwwwwxwxxtwsttxxxxxxwxxxxxwxxxwxxxxtwwwxxxxwwwxxxxww"
};
