/* XPM */
static char *g_wind03[] = {
/* width height num_colors chars_per_pixel */
"    70    70       30            1",
/* colors */
". c #e8e8e8",
"# c #e6e6e6",
"a c #d8d8d8",
"b c #c3c3c3",
"c c #bcbcbc",
"d c #a8a8a8",
"e c #9e9e9e",
"f c #9a9a9a",
"g c #919191",
"h c #8a8a8a",
"i c #848484",
"j c #828282",
"k c #7b7b7b",
"l c #767676",
"m c #727272",
"n c #646464",
"o c #686868",
"p c #5c5c5c",
"q c #4e4e4e",
"r c #494949",
"s c #454545",
"t c #414141",
"u c #3c3c3c",
"v c #424242",
"w c #3a3a3a",
"x c #333333",
"y c #2b2b2b",
"z c #242424",
"A c #202020",
"B c #1e1e1e",
/* pixels */
"qqqppppnmmmmmmmommnnnmollkmmmlkkkllmoopokkmmppooooommmommmmmkoppppppqs",
"qqppppnmmmmmmllommnnmmollkkkkklmmoooooppoopmmpoooooommmmmmmmmoooppmmop",
"pppnmmmlkkkkklllommmolkkkkjkkkkkmkkkllomomooopmommommmmmmmmmmmmooooomp",
"pommmmkkjjjijjjjkkkkkkjjjjjjjjjjjjkkkkkhcdkooommmmmmmmmmnppppnmmoopppp",
"mpmpphkkhiifiiiijjjjjjjjjjedjjjjjjjjjjfbdomommmmmmmmmmnppppppppmmmkooo",
"ppmppmhjidgcdiiiiiijjjjffeddefgjjjjjjfgkomoomkmmlommmmpppppponnoppmmoo",
"ppmmpkhkicccciggfiiijifdbbaabcdgjjicifkoommmkkklloooonppppnmmmmnnppppp",
"mmkhhhhhgdcggggdfigiifdbaa#aacccbbccgfdkliigkkmomokklonpppnnnnoopppppp",
"hhfffhhhhiggggigkiiifdba##.#aabaa#aijfffihfegghhhhhgkkmnpponppppppppmm",
"hffffdmmggbdggfkikhhcdba#####aaa##abiijddfceffffffhkkmkmmpopppppponpkk",
"kfhffhjiggfccachkkhfdcb####a##a####bcgjjjjjjiifggffhghmmmmnnppponnnphk",
"kffhffhkoeg##abhhhfddcaaadabaaaaa##abbjjjjkkmkgddddddkfkmmnnoppnmmmnmk",
"khhkfhkkhcgfaahhhhhaaaacbccdccaabbddgijijjjkmifddccbbbbcgmkpppponnnnmm",
"khkmkkkknikgcaedfkdffdfdcdffdcbaacdiijiikkhddbaaaabbbbbbkmmppnoppppokh",
"hhmmmkkhffffbfdddcbfhhkdccdfdfiecccejiihcaaaaaaaaaaaaaaadmmooonnnppokh",
"eefkmhdcbcefkdcddddhkkikhhfccggggfggifc##a####aabbhnnnnhfopnnnmmmmpomk",
"eedddcbaaacdbbbcdhkihiiihkkggggggggfc#####abmuuzyunnnnnnnnpnmmmmmmppmk",
"eecccbaa#aaabaafifkhgiggfggggggggfc####bhuyBuhbaaaaaaaaaafpommmmmmopmm",
"edccccba###aaafhffefgfikgggggggda####duzAuda####aaaaaaaaabmpmmmmmmnnmm",
"eddddccaaa####aeeeefggfeeggggda###amyAAnb#########aaabbbaafpnmmmmmmnkk",
"eecccccbaba###cffeefggfeegeda###buBAAna######bbhnuyyzBBBzyhpmmmkkkmmmk",
"eedcccbabdba##cfffeeffeeec###amyAAAna####abnuzAynhdbbbbbbbdkmmmkkkkkmh",
"eecbacccddfdceefffeeeeec###bnzAAAna####bnzABnba##########aahmmmkhhkkmf",
"feeeefeeeeefeeeeeeegfdb#bmyBAAAna.##afuBAub###############admmmkkmknkk",
"feeeeeeeeeeeeeeeggca##duzAAABna#.#bnzAAub#########aabbbbbbbbkmmkmhhgfk",
"ggeeeeeeeeeeggcca##bnyBAAABh#..#fuBAAub..##.#abhnuyyBBBBBBBzkmmmkihhfm",
"gffeeeeecccca###bduzAAAAyh#.#bnzAAAub.#..#afnuBBunfbbbaababbhmmmmkkkfk",
"gffeeeed###abfnuuyzBBByf#.afuBAAAub....#dnyAznb#############dkmmmkkkhf",
"gfeeeegkuuuzzBzyyyyzud##bnzAAAAub....bnyAAub#.##############bhmmmkkkkf",
"ffffdegdyyyyBzyuyunb.ahuBAAAAub...#bnzAAna.....#...##aaaaaaa#fmmmmhkmk",
"gffeedc#nyzyyyumb##bnzAAAAAnb...ahuAAAna......#adhnuuyyyzzzyunkmmmkfmk",
"feffeec#dnnhb###bnuBAAAABna..#bnyAAAub.....abnuyAAyumfdbbbddfhhkdmkfdm",
"efffedcb###bdhnuyzBBAABna..ahuBAAAub....#bnuBAynb##...########hidhffdm",
"fffffddtuuyzBBzyyyzzzna.#bnyAAAAub....afuzABnb.....###########dgfcddda",
"fffefeemyyyzBzyyyyuf#.afuzAAAAub....bnyBABf#...............###bkhfhhca",
"fffeedfdyzBzyyyuha.#bnyAAAAAub...#duzAABh#........##abbdfhfdfbbhhhdddd",
"ffffggiduyyumb#.#bhuzAAAAAub...amyBAAAn#......#bdnnuyyyyyyyzzzynhhhffd",
"ffggggk#...#abdnnuBAAAAAub..#bnzAAAAn#.....adnuyzyzyyyzzzBBBBBBuhhhhff",
"ffffgjkmhnuuuuyzzzBBBAub..ahuBAAAAna.....bnuzzzzzzzzzzzBBBBBAAAzhhhkhh",
"ggggeekuzzyBBBBzzzzzub.#bnyAAAAAua....#dnyBBBzzBBBBBBzBBBBBBBBABkihhkm",
"ggggggktzzBzzzzyyuha.ahuzAAAAAub....ahuzzzBBBBBzzBBBBzzzzzyzzzzziiihhh",
"eeeeeeihzzBBzyufa.#bnyAAAAAAub...#bnuzBBBBBBBBBBzzyutpppljiijkliggiigi",
"eeeeeedcnnhdb#.#bnuzAAAAAAub...#fuyzzzBBBBBBBzytnhfiiigggggggggggggiii",
"eeeegeb###abbhnnuBBAAAAAub...bhuyzzBzBBBBBBzuskggggigegggeeeegegegggig",
"ggggggnuunuyyzzzzBBBBBub..#bnuyzzzzzzBBBBynngggggggggggggggggggeegiijj",
"ggggggnyyyyBBBzzzzBznb..ahnyzzzzzzzzzBzunligiggggigjiiiiiggigggggijiij",
"gggggghyyzBBzzzzzuf#.#bnuyyzzzzzzzzzzuslkkjkjjjiijjjijjjjjjjjjjjjjjjjj",
"gggiiihuzBBBBzufa..afnuyyyyyzzzzzBywpkllllloljjjjjjklkjllljjjjjjlijjll",
"jjiiiihnnnndb#.#abnuyyyyyyyzzzzzunpllopppoollkkjjljjjllljjjllollljllll",
"iijjkh##..##abfmnuyyyyyyyzzzzyutojjkoooooppplllkllloollloollllljlojlll",
"lljjlmnnnnnntuyyyyyyyyyyyyyyxqpllooooooooolooooooooooooooljkopljlllljl",
"lllopouuuuyyyyyyyyyyyyyyyxwploooooppopppppppppppooooopooopppoloooloooo",
"poooooxyyyyyyyyyyyyyyyuxspoppopppqppqpqqqppoooooooppooppppooooppoopooo",
"opopppxuuyzzyyyyyyyyuwqopqqppqpqqqppqpoqqqpqpqqppppppqqqpppppqqqpqpooo",
"qppqqqwuyyyyyyyyxxxspqqrqqqppqpoqqrrrrqqqqpqrppqqqqqqqqqrrrrrqppqppqrq",
"rrrrqqwtyyyuxxwwtvqqqqpqqrrrrrrqqqrrrvqqsqrrprqqrppqqpqqrrrqqqrrqqqppq",
"rrrrrrrrrrqpqqvqqqqrqvwrqqqrrrvqqvsrqqsrrrvqrqqqprqqrrrsrrrssssqrqqqqp",
"rrqrrrqrrrqrsrqrsrqrrpqswwsssqsssqrsqrvrrqqrqqrqqqqrvqrswvvsqwvqrqrqqq",
"sssvsssvsssrsvvvqqssrwvrqqswssswqrvvrvrrqqrvrvssrrqvvqrswtssvvwwssrrqq",
"swsrswsrswssrrrqswwrssrrwwwwwwwsswsrvrrrrrrrrrrrsrwwswsstvwssrrrvrqrvv",
"vsssssssvsssrrswssrrsxxxssswxxtwsssqrvwwsrvsrrswwvvsxxttwwwwwsswvvrrqq",
"wswsvswssstswwssrsssvtttxxwttsswtttxwwvrrwtxvwsswtttxtwsstxxwwwwvwwvrs",
"wxtvsswwwwvssrwwwwwsssswtxtttxxxxxxtwtwxxxxtwtxxtxwxtxxxxwttwxxwswxwxw",
"wwswwwwwrsrrwxwtttwwwwxwwxxxtswssstwsswttsttxxttwxxwwxwwwxwwwswwxwwwss",
"swtswwwwwxwxssswxxtwssssswxtxxwxxxxtxxtxwxxwxtwsstxxwwwwwwwwwwwwsssvxw",
"wsswswwwwwwxxxwttwwwwttxxwsstwxtxxwxxxxxwxttwwxxxxwtxxxxwwxwxxxxxxwxww",
"xxtsswswwwwwxxwwtwwwwwwwwwwxxwsstwxtxxxxxtwwxtxwwxwwxxwwwwwwssxwwxwssx",
"xxxtxsswswxxxxxwxxxtwwtwwxxtwttxxwtwwwwwtxxwxwtxxxxxxwwxwtwwwwwwwsvwww",
"tttxxwxtswswwwxxwwwwwwwwwtttxxxtwttxxxxxxxxxxwwxxtxxxxxxwwwwwwwwwwwwww",
"xxxttxxwxtswswwxxwwwwwwxwxxtwsttxxxxxxwxxxxxwxxxwxxxxtwwwxxxxwwwxxxxww"
};
