/* XPM */
static char *wind14[] = {
/* width height num_colors chars_per_pixel */
"    70    70       30            1",
/* colors */
". c #e8e8e8",
"# c #e6e6e6",
"a c #d8d8d8",
"b c #c3c3c3",
"c c #b9b9cf",
"d c #a6a5bc",
"e c #9894cc",
"f c #9796b2",
"g c #8b87c0",
"h c #8785a6",
"i c #7e7ab3",
"j c #7b77b5",
"k c #7672a7",
"l c #6f6ca6",
"m c #6e6c91",
"n c #626174",
"o c #615f99",
"p c #545390",
"q c #44448a",
"r c #3f3f83",
"s c #3c3c7a",
"t c #393a6a",
"u c #39394d",
"v c #37387c",
"w c #303171",
"x c #2a2b65",
"y c #282938",
"z c #212331",
"A c #202020",
"B c #1c1d29",
/* pixels */
"mmmmmmmmmmkkkkkjikjkjkloliiddcddcggijjjjjjjjjjjjjkkkkkkmmmmmmmmdbcfkmm",
"mmmmmmmmmkiddeddddddfjkkjidccbaccddfijjjiiijjjjjjjjjjjjkkmmkhhmcbcdfkk",
"mmmmmmkkkidccbcaabcddfiiggbbcbaaaaabcggigggiiijjjjjjjjjjjjjdbcddaddfhf",
"mmmmmkiidcbaacbaaaaaadcfggcbabbaaafgfgggggggggiiiiijjjjjigdbaaaaadfccc",
"mmmmkkhdbbaaabbbaaaaaaacggccbcbaadggggggggggggggggggiiggecbbacbacdbaaa",
"kmmmmmkfddcbbbbaaaabaaaafgfcaccbcfggggggggggggggggggggggfccccccedcbaaa",
"kkkkkkmmkidcdbbaaaaaaaaaeggfegfdffgggggggggggggggggggggggeefgcefeddbaa",
"kmmmmkkkkkhdcbaaaaaaaaaabdfgfgggfcfgggggggggggggggggeggggfgffgfgffdbba",
"kmmkkkhihhdccbaaaaaaabbaabcbabcdegdeeefggggggggggggggggggggigedgggcbaa",
"kkhhhifcdcccdbaaaaaaaccaaabaaaaacdedcccefggggggggggggggggggfeeegfdbba#",
"hhfffgdcccbccbbaaaacbbdbabaaaaaaaacbbcddffggggggggggggggeeeeegggcbaaaa",
"fffffgcbccbbbbaaaaabbbddbaabaaaaaababbbcdeeggggggggggeeeeeeeeeggcaaaaa",
"ffffffddccdbcbaaaaabbcffdcccccbaaabaabbbcdddggfddccbbbbcgeeeeeegcbbbcb",
"ffffffffddgedccccaaabddffddffdcbaabcacccdffccbaaaabbbbbbfeeeeeeffdccff",
"gfffffffffffeeddccbabccddccdffdcccbbcgghcaaaaaaaaaaaaaaadeeeeeeefggedf",
"gggggffffffgggfeeeecccbcfgggffdddfgggfc##a####aabbhnnnnhffeeeeeeeeeefd",
"ggggggfgfffggfcegggggfeggggggggggggfc#####abmuuzyunnnnnnnheeeeeeeeeeee",
"gfggggggggfgfcabegggggggiiiigggggfc####bhuyBuhbaaaaaaaaaadeeeeeeeeeeee",
"eggggggggfdgbaaaafgggggggggggggda####duzAuda####aaaaaaaaabeeeeeeeeeeee",
"egfffgggga#aaaaaacgggggggggggda###amyAAnb#########aaabbbaaceeeeeeeeegg",
"efgfggfbgaabaaaaaaadgggggggda###buBAAna######bbhnuyyzBBBzyfeeefeeeeeeg",
"eeeeegfa#abbcffdbacffggggc###amyAAAna####abnuzAynhdbbbbbbbddeeeeeeeeeg",
"eeeeeggbabccchkigfgddfgc###bnzAAAna####bnzABnba##########aaceeeeeeeeeg",
"eeeeeggfdbccdgggggggdca#bmyBAAAna.##afuBAub###############aceeeeeeeeef",
"eeeeeeggfdggggggggca##duzAAABna#.#bnzAAub#########aabbbbbbbbeeeeeeeeee",
"eeeegggigggggiica##bnyBAAABh#..#fuBAAub..##.#abhnuyyBBBBBBBzfefeeeeeee",
"eeeeefggcccca###bduzAAAAyh#.#bnzAAAub.#..#afnuBBunfbbbaababbheeeeeeeee",
"eeefeffc###abfnuuyzBBByf#.afuBAAAub....#dnyAznb#############deeeeeeeee",
"eeefeffkuuuzzBzyyyyzud##bnzAAAAub....bnyAAub#.##############bdeeeeeeee",
"eeeeeefdyyyyBzyuyunb.ahuBAAAAub...#bnzAAna.....#...##aaaaaaa#feeeeeeee",
"eeeeeee#nyzyyyumb##bnzAAAAAnb...ahuAAAna......#adhnuuyyyzzzyuneeeeeeef",
"eeeeeed#dnnhb###bnuBAAAABna..#bnyAAAub.....abnuyAAyumfdbbbddfhdeeeeeee",
"efeeeecb###bdhnuyzBBAABna..ahuBAAAub....#bnuBAynb##...########heeeeeeg",
"eeeeeectuuyzBBzyyyzzzna.#bnyAAAAub....afuzABnb.....###########dfgeeegg",
"eeeeeedmyyyzBzyyyyuf#.afuzAAAAub....bnyBABf#...............###bdiiigee",
"eeeeeeedyzBzyyyuha.#bnyAAAAAub...#duzAABh#........##abbdfhfdfbbfijjijk",
"eeeeeedduyyumb#.#bhuzAAAAAub...amyBAAAn#......#bdnnuyyyyyyyzzzyniiiiii",
"feeeeed#...#abdnnuBAAAAAub..#bnzAAAAn#.....adnuyzyzyyyzzzBBBBBBuiiiiii",
"eeeeegdmhnuuuuyzzzBBBAub..ahuBAAAAna.....bnuzzzzzzzzzzzBBBBBAAAzfiiiii",
"feeeeefuzzyBBBBzzzzzub.#bnyAAAAAua....#dnyBBBzzBBBBBBzBBBBBBBBABgiiigi",
"geeeegetzzBzzzzyyuha.ahuzAAAAAub....ahuzzzBBBBBzzBBBBzAAAAzBBBBBggiiii",
"eeeeeeehzzBBzyufa.#bnyAAAAAAub...#bnuzBBBBBBBBBBzzyutpggiiggggggggiigi",
"eeeeeedcnnhdb#.#bnuzAAAAAAub...#fuyzzzBBBBBBBzytmkikgggggggggggggggiii",
"eeeegeb###abbhnnuBBAAAAAub...bhuyzzBzBBBBBByumkjlglggeggggggggggggggig",
"ggggggnuunuyyzzzzBBBBBub..#bnuyzzzzzzBBBBynmkiiiiiiggggggggggggeegiijj",
"ggggggnyyyyBBBzzzzBznb..ahnyzzzzzzzzzBzunligiggggigjiiiiiggigggggijiij",
"gggggghyyzBBzzzzzuf#.#bnuyyzzzzzzzzzzuplkkjkjjjiijjjijjjjjjjjjjjjjjjjj",
"gggiiihuzBBBBzufa..afnuyyyyyzzzzzBytpkllllloljjjjjjklkjllljjjjjjlijjll",
"jjiiiihnnnndb#.#abnuyyyyyyyzzzzzunmllopppoollkkjjljjjllljjjllollljllll",
"iijjkh##..##abfmnuyyyyyyyzzzyyupmljkoooooppplllkllloollloollllljlojkll",
"lljjlmnnnnnntuyyyyyyyyyyyyyyqmoollllloooooloooooppppppppppooqqqpploppp",
"qqoopouuuuyyyyyyyyyyyyyyyqpppppppppppppppoooooopppqqqqppppqqqqqqqsqpqq",
"qqoooowyyyyyyyyyyyyyyyuqpqqqqqqqqqppppppppppppppppppqqqqqqqqqqqqqqppqp",
"qqqpppwuuyzzyyyyyyyyuqpqrssssrrsrrrqqppqqqqqqqqqqqqqqqqqpppppqppppppsq",
"qpqqqqwuyyyyyyyyyqqqqpqrqqsrssssrsrrrrqqqqqqrqqqqqqqqqppppqsttsstssrss",
"rrrrqqwtyyyuwwwwoqqqqqprtvsssvrrssrssssssrrrqrqqrppqqpqqrrqqqqrqqqqqqs",
"rrrrrrrrrrqpqqvqqqqrqvwrssrssrssrssrqqsrrswrrqqrqrqrrrrsrrqrsssqrqqqqp",
"rrqrrrqrrrqqsrqrsrqrrpqssrpqsqsssqrsqrsrrqqrrqrqsrsrvqrswssrsvrqrqrqqq",
"sssvsssvsssrrrvvqqssrwvqqrtvsssvrrrsrsrrqqrvrvssrrqvvqrswtssvswsstvwsr",
"swsrswsrswssrrrqswwrssrssrssrsvrssrssrssrsvsvssrvrwwswsstvwssrrrsrqrvv",
"vsssssssvsssrrswssrssvwwssswxtsssvwwssswxtswxssqrvssxxttwwwwwsswvvrrqq",
"wswsvswssstswwssrsssvwsswwwtwsssvwsswwwtwsssttwxttsswtwsstxxwwwwvwwvrs",
"wxtvsswwwwvssrwwwwwsssswtwtwxtwsssswtwtwxtwssssswxwxtxxxxwttwxxwswxwxw",
"wwswwwwwrsrrwxwtttwwwwxwwxxxtswwwwxwwxxxtswwwwwxwwxwwwxwwwxxwswwxwwwss",
"swtswwwwwxwxwttwxxtwssssswxtxxwwssssswxtxxwxxxxtxxwwxwwwwwwwwwwwsssvxw",
"wsswswwwwwwxxxwwwwwwwwtwwwsttwxwwwtwwwsttwxxwwwxxxwtxxxwwxxxxxxxxxwxww",
"xxtsswswwwtwwxwwwwwwwxwxwwwwwwswwxwxwwwwwwswwwxwwxwwxxxwwxwwwwxwwwwssx",
"xxxtxsswswwxwwwxwwwwwxxwwxxwxttwwxxwwxxwxttxxwtwxxxxwxxxwwwwwxxxwwwwww",
"tttxxwxtswswwwxxwxwxwwwwwtttxxxxwwwwwtttxxxtwttxxtxxxxxwxwxwwwwwxxxxww",
"xxxttxxwxtswswwxxwwwwwwxwxxtwstwwwwxwxxtwsttxxxxxxxxxtwwwxxxxwwwxxxxww"
};
