/* XPM */
static char *wind18[] = {
/* width height num_colors chars_per_pixel */
"    70    70       30            1",
/* colors */
". c #e8e8e8",
"# c #e6e6e6",
"a c #d8d8d8",
"b c #c3c3c3",
"c c #b9b9cf",
"d c #a6a5bc",
"e c #9894cc",
"f c #9796b2",
"g c #8b87c0",
"h c #8785a6",
"i c #7e7ab3",
"j c #7b77b5",
"k c #7672a7",
"l c #6f6ca6",
"m c #6e6c91",
"n c #626174",
"o c #615f99",
"p c #545390",
"q c #44448a",
"r c #3f3f83",
"s c #3c3c7a",
"t c #393a6a",
"u c #39394d",
"v c #37387c",
"w c #303171",
"x c #2a2b65",
"y c #282938",
"z c #212331",
"A c #202020",
"B c #1c1d29",
/* pixels */
"kkkkkkkkkkkkkkkkkkkkkkkkkkkklooooollolllllllllllopoooopppppppppppopppk",
"kkkkkkkkkkkkkkkkkkkkkkjjjjjjkllllkkkkllllllllllllpppppoppppppppppppppp",
"kkkkkkkkkkkkkkjjjjjjjjjkkjjjkkkkkkkkklllllllllllloppppppppppppppoppppp",
"kkkkkkkkkkkkkjjjjjjjjjjjjjjkkkkjkkjklllllllllllllopppppppppppppppppppp",
"kkkkkkkkjjjjjiiiiiiiiiiiiijkkjkkkkkkkkllllooolklloppppppppoooooooloooo",
"kkkkkkkkjiiiiiiiiiiiiiiiiiikkkkkklllkklmooooooooloopppppppppoooooooooo",
"kkkkkkkjiiiiiiiiiiiiiiiiiiiijkkkkoooommlooomomliilooooooooopoooooooooo",
"kkkkkjjiiiiiiiiiiiiiiiiiiiiikkkkllopollmoohcccdcdhllolklooooooooooooop",
"jkkkjjiiiiiiiiiiiiiiiiiiiiijkkkkloooommmolbbbbbbccbabklllooooookoooopo",
"jjjiiiiijjjjjiiiiiiiiiiiiiiklllkopoooiddkbbdcbbbabbdbchjlllloooooooooo",
"hhffffiiijjkjiiiiiiiiiiiiijlobadkooofbccbbbbbcbaacddddggjkkkkkkllooooo",
"fhhhiffdiikkjiiiiiiiiiiiiiklfbccbdofaaadbabbbccddcbccbaagiggggijllllll",
"hhhddcacadjjjiiiiiiiiiiiggggikddccddbaabddcaacfddccbbbbcdgiiggggiiiiig",
"hfhfhbababciiiiiiiiiiiggeeeeggfdabbbbbaabddcbaaaaaaaaaabddiigfefggggff",
"fhdfabbaabbiiiiiiigigggeeeeeegekkbaabbdfcaaaaaaaaaaaaaaadeggeeeeeeegef",
"hdbbabaaabdfiiiggggggeeeeeeeeggfcbbcffc##a####aabbhnnnnhfdeeeeeeeeeeee",
"mbchacfdcfgggggeeeeeeeeeeeeeegdbabdfc#####abmuuzyuunnnnnnhdeeeeeeeeeee",
"gcgggggggggggeeeeeeeeeeeeeeeeegkcdc####bhuyBuhbaaaaaaaaaadefeeeeeeeeee",
"eggggfgggfggeeeeeeeeeeeeeeeeeegda####duzAuda####aaaaaaaaabgeeeeeeeeeee",
"egfffggfeeeeeeeeeeeeeeeeeeeegda###amyAAnb#########aaabbbaacccceeeeeeee",
"efgfggfeeeeeeeeeeeeeeeeeeefda###buBAAna######bbhnuyyzBBBzyfaabbbeeeeee",
"eeeeefeeeeeeeeeeeeeeeeeegc###amyAAAna####abnuzAynhdbbbbbbbdaaabaceeeeg",
"eeeeeeeeeeeeeeeeeeeeeeec###bnzAAAna####bnzABnba##########aabccccccdeeg",
"eeeeeeeeeeeeeeeeeeffdca#bmyBAAAna.##afuBAub###############acabcaacccef",
"eeeeeeeeeeeeeeeeegca##duzAAABna#.#bnzAAub#########aabbbbbbbbcbcdefeeee",
"eeeeeeeeeeeeeeeca##bnyBAAABh#..#fuBAAub..##.#abhnuyyBBBBBBBzdcdeeeeeee",
"eeeeeeeecccca###bduzAAAAyh#.#bnzAAAub.#..#afnuBBunfbbbaababbfccccceeee",
"eeefeeec###abfnuuyzBBByf#.afuBAAAub....#dnyAznb#############dbaaabeeee",
"eeefeeekuuuzzBzyyyyzud##bnzAAAAub....bnyAAub#.##############bdbbeeeeee",
"eeeeeeedyyyyBzyuyunb.ahuBAAAAub...#bnzAAna.....#...##aaaaaaa#feeeeeeee",
"ggeeeed#nyzyyyumb##bnzAAAAAnb...ahuAAAna......#adhnuuyyyzzzyunedbbdeef",
"kifebdd#dnnhb###bnuBAAAABna..#bnyAAAub.....abnuyAAyumfdbbbddfhfeeceeee",
"ccdcaaab###bdhnuyzBBAABna..ahuBAAAub....#bnuBAynb##...########heeeeeeg",
"bdcbaaatuuyzBBzyyyzzzna.#bnyAAAAub....afuzABnb.....###########dggeeegg",
"kccbaaamyyyzBzyyyyuf#.afuzAAAAub....bnyBABf#...............###bfiiigee",
"jikibcbdyzBzyyyuha.#bnyAAAAAub...#duzAABh#........##abbdfhfdfbbfijjijk",
"dfggededuyyumb#.#bhuzAAAAAub...amyBAAAn#......#bdnnuyyyyyyyzzzyniiiiii",
"ddeeeed#...#abdnnuBAAAAAub..#bnzAAAAn#.....adnuyzyzyyyzzzBBBBBBuiiiiii",
"gggeegdmhnuuuuyzzzBBBAub..ahuBAAAAna.....bnuzzzzzzzzzzzBBBBBAAAzfiiiii",
"gggeeefuzzyBBBBzzzzzub.#bnyAAAAAua....#dnyBBBzzBBBBBBzBBBBBBBBABgiiigi",
"ggggggetzzBzzzzyyuha.ahuzAAAAAub....ahuzzzBBBBBzzBBBBBBBBBzBBBBBggiiii",
"gggeeeehzzBBzyufa.#bnyAAAAAAub...#bnuzBBBBBBBBBBBzyutpggiiggggggggiigi",
"eeeeeedcnnhdb#.#bnuzAAAAAAub...#fuyzzzBBBBBBBBytmkikgggggggggggggggiii",
"eeeegeb###abbhnnuBBAAAAAub...bhuyzzBzBBBBBBzumkjlglggeggggggggggggggig",
"ggggggnuunuyyzzzzBBBBBub..#bnuyzzzzzzBBBBynmkiiiiiiggggggggggggeegiijj",
"ggggggnyyyyBBBzzzzBznb..ahnyzzzzzzzzzBzunligiggggigjiiiiiggigggggijiij",
"gggggghyyzBBzzzzzuf#.#bnuyyzzzzzzzzzzunlkkjkjjjiijjjijjjjjjjjjjjjjjjjj",
"gggiiihuzBBBBzufa..afnuyyyyyzzzzzBytpkllllloljjjjjjklkjllljjjjjjlijjll",
"jjiiiihnnnndb#.#abnuyyyyyyyzzzzzunmllopppoollkkjjljjjllljjjllollljllll",
"iijjkh##..##abfmnuyyyyyyyzzzzyupmljkoooooppplllkllloollloollllljlojkll",
"lljjlmnnnnnntuyyyyyyyyyyyyyyqmoollllloooooloooooppppppppppooqqqpploppp",
"qqoopouuuuyyyyyyyyyyyyyyyqpppppppppppppppoooooopppqqqqppppqqqqqqqsqpqq",
"qqoooowyyyyyyyyyyyyyyyuqpqqqqqqqqqppppppppppppppppppqqqqqqqqqqqqqqppqp",
"qqqpppwuuyzzyyyyyyyyuqpqrssssrrsrrrqqppqqqqqqqqqqqqqqqqqpppppqppppppsq",
"qpqqqqwuyyyyyyyyyqqqqpqrqqsrssssrsrrrrqqqqqqrqqqqqqqqqppppqsttsstssrss",
"rrrrqqwtyyyuwwwwoqqqqqprtvsssvrrssrssssssrrrqrqqrppqqpqqrrqqqqrqqqqqqs",
"rrrrrrrrrrqpqqvqqqqrqvwrssrssrssrssrqqsrrswrrqqrqrqrrrrsrrqrsssqrqqqqp",
"rrqrrrqrrrqqsrqrsrqrrpqssrpqsqsssqrsqrsrrqqrrqrqsrsrvqrswssrsvrqrqrqqq",
"sssvsssvsssrrrvvqqssrwvqqrtvsssvrrrsrsrrqqrvrvssrrqvvqrswtssvswsstvwsr",
"swsrswsrswssrrrqswwrssrssrssrsvrssrssrssrsvsvssrvrwwswsstvwssrrrsrqrvv",
"vsssssssvsssrrswssrssvwwssswxtsssvwwssswxtswxssqrvssxxttwwwwwsswvvrrqq",
"wswsvswssstswwssrsssvwsswwwtwsssvwsswwwtwsssttwxttsswtwsstxxwwwwvwwvrs",
"wxtvsswwwwvssrwwwwwsssswtwtwxtwsssswtwtwxtwssssswxwxtxxxxwttwxxwswxwxw",
"wwswwwwwrsrrwxwtttwwwwxwwxxxtswwwwxwwxxxtswwwwwxwwxwwwxwwwxxwswwxwwwss",
"swtswwwwwxwxwttwxxtwssssswxtxxwwssssswxtxxwxxxxtxxwwxwwwwwwwwwwwsssvxw",
"wsswswwwwwwxxxwwwwwwwwtwwwsttwxwwwtwwwsttwxxwwwxxxwtxxxwwxxxxxxxxxwxww",
"xxtsswswwwtwwxwwwwwwwxwxwwwwwwswwxwxwwwwwwswwwxwwxwwxxxwwxwwwwxwwwwssx",
"xxxtxsswswwxwwwxwwwwwxxwwxxwxttwwxxwwxxwxttxxwtwxxxxwxxxwwwwwxxxwwwwww",
"tttxxwxtswswwwxxwxwxwwwwwtttxxxxwwwwwtttxxxtwttxxtxxxxxwxwxwwwwwxxxxww",
"xxxttxxwxtswswwxxwwwwwwxwxxtwstwwwwxwxxtwsttxxxxxxxxxtwwwxxxxwwwxxxxww"
};
