/* XPM */
static char * ana_btn_xpm[] = {
"50 50 7 1",
" 	s None	c None",
".	s black	c black",
"X	c #A9A9A9A9A9A9",
"o	c #555555555555",
"O	c #878787878787",
"+	c grey10",
"@	c white",
"                                                  ",
"                                                  ",
"         ......................................   ",
"        .XXXXXXXXXXXXXXXXXXXXXXXXXXXXXXXXXXXX..   ",
"       .XXXXXXXXXXXXXXXXXXXXXXXXXXXXXXXXXXXX.o.   ",
"      .XXXXXXXXXXXXXXXXXXXXXXXXXXXXXXXXXXXX.oo.   ",
"     .XXXXXXXXXXXXXXXXXXXXXXXXXXXXXXXXXXXX.ooo.   ",
"    .XXXXXXXXXXXXXXXXXXXXXXXXXXXXXXXXXXXX.oooo.   ",
"   ......................................ooooo.   ",
"   .OOOOOOOOOOOOOOOOOOOOOOOOOOOOOOOOOOOO.ooooo.   ",
"   .OOOOOOOOOOOOOOOOOOOOOOOOOOOOOOOOOOOO.ooooo.   ",
"   .OOOOOOOOOOOOOOOOOOOOOOOOOOOOOOOOOOOO.ooooo.   ",
"   .O.........OOOOO.++++++++OO.........O.ooooo.   ",
"   .O.XXXXXXX.OOOOO.XXXXXXX+OO.XXXXXXX.O.ooooo.   ",
"   .O.XXXXXXX.OOOOO.XXXXXXX+OO.XXXXXXX.O.ooooo.   ",
"   .O.XXXXXXX.OOOOO.XXXXXXX+OO.XXXXXXX.O.ooooo.   ",
"   .O.XXXXXXX.OOOOO.XXXXXXX+OO.XXXXXXX.O.ooooo.   ",
"   .O.+++++++.OOOOO.........OO.+++++++.O.ooooo.   ",
"   .O.@@@@@@@.OOOOO.XXXXXXX+OO.@@@@@@@.O.ooooo.   ",
"   .O.@@@@@@@.OOOOO.XXXXXXX+OO.@@@@@@@.O.ooooo.   ",
"   .O.@@@@@@@.OOOOO.XXXXXXX+OO.@@@@@@@.O.ooooo.   ",
"   .O.@@@@@@@.OOOOO.XXXXXXX+OO.@@@@@@@.O.ooooo.   ",
"   .O.@@@@@@@.OOOOO.XX...XX+OO.@@@@@@@.O.ooooo.   ",
"   .O.@@@@@@@.O.OOO.X.XXX.X+OO.@@.@@@@.O.ooooo.   ",
"   .O.@@@@@@@.O..OO.X.XXX.X+OO.@@..@@@.O.ooooo.   ",
"   .O.@@@@@.......O.XXXXX.X+........@@.O.ooooo.   ",
"   .O.@@@@@.........XXXX.XX+.........@.O.ooooo.   ",
"   .O.@@@@@.......O.XXX.XXX+........@@.O.ooooo.   ",
"   .O.@@@@@@@.O..OO.XXX.XXX+OO.@@..@@@.O.ooooo.   ",
"   .O.@@@@@@@.O.OOO.XXXXXXX+OO.@@.@@@@.O.ooooo.   ",
"   .O.@@@@@@@.OOOOO.XXX.XXX+OO.@@@@@@@.O.ooooo.   ",
"   .O.@@@@@@@.OOOOO.XXXXXXX+OO.@@@@@@@.O.ooooo.   ",
"   .O.@@@@@@@.OOOOO.XXXXXXX+OO.@@@@@@@.O.ooooo.   ",
"   .O.@@@@@@@.OOOOO.XXXXXXX+OO.@@@@@@@.O.ooooo.   ",
"   .O.@@@@@@@.OOOOO.XXXXXXX+OO.@@@@@@@.O.ooooo.   ",
"   .O.@@@@@@@.OOOOO.XXXXXXX+OO.@@@@@@@.O.ooooo.   ",
"   .O.@@@@@@@.OOOOO.XXXXXXX+OO.@@@@@@@.O.ooooo.   ",
"   .O.@@@@@@@.OOOOO.XXXXXXX+OO.@@@@@@@.O.ooooo.   ",
"   .O.........OOOOO.++++++++OO.........O.ooooo.   ",
"   .OOOOOOOOOOOOOOOOOOOOOOOOOOOOOOOOOOOO.ooooo.   ",
"   .OOOOOOOOOOOOOOOOOOOOOOOOOOOOOOOOOOOO.oooo.    ",
"   .OOOOOOOOOOOOOOOOOOOOOOOOOOOOOOOOOOOO.ooo.     ",
"   .OOOOOOOOOOOOOOOOOOOOOOOOOOOOOOOOOOOO.oo.      ",
"   .OOOOOOOOOOOOOOOOOOOOOOOOOOOOOOOOOOOO.o.       ",
"   .OOOOOOOOOOOOOOOOOOOOOOOOOOOOOOOOOOOO..        ",
"   ......................................         ",
"                                                  ",
"                                                  ",
"                                                  ",
"                                                  "};
