/* XPM */
static char * auto_start_xpm[] = {
/* width height ncolors chars_per_pixel */
"64 48 4 1",
/* colors */
" 	s background	c NavyBlue",
".	c grey",
"X	c white",
"o	c black",
/* pixels */
"                                                                ",
"                                                                ",
"                                                                ",
"                                                                ",
"                                                                ",
"                                                                ",
"                           ...    ...    ...    ...    ...      ",
"                         .....  .....  .....  .....  .....      ",
"                    .......... ...... ...... ...... ......      ",
"                    XXX.XXX... XXX... XXX... XXX... XXX...      ",
"                X.. XXX.XXX... XXX... XXX... XXX... XXX...      ",
"               XXX..XXX.XXX... XXX... XXX... XXX... XXX...      ",
"              XXXXXXXX..XXX... XXX... XXX... XXX... XXX...      ",
"             XXXXX.XXX..XXX... XXX... XXX... XXX... XXX...      ",
"            XXXXX..XXX..XXX... XXX... XXX... XXX... XXX...      ",
"           XXXXX.. XXX..XXX... XXX... XXX... XXX... XXX...      ",
"          XXXXX.. XXX...XXX... XXX... XXX... XXX... XXX...      ",
"         XXXXX... XXX.. XXX... XXX... XXX... XXX... XXX...      ",
"        XXXXX...  XXX.. XXX... XXX... XXX... XXX... XXX...      ",
"       XXXXX...   XXX.. XXX... XXX... XXX... XXX... XXX...      ",
"      XXXXX...   XXX... XXX... XXX... XXX... XXX... XXX...      ",
"       XXX...    XXX..  XXX..  XXX..  XXX..  XXX..  XXX..       ",
"        X..      XXX.   XXX    XXX    XXX    XXX    XXX         ",
"oooooooooooooooooooooooooooooooooooooooooooooooooooooooooooooooo",
"oooooooooooooooooooooooooooooooooooooooooooooooooooooooooooooooo",
"                                                                ",
"                                                                ",
"                                                                ",
"                                                                ",
"                                                                ",
"                                                                ",
"                                                                ",
"                                                                ",
"      X                            XXX X                        ",
"      X                           XX  XX                        ",
"     X X            X             X    X  X               X     ",
"     X X    XX  XX XXXX  XXX      XX     XXXX  XXX  X XXXXXXX   ",
"    X   X    X   X  X   XX XX      XXX    X   XX  X  XX   X     ",
"    X   X    X   X  X   X   X        XX   X      XX  X    X     ",
"    XXXXX    X   X  X   X   X          X  X    XX X  X    X     ",
"   X     X   X   X  X   X   X     X    X  X   X   X  X    X     ",
"   X     X   XX XX  X   XX XX     XX  XX  X   XX  X  X    X     ",
"  XXX   XXX   XX XX  XX  XXX      X XXX    XX  XXX XXXX    XX   ",
"                                                                ",
"                                                                ",
"                                                                ",
"                                                                ",
"                                                                "};
