/* XPM */
static char * editor_icon_xpm[] = {
"48 48 5 1",
" 	s LightBlue	c LightBlue",
".	c Grey",
"X	c Red",
"o	c black",
"O	c white",
"                                                ",
"                                                ",
"                                                ",
"      .....                                     ",
"    ..XXXXXoo                                   ",
"   .XXXXXXXXXo                                  ",
"   .XXXXXXXXXo                                  ",
"  .XXXXXXXXXXXo                                 ",
"  .XXXXXXXXXXXo                                 ",
"  .XXXXXXXXXXXoooo                              ",
"  .XXXXXXXXXXXo  o                              ",
"  .XXXXXXXXXXXo  o                              ",
"   .XXXXXXXXXo   o   OOOOOOOO                   ",
"   .XXXXXXXXXo   o   O......o                   ",
"    ..XXXXXoo    o   O......o                   ",
"      ooooo      o   O......o                   ",
"                 ooooO......o     OO            ",
"      .....          O......o     O.O           ",
"    ..XXXXXoo        O......o     O..O          ",
"   .XXXXXXXXXo       O......o     O...O         ",
"   .XXXXXXXXXo       O......o     O....O        ",
"  .XXXXXXXXXXXo      O......o     O.....O       ",
"  .XXXXXXXXXXXo      O......ooooooo......O      ",
"  .XXXXXXXXXXXoooooooO......ooooooo.......oooooo",
"  .XXXXXXXXXXXo      O......ooooooo......o      ",
"  .XXXXXXXXXXXo      O......o     O.....o       ",
"   .XXXXXXXXXo       O......o     O....o        ",
"   .XXXXXXXXXo       O......o     O...o         ",
"    ..XXXXXoo        O......o     O..o          ",
"     .ooooo          O......o     O.o           ",
"                 ooooO......o     Oo            ",
"      .....      o   O......o                   ",
"    ..XXXXXoo    o   O......o                   ",
"   .XXXXXXXXXo   o   O......o                   ",
"   .XXXXXXXXXo   o   Oooooooo                   ",
"  .XXXXXXXXXXXo  o                              ",
"  .XXXXXXXXXXXo  o                              ",
"  .XXXXXXXXXXXoooo                              ",
"  .XXXXXXXXXXXo                                 ",
"  .XXXXXXXXXXXo                                 ",
"   .XXXXXXXXXo                                  ",
"   .XXXXXXXXXo                                  ",
"    ..XXXXXoo                                   ",
"     .ooooo                                     ",
"                                                ",
"                                                ",
"                                                ",
"                                                "};
