/* XPM */
static char * config_xpm[] = {
/* width height ncolors chars_per_pixel */
"64 48 4 1",
/* colors */
" 	s background	c NavyBlue",
".	c black",
"X	c white",
"o	c #00000000ff00",
/* pixels */
"                                                                ",
"                        .....X     X................            ",
"                       .XXXXXoooooooXXXXXXXXXXXXXXXX.           ",
"                      ..............XX    XX....XXXX....        ",
"                    ..XXXXXXXXXXXXXXooooooooXXXX..XX....        ",
"                  ..........X     X...........XX..XX....        ",
"                 .XXXXXXXXXXoooooooXXXXXXXXXXX.X..XX....        ",
"                ..XX    XX................XXXX.X..XX....        ",
"                ..XX    XX................XXXX.X..XX....        ",
"              ..XXooooooooXXXXXXXXXXXXXXXX..XX.X..XX....        ",
"            ............................XX..XX.X..XX....        ",
"           .XXXX..............XXXXXXXXXX.X..XX.X..XX....        ",
"           .XXXX..............XXXXXXXXXX.X..XX.X..XX....        ",
"           .XXXXXXXXXXXXXXXXXXXXXXXXXXXX.X..XX.X..XX....        ",
"           .XXXXXXXXXXXXXXXXXXXXXXXXXXXX.X..XX.X..XX....        ",
"           .XXXXXXXXXXXXXXXXXXXXXXXXXXXX.X..XX.X..oo ...        ",
"           .XXXX.............XXXXXXXXXXX.X..XX.X..  ....        ",
"           .XXXXXXXXXXXXXXXXXXXXXXXXXXXX.X..XX.o  ......        ",
"           .XXXXXXXXXXXXXXXXXXXXXXXXXXXX.X..XX.o  ......        ",
"           .XXXXXXXXXXXXXXXXXXXXXXXXXXXX.X..XX. ......          ",
"                                  .XXXXX.X..oo ......           ",
"        ..oooooooooooooooooooooooo. XXXX.X..  ......            ",
"        ...........................   XX.o  ......              ",
"            ooooooooooooooooooooooooooooo ......                ",
"                                         ......                 ",
"              ................................                  ",
"              ................................                  ",
"                ............................                    ",
"                                                                ",
"                                                                ",
"                                                                ",
"                                                                ",
"                                                                ",
"      XXXX X                 XXXX                               ",
"     XX   XX                XX  X                               ",
"     X     X                X                                   ",
"    X      X   XXX  XX XX  XXXXXX   XXXX XX  XX X XXX  XXX      ",
"    X         XX XX  XX XX  X   X  XX X   X   X  XX   X   X     ",
"    X         X   X  X   X  X   X  X   X  X   X  X    XXXXX     ",
"    X         X   X  X   X  X   X  XX  X  X   X  X    X         ",
"    XX     X  X   X  X   X  X   X   XXX   X   X  X    X         ",
"     XX   X   XX XX  X   X  X   X   X     XX XX  X    XX   X    ",
"      XXXX     XXX  XXX XXXXXXXXXX  XXXX   XX XXXXX    XXXX     ",
"                                   X    X                       ",
"                                   XX  XX                       ",
"                                    XXX                         ",
"                                                                ",
"                                                                "};
