/* XPM */
static char * default_eb_xpm[] = {
"32 32 6 1",
" 	s LightBlue	c LightBlue",
".	s Red	c Red",
"X	s black	c black",
"o	s Brown	c Brown",
"O	s DarkGreen	c #3C00C600B900",
"+	c #DE00DE00DE00",
"                                ",
"                                ",
"         ..... ....             ",
"          .  .  .  .            ",
"          .     .  .            ",
"          ...   ...             ",
"          .     .  .            ",
"          .  .  .  .            ",
"         ..... ....             ",
"                                ",
"                                ",
"    XXXXXXXXXXXXXXXXXXXXXXXX    ",
"    X                      X    ",
"    X  X X X . . o o O O + XXXX ",
"    X  X X X . . o o O O + X    ",
"    X                    + X    ",
"    X  X X X . . o o O O + X    ",
"    X                      X    ",
"    X  X X X . . o o O O + X    ",
"    X  X X X . . o o O O + X    ",
"    X  X X X . . o o O O + X    ",
"    X                      X    ",
"    X  X X X . . o o O O + X    ",
"    X                      X    ",
"    X  X X X . . o o O O + X    ",
"    XXXXXXXXXXXXXXXXXXXXXXXX    ",
"       X X X . . o o O O +      ",
"       X X X . . o o O O +      ",
"       X X X . . o o O O +      ",
"XXXXXXXX X X . . o o O O +      ",
"                                ",
"                                "};
