/* XPM */
static char * eb_btn_xpm[] = {
"50 50 7 1",
" 	s None	c None",
".	s black	c black",
"X	c #A9A9A9A9A9A9",
"o	c #555555555555",
"O	c #878787878787",
"+	c white",
"@	c grey10",
"                                                  ",
"                                                  ",
"         ......................................   ",
"        .XXXXXXXXXXXXXXXXXXXXXXXXXXXXXXXXXXXX..   ",
"       .XXXXXXXXXXXXXXXXXXXXXXXXXXXXXXXXXXXX.o.   ",
"      .XXXXXXXXXXXXXXXXXXXXXXXXXXXXXXXXXXXX.oo.   ",
"     .XXXXXXXXXXXXXXXXXXXXXXXXXXXXXXXXXXXX.ooo.   ",
"    .XXXXXXXXXXXXXXXXXXXXXXXXXXXXXXXXXXXX.oooo.   ",
"   ......................................ooooo.   ",
"   .OOOOOOOOOOOOOOOOOOOOOOOOOOOOOOOOOOOO.ooooo.   ",
"   .OO..........OOOOOOOOOOOOOOOOOOOOOOOO.ooooo.   ",
"   .OO.XXXXXXXX.OOOOOOOOOOOOOOOOOOOOOOOO.ooooo.   ",
"   .OO.X..........OOOOOOOOO.........OOOO.ooooo.   ",
"   .OO...XXXXXXXX.OOOOOOOOO.XXXXXXX.OOOO.ooooo.   ",
"   .OO.+.X..........OOOOOOO.XXXXXXX.OOOO.ooooo.   ",
"   .OO.+...XXXXXXXX.OOOOOOO.XXXXXXX.OOOO.ooooo.   ",
"   .OO.+.+.X..........OOOOO.XXXXXXX.OOOO.ooooo.   ",
"   .OO.+.+...XXXXXXXX.OOOOO.@@@@@@@.OOOO.ooooo.   ",
"   .OO.+.+.+.XXXXXXXX.OOOOO.+++++++.OOOO.ooooo.   ",
"   .OO.+.+.+..........OOOOO.+++++++.OOOO.ooooo.   ",
"   .OO.+.+.+.++++++++.OOOOO.+++++++.OOOO.ooooo.   ",
"   .OO.+.+.+.++++++++.OOOOO.+++++++.OOOO.ooooo.   ",
"   .OO.+.+.+.++++++++.OOOOO.+++++++.OOOO.ooooo.   ",
"   .OO.+.+.+.++++++++.OOOOO.++.++++.OOOO.ooooo.   ",
"   .OO.+.+.+.++++++++.OOOOO.++..+++.OOOO.ooooo.   ",
"   .OO.+.+.+.++..................++.OOOO.ooooo.   ",
"   .OO.+.+.+.++...................+.OOOO.ooooo.   ",
"   .OO.+.+.+.++..................++.OOOO.ooooo.   ",
"   .OO.+.+.+.++++++++.OOOOO.++..+++.OOOO.ooooo.   ",
"   .OO.+.+.+.++++++++.OOOOO.++.++++.OOOO.ooooo.   ",
"   .OO.+.+.+.++++++++.OOOOO.+++++++.OOOO.ooooo.   ",
"   .OO...+.+.++++++++.OOOOO.+++++++.OOOO.ooooo.   ",
"   .OOOO.+.+.++++++++.OOOOO.+++++++.OOOO.ooooo.   ",
"   .OOOO.+.+.++++++++.OOOOO.+++++++.OOOO.ooooo.   ",
"   .OOOO...+.++++++++.OOOOO.+++++++.OOOO.ooooo.   ",
"   .OOOOOO.+.++++++++.OOOOO.+++++++.OOOO.ooooo.   ",
"   .OOOOOO...++++++++.OOOOO.+++++++.OOOO.ooooo.   ",
"   .OOOOOOOO.++++++++.OOOOO.+++++++.OOOO.ooooo.   ",
"   .OOOOOOOO..........OOOOO.........OOOO.ooooo.   ",
"   .OOOOOOOOOOOOOOOOOOOOOOOOOOOOOOOOOOOO.ooooo.   ",
"   .OOOOOOOOOOOOOOOOOOOOOOOOOOOOOOOOOOOO.oooo.    ",
"   .OOOOOOOOOOOOOOOOOOOOOOOOOOOOOOOOOOOO.ooo.     ",
"   .OOOOOOOOOOOOOOOOOOOOOOOOOOOOOOOOOOOO.oo.      ",
"   .OOOOOOOOOOOOOOOOOOOOOOOOOOOOOOOOOOOO.o.       ",
"   .OOOOOOOOOOOOOOOOOOOOOOOOOOOOOOOOOOOO..        ",
"   ......................................         ",
"                                                  ",
"                                                  ",
"                                                  ",
"                                                  "};
