/* XPM */
static char * end_xpm[] = {
/* width height ncolors chars_per_pixel */
"64 48 6 1",
/* colors */
" 	s background	c NavyBlue",
".	c black",
"X	c white",
"o	c grey",
"O	c #800080008000",
"+	c #7A007A007A00",
/* pixels */
"                                                                ",
"   ..XX..XX..ooooo                                              ",
"   ..XX..XX..                                                   ",
"   XX..XX..XX                                                   ",
"   XX..XX..XX                                                   ",
"   ..XX..XX..                                                   ",
"   ..XX..XX..                                                   ",
"   XX..XX..XX                                                   ",
"   XX..XX..XX                                                   ",
"                                                                ",
"                                ...........                     ",
"                                ooooooooooO                     ",
"                                ooooooooooO                     ",
"                            XXX.XXXXXXXXXX.OOO                  ",
"                          XXXX.XXX..XXXXXXX.OO                  ",
"              oooooooooooOXX..X.X...XXXXXXX.OO                  ",
"            oooooooooooooOXX..X.XX..XXXXXXX.OO                  ",
"          OOoooo............................OO                  ",
"          OOoooooooooooooO..ooooooooooooooo.oooooO              ",
"          ooOOOOOOOOOOOOOO..ooOOOOOOOO......OOOOOO              ",
"          OOO.........OOOO..ooOOOOOOO.........OOOO              ",
"          OO....XXX.....OO..ooOOOOOO....XXX.....OO              ",
"          OO..XXOOOX....OO..OOOOOOOO..XXOOOX....O+              ",
"          OO..XXOO.X..................XXOO.X.... +              ",
"          OO..XXOO.X..................XXOO.X.....               ",
"            ....XXX.....OOOOOOOOOOOO....XXX.....                ",
"             .........               .........                  ",
"................................................................",
"................................................................",
"                                                                ",
"                                                                ",
"                                                                ",
"                                                                ",
"                     XXXXXXX            XX                      ",
"                      X    X             X                      ",
"                      X                  X                      ",
"                      X   X  XX XX    XXXX                      ",
"                      XXXXX   XX XX  XX  X                      ",
"                      X   X   X   X  X   X                      ",
"                      X       X   X  X   X                      ",
"                      X    X  X   X  X   X                      ",
"                      X    X  X   X  XX XX                      ",
"                     XXXXXXX XXX XXX  XXX X                     ",
"                                                                ",
"                                                                ",
"                                                                ",
"                                                                ",
"                                                                "};
