/* XPM */
static char * eth_input_xpm[] = {
"48 48 3 1",
" 	s LightBlue	c LightBlue",
".	s Red	c Red",
"X	s black	c black",
"                                                ",
"                                                ",
"                                                ",
"                                                ",
"                                                ",
"                                                ",
"                                                ",
"                                                ",
"                                                ",
"                                                ",
"                                                ",
"                                                ",
"                                                ",
"                                                ",
"                                                ",
"     .....  .  .                          .     ",
"     .      .  .                          .     ",
"     .     ... . ..   ..  . . . ..   ..  ...    ",
"     .....  .  ..  . .  . ..  ..  . .  .  .     ",
"     .      .  .   . .... .   .   . ....  .     ",
"     .      .  .   . .    .   .   . .     .     ",
"     .      .  .   . .  . .   .   . .  .  .     ",
"     .....  .. .   .  ..  .   .   .  ..   ..    ",
"                                                ",
"                                                ",
"                                                ",
"                                                ",
"                                                ",
"                                                ",
"                                            X   ",
"                                            XX  ",
"                                            XXX ",
"XXXXXXXXXXXXXXXXXXXXXXXXXXXXXXXXXXXXXXXXXXXXXXXX",
"XXXXXXXXXXXXXXXXXXXXXXXXXXXXXXXXXXXXXXXXXXXXXXXX",
"XXXXXXXXXXXXXXXXXXXXXXXXXXXXXXXXXXXXXXXXXXXXXXXX",
"                                            XXX ",
"                                            XX  ",
"                                            X   ",
"                                                ",
"                                                ",
"                                                ",
"                                                ",
"                                                ",
"                                                ",
"                                                ",
"                                                ",
"                                                ",
"                                                "};
