/* XPM */
static char * go_xpm[] = {
/* width height ncolors chars_per_pixel */
"64 48 6 1",
/* colors */
" 	s background	c NavyBlue",
".	c white",
"X	c black",
"o	c grey",
"O	c #800080008000",
"+	c #7A007A007A00",
/* pixels */
"                                                                ",
"                                                                ",
"                                                                ",
"                                                      .......   ",
"                                                                ",
"                                                                ",
"                                                                ",
"                                            ............        ",
"              ..........                                        ",
"                                                                ",
"                                    XXXXXXXXXXX                 ",
"                                    ooooooooooO                 ",
"                                    ooooooooooO                 ",
"                                ...X..........XOOO              ",
"                              ....X...XX.......XOO   .........  ",
"                  oooooooooooO..XX.X.XXX.......XOO              ",
"                oooooooooooooO..XX.X..XX.......XOO              ",
"              OOooooXXXXXXXXXXXXXXXXXXXXXXXXXXXXOO              ",
"              OOoooooooooooooOXXoooooooooooooooXoooooO          ",
"              ooOOOOOOOOOOOOOOXXooOOOOOOOOXXXXXXOOOOOO          ",
"              OOOXXXXXXXXXOOOOXXooOOOOOOOXXXXXXXXXOOOO          ",
"              OOXXXX...XXXXXOOXXooOOOOOOXXXX...XXXXXOO          ",
"              OOXX..OOO.XXXXOOXXOOOOOOOOXX..OOO.XXXXO+          ",
"              OOXX..OOX.XXXXXXXXXXXXXXXXXX..OOX.XXXX +          ",
"              OOXX..OOX.XXXXXXXXXXXXXXXXXX..OOX.XXXXX           ",
"                XXXX...XXXXXOOOOOOOOOOOOXXXX...XXXXX            ",
"                 XXXXXXXXX               XXXXXXXXX              ",
"XXXXXXXXXXXXXXXXXXXXXXXXXXXXXXXXXXXXXXXXXXXXXXXXXXXXXXXXXXXXXXXX",
"XXXXXXXXXXXXXXXXXXXXXXXXXXXXXXXXXXXXXXXXXXXXXXXXXXXXXXXXXXXXXXXX",
"                                                                ",
"                                                                ",
"                                                                ",
"                           .... .                               ",
"                          ..   ..                               ",
"                          .     .                               ",
"                         .      .    ...                        ",
"                         .          .. ..                       ",
"                         .    ....  .   .                       ",
"                         .      .   .   .                       ",
"                         ..     .   .   .                       ",
"                          ..   ..   .. ..                       ",
"                           .....     ...                        ",
"                                                                ",
"                                                                ",
"                                                                ",
"                                                                ",
"                                                                ",
"                                                                "};
