/* XPM */
static char * insensitive_xpm[] = {
/* width height ncolors chars_per_pixel */
"64 48 3 1",
/* colors */
" 	s background	c NavyBlue",
".	c yellow",
"X	c black",
/* pixels */
"                                                                ",
"                                                                ",
"                                                                ",
"                                                                ",
"                                                                ",
"                                                                ",
"                                                                ",
"                                                                ",
"                                                                ",
"                               .                                ",
"                              ...                               ",
"                             ....                               ",
"                             .....                              ",
"                            ......                              ",
"                            .......                             ",
"                           ........                             ",
"                           ...XXX...                            ",
"                          ...XXXXX..                            ",
"                          ...XXXXX...                           ",
"                         ....XXXXX...                           ",
"                         ....XXXXX....                          ",
"                        .....XXXXX....                          ",
"                        .....XXXXX.....                         ",
"                       ......XXXXX.....                         ",
"                       ......XXXXX......                        ",
"                      ........XXX.......                        ",
"                      ........XXX........                       ",
"                     .........XXX........                       ",
"                     .........XXX.........                      ",
"                    ......................                      ",
"                    ..........XXX..........                     ",
"                   ..........XXXXX.........                     ",
"                   ..........XXXXX..........                    ",
"                  ............XXX...........                    ",
"                  ...........................                   ",
"                 .............................                  ",
"                                                                ",
"                                                                ",
"                                                                ",
"                                                                ",
"                                                                ",
"                                                                ",
"                                                                ",
"                                                                ",
"                                                                ",
"                                                                ",
"                                                                ",
"                                                                "};
