/* XPM */
static char * prestart_xpm[] = {
/* width height ncolors chars_per_pixel */
"64 48 9 1",
/* colors */
" 	s background	c NavyBlue",
".	c #800080000000",
"X	c black",
"o	c grey",
"O	c #800080008000",
"+	c Red",
"@	c white",
"#	c Blue",
"$	c #800000000000",
/* pixels */
"                                                                ",
"                                                                ",
"                                                                ",
"                                                                ",
"            ...                      XXXXXXXXXXX                ",
"           ....                      ooooooooooO                ",
"           ....                      ooooooooooO                ",
"         ++++                    @@@X@@@@@@@@@@XOOO             ",
"         ++++                  @@@@X@@@@@@@@@@@@XOO             ",
"         ++++      oooooooooooO@@XX@@@@@@@@@@@@@XOO             ",
"         +++++   oooooooooooooO@@XX@@@@@@@@@@@@@XOO             ",
"         XXXX+ OOooooXXXXXXXXXXXXXXXXXXXXXXXXXXXXOO             ",
"         ###X+ OOoooooooooooooOXXoooooooooooooooXoooooO         ",
"         ###X+ ooOOOOOOOOOOOOOOXXooOOOOOOOOXXXXXXOOOOOO         ",
"         ###X+ OOOXXXXXXXXXOOOOXXooOOOOOOOXXXXXXXXXOOOO         ",
"         ###   OOXXXX@@@XXXXXOOXXooOOOOOOXXXX@@@XXXXXOO         ",
"         ###   OOXX@@OOO@XXXXOOXXOOOOOOOOXX@@OOO@XXXXO          ",
"         ###   OOXX@@OOX@XXXXXXXXXXXXXXXXXX@@OOX@XXXX  OO       ",
"         ###   OOXX@@OOX@XXXXXXXXXXXXXXXXXX@@OOX@XXXXX OO       ",
"         ###     XXXX@@@XXXXXOOOOOOOOOOOOXXXX@@@XXXXXoOoo       ",
"         $$$$    oXXXXXXXXXoooooooooooooooXXXXXXXXXoooo         ",
"                     oooooo                  oooooo             ",
"                     oooooo                  oooooo             ",
"                                                                ",
"                                                                ",
"                                                                ",
"                                                                ",
"                                                                ",
"                                                                ",
"                                                                ",
"                                                                ",
"                                                                ",
"            @@@@@                                               ",
"             @  @@                                              ",
"             @   @                    @               @         ",
"             @   @ @ @@@  @@@    @@@ @@@@  @@@  @ @@@@@@@       ",
"             @  @@  @@   @   @  @  @  @   @@  @  @@   @         ",
"             @@@@   @    @@@@@  @@    @      @@  @    @         ",
"             @      @    @       @@   @    @@ @  @    @         ",
"             @      @    @        @@  @   @   @  @    @         ",
"             @      @    @@   @ @  @  @   @@  @  @    @         ",
"            @@@    @@@    @@@@  @@@    @@  @@@ @@@@    @@       ",
"                                                                ",
"                                                                ",
"                                                                ",
"                                                                ",
"                                                                ",
"                                                                "};
