/* XPM */
static char * process_xpm[] = {
"50 50 6 1",
" 	s None	c None",
".	s black	c black",
"X	c white",
"o	s Red	c Red",
"O	c blue",
"+	c yellow",
"                        ...                       ",
"                   .....XXX.....                  ",
"                ...XXXXXXXXXXXXX...               ",
"              ..XXXXXXXXXXXXXXXXXXX..             ",
"            ..XXXXXXXXXXXXXXXXXXXXXXX..           ",
"           .XXXXXXXXXXXXXXXXXXXXXXXXXXX.          ",
"          .XXXXXXXXXXXXXXXXXXXXXXXXXXXXX.         ",
"         .XXXXXXXXXXXXXXXXXXXXXXXXXXXXXXX.        ",
"        .XXXXXXXXXXXXXXXXXXXXXXXXXXXXXXXXX.       ",
"       .....................................      ",
"      .X.XXXXXXXXXXXXXXXXXXXXXXXXXXXXXXXXX.X.     ",
"     .XX.XX...XXXXXXXXXXX...XX...XXX...XXX.XX.    ",
"     .XX.oo...ooooooooOoo...oo...ooo...ooo.XX.    ",
"    .XXX.XX...XXXXXXXXOXX...XX...OXX...XXX.XXX.   ",
"    .XXX.XXXXXXXXXXXXXOXXXXXXXXXXOXXXXXXXX.XXX.   ",
"   .XXXX.XXXXXXX...XXXOXXXXXXXXXXOXXXXXXXX.XXXX.  ",
"   .XXXX.+++++++...+++O+++++++++++++++++++.XXXX.  ",
"   .XXXX.XXXOXXX...XXXOXXXXXXXXXXXXXXXXXXX.XXXX.  ",
"  .XXXXX.XXXOXXXXXXXXXOXXXXXXXXXXXXXXXXXXX.XXXXX. ",
"  .XXXXX.XXXOXXXXXXXXXOXXXXXXX...XXXXXXXXX.XXXXX. ",
"  .XXXXX.OOOOOOOOOOOOOOOOOOOOO...OOOOOOOOO.XXXXX. ",
"  .XXXXX.XXXXXXXXXXXXXOXXXXXOX...XXXXXXXXX.XXXXX. ",
"  .XXXXX.XXXXXXXXXXXXXOXXXXXOXXXXXXXXXXXXX.XXXXX. ",
" .XXXXXX.XXX...XXXXXXXOXXXXXOXXXXXXXX...XX.XXXXXX.",
" .XXXXXX.ooo...oooooooOoooooooooooooo...oo.XXXXXX.",
" .XXXXXX.XXX...XXXXXXXOXXXXXOXXXXXXXX...XX.XXXXXX.",
"  .XXXXX.XXXXXXXXXXXXXOXXXXXOXXXXXXXXXXXXX.XXXXX. ",
"  .XXXXX.XXXXXXXXXXXXXOXXXXXOXXXXXXXXXXXXX.XXXXX. ",
"  .XXXXX.OOOOOOOOOOOOOOOOOOOOOOOOOOOOOOOOO.XXXXX. ",
"  .XXXXX.XXXXXXXXXXXXXXXXXXXOXXXXXOXXXXXXX.XXXXX. ",
"  .XXXXX.XXXXXXXXXXXXXXXXXXXOXXXXXOXXXXXXX.XXXXX. ",
"   .XXXX.XX...XXXXXX...XXXXXOX...XOX...XXX.XXXX.  ",
"   .XXXX.oo...oooooo...oooooOo...ooo...ooo.XXXX.  ",
"   .XXXX.XX...XXXOXX...XXXXXOX...XXX...XXX.XXXX.  ",
"    .XXX.XXXXXXXXOXXXXXXXXXXOXXXXXXXXXXXXX.XXX.   ",
"    .XXX.XXXXXXXXOXXXXXXXXXXOXXXXXXXXXXXXX.XXX.   ",
"     .XX.+++++++++++++++++++++++++++++++++.XX.    ",
"     .XX.XXXXXXXXXXXXXXXXXXXXXXXXXXXXXXXXX.XX.    ",
"      .X.XXXXXXXXXXXXXXXXXXXXXXXXXXXXXXXXX.X.     ",
"       .....................................      ",
"        .XXXXXXXXXXXXXXXXXXXXXXXXXXXXXXXXX.       ",
"         .XXXXXXXXXXXXXXXXXXXXXXXXXXXXXXX.        ",
"          .XXXXXXXXXXXXXXXXXXXXXXXXXXXXX.         ",
"           .XXXXXXXXXXXXXXXXXXXXXXXXXXX.          ",
"            ..XXXXXXXXXXXXXXXXXXXXXXX..           ",
"              ..XXXXXXXXXXXXXXXXXXX..             ",
"                ...XXXXXXXXXXXXX...               ",
"                   .....XXX.....                  ",
"                        ...                       ",
"                                                  "};
