/* XPM */
static char * quit_xpm[] = {
/* width height ncolors chars_per_pixel */
"64 48 7 1",
/* colors */
" 	s background	c NavyBlue",
".	c white",
"X	c #800080008000",
"o	c black",
"O	c cyan",
"+	c #800080000000",
"@	c #ff00ff000000",
/* pixels */
"                                                                ",
"                                                                ",
"                                               .......          ",
"                                                .    .          ",
"         XXXXXXXXXXXXXXXXXXXXX                  .               ",
"         XXXXXXXXXXXXXXXXXXXXX                  .   .           ",
"         XooooooooooooooooooXX                  .....           ",
"         XooooooooooooooooooXX                  .   .           ",
"         XooooOOOOOOOOOOOOOoXX                  .               ",
"         XooooooooOOOOOOOOOoXX                  .    .          ",
"         Xoo+++ooooooOOOOOOoXX                  .    .          ",
"         Xoo++++++oooOOOOOOoXX                 .......          ",
"         Xoo++++++++ooOOOOOoXX                                  ",
"         Xoo++++++++ooOOOOOoXX                                  ",
"         Xoo+++++++++oOOOOOoXX                                  ",
"         Xoo+++++++++oOOOOOoXX                 ... ...          ",
"         Xoo+++++++++oOOOOOoXX                  .   .           ",
"         Xoo+++++++++oOOOOOoXX                   ...            ",
"         Xoo+++++++++oOOOOOoXX                    .             ",
"         Xoo+++++++++oOOOOOoXX                   ...            ",
"         Xoo+++++++++oOOOOOoXX                  .   .           ",
"         Xoo+++++++++oOOOOOoXX                 ... ...          ",
"         Xoo+++++++++oOOOOOoXX                                  ",
"         Xoo+++++++++oOOOOOoXX                                  ",
"         Xoo+++++++++oOOOOOoXX                                  ",
"         Xoo+++++++++oOOOOOoXX                    .             ",
"         Xoo+++++++++oOOOOOoXX                    .             ",
"         Xoo+++++++++oOOOOOoXX                                  ",
"         Xoo+++++++++oOOOOOoXX                   ..             ",
"         Xoo+++++++++oOOOOOoXX                    .             ",
"         Xoo++++++@@@oOOOOOoXX                    .             ",
"         Xoo++++++@@@oOOOOOoXX                    .             ",
"         Xoo++++++@@@oOOOOOoXX                    .             ",
"         Xoo+++++++++oOOOOOoXX                    .             ",
"         Xoo+++++++++oOOOOOoXX                   ...            ",
"         Xoo+++++++++oOOOOOoXX                                  ",
"         Xoo+++++++++oOOOOOoXX                                  ",
"         Xoo+++++++++oOOOOOoXX                    .             ",
"         Xoo+++++++++oOOOOOoXX                   ....           ",
"         Xoo+++++++++oOOOOOoXX                    .             ",
"         Xoo+++++++++oOOOOOoXX                    .             ",
"         Xoo+++++++++oOOOOOoXX                    .             ",
"         Xoo+++++++++oOOOOOoXX                    .             ",
"         Xoo+++++++++oOOOOOoXX                    .             ",
"         Xoooo+++++++oOOOOOoXX                     ..           ",
"         Xooooo++++++oooooooXX                                  ",
"         XXXXXXooooo+oXXXXXXXX                                  ",
"         XXXXXXoooooooXXXXXXXX                                  "};
