#define skull_width 32
#define skull_height 32
static char skull_bits[] = {
 0x00,0x00,0x00,0x00,0xaa,0x0a,0x50,0x55,0x10,0x00,0x80,0x20,0x4a,0x01,0x40,
 0x8a,0x00,0x00,0x00,0x10,0xaa,0x00,0x01,0xa5,0x00,0x00,0x00,0x00,0x2a,0x10,
 0x10,0x54,0x10,0x20,0x40,0x00,0x8a,0x04,0x08,0x54,0x20,0x10,0x21,0x20,0x0a,
 0x00,0x00,0x84,0x10,0x88,0x22,0x28,0x22,0x00,0x00,0x40,0x44,0x00,0x00,0x0a,
 0x12,0x00,0x00,0x50,0x48,0x02,0x80,0x82,0x82,0x00,0x00,0x14,0x14,0x02,0x90,
 0xa0,0xa0,0x20,0x01,0x15,0x0a,0x05,0x20,0x40,0x50,0x00,0x40,0x15,0x0a,0x05,
 0x00,0xa0,0x20,0x00,0x50,0x15,0x4a,0x05,0x08,0x42,0x00,0x28,0xa2,0x00,0x02,
 0x40,0x08,0x20,0x14,0x00,0x00,0x44,0x42,0x01,0x80,0x88,0x08,0x00,0x00,0x10,
 0x00,0x2a,0x15,0x00,0x00,0x40,0x40,0x01};
