/* XPM */
static char * ana_btn_xpm[] = {
"48 48 3 1",
" 	s LightBlue	c LightBlue",
".	s Red	c Red",
"X	s black	c black",
"                                                ",
"                                                ",
"                                                ",
"              .      ...   ...      .           ",
"              .       ..    .       .           ",
"             . .      . .   .      . .          ",
"             . .      . ..  .      . .          ",
"            .   .     .  .  .     .   .         ",
"            .   .     .  .. .     .   .         ",
"            .....     .   . .     .....         ",
"           .     .    .   . .    .     .        ",
"           .     .    .    ..    .     .        ",
"          ...   ...  ...   ..   ...   ...       ",
"                                                ",
"                                                ",
"                                                ",
"                                                ",
"XXXXXXXXXXXXXXXXXXXXXXXXX                       ",
"XXXXXXXXXXXXXXXXXXXXXXXXX                       ",
"                       XX                       ",
"                       XX                       ",
"                       XX                       ",
"                       XX                       ",
"                       XX                       ",
"         XXXXXXXXXXXXXXXXXXXXXXXXXXXXXX         ",
"         XXXXXXXXXXXXXXXXXXXXXXXXXXXXXX         ",
"          XX                        XX          ",
"           XX                      XX           ",
"            XX                    XX            ",
"             XX                  XX             ",
"              XX                XX              ",
"               XXXXXXXXXXXXXXXXXX               ",
"               XXXXXXXXXXXXXXXXXX               ",
"               XX              XX               ",
"               XX              XXXXXXXXXXXXXXXX ",
"               XX              XX             X ",
"               XX              XX             X ",
"               XX              XXXXXXXXXXX    X ",
"               XX              XX        X    X ",
"               XX              XX        X    X ",
"               XX              XX        XXXXXX ",
"               XXXXXXXXXXXXXXXXXX          XX   ",
"               XXXXXXXXXXXXXXXXXX          XX   ",
"                                           XX   ",
"                                           XX   ",
"                                           XX   ",
"                                           XX   ",
"                                                "};
