/* XPM */
static char * casett2_xpm[] = {
"47 36 6 1",
" 	c #C30BC30BC30B",
".	c #000000000000",
"X	c #FFFFFFFFFFFF",
"o	c #820782078207",
"O	c #820782070000",
"+	c #FFFFFFFF0000",
"                                               ",
"                                               ",
"   ..........................................  ",
"   ..........................................  ",
"  .XXXXXXXXXXXXXXXXXXXXXXXXXXXXXXXXXXXXXXXooo. ",
"  .XX.                                  ..ooo. ",
"  .XX.                                  ..ooo. ",
"  .XX                                     ooo. ",
"  .XX                                     ooo. ",
"  .XX                                     ooo. ",
"  .XX   ooooo                    oooooo   ooo. ",
"  .XX ooo....oo   ............  ooo....o  ooo. ",
"  .XX ooo....oo   ............  ooo....o  ooo. ",
"  .XX oo.X..X..X  .OOOOOOOoooX  o..X..X.XXooo. ",
"  .XX oo.X..X..X  .OOOOOOOoooX  o..X..X.XXooo. ",
"  .XX oo..oo...X  .O+++++O   X  o...oo..XXooo. ",
"  .XX oo.X..X..X  .O+++++O   X  o..X..X.XXooo. ",
"  .XX oo.X..X..X  .O+++++O   X  o..X..X.XXooo. ",
"  .XX   o....XXX  .XXXXXXXXXXX   oo....XXXooo. ",
"  .XX    XXXXXX                    XXXXX  ooo. ",
"  .XX    XXXXXX                    XXXXX  ooo. ",
"  .XX                                     ooo. ",
"  .XX                                     ooo. ",
"  .XX                                     ooo. ",
"  .XX       XXXXXXXXXXXXXXXXXXXXXooo      ooo. ",
"  .XX       XXXXXXXXXXXXXXXXXXXXXooo      ooo. ",
"  .XX     XX          .XX          .      ooo. ",
"  .XX     XX    ..X         .X     ooo    ooo. ",
"  .XX     XX    ..X         .X     ooo    ooo. ",
"  .XX.   X   ..X              ..X   ..  ..ooo. ",
"  .oooooo.oooooooooooooooooooooooooo..ooooooo. ",
"  .oooooo.oooooooooooooooooooooooooo..ooooooo. ",
"  .oooooo.ooooo....ooo....ooo....ooo..ooooooo. ",
"   ..........................................  ",
"   ..........................................  ",
"                                               "};
