/* XPM */
static char * convert1_xpm[] = {
"32 32 13 1",
" 	c #000000000000",
".	c #C30BC30BC30B",
"X	c #FFFFFFFFFFFF",
"o	c #0000FFFF0000",
"O	c #FFFFFFFF0000",
"+	c #000000008207",
"@	c #000082070000",
"#	c #820782070000",
"$	c #0000FFFFFFFF",
"%	c #000082078207",
"&	c #820700008207",
"*	c #FFFF0000FFFF",
"=	c #820782078207",
"             ......             ",
" XoXoXoXoXoo ...... OOXOXOXOXOX ",
" oXoXoXoXooo ..++.. OOOXOXOXOXO ",
" XoXoXoXooo. ++++++ .OOOXOXOXOX ",
" oXoXoXooo.o +++X++ O.OOOXOXOXO ",
" XoXoXooo.o@ +++XX+ #O.OOOXOXOX ",
" oXoXooo.o@o +++.XX  #O.OOOXOXO ",
" XoXooo.o@o@ XXX..XX  #O.OOOXOX ",
" oXooo.o@o@o ......XX  #O.OOOXO ",
" Xooo.o@ @o@ ......X  #O#O.OOOX ",
" ooo.o@   @@    ..X  #O#O#O.OOO ",
" oo.o@  X  @ ++ .X+ ###O#O#O.OO ",
"       XXX   ++ X               ",
"...+++XX..X +++  ++++ ..X++++...",
"...++XX....X ++++++++ ..X++++...",
"..++XX......X ++++    ..X+++++..",
"..+++++X..    ++++ X......XX++..",
"...++++X.. ++++++++ X....XX++...",
"...++++X.. ++++  +++ X..XX+++...",
"             + X ++   XXX       ",
" $$.$%$%$%%%  X. ++ &  X  &*=** ",
" $$$.$%$%$%  X..    &&   &*=*** ",
" X$$$.$%$%  X...... &*& &*=***. ",
" $X$$$.$%  XX...... *&*&*=***.* ",
" X$X$$$.$%  XX..XXX &*&*=***.*X ",
" $X$X$$$.$%  XX.+++ *&*=***.*X* ",
" X$X$X$$$.$% +XX+++ &*=***.*X*X ",
" $X$X$X$$$.$ ++X+++ *=***.*X*X* ",
" X$X$X$X$$$. ++++++ =***.*X*X*X ",
" $X$X$X$X$$$ ..++.. ***.*X*X*X* ",
" X$X$X$X$X$$ ...... **.*X*X*X*X ",
"             ......             "};
