/* XPM */
static char * debug_xpm[] = {
"39 35 7 1",
" 	c #820782078207",
".	c #041004100410",
"X	c #C30BC30BC30B",
"o	c #FFFFFFFFFFFF",
"O	c #FFFFFFFF0410",
"+	c #04100410FFFF",
"@	c #FFFF04100410",
"                                       ",
"                                       ",
"                                       ",
"            ..                         ",
"           .XX.                        ",
"          ...X.          ...           ",
"          .o..         ..OoO.          ",
"         .ooo.       ..oOoOo.          ",
"         .oo.      ..OoOoOoOo.         ",
"        .ooo.    ..oO.....OoO.         ",
"        .oo.   ..OoOo.+++.oOoO.        ",
"       .ooo. ..oOoOoO.+++.OoOo.        ",
"       .oo...OoOoOoOo.+++.oOoOo.       ",
"      .ooo.oOoOoOoOo......OoOoO.       ",
"      .oo.oOoO..oO..oOoOoO.OoOoO.      ",
"     .....Oo..@...OoOoOoOo.o..Oo.      ",
"    .o...O..@@@.oOoOoOoOoO..@@.Oo.     ",
"    .o..Oo.@@@..OoOoOoOoO.@@@@.oO.     ",
"     .oOoO.@..oOoOoOoOoO.@@@@@@.oO.    ",
"     .OoOo..OoOoOoOoOoOoO.@@@@.oOo.    ",
"      .OoOoOoOoOoOo..OoO..@@..oOoOo.   ",
"      .oOoOoOoOoO..++...Oo..OoOoOoO.   ",
"       .oOoOoOo..++++.oOoOoOoOoOo..    ",
"       .OoOoOo.+++++++.oOoOoOoO..      ",
"        .OoOoO.++++...oOoOoOo..        ",
"        .oOoOoO.++.oOoOoOoO..          ",
"         .oOoOo.++.OoOoOo..            ",
"         .OoOoOo..OoOoO..              ",
"          .OoOoOoOoOo..                ",
"          .oOoOoOoO..                  ",
"           .oOoOo..                    ",
"           .OoO..                      ",
"            ...                        ",
"                                       ",
"                                       "};
