/* XPM */
static char * default_roc_xpm[] = {
"32 32 3 1",
" 	s LightBlue	c LightBlue",
".	s Red	c Red",
"X	s black	c black",
"                                ",
"                                ",
"     ....    ....   .....       ",
"      .  .  ..  .. ..   .       ",
"      .  .  .    . .            ",
"      ...   .    . .            ",
"      . .   .    . .            ",
"      .  .  ..  .. ..   .       ",
"     ... ..  ....   ....        ",
"                                ",
"  XXX     XXX     XXX           ",
" X   X   X   X   X   X          ",
" X   X   X   X   X   X          ",
" X   X   X   X   X   X          ",
"  XXX     XXX     XXX           ",
"   X       X       X            ",
"   X       X       X            ",
"   X XXXXXXXXXXXXX X      X     ",
"   X       X       X     X      ",
"   X       X       X    X       ",
"  XXXXXXXXXXXXXXXXXXXXXX        ",
" X              X               ",
"X               X               ",
"              XXXXX             ",
"              X   X             ",
"              X   X             ",
"              X   X             ",
"              X   X             ",
"              X   X             ",
"              X   X             ",
"              X   X             ",
"              XXXXX             "};
