/* XPM */
static char * devil_xpm[] = {
"49 48 12 1",
" 	c #C30BC30BC30B",
".	c #AAAA28A25555",
"X	c #AAAA5555D75C",
"o	c #FFFF00000000",
"O	c #000000000000",
"+	c #AAAA00005555",
"@	c #FFFFFFFFFFFF",
"#	c #FFFFD75CFFFF",
"$	c #AAAAAAAAFFFF",
"%	c #000000005555",
"&	c #AAAA5555FFFF",
"*	c #AAAAFFFFFFFF",
"                                                 ",
"                  ..                             ",
"                 ..X                             ",
"                .o.                   .          ",
"                oo.      ..OO.        oo.        ",
"                oo.    .OOooooo.      o..        ",
"                oo.  +O........O..    o...       ",
"                oo..OO..o...oo.ooO    ....       ",
"                ooo...@@@oo@@.ooooOOooo...       ",
"                OoOo.#@@.o.@@@..oOooooo...       ",
"                OOo.@@@@oo@@#@.ooooooo...        ",
"                .Oo@@@@+o.@@@@.oooooo..+.        ",
"                ooOO$O.oOO..@@@ooo..+.           ",
"                ooOO.OOoOO..+@@ooo....           ",
"               %ooOOOOOoOOOO.@.ooo....           ",
"     X         .ooooooooOOOO..oooo....           ",
"     %%%       OooooO.o.ooOOOOoooo....           ",
"      %X       ooooo.oo..ooooooooo.+..           ",
"        X%     OooooOoooo.oooooooo....           ",
"    %     $    .oOoooOOOoooooooooo....           ",
"    X%    %    %oOoooooooooooooOoo+...           ",
"     %X   %     .oOoooooooooOOOOoo...            ",
"       %  %      .o.OooooooOo.ooo...             ",
" %X     %$%$   .   .oo.OOOooooooo..              ",
"   %    X X%%X..o   %ooooooooo.O.X               ",
"    %X%X    &.%.o.%  X.ooooo....                 ",
"             .+.$X.   .oooooo...                 ",
"             %.o..%.OOOoooooo...                 ",
"              ..oo...OOooooo..+.+                ",
"                .....oOOooo......                ",
"                   .OooooOoo...+.                ",
"                   .OoooooOOO....                ",
"                   %OOoooooo..+..                ",
"                   &OoOooooo......               ",
"                    .oooooOOOOO...               ",
"                    $Ooooooo..OOO.               ",
"                     .ooooooo.....               ",
"                    O..oooooo...+......o...o     ",
"                  OOOooOOoooo.....+..+...+oooo   ",
"               OOOo.%o@.OOOoo.+O.......oooooooo  ",
"             %O@@.o@o@@o.o..OOO.O%...........ooo ",
"             O@@@@.oo....o@@@@@@O          O  oo ",
"             OO@@@@...@oo@o@o@@@O         %.X%oo ",
"             O@OOO.+@@@.o@@@oo.@O         %OOOo. ",
"             OO@@@@@@@#@Oooo.@@@O        %.oooo  ",
"                   @OO....@@@*+O      Xooo.oooo  ",
"                   @@@@@@@@+.O        ooo........",
"                   O..+.+.O                      "};
