/* XPM */
static char * doc_bin_xpm[] = {
"30 38 4 1",
" 	c #C30BC30BC30B",
".	c #000000000000",
"X	c #FFFFFFFFFFFF",
"o	c #A289A289A699",
"                              ",
"    .................         ",
"   ..XXXXXXXXXXXXXXX..        ",
"  . .XXXXXXXXXXXXXXX.o.       ",
" . ..XXXXXXXXXXXXXXX.oo.      ",
"  . .XXXXXXXXXXXXXXX.ooo.     ",
" . ..XXXXXXXXXXXXXXX.oooo.    ",
"  . .XXXXXXXXXXXXXXX.ooooo.   ",
" . ..XXXXXXXXXXXXXXX.oooooo.  ",
"  . .XXXXXXXXXXXXXXX......... ",
" . ..XXXXXXXXXXXXXXXXXXXXXXX. ",
"  . .XXXXXXXXXXXXXXXXXXXXXXX. ",
" . ..XXX...XXX..XXXX...XXXXX. ",
"  . .XXX.X.XXXX.XXXX.X.XXXXX. ",
" . ..XX.XXX.XXX.XXX.XXX.XXXX. ",
"  . .XX.XXX.XXX.XXX.XXX.XXXX. ",
" . ..XX.XXX.XXX.XXX.XXX.XXXX. ",
"  . .XX.XXX.XXX.XXX.XXX.XXXX. ",
" . ..XX.XXX.XXX.XXX.XXX.XXXX. ",
"  . .XXX.X.XXXX.XXXX.X.XXXXX. ",
" . ..XXX...XXX...XXX...XXXXX. ",
"  . .XXXXXXXXXXXXXXXXXXXXXXX. ",
" . ..XXXXXXXXXXXXXXXXXXXXXXX. ",
"  . .XXXXXXXXXXXXXXXXXXXXXXX. ",
" . ..XXXXXXXXXXXXXXXXXXXXXXX. ",
"  . .XXXXXXXXXXXXXXXXXXXXXXX. ",
" . ..XXXXXXXXXXXXXXXXXXXXXXX. ",
"  . .XXXXXXXXXXXXXXXXXXXXXXX. ",
" . ..XXXXXXXXXXXXXXXXXXXXXXX. ",
"  . .XXXXXXXXXXXXXXXXXXXXXXX. ",
" . ..XXXXXXXXXXXXXXXXXXXXXXX. ",
"  . .XXXXXXXXXXXXXXXXXXXXXXX. ",
" . ..XXXXXXXXXXXXXXXXXXXXXXX. ",
"  . ......................... ",
" . . . . . . . . . . . . . .  ",
"  . . . . . . . . . . . . .   ",
" . . . . . . . . . . . . .    ",
"                              "};
