/* XPM */
static char * doc_coda_xpm[] = {
"30 38 4 1",
" 	c #C30BC30BC30B",
".	c #000000000000",
"X	c #FFFFFFFFFFFF",
"o	c #A289A289A699",
"                              ",
"    .................         ",
"   ..XXXXXXXXXXXXXXX..        ",
"  . .XXXXXXXXXXXXXXX.o.       ",
" . ..XXXXXXXXXXXXXXX.oo.      ",
"  . .XXXXXXXXXXXXXXX.ooo.     ",
" . ..XXXXXXXXXXXXXXX.oooo.    ",
"  . .XXXXXXXXXXXXXXX.ooooo.   ",
" . ..XXXXXXXXXXXXXXX.oooooo.  ",
"  . .XXXXXXXXXXXXXXX......... ",
" . ..XXXXXXXXXXXXXXXXXXXXXXX. ",
"  . .XXXXXXXXXX...XXXXXXXXXX. ",
" . ..XXXXXXXXXXX.XXXXXXXXXXX. ",
"  . .XXXXXXXXXXX.XXXXXXXXXXX. ",
" . ..XXXXXXXXXXX.XXXXXXXXXXX. ",
"  . .XXXXXXXXX.....XXXXXXXXX. ",
" . ..XXXXXXXX.XX.XX.XXXXXXXX. ",
"  . .XXXXXXX.XXX.XXX.XXXXXXX. ",
" . ..XXXXXX.XXXX.XXXX.XXXXXX. ",
"  . .XXXXX.XXXXX.XXXXX.XXXXX. ",
" . ..X.XXX.XXXXX.XXXXX.XXX.X. ",
"  . .X.....................X. ",
" . ..X.XXX.XXXXX.XXXXX.XXX.X. ",
"  . .XXXXX.XXXXX.XXXXX.XXXXX. ",
" . ..XXXXXX.XXXX.XXXX.XXXXXX. ",
"  . .XXXXXXX.XXX.XXX.XXXXXXX. ",
" . ..XXXXXXXX.XX.XX.XXXXXXXX. ",
"  . .XXXXXXXXX.....XXXXXXXXX. ",
" . ..XXXXXXXXXXX.XXXXXXXXXXX. ",
"  . .XXXXXXXXXXX.XXXXXXXXXXX. ",
" . ..XXXXXXXXXXX.XXXXXXXXXXX. ",
"  . .XXXXXXXXXX...XXXXXXXXXX. ",
" . ..XXXXXXXXXXXXXXXXXXXXXXX. ",
"  . ......................... ",
" . . . . . . . . . . . . . .  ",
"  . . . . . . . . . . . . .   ",
" . . . . . . . . . . . . .    ",
"                              "};
