/* XPM */
static char * eb_btn_xpm[] = {
"33 32 16 1",
" 	c #820782078207",
".	c #820700008207",
"X	c #FFFFFFFFFFFF",
"o	c #FFFFFFFF0000",
"O	c #000000000000",
"+	c #FFFF0000FFFF",
"@	c #820700000000",
"#	c #820782070000",
"$	c #C30BC30BC30B",
"%	c #FFFF00000000",
"&	c #000082070000",
"*	c #0000FFFF0000",
"=	c #000000008207",
"-	c #00000000FFFF",
";	c #000082078207",
":	c #0000FFFFFFFF",
"                       ..        ",
"                      ..X.       ",
"       Xoo            O+.X.      ",
" @@@   ##Xoo          $O+.X.     ",
"@+%%@@ oo##Xoo         $O+.X.    ",
"@@@+%%@@ooo##Xo#O       $O+.X.   ",
"@%%@@+%%@@ooo###O        $O+.$.  ",
"@%%%%@@+%@Oooo##O         $O$O$  ",
"@%%%%%%@@@Oooo##O          $O$   ",
"@%%%%%%%@@Oooo##O  &&$      $    ",
"@%%%%%%&&&Oooo##O &&X&$          ",
"@%%%%%&X**&&oo##O O*&X&$         ",
"@%%%%%&&&X**&&##O  O*&X&$        ",
"@%%%%%&**&&X**O#O   O*&X&$       ",
"@%%%%%&****&&&O#..   O*&$&$      ",
"@%%%%%&*****&&O+++..  O$O$       ",
"@%%%%%&*****&&O..+++..XO$        ",
"@%%%%%=*****&&O++..+++O          ",
"@%%%%%=--***&&O++++...O   ;;;;;; ",
"@%%%%%=----*&&O;++++..O  ;;;;;;  ",
"@%%%%%=-----=;::;;++..O  ;:::::O ",
"@%%%%%=-----;;;:::O+..O  ;OOOOO  ",
"@%%%%%=-----;::;;;O+..O          ",
"@%%%%%==----;:::;;O+..O          ",
"OO%%%%%%==--;:::;;O+..O          ",
"  OO%%%%%%==;:::;;O+..O          ",
"    OO%%%%%%;;::;;O+..O          ",
"      OO%%%%%%;;@@O+..O          ",
"        OO%%%%%@@@O.OO           ",
"          OO%%%@@@OO             ",
"            OO%@OO               ",
"              OO                 "};
