/* XPM */
static char * ebana_btn_xpm[] = {
"48 48 3 1",
" 	s LightBlue	c LightBlue",
".	s Red	c Red",
"X	s black	c black",
"                                                ",
"                                                ",
"                                                ",
"                                                ",
"       ..... ....     .    ... ...    .         ",
"        .  .  .  .   ...    ..  .    ...        ",
"        .     .  .   . .    . . .    . .        ",
"        ...   ...    . .    . . .    . .        ",
"        .     .  .  .....   .  ..   .....       ",
"        .  .  .  .  .   .   .  ..   .   .       ",
"       ..... ....  ... ... ...  .  ... ...      ",
"                                                ",
"                                                ",
"                                                ",
"          XX       XX       XX       XX         ",
"          XX       XX       XX       XX         ",
"          XX       XX       XX       XX         ",
"          XX       XX       XX       XX         ",
"          XX       XX       XX       XX         ",
"    XXXXXXXXXXXXXXXXXXXXXXXXXXXXXXXXXXXXXXX     ",
"    XXXXXXXXXXXXXXXXXXXXXXXXXXXXXXXXXXXXXXX     ",
"    XX                                   XX     ",
"    XX                                   XX     ",
"    XX                                   XX     ",
"    XX                                   XX     ",
"    XX                                   XX     ",
"    XXXXXXXXXXXXXXXXXXXXXXXXXXXXXXXXXXXXXXX     ",
"    XXXXXXXXXXXXXXXXXXXXXXXXXXXXXXXXXXXXXXX     ",
"                       XX                       ",
"                       XX                       ",
"                       XX                       ",
"               XXXXXXXXXXXXXXXXXX               ",
"               XXXXXXXXXXXXXXXXXX               ",
"                XX            XX                ",
"                 XX          XX                 ",
"                  XX        XX                  ",
"                   XX      XX                   ",
"                    XXXXXXXX                    ",
"                     XXXXXX                     ",
"                       XX                       ",
"                       XX                       ",
"                       XX                       ",
"                       XX                       ",
"                       XX                       ",
"                       XX                       ",
"                       XX                       ",
"                       XX                       ",
"                       XX                       "};
