/* XPM */
static char * er_btn_xpm[] = {
"48 48 7 1",
" 	c #AEBADB6CE79D",
".	c #FBEE14514103",
"X	c #000000000000",
"o	c #86173CF32492",
"O	c #FFFFFFFF0000",
"+	c #3CF3FBEE34D3",
"@	c #FFFFFFFFFFFF",
"                                                ",
"                                                ",
"                                                ",
"                                                ",
"                                                ",
"                .......  ......                 ",
"                 .    .   .   ..                ",
"                 .        .    .                ",
"                 .   .    .   ..                ",
"                 .....    .....                 ",
"                 .   .    .   ..                ",
"                 .        .    .                ",
"                 .    .   .    .                ",
"                 .    .   .   ..                ",
"                .......  ......                 ",
"                                                ",
"                                                ",
"                                                ",
"                                                ",
"                                                ",
"   XXXXXXXXXXXXXXXXXXXXXXXXXXXXXXXXXXXXXXX      ",
"   XXXXXXXXXXXXXXXXXXXXXXXXXXXXXXXXXXXXXXX      ",
"   XX                                   XX      ",
"   XX  X X X . . . o o o O O O + + + @  XXXXXXXX",
"   XX  X X X . . . o o o O O O + + + @  XX      ",
"   XX  X X X . . . o o o O O O + + + @  XX      ",
"   XX                                   XX      ",
"   XX  X X X . . . o o o O O O + + + @  XX      ",
"   XX  X X X . . . o o o O O O + + + @  XX      ",
"   XX  X X X . . . o o o O O O + + + @  XX      ",
"   XX                                   XX      ",
"   XX  X X X . . . o o o O O O + + + @  XX      ",
"   XX  X X X . . . o o o O O O + + + @  XX      ",
"   XX  X X X . . . o o o O O O + + + @  XX      ",
"   XX                                   XX      ",
"   XX  X X X . . . o o o O O O + + + @  XX      ",
"   XXXXXXXXXXXXXXXXXXXXXXXXXXXXXXXXXXXXXXX      ",
"   XXXXXXXXXXXXXXXXXXXXXXXXXXXXXXXXXXXXXXX      ",
"       X X X . . . o o o O O O + + + @          ",
"       X X X . . . o o o O O O + + + @          ",
"       X X X . . . o o o O O O + + + @          ",
"       X X X . . . o o o O O O + + + @          ",
"       X X X . . . o o o O O O + + + @          ",
"       X X X . . . o o o O O O + + + @          ",
"XXXXXXXX X X . . . o o o O O O + + + @          ",
"                                                ",
"                                                ",
"                                                "};
