/* XPM */
static char * eth_input_sel_xpm[] = {
"32 32 10 1",
" 	c #C30BC30BC30B",
".	c #000000000000",
"X	c #820782078207",
"o	c #FFFFFFFFFFFF",
"O	c #EBADEBADEBAD",
"+	c #AAAAAAAAAAAA",
"@	c #D75CD75CD75C",
"#	c #555555555555",
"$	c #965896589658",
"%	c #69A669A669A6",
"     .X                    .    ",
"   oo.Oo                  o.+O  ",
"   o...o@                 o. o  ",
" ooo.o.oooo     ooooooo@  o. o  ",
" .........oo   oo.....Xo@ o. o  ",
".ooooooooo.o@ oo.@@   .Xo@o. o  ",
".o#XXXXX $.+O o.@%ooooo.XOo. o  ",
".oX     o . o o.@o@   o. oo. o  ",
".oX     o . ooo.Oo    o. oo. o  ",
".oX     o . oo...oo   o. oo. o  ",
".oX     o . o.ooo.o@  o. oo. o  ",
".oX     o . o.oXX.+O  o. oo. o  ",
".o oooooo@. o.o  . o oo.Ooo.Oo  ",
".o$     @o.$o.o  . o o...o...o@ ",
" ......... #o.o  . ooo.o.o.o.@o ",
" o.o.o.o.o%oo.o  . oo.........o ",
" o...o...+o@o.o  . o.ooooooooo. ",
" oo.o$o.o#O o.o  . o.o#XXXXX $.X",
"  o.@oo.@o@ o.oO@. o.oX     o .X",
"  o. oo. o  o.o+o.$o.oX     o .X",
"  o. oo. o  oo... #o.oX     o .X",
"  o. oo. o   oo.o%oo.oX     o .X",
"  o. oo. o    o.@o@o.oX     o .X",
"  o. oo. o   oo.$o o.o oooooo@.X",
"  o. ooX.ooooo.+#O o.o$     @o.X",
"  o. o@oX.....+%o@ oo......... X",
"  o. o @oX   $#o@   oo+o.o.o@$# ",
"  o. o  @OooooO@     @Oo...+ooO ",
"  o. o                 oo.o#O   ",
"  o. o                  o.@o@   ",
"  o. o                  o. o    ",
"   .X                    .X     "};
