/* XPM */
static char * eth_input_xpm[] = {
"32 32 4 1",
" 	c #C30BC30BC30B",
".	c #000000000000",
"X	c #820782078207",
"o	c #FFFFFFFFFFFF",
"     .X                    .    ",
"     .X                    .X   ",
"    ...                    .X   ",
"    . .X                   .X   ",
" .........       .....X    .X   ",
".oooooooo .     .XXXXX.X   .X   ",
".o       X.X   .XX     .X  .X   ",
".o       X.X   .X      .X  .X   ",
".o       X.X   .X      .X  .X   ",
".o       X.X  ...      .X  .X   ",
".o       X.X .ooo.     .X  .X   ",
".o       X.X .o X.X    .X  .X   ",
".o       X.X .o X.X    .X  .X   ",
". XXXXXXXX.X .o X.X   ... ...   ",
" .........XX .o X.X   . .X. .X  ",
"  . .X. .XX  .o X.X  .........  ",
"  ...X...X   .o X.X .oooooooo . ",
"   .XX .XX   .o X.X .o       X.X",
"   .X  .X    .o X.X .o       X.X",
"   .X  .X    . XX.X .o       X.X",
"   .X  .X     ...XX .o       X.X",
"   .X  .X      .XX  .o       X.X",
"   .X  .X      .X   .o       X.X",
"   .X  .X      .X   .o       X.X",
"   .X  X.     .XX   . XXXXXXXX.X",
"   .X   X.....XX     .........XX",
"   .X    XXXXXX       XX. .XXXX ",
"   .X                   ...X    ",
"   .X                    .XX    ",
"   .X                    .X     ",
"   .X                    .X     ",
"   .X                    .X     "};
