/* XPM */
static char * hl_ebana_xpm[] = {
"32 32 3 1",
" 	s LightBlue	c LightBlue",
".	s Red	c Red",
"X	s black	c black",
"                                ",
"  .... ...    .   .   .   .     ",
"  .    .  .   .   ..  .   .     ",
"  .    .  .  . .  ..  .  . .    ",
"  ...  ...   . .  . . .  . .    ",
"  .    .  .  ...  .  ..  ...    ",
"  .    .  . .   . .  .. .   .   ",
"  .... ...  .   . .   . .   .   ",
"                                ",
"       X     X     X     X      ",
"       X     X     X     X      ",
"       X     X     X     X      ",
"       X     X     X     X      ",
"   XXXXXXXXXXXXXXXXXXXXXXXXXX   ",
"   XX                      XX   ",
"   XX                      XX   ",
"   XX                      XX   ",
"   XXXXXXXXXXXXXXXXXXXXXXXXXX   ",
"   XXXXXXXXXXXXXXXXXXXXXXXXXX   ",
"               XX               ",
"               XX               ",
"          XXXXXXXXXXXX          ",
"           X        X           ",
"            X      X            ",
"             X    X             ",
"              XXXX              ",
"               XX               ",
"               XX               ",
"               XX               ",
"               XX               ",
"               XX               ",
"               XX               "};
