/* XPM */
static char * hl_trig_xpm[] = {
"32 32 3 1",
" 	s LightBlue	c LightBlue",
".	s Red	c Red",
"X	s black	c black",
"                                ",
"                                ",
" .....      .                   ",
" . . .                          ",
"   .   . . ..  ...  ...  .. . . ",
"   .    ..  . . .  . .  . .  .. ",
"   .    .   . . .  . .  ..   .  ",
"   .    .   .  .    .   .    .  ",
"  ...  ...  .  ..   ..   .. ... ",
"              .  . .  .         ",
"              ...  ...          ",
"                                ",
"                                ",
"                                ",
"               X X              ",
"               X X              ",
"               X X              ",
"               X X              ",
"               X X              ",
"  XXXXXX     XXXXXX     XXXXXX  ",
"  X    X     X    X     X    X  ",
"  X    X     X    X     X    X  ",
"  X    XXXXXXX    XXXXXXX    X  ",
"  X    XXXXXXX    XXXXXXX    X  ",
"  X    XXXXXXX    XXXXXXX    X  ",
"  X    XXXXXXX    XXXXXXX    X  ",
"  X    X     X    X     X    X  ",
"  X    X     X    X     X    X  ",
"  X    X     X    X     X    X  ",
"  XXXXXX     XXXXXX     XXXXXX  ",
"                                ",
"                                "};
