/* XPM */
static char * moretype_xpm[] = {
"32 40 3 1",
" 	s lightBlue	c LightBlue",
".	c Red",
"X	c black",
"                                ",
"                                ",
"                                ",
"                                ",
"                                ",
"                                ",
"  ..       ..                   ",
"   ..     ..                    ",
"   ..     ..                    ",
"   ...   . .   ....  .. .  ..   ",
"   . .   . .  .   ..  ... .  .  ",
"   . .. .  .  .    .  .   ....  ",
"   .  . .  .  .    .  .   .     ",
"   .  ..   .  .    .  .   .     ",
"   .   .   .  ..   .  .   ..    ",
"  ...  .  ...  ....  ...   ...  ",
"                                ",
"                   X            ",
"                   X            ",
"                   X            ",
"   XXXXXXXXXXXXXXXXX            ",
"   X                            ",
"   X                            ",
"   X                            ",
"   X                            ",
"   X                            ",
"   X                            ",
"   X  X    XXX    XXX    XXX    ",
"   X  XX  XXXXX  XXXXX  XXXXX   ",
"   XXXXXX XXXXX  XXXXX  XXXXX   ",
"      XX  XXXXX  XXXXX  XXXXX   ",
"      X    XXX    XXX    XXX    ",
"                                ",
"                                ",
"                                ",
"                                ",
"                                ",
"                                ",
"                                ",
"                                "};
