/* XPM */
static char * move_node_sel_xpm[] = {
"41 34 5 1",
" 	c #AEBADB6CE79D",
".	c #000000000000",
"X	c #FFFFFFFFFFFF",
"o	c #FFFFFFFF0000",
"O	c #E79DE79DE79D",
"                                         ",
"                                         ",
"                                         ",
"                                         ",
"                                         ",
"                                         ",
"                                         ",
"                                         ",
"                                         ",
"  ................                       ",
"  ...............X                       ",
"  ..oooooo.OO..oXX                       ",
"  ..oooooo.OOOO.XX  ..     ..            ",
"  ..ooooooo.OOOO.X .OO... .OO.           ",
"  ..oooooooo.OOOO..OOOOOO.OOOO..         ",
"  ..ooooooooo..OOOO..OOOOO..OOOO.        ",
"  ..ooooooooooo.OOOOO..OOOOO.OOO.        ",
"  ..oooooooooooo.OOOOOO.OOOOOOOO.        ",
"  ..ooooooooooooX.OOOOOOOOOOOOOO.        ",
"  ..ooooooooooooXX..OOOOOOOOOOOO.        ",
"  ..ooooooooooooXX  .OOOOOOOOOOOO.       ",
"  ..ooooooooooo...   .OOOOOOOOOOO.       ",
"  ..ooooooooooo.OO.   .OOOOOOOOOO.       ",
"  ..oooooooooooo.OO.. .OOOOOOOOOO.       ",
"  ..XXXXXXXXXXXXX.OOO..OOOOOOOOOO.       ",
"  .XXXXXXXXXXXXXX.OOOOOOOOOOOOOOO.       ",
"                  .OOOOOOOOOOOOOOO.      ",
"                   .OOOOOOOOOOOOOOO.     ",
"                    ..OOOOOOOOOOOOO.     ",
"                      ..OOOOOOOOOO.      ",
"                        ...OOOOOOO.      ",
"                           ..OOOO.       ",
"                    XXXXXXXXXXXXXXXX     ",
"                                         "};
