/* XPM */
static char * move_node_xpm[] = {
"41 34 5 1",
" 	c #AEBADB6CE79D",
".	c #FFFFFFFFFFFF",
"X	c #000000000000",
"o	c #FFFFFFFF0000",
"O	c #E79DE79DE79D",
"                                         ",
"                                         ",
"                                         ",
"                                         ",
"                                         ",
"                                         ",
"                                         ",
"                                         ",
"                                         ",
"  ...............X                       ",
"  ........XXX...XX                       ",
"  ..ooooooXOOXXoXX                       ",
"  ..ooooooXOOOOXXX  XX     XX            ",
"  ..oooooooXOOOOXX XOOXXX XOOX           ",
"  ..ooooooooXOOOOXXOOOOOOXOOOOXX         ",
"  ..oooooooooXXOOOOXXOOOOOXXOOOOX        ",
"  ..oooooooooooXOOOOOXXOOOOOXOOOX        ",
"  ..ooooooooooooXOOOOOOXOOOOOOOOX        ",
"  ..ooooooooooooXXOOOOOOOOOOOOOOX        ",
"  ..ooooooooooooXXXXOOOOOOOOOOOOX        ",
"  ..ooooooooooooXX  XOOOOOOOOOOOOX       ",
"  ..oooooooooooXXX   XOOOOOOOOOOOX       ",
"  ..oooooooooooXOOX   XOOOOOOOOOOX       ",
"  ..ooooooooooooXOOXX XOOOOOOOOOOX       ",
"  XXXXXXXXXXXXXXXXOOOXXOOOOOOOOOOX       ",
"  XXXXXXXXXXXXXXXXOOOOOOOOOOOOOOOX       ",
"                  XOOOOOOOOOOOOOOOX      ",
"                   XOOOOOOOOOOOOOOOX     ",
"                    XXOOOOOOOOOOOOOX     ",
"                      XXOOOOOOOOOOX      ",
"                        XXXOOOOOOOX      ",
"                           XXOOOOX       ",
"                    ................     ",
"                                         "};
