/* XPM */
static char * pause_xpm[] = {
/* width height ncolors chars_per_pixel */
"64 48 7 1",
/* colors */
" 	s background	c NavyBlue",
".	c black",
"X	c yellow",
"o	c white",
"O	c grey",
"+	c #800080008000",
"@	c #7A007A007A00",
/* pixels */
"        .                                                       ",
"     .X.X.X.                                                    ",
"     .o.o.o.                                                    ",
"   .X.o.o.o.                                                    ",
"   .o.X.X.X.                                                    ",
"   .X.o.o.o.Xo                                                  ",
"   .oXXoXoX.oX                                                  ",
"   .XooXoXoXXo                                                  ",
"   .oXXoXoXoo.                                                  ",
"    oXXoXoXo                                                    ",
"    .ooXoXo.                        ...........                 ",
"     .oXoX.                         OOOOOOOOOO+                 ",
"                                    OOOOOOOOOO+                 ",
"                                ooo.oooooooooo.+++              ",
"                              oooo.ooo..ooooooo.++              ",
"                  OOOOOOOOOOO+oo..o.o...ooooooo.++              ",
"                OOOOOOOOOOOOO+oo..o.oo..ooooooo.++              ",
"              ++OOOO............................++              ",
"              ++OOOOOOOOOOOOO+..OOOOOOOOOOOOOOO.OOOOO+          ",
"              OO++++++++++++++..OO++++++++......++++++          ",
"              +++.........++++..OO+++++++.........++++          ",
"              ++....ooo.....++..OO++++++....ooo.....++          ",
"              ++..oo+++o....++..++++++++..oo+++o....+@          ",
"              ++..oo++.o..................oo++.o.... @          ",
"              ++..oo++.o..................oo++.o.....           ",
"                ....ooo.....++++++++++++....ooo.....            ",
"                 .........               .........              ",
"................................................................",
"................................................................",
"                                                                ",
"                                                                ",
"                                                                ",
"                                                                ",
"                ooooo                                           ",
"                 o  oo                                          ",
"                 o   o                                          ",
"                 o   o   ooo  oo  oo   ooo   ooo                ",
"                 o  oo  oo  o  o   o  o  o  o   o               ",
"                 oooo      oo  o   o  oo    ooooo               ",
"                 o       oo o  o   o   oo   o                   ",
"                 o      o   o  o   o    oo  o                   ",
"                 o      oo  o  oo oo  o  o  oo   o              ",
"                ooo      ooo o  oo oo ooo    oooo               ",
"                                                                ",
"                                                                ",
"                                                                ",
"                                                                ",
"                                                                "};
