/* XPM */
static char * roc_btn_xpm[] = {
"36 32 35 1",
" 	c #7DF77DF77DF7",
".	c #7DF77DF77DF7",
"X	c #71C66DB66DB6",
"o	c #618561856185",
"O	c #659565956595",
"+	c #6DB66DB66DB6",
"@	c #659565956595",
"#	c #8A288A288A28",
"$	c #555555555555",
"%	c #75D675D675D6",
"&	c #659565956595",
"*	c #451445144514",
"=	c #B2CAB2CAB2CA",
"-	c #CF3CCF3CCF3C",
";	c #AAAAAAAAAAAA",
":	c #FBEEFFFFFFFF",
">	c #30C230C230C2",
",	c #F7DEF7DEF7DE",
"<	c #145110401451",
"1	c #410341034103",
"2	c #EFBEEFBEEFBE",
"3	c #C30BC30BC30B",
"4	c #AEBA55554514",
"5	c #8E3882076DB6",
"6	c #3CF3249238E3",
"7	c #492441034924",
"8	c #AEBAAEBAAEBA",
"9	c #3CF34D345D75",
"0	c #208120812081",
"q	c #BAEABAEABAEA",
"w	c #9A699A699A69",
"e	c #D34CB6DA8E38",
"r	c #8E3892489248",
"t	c #492449244924",
"y	c #965896589658",
" .XXXXoOOO+@X#$o$o$+@Oo%$o&O+XX*Xoo@",
"%=---------------------------------o",
".;--:::>>,<:<<=<1%<2<<><3>>>>>>>---#",
"%=--4-:>>,<,5<=<6%<$7<><o>>>>>>>---$",
"X;--4-:>>,<,5<=<6%<o7<><@>>>>>>>---o",
".8--44:90,<:<<8<6O<o<<0<o00000>>---O",
"%;--::,99,<,<<q<6O<o<<0<O00000>w---o",
"%8--,,,99,<,<<q<6+<o<<0<@<0<00>w---o",
"o8--%e,99,<,<<q<6+<$<<0<o<0<00>w---0",
"%8--%+,99,,,,,q,,+,,,:0::<<<>0>w---<",
"&8--,,,99,<27<q<6+<@6<<<+0<0><>w---0",
"Ow--.e2992<,<<q<6+<o<<<<O0<0>0>w---<",
"O8--222992<,<<q<6O<o<<<<O0<0>0>w---<",
"%;--rr2992<,<<q<6+<o<<<<O<0<>0>w---0",
"o;--+w2992<,6<q<6+<@<<0<+<00>0>w---0",
"+;--,,2992<26<q<6+<o6<<<+0<0><>w---<",
"o;--.e,99,,,,,q::+::::0::00<>0>w---0",
"&8--O%299,<:<<q<6O<O<<<<+000>0>w---0",
"o;--222992<2<<q<6O<O<<0<+000>0>w---0",
"o;--22299,<,6<q<6+<+<<0<+<<0>0>w---0",
"+8--22,99,<,6<q<6+<O<<0<+<00>0>w---0",
"X8--22,99,<,6<q<6+<+6<0<%000>0>w---0",
"o8--,,,99,<:6<3<6+<+<<><%0<<>0>w---<",
"o=--22,99,t,ttqt$Ot+tt0$%0<<><>w---0",
"O=--22299,,,,,q::+::::>::<<0>0>w---0",
"Ow--22,99,,,::q::+::::0::0>>>0>w---<",
"X;--,,,90,,,,,8::+::::0::00000>w---0",
"*;--22,>>,,,::=::%::::>::>>>>>>w---<",
"@8--2,,>>,,,,,=::%::::>::>>>>>#w---0",
"O8--222>>,,,,,=::%::::>::>>>####---<",
"oy---------------------------------0",
"oOXo@X@ooO000000000<0<<<000<0<<0<0<<"};
