/* XPM */
static char * trash2_xpm[] = {
"33 46 4 1",
" 	c #C30BC30BC30B",
".	c #000000000000",
"X	c #820782078207",
"o	c #FFFFFFFFFFFF",
"                                 ",
"                                 ",
"            ...XXX...            ",
"            ...XXX...            ",
"           ...ooo XX...          ",
"  .......XXXXXXXXXXXX........... ",
"  .......XXXXXXXXXXXX........... ",
"  .XX   oooooooooooo    XXX..... ",
"  .......XXXXXXXXXXXX........... ",
"  .......XXXXXXXXXXXX........... ",
"   ..XXXX           XXXX......   ",
"   ..X   ooooooooooo    XXX...   ",
"   ..X   ooooooooooo    XXX...   ",
"   ..X  .oooooo..ooo   .XXX...   ",
"   ..XXXo..oooX  .oo XX ..X...   ",
"   ..XXXo..oooX  .oo XX ..X...   ",
"   ..XXXo..oooX  .oo XX ..X...   ",
"   ..XXXo..oooX  .oo XX ..X...   ",
"   ..XXXo..oooX  .oo XX ..X...   ",
"   ..XXXo..oooX  .oo XX ..X...   ",
"   ..XXXo..oooX  .oo XX ..X...   ",
"   ..XXXo..oooX  .oo XX ..X...   ",
"   ..XXXo..oooX  .oo XX ..X...   ",
"   ..XXXo..oooX  .oo XX ..X...   ",
"   ..XXXo..oooX  .oo XX ..X...   ",
"   ..XXXo..oooX  .oo XX ..X...   ",
"   ..XXXo..oooX  .oo XX ..X...   ",
"   ..XXXo..oooX  .oo XX ..X...   ",
"   ..XXXo..oooX  .oo XX ..X...   ",
"   ..XXXo..oooX  .oo XX ..X...   ",
"   ..XXXo..oooX  .oo XX ..X...   ",
"   ..XXXo..oooX  .oo XX ..X...   ",
"   ..XXXo..oooX  .oo XX ..X...   ",
"   ..XXXo..oooX  .oo XX ..X...   ",
"   ..XXXo..oooX  .oo XX ..X...   ",
"   ..XXXo..oooX  .oo XX ..X...   ",
"   ..XXXo..oooX  .oo XX ..X...   ",
"   ..XXXo..oooX  .oo XX ..X...   ",
"   ..XXXo..oooX  .oo XX ..X...   ",
"   ..X  .oooooo..ooo   .XXX...   ",
"   ..X  XXXX        XXXXXX....   ",
"   ..X  XXXX        XXXXXX....   ",
"     ....XXXXXXXXXXXXXX......    ",
"      .....................      ",
"      .....................      ",
"                                 "};
