/* XPM */
static char * trig_btn_xpm[] = {
"39 28 56 1",
" 	c #C30BC30BC30B",
".	c #AEBAAEBAAEBA",
"X	c #B6DAB6DAB6DA",
"o	c #BAEABAEABAEA",
"O	c #000000000000",
"+	c #659565956595",
"@	c #104010401040",
"#	c #38E338E338E3",
"$	c #3CF33CF33CF3",
"%	c #514451445144",
"&	c #30C230C230C2",
"*	c #2CB22CB22CB2",
"=	c #0C300C300C30",
"-	c #8E388E388E38",
";	c #6DB66DB66DB6",
":	c #186118611861",
">	c #F3CEF3CEF3CE",
",	c #E79DE79DE79D",
"<	c #DF7DDF7DDF7D",
"1	c #CF3CCF3CCF3C",
"2	c #BEFBBEFBBEFB",
"3	c #596559655965",
"4	c #4D344D344D34",
"5	c #861786178617",
"6	c #B2CAB2CAB2CA",
"7	c #A699A699A699",
"8	c #9E799E799E79",
"9	c #208120812081",
"0	c #1C711C711C71",
"q	c #DB6CDB6CDB6C",
"w	c #C71BC71BC71B",
"e	c #249224922492",
"r	c #924892489248",
"t	c #EBADEBADEBAD",
"y	c #041004100410",
"u	c #5D755D755D75",
"i	c #79E779E779E7",
"p	c #7DF77DF77DF7",
"a	c #71C671C671C6",
"s	c #9A699A699A69",
"d	c #492449244924",
"f	c #451445144514",
"g	c #FFFFFFFFFFFF",
"h	c #145114511451",
"j	c #69A669A669A6",
"k	c #082008200820",
"l	c #618561856185",
"z	c #28A228A228A2",
"x	c #A289A289A289",
"c	c #8A288A288A28",
"v	c #75D675D675D6",
"b	c #AAAAAAAAAAAA",
"n	c #965896589658",
"m	c #820782078207",
"M	c #410341034103",
"N	c #34D334D334D3",
"                                       ",
"                                       ",
"             .XXoXooooooXooooo         ",
"         O  XOOOOOOOOOOOOOOOOOOOOOOOOOO",
"        OOOoO+@OOOO##$%&*=O.-;-:#>,<122",
"         OO3#<3o4+52o678o90qwo2@O4e*&ee",
"         2Or*w#t<,,,ttt,>&y<,q,:OurriOp",
"         Oas*8&2-55s---55d8;f#0O=OOOOOO",
"         O-s$+f64+7rarsspfX3%##y:  ggO ",
"        OO5pre:f=@===:$$&foe++phh2     ",
"    oooOj4$+iy:$y=0ke@*&$f 8frlzp      ",
"    Of&--sr48=:*OOOOOy0OO$ X$$z        ",
"    OOsss8*e##&%p**$eu@=:0 .;hx        ",
"   Oppssss-;ci;##**i5avjvpsr.eo        ",
"  .O-8OOsss5;ssss#$-r5a;pv5u5b         ",
"  OissOOsss8ir-rn*um55racip$3X         ",
" O-8ssssss78MOOO&e@h:@e:=:&f%o         ",
"O3rsssssrn*Ok0N0%;pOOroxOO             ",
"57ssssscs4y=7  xO+7bOO oOO             ",
"rsssssrvv@z5    o0e  n xOO             ",
"ssssss-3$lc      8:$OOOOO              ",
"sssssrahho        oOOOOX               ",
"sssssspyz           oo                 ",
"sssss-$%b                              ",
"ssss6-hb                               ",
"ss-sXu:o                               ",
"sse87Ne                                ",
"u&#8-0m                                "};
