/* XPM */
static char * zoom_xpm[] = {
"16 40 2 1",
" 	s LightBlue	c LightBlue",
".	c Red",
"                ",
"      .....     ",
"          .     ",
"         .      ",
"        .       ",
"        .       ",
"       .        ",
"      .         ",
"      .....     ",
"                ",
"                ",
"      ....      ",
"     .    .     ",
"     .    .     ",
"     .    .     ",
"     .    .     ",
"     .    .     ",
"     .    .     ",
"      ....      ",
"                ",
"                ",
"      ....      ",
"     .    .     ",
"     .    .     ",
"     .    .     ",
"     .    .     ",
"     .    .     ",
"     .    .     ",
"      ....      ",
"                ",
"                ",
"     .     .    ",
"     ..   ..    ",
"     ..   ..    ",
"     . . . .    ",
"     . . . .    ",
"     .  .  .    ",
"     .  .  .    ",
"     .  .  .    ",
"                "};
