#define logo04_width 64
#define logo04_height 64
static char logo04_bits[] = {
 0x00,0x00,0x00,0x00,0x00,0x00,0x00,0x00,0x00,0x00,0x00,0x00,0x00,0x00,0x00,
 0x00,0x00,0x00,0x00,0x00,0x00,0x00,0x00,0x00,0x00,0x00,0x00,0x00,0x00,0x00,
 0x00,0x00,0x00,0x00,0x00,0x00,0x00,0x00,0x00,0x00,0x00,0x00,0x00,0x00,0x00,
 0x00,0x00,0x00,0x00,0x00,0x00,0x00,0x00,0x00,0x00,0x00,0x00,0x00,0x00,0x00,
 0x00,0x00,0x00,0x00,0x00,0x00,0x00,0x00,0x00,0x00,0x00,0x00,0x00,0x00,0x00,
 0x00,0x00,0x00,0x00,0x00,0x00,0x00,0x00,0x00,0x00,0x00,0x00,0x00,0x00,0x00,
 0x00,0x00,0x00,0x00,0x00,0x00,0x00,0x00,0x00,0x00,0x00,0x00,0x00,0x00,0x00,
 0x00,0x00,0x00,0x00,0x00,0x00,0x00,0x00,0x00,0x00,0x00,0x00,0x00,0x00,0x00,
 0x00,0x00,0x00,0x00,0x00,0x00,0x00,0x00,0x00,0x00,0x00,0x00,0x00,0x00,0x00,
 0x00,0x00,0x00,0x00,0x00,0x00,0x00,0x00,0x00,0x00,0x00,0x00,0x00,0x7d,0x01,
 0x02,0x00,0x00,0x00,0x00,0xc0,0xff,0x0b,0x0c,0x00,0x00,0x00,0x00,0xd9,0xfe,
 0x7f,0x00,0x00,0x00,0x00,0x80,0x43,0x95,0x36,0x40,0x00,0x00,0x00,0x80,0x8f,
 0x00,0x44,0x00,0x01,0x00,0x80,0xc6,0x60,0x7b,0x20,0x01,0x00,0x00,0x00,0xba,
 0x48,0xff,0x87,0x01,0x00,0x00,0x00,0x00,0xea,0xef,0xbf,0x00,0x00,0x00,0x00,
 0x00,0x3e,0xd4,0x15,0x20,0x00,0x00,0x00,0x81,0x8a,0x02,0xa0,0x02,0x00,0x00,
 0x40,0xa8,0x45,0x7a,0x29,0x00,0x00,0x00,0x00,0x69,0xf1,0x7b,0x1f,0x00,0x00,
 0x00,0x00,0x00,0xec,0xef,0x8f,0x05,0x00,0x00,0x00,0x80,0x3c,0x84,0x67,0x10,
 0x00,0x00,0x00,0x88,0xac,0x00,0x91,0x00,0x00,0x00,0xc0,0x74,0x40,0xba,0x43,
 0x00,0x00,0x00,0x00,0x34,0xe4,0xff,0x37,0x00,0x00,0x00,0x00,0x00,0xf8,0xf7,
 0xaf,0x40,0x00,0x00,0x00,0x00,0x97,0x82,0x1e,0x82,0x00,0x00,0x40,0x60,0x0e,
 0x00,0x0a,0x01,0x00,0x00,0x40,0x60,0x8e,0xbc,0x16,0x00,0x00,0x00,0x00,0x6c,
 0x31,0xff,0x25,0x21,0x00,0x00,0x00,0x00,0xf0,0xff,0x1f,0x03,0x00,0x00,0x00,
 0x40,0x72,0x84,0x8f,0x02,0x00,0x00,0x10,0xe0,0x08,0x04,0x4c,0x00,0x00,0x00,
 0x00,0x6c,0x0c,0x00,0x40,0x00,0x00,0x00,0x00,0xb4,0x08,0x00,0x00,0x00,0x00,
 0x00,0x00,0x00,0x00,0x00,0x00,0x00,0x00,0x00,0x00,0x00,0x00,0x00,0x00,0x00,
 0x00,0x00,0x00,0x00,0x00,0x00,0x00,0x00,0x00,0x00,0x00,0x00,0x00,0x00,0x00,
 0x00,0x00,0x00,0x00,0x00,0x00,0x00,0x00,0x00,0x00,0x00,0x00,0x00,0x00,0x00,
 0x00,0x00,0x00,0x00,0x00,0x00,0x00,0x00,0x00,0x00,0x00,0x00,0x00,0x00,0x00,
 0x00,0x00,0x00,0x00,0x00,0x00,0x00,0x00,0x00,0x00,0x00,0x00,0x00,0x00,0x00,
 0x00,0x00,0x00,0x00,0x00,0x00,0x00,0x00,0x00,0x00,0x00,0x00,0x00,0x00,0x00,
 0x00,0x00,0x00,0x00,0x00,0x00,0x00,0x00,0x00,0x00,0x00,0x00,0x00,0x00,0x00,
 0x00,0x00,0x00,0x00,0x00,0x00,0x00,0x00,0x00,0x00,0x00,0x00,0x00,0x00,0x00,
 0x00,0x00,0x00,0x00,0x00,0x00,0x00,0x00,0x00,0x00,0x00,0x00,0x00,0x00,0x00,
 0x00,0x00,0x00,0x00,0x00,0x00,0x00,0x00,0x00,0x00,0x00,0x00,0x00,0x00,0x00,
 0x00,0x00};
