/* XPM */
static char *wind22[] = {
/* width height num_colors chars_per_pixel */
"    70    70       30            1",
/* colors */
". c #e8e8e8",
"# c #e6e6e6",
"a c #d8d8d8",
"b c #c3c3c3",
"c c #b9b9cf",
"d c #a6a5bc",
"e c #9894cc",
"f c #9796b2",
"g c #8b87c0",
"h c #8785a6",
"i c #7e7ab3",
"j c #7b77b5",
"k c #7672a7",
"l c #6f6ca6",
"m c #6e6c91",
"n c #626174",
"o c #615f99",
"p c #545390",
"q c #44448a",
"r c #3f3f83",
"s c #3c3c7a",
"t c #393a6a",
"u c #39394d",
"v c #37387c",
"w c #303171",
"x c #2a2b65",
"y c #282938",
"z c #212331",
"A c #202020",
"B c #1c1d29",
/* pixels */
"kkkkkkkkkklkkkkkkkkkkkkkkkkklooooollolllllopppppppmmmppmpppppppppppppp",
"kkkkjkjkkkklkklkkkklkkkkkkkklllllkkkkllllllllppoopppppmmmppppppppppppp",
"kkjjjjjjjjjjjkkkkkjkkkkkkkkklllllkkkkllllllllloopppppppomoppppmmmmmppp",
"kkjjkkkjjjjjjjjjjjjkkkkkkkkkklllkkkklllkkkllllpmmmppppppmppppppmmmpppp",
"kkjjkkkkjjjjjiiiiiiiiiiijkklllllllkllkkklllloloppommmmmmppoommmmmmmmpp",
"kkkkkkkkjjjiiiiiiiiiiiiiiiiklllllllllkllllllllllmommmmmmopppmmmmmmmmmp",
"kkkjggiggggiiiiiiiiiiiiiiiikkkkllllllllllllllllkklmommmmmoopommmmmmmmp",
"jigggggggggggiiiiiiiiiiiiiikkklllllllllllkkkllllkklmmlkmmmmoooommmmmpp",
"ggggggggggggggggiiiiiiiiiiijjkkkllkkllkkkllllllllllllllloommmmmmmmmmpp",
"ggggicaaaccceggggiiiiiiiiijjjjjjjjjklllllllllllllllkkkkkllllommooommpo",
"ggggfcaaa##a#cegggggiiiiijjjjjjjjkjkkkkkkkkkkkklllkkllllllllkkklloooom",
"gggeeeeaaaa##aceggggiiiiiijjjjjjjjjkklllllkkkjjjjjjkkkkkkkklkkkkklkkll",
"gegda##aa#####abcggggggggggiijjjjjjjkkkjjkjjkifddccbbbbchijkjjkkkkkkkj",
"gggedaa########abeggggggggggggijjjjjjjjjjjfcdbaaaaaaaaabhhijkkkkkkkkkk",
"fdbacccacaaba#aabefegggggggggeeeggggggghcaaaaaaaaaaaaaaadhijjjjjkkkkkj",
"edaccccccbbcca#adfgggggeeeeeeeeeeeeggfc##a####aabbhnnnnhffhijjjjjkkkij",
"ecbceeeeecccddegggggggggggeegeeeeegfc#####abmuuzyuunnnnnnfdggfffjjjjjj",
"baaeggfeeeecfgffgggggggggggggggggfc####bhuyBuhbaaaaaaaaaadbbbaaaaadcee",
"abceefgeeeeeeeeeeggggeggggggggida####duzAuda####aaaaaaaaabbaaaaaa#aabc",
"ccdeegeeeeeeeeeeeeeeeggggggggda###amyAAnb#########aaabbbaaabcabbbb#abc",
"ddeeeeeeeeeeeeeeeeeeegggggfda###buBAAna######bbhnuyyzBBBzyfbdfdcbabaac",
"eeeeefeeeeeeeeeeeeeeeegggc###amyAAAna####abnuzAynhdbbbbbbbddfffddaaaaa",
"eeeeeeeeeeeeeeeeeeeeeeec###bnzAAAna####bnzABnba##########aaddffdfddbaa",
"eeeeeeeeeeeeeeeeeeffdca#bmyBAAAna.##afuBAub###############acdfffffffdd",
"eeeeeeeeeeeeeeeeegca##duzAAABna#.#bnzAAub#########aabbbbbbbbffffdfffdd",
"eeeeeeeeeeeeeeeca##bnyBAAABh#..#fuBAAub..##.#abhnuyyBBBBBBBzffffffdffd",
"eeeeeeeecccca###bduzAAAAyh#.#bnzAAAub.#..#afnuBBunfbbbaababbhfffffffff",
"eeefeeec###abfnuuyzBBByf#.afuBAAAub....#dnyAznb#############dffddccddd",
"eeefeeekuuuzzBzyyyyzud##bnzAAAAub....bnyAAub#.##############bffddddccd",
"cdeceeedyyyyBzyuyunb.ahuBAAAAub...#bnzAAna.....#...##aaaaaaa#fddfffdcc",
"aaa##ab#nyzyyyumb##bnzAAAAAnb...ahuAAAna......#adhnuuyyyzzzyundffcddbb",
"######a#dnnhb###bnuBAAAABna..#bnyAAAub.....abnuyAAyumfdbbbddfhfdcbaaaa",
"###aaaab###bdhnuyzBBAABna..ahuBAAAub....#bnuBAynb##...########hecaaaaa",
"cccbbcbtuuyzBBzyyyzzzna.#bnyAAAAub....afuzABnb.....###########dgfdcbba",
"dccccccmyyyzBzyyyyuf#.afuzAAAAub....bnyBABf#...............###bfffffbc",
"dccbaaadyzBzyyyuha.#bnyAAAAAub...#duzAABh#........##abbdfhfdfbbfgigfff",
"##eecaaduyyumb#.#bhuzAAAAAub...amyBAAAn#......#bdnnuyyyyyyyzzzyniiiiii",
"ceeeeed#...#abdnnuBAAAAAub..#bnzAAAAn#.....adnuyzyzyyyzzzBBBBBBuiiiiii",
"eggeegdmhnuuuuyzzzBBBAub..ahuBAAAAna.....bnuzzzzzzzzzzzBBBBBAAAzgiiiii",
"gggeeefuzzyBBBBzzzzzub.#bnyAAAAAua....#dnyBBBzzBBBBBBzBBBBBBBBABgiiigg",
"ggggggetzzBzzzzyyuha.ahuzAAAAAub....ahuzzzBBBBBzzBBBBBBBBBzBBBBBggiggg",
"gggeeeehzzBBzyufa.#bnyAAAAAAub...#bnuzBBBBBBBBBBBzyutpggiiggggggggiigi",
"eeeeeedcnnhdb#.#bnuzAAAAAAub...#fuyzzzBBBBBBBBytmkikgggggggggggggggiii",
"eeeegeb###abbhnnuBBAAAAAub...bhuyzzBzBBBBBBzumkjlglggeggggggggggggggig",
"ggggggnuunuyyzzzzBBBBBub..#bnuyzzzzzzBBBBynmkiiiiiiggggggggggggeegiijj",
"ggggggnyyyyBBBzzzzBznb..ahnyzzzzzzzzzBzunligiggggigjiiiiiggigggggijiij",
"gggggghyyzBBzzzzzuf#.#bnuyyzzzzzzzzzzunlkkjkjjjiijjjijjjjjjjjjjjjjjjjj",
"gggiiihuzBBBBzufa..afnuyyyyyzzzzzBytpkllllloljjjjjjklkjllljjjjjjlijjll",
"jjiiiihnnnndb#.#abnuyyyyyyyzzzzzunmllopppoollkkjjljjjllljjjllollljllll",
"iijjkh##..##abfmnuyyyyyyyzzzzyupmljkoooooppplllkllloollloollllljlojkll",
"lljjlmnnnnnntuyyyyyyyyyyyyyyqmoollllloooooloooooppppppppppooqqqpploppp",
"qqoopouuuuyyyyyyyyyyyyyyyqpppppppppppppppoooooopppqqqqppppqqqqqqqsqpqq",
"qqoooowyyyyyyyyyyyyyyyuqpqqqqqqqqqppppppppppppppppppqqqqqqqqqqqqqqppqp",
"qqqpppwuuyzzyyyyyyyyuqpqrssssrrsrrrqqppqqqqqqqqqqqqqqqqqpppppqppppppsq",
"qpqqqqwuyyyyyyyyyqqqqpqrqqsrssssrsrrrrqqqqqqrqqqqqqqqqppppqsttsstssrss",
"rrrrqqwtyyyuwwwwoqqqqqprtvsssvrrssrssssssrrrqrqqrppqqpqqrrqqqqrqqqqqqs",
"rrrrrrrrrrqpqqvqqqqrqvwrssrssrssrssrqqsrrswrrqqrqrqrrrrsrrqrsssqrqqqqp",
"rrqrrrqrrrqqsrqrsrqrrpqssrpqsqsssqrsqrsrrqqrrqrqsrsrvqrswssrsvrqrqrqqq",
"sssvsssvsssrrrvvqqssrwvqqrtvsssvrrrsrsrrqqrvrvssrrqvvqrswtssvswsstvwsr",
"swsrswsrswssrrrqswwrssrssrssrsvrssrssrssrsvsvssrvrwwswsstvwssrrrsrqrvv",
"vsssssssvsssrrswssrssvwwssswxtsssvwwssswxtswxssqrvssxxttwwwwwsswvvrrqq",
"wswsvswssstswwssrsssvwsswwwtwsssvwsswwwtwsssttwxttsswtwsstxxwwwwvwwvrs",
"wxtvsswwwwvssrwwwwwsssswtwtwxtwsssswtwtwxtwssssswxwxtxxxxwttwxxwswxwxw",
"wwswwwwwrsrrwxwtttwwwwxwwxxxtswwwwxwwxxxtswwwwwxwwxwwwxwwwxxwswwxwwwss",
"swtswwwwwxwxwttwxxtwssssswxtxxwwssssswxtxxwxxxxtxxwwxwwwwwwwwwwwsssvxw",
"wsswswwwwwwxxxwwwwwwwwtwwwsttwxwwwtwwwsttwxxwwwxxxwtxxxwwxxxxxxxxxwxww",
"xxtsswswwwtwwxwwwwwwwxwxwwwwwwswwxwxwwwwwwswwwxwwxwwxxxwwxwwwwxwwwwssx",
"xxxtxsswswwxwwwxwwwwwxxwwxxwxttwwxxwwxxwxttxxwtwxxxxwxxxwwwwwxxxwwwwww",
"tttxxwxtswswwwxxwxwxwwwwwtttxxxxwwwwwtttxxxtwttxxtxxxxxwxwxwwwwwxxxxww",
"xxxttxxwxtswswwxxwwwwwwxwxxtwstwwwwxwxxtwsttxxxxxxxxxtwwwxxxxwwwxxxxww"
};
