/* XPM */
static char *wind10[] = {
/* width height num_colors chars_per_pixel */
"    70    70       30            1",
/* colors */
". c #e8e8e8",
"# c #e6e6e6",
"a c #d8d8d8",
"b c #c3c3c3",
"c c #b9b9cf",
"d c #a6a5bc",
"e c #9894cc",
"f c #9796b2",
"g c #8b87c0",
"h c #8785a6",
"i c #7e7ab3",
"j c #7b77b5",
"k c #7672a7",
"l c #6f6ca6",
"m c #6e6c91",
"n c #626174",
"o c #615f99",
"p c #545390",
"q c #44448a",
"r c #3f3f83",
"s c #3c3c7a",
"t c #393a6a",
"u c #39394d",
"v c #37387c",
"w c #303171",
"x c #2a2b65",
"y c #282938",
"z c #212331",
"A c #202020",
"B c #1c1d29",
/* pixels */
"aa#baaaaaabbcaaaaadaaaaaabbaaaaaaabcdggggggggggjkkkkkkkkkfbbcccckfaaaa",
"aaaaaaaaaaaaaaaabbaaaaaaaaaaabcdbbbccceggggggggkmkhkmdbccdbabcdcdhcaaa",
"baaaabaaaaaaaaaaaabbaaaaaaaabdgfdcdcddfgegggggikfkkkkmkhfaaaabdddhdbba",
"dcabbccbbbaaaaaaaabcbcbaaaaabeeggfffffggggggggiidfdddddcbaaaabdfccbbba",
"ddcdccdcacbcbaaaaaaaaccbbbbbbdeeeeeeggggggfgggiigddcaaaabaaaacdbaaaaaa",
"cddddccdaacbaaaaaaaabbcccbbbbcefeeeeeeggggggiigfedcaaaabaaaabccbaaaaaa",
"abddccccbabaaaaaaaaaaabbcbcbbcdfefeggggggggiiggdcbbabbbbbaabccddbaaaaa",
"aabdcbbbaaaabbbbaaaaaaaaabcbccdeggfgggefggggiigecaaaabbccbcddfhdcbaaab",
"aaafdbbaaaaabccdccbaaaaaabcccccdffffgggggeggggggeecaaabbcccchhhcbaabcb",
"baaccbbaaaacbbdddccbaaaaabbbbccdffeffggggggggggggeedccccccbcchfcbbabcc",
"dcadcaaaaaabbbccccccbbaaabbabbbcdddeefggggggggggggggffeeeccccccbabbabc",
"dccfdbaaaaabbccccccccbbbbbbbbbbbcdddddggiigggggfffggggffeeddccccaababd",
"dcfdddcccaaabdcccccccccccccdcccccccddfkmmmmkhffddccbbbbcfhhfdccccbaabd",
"ecfdddfdccbabcccccccdccccdffffhhdfdfhkmmkjfcbaaaaaaaaaabffkkfdddccbbcc",
"fdifdffccddcccbbccdffdddddhhhhhiijkmmmjhcaaaaaaaaaaaaaaadhhkkffffdcccc",
"ggggfhhddfhfddcbcdfgiifigfhijkkkklmlifc##a####aabbhnnnnhffkkkkfhmhdbbc",
"ggggikhhfhkkhhhccdfiiiihgikkkklmmmkfc#####abmuuzyuunnnnnnhkmkhffhmfbab",
"ggihhhfffhkikkkhffiiiiijkkkkkkkjkfc####bhuyBuhbaaaaaaaaaaddmkfdffkhbaa",
"kkkihddddffffhkkmmkkkkkkkkkkkhida####duzAuda####aaaaaaaaabbmmhddfhhcaa",
"kkihdccccdddddfhmkllmkkkkkkggda###amyAAnb#########aaabbbaaaknhhdfdcbab",
"khhdcbbbbcddccccffkkmkkkjigda###buBAAna######bbhnuyyzBBBzyhfpmmfhbaabc",
"hhfdcbbbbcfffdcbccfihfdffc###amyAAAna####abnuzAynhdbbbbbbbdbppmmkfdfdb",
"dddcbbbccchkkhfddcdiiiic###bnzAAAna####bnzABnba##########aabmpmmmmokkh",
"ccbbbbbcccfkkkmkfbdfdca#bmyBAAAna.##afuBAub###############achppmmkkkmm",
"bbbccdddddhmkfhhccca##duzAAABna#.#bnzAAub#########aabbbbbbbbfmnmmmmkmm",
"bcdfiiiikhmkhcdca##bnyBAAABh#..#fuBAAub..##.#abhnuyyBBBBBBBzhmmmmmmkmm",
"cdfiigggcccca###bduzAAAAyh#.#bnzAAAub.#..#afnuBBunfbbbaababbhmmmmmmmmm",
"cfiggfgc###abfnuuyzBBByf#.afuBAAAub....#dnyAznb#############dhmmmmmmmm",
"cggfeefkuuuzzBzyyyyzud##bnzAAAAub....bnyAAub#.##############bdmmmmmmmm",
"fgffeeedyyyyBzyuyunb.ahuBAAAAub...#bnzAAna.....#...##aaaaaaa#fkmoommmm",
"fffeeec#nyzyyyumb##bnzAAAAAnb...ahuAAAna......#adhnuuyyyzzzyunhmmmmmmm",
"gfeeeec#dnnhb###bnuBAAAABna..#bnyAAAub.....abnuyAAyumfdbbbddfhfklllmmm",
"eeeeeecb###bdhnuyzBBAABna..ahuBAAAub....#bnuBAynb##...########hhkkkklm",
"eeeeedctuuyzBBzyyyzzzna.#bnyAAAAub....afuzABnb.....###########dfkkjjkl",
"eeeeedcmyyyzBzyyyyuf#.afuzAAAAub....bnyBABf#...............###bdijjiik",
"eeeeeecdyzBzyyyuha.#bnyAAAAAub...#duzAABh#........##abbdfhfdfbbfijiiii",
"eeeeeecduyyumb#.#bhuzAAAAAub...amyBAAAn#......#bdnnuyyyyyyyzzzyniiiiii",
"feeeeed#...#abdnnuBAAAAAub..#bnzAAAAn#.....adnuyzyzyyyzzzBBBBBBuiiiiii",
"eeeeegdmhnuuuuyzzzBBBAub..ahuBAAAAna.....bnuzzzzzzzzzzzBBBBBAAAzeiiiii",
"feeeeefuzzyBBBBzzzzzub.#bnyAAAAAua....#dnyBBBzzBBBBBBzBBBBBBBBABgiiigi",
"geeeegetzzBzzzzyyuha.ahuzAAAAAub....ahuzzzBBBBBzzBBBBzAAAAzAzzzAggiiii",
"eeeeeeehzzBBzyufa.#bnyAAAAAAub...#bnuzBBBBBBBBBBzzyutpojiiggggggggiigi",
"eeeeeedcnnhdb#.#bnuzAAAAAAub...#fuyzzzBBBBBBBzytmkikkkiggggggggggggiii",
"eeeegeb###abbhnnuBBAAAAAub...bhuyzzBzBBBBBByumkjllllkeggggggggggggggig",
"ggggggnuunuyyzzzzBBBBBub..#bnuyzzzzzzBBBBynmkiiiiiiggggggggggggeegiijj",
"ggggggnyyyyBBBzzzzBznb..ahnyzzzzzzzzzBzunligiggggigjiiiiiggigggggijiij",
"gggggghyyzBBzzzzzuf#.#bnuyyzzzzzzzzzzunlkkjkjjjiijjjijjjjjjjjjjjjjjjjj",
"gggiiihuzBBBBzufa..afnuyyyyyzzzzzBytpkllllloljjjjjjklkjllljjjjjjlijjll",
"jjiiiihnnnndb#.#abnuyyyyyyyzzzzzunpllopppoollkkjjljjjllljjjllollljllll",
"iijjkh##..##abfmnuyyyyyyyzzzzzutojjkoooooppplllkllloollloollllljlojkll",
"lljjlmnnnnnntuyyyyyyyyyyyzzyqkplllllloooooloooooooooppppppooqqqpploppp",
"qqoopouuuuyyyyyyyyyyyyyzzqppooooooppoppppoooloopllqqqqppppqqqqqqqsqpqq",
"qqoooowyyyyyyyyyyyyyyyuqpmmmpoppppooqqpooppoppoopppoppqqqqqqqqqqqqppqp",
"qqqpppwuuyzzyyyyzzzyuqpmmoqppqpqqpoppoopqqpqpqqppppppqqqpppppqppppppsq",
"qppqqqwuyyyyzzzyqqpmmpqrqqqppqpoqqrrrrqqqqpqrppqqqqqqqppppqsttsstssrss",
"rrrrqqwuyyyuwwwwomqqqqpqqrrrrrrqqqrsssssvrrrprqqrppqqpqqrrqqqqrqqqqqqs",
"rrrrrrrrrrqpqqvqqqqrqvwrqqqsrrvqqvsrqqsrrswrrqqrqrqrrrrsrrqrsssqrqqqqp",
"rrqrrrqrrrqqsrqrsrqrrpqssrpqsqsssqrsqrvrrqqrrqrqsrsrvqrswssrsvrqrqrqqq",
"sssvsssvsssrrrvvqqssrwvqqrtvsssvrrrsrvrrqqrvrvssrrqvvqrswtssvswsstvwsr",
"swsrswsrswssrrrqswwrssrssrssrsvrssrssrssrsvsvssrvrwwswsstvwssrrrsrqrvv",
"vsssssssvsssrrswssrssvwwssswxtsssvwwssswxtswxssqrvssxxttwwwwwsswvvrrqq",
"wswsvswssstswwssrsssvwsswwwtwsssvwsswwwtwsssttwxttsswtwsstxxwwwwvwwvrs",
"wxtvsswwwwvssrwwwwwsssswtwtwxtwsssswtwtwxtwssssswxwxtxxxxwttwxxwswxwxw",
"wwswwwwwrsrrwxwtttwwwwxwwxxxtswwwwxwwxxxtswwwwwxwwxwwwxwwwxxwswwxwwwss",
"swtswwwwwxwxssswxxtwssssswxtxxwwssssswxtxxwxxxxtxxwwxwwwwwwwwwwwsssvxw",
"wsswswwwwwwxxxwttwwwwwtwwwsttwxwwwtwwwsttwxxwwwxxxwtxxxwwwxxxxxxxxwxww",
"xxtsswswwwtwwxwwtwwwwxwxwwwwwwswwxwxwwwwwwswwwxwwxwwxxxtwxwwwsxwwtwssx",
"xxxtxsswswwxwwwxwwwwwxxwwxxwxttwwxxwwxxwxttxxwtwxxxxwxxxwtwwtxxxwwwwww",
"tttxxwxtswswwwxxwxwxwwwwwtttxxxxwwwwwtttxxxtwttxxtxxxxxwxwxwwwwwwxxxww",
"xxxttxxwxtswswwxxwwwwwwxwxxtwstwwwwxwxxtwsttxxxxxxxxxtwwwxxxxwwwxxxxww"
};
