/* XPM */
static char *g_wind05[] = {
/* width height num_colors chars_per_pixel */
"    70    70       30            1",
/* colors */
". c #e8e8e8",
"# c #e6e6e6",
"a c #d8d8d8",
"b c #c3c3c3",
"c c #bcbcbc",
"d c #a8a8a8",
"e c #9e9e9e",
"f c #9a9a9a",
"g c #919191",
"h c #8a8a8a",
"i c #848484",
"j c #828282",
"k c #7b7b7b",
"l c #767676",
"m c #727272",
"n c #646464",
"o c #686868",
"p c #5c5c5c",
"q c #4e4e4e",
"r c #494949",
"s c #454545",
"t c #414141",
"u c #3c3c3c",
"v c #424242",
"w c #3a3a3a",
"x c #333333",
"y c #2b2b2b",
"z c #242424",
"A c #202020",
"B c #1e1e1e",
/* pixels */
"baaaabbbaabdfdhhdcbkpppppppppppppppppppppomkhhmoppppppnpoopppnppppstss",
"aaaaaabcbabbbcfkhddmmmmmmnpppponnnmmmmmmkfdbbbfmnnnoppppppnppppppppqsp",
"baaaaabddcddbbbfffmmmmmmonnppsqmookkkkkgdaaaabckokkmmppoooppppppppppqp",
"dbaabbcdcbhhfdcbbdmmmmlomnonnppmliedcccbbaa#aaakooopmmpookddhppppppppp",
"dcbcccbcdkhpnmmhfdkllklloommmoligdccaaaaba#a#aakoomookkkdccdffknpppppp",
"ccccdcbachmmmmmmmlooojjjjkkhkdccbcca#aaaaa###acdhcdkoffdbcccddkmnppppp",
"cfdcdfdbbampnpmmpmmkfiiiijjgfaa#aacaa#caaaaacfidachdkmmkdccddmmnpppppp",
"fcccmfffdhhmppmmoigiffiggiiifcb##aaa#aaaaacfcefgcbcb#ffffdffhmmppppppp",
"ffhhhhhhhmhmmpmhkfaegggddfiiccbaaaaa#aaaadccbcdkd#abaadfffdcchmpmmmnpt",
"mfhnhnnmnmkkmkhhhcbaggggccccccbaaaaa#abcbaabceemkkcdbaadhfdcbccdfffppp",
"undhnnnnmmkkhfhhhheggiiidddcccbaaa###aabaa#aeeiikighfddddddddcbdhfpppp",
"mnnmhhhhhkkkffdmmgiccgiikfkdbaaaa#####aaa##adiijgfgefddfffdddcbbbddppo",
"mmmmkkkkkkkkffhjigiecccchkkhcaaa####a##a####bdfddccbbbbcdcdcccbabcponn",
"nmmmkkkkhhhfhfficdcfcccchhhdaababffbaaaaaddbbaa#########dfmchhddfhfnmm",
"mmmmkhhhhhhhkfhkigfggcchhhhcaaacffdcdccfcaaaaaaaaaaaaaaadampnmmfdhdonn",
"mmmmmmkkkhhkmhcfkmidgedfdfhdfdfffddcffc##a####aabbhnnnnhfnnpnhmbhdpppp",
"mmmmmkmmkhkmmkccdffgididba#bhhhhfddfc#####abmuuzyuuuunnnnnnnppndhppnnp",
"bfmmmdhkkiifkdbbbbcefkdabcddhhhhhfc####bhuyBuhbaaaaaaaaaaddpppqpmpommm",
"cccmmddkmiiddabaaaacdbbbcdhhhhida####duzAuda####aaaaaaaaabfnpphpppnpmm",
"bbbcbecmmihfdccdc#aaabaaccfhida###amyAAnb#########aaabbbaacnppppqppmmm",
"fcabaccefehhhffhdcc#aaacdfcda###buBAAna######bbhnuyyzBBBzymtpqppppppmm",
"cdbccfceddffhhfhhcdba#cddc###amyAAAna####abnuzAynhdbbbbbbbdmpppnpppmmm",
"hbbccbdffeffffdcbbcccccc###bnzAAAna####bnzABnba##########aafppppnppmmm",
"hchmmcefffedccbaabfcdca#bmyBAAAna.##afuBAub###############adppqppppmmk",
"hcckmffhhffdddddffca##duzAAABna#.#bnzAAub#########aabbbbbbbbnpqpppppmk",
"hhbcccfffdccdefca##bnyBAAABh#..#fuBAAub..##.#abhnuyyBBBBBBBzmqqppqopmm",
"febbaabecccca###bduzAAAAyh#.#bnzAAAub.#..#afnuBBunfbbbaababbkqqpoqmppm",
"hcbbbaac###abfnuuyzBBByf#.afuBAAAub....#dnyAznb#############dpqqpqmppm",
"hhhhcackuuuzzBzyyyyzud##bnzAAAAub....bnyAAub#.##############bkqqpppppm",
"fffffffdyyyyBzyuyunb.ahuBAAAAub...#bnzAAna.....#...##aaaaaaa#hqpppppom",
"ffffffd#nyzyyyumb##bnzAAAAAnb...ahuAAAna......#adhnuuyyyzzzyunqqppppmm",
"khffffd#dnnhb###bnuBAAAABna..#bnyAAAub.....abnuyAAyumfdbbbddfhkqppmmmm",
"hgggffdb###bdhnuyzBBAABna..ahuBAAAub....#bnuBAynb##...########hppkkmkm",
"efgfffdtuuyzBBzyyyzzzna.#bnyAAAAub....afuzABnb.....###########dpmfhkfm",
"ccceefemyyyzBzyyyyuf#.afuzAAAAub....bnyBABf#...............###bkmhhhfg",
"abccbbddyzBzyyyuha.#bnyAAAAAub...#duzAABh#........##abbdfhfdfbbfmkfffd",
"babaaacduyyumb#.#bhuzAAAAAub...amyBAAAn#......#bdnnuyyyyyyyzzzynnmkkhf",
"bcbcgdh#...#abdnnuBAAAAAub..#bnzAAAAn#.....adnuyzyzyyyzzzBBBBBBuhhhhff",
"bdffgjkmhnuuuuyzzzBBBAub..ahuBAAAAna.....bnuzzzzzzzzzzzBBBBBAAAzhhhkhh",
"ggggeekuzzyBBBBzzzzzub.#bnyAAAAAua....#dnyBBBzzBBBBBBzBBBBBBBBABkihhhm",
"ggggggktzzBzzzzyyuha.ahuzAAAAAub....ahuzzzBBBBBzzBBBBBBBBBzBBBBBiiiihh",
"eeeeeeghzzBBzyufa.#bnyAAAAAAub...#bnuzBBBBBBBBBBBzyutpppljiijkliggiigi",
"eeeeeedcnnhdb#.#bnuzAAAAAAub...#fuyzzzBBBBBBBBytnhfiiigggggggggggggiii",
"eeeegeb###abbhnnuBBAAAAAub...bhuyzzBzBBBBBBzuskggggigegggeeeegegegggig",
"ggggggnuunuyyzzzzBBBBBub..#bnuyzzzzzzBBBBynngggggggggggggggggggeegiijj",
"ggggggnyyyyBBBzzzzBznb..ahnyzzzzzzzzzBzunligiggggigjiiiiiggigggggijiij",
"gggggghyyzBBzzzzzuf#.#bnuyyzzzzzzzzzzuslkkjkjjjiijjjijjjjjjjjjjjjjjjjj",
"gggiiihuzBBBBzufa..afnuyyyyyzzzzzBytpkllllloljjjjjjklkjllljjjjjjlijjll",
"jjiiiihnnnndb#.#abnuyyyyyyyzzzzzunpllopppoollkkjjljjjllljjjllollljllll",
"iijjkh##..##abfmnuyyyyyyyzzzzyutojjkoooooppplllkllloollloollllljlojlll",
"lljjlmnnnnnntuyyyyyyyyyyyyyyxqpllooooooooolooooooooooooooljkopljlllljl",
"lllopouuuuyyyyyyyyyyyyyyyxwploooooppopppppppppppooooopooopppoloooloooo",
"poooooxyyyyyyyyyyyyyyyuxspoppopppqppqpqqqppoooooooppooppppooooppoopooo",
"opopppxuuyzzyyyyyyyyuwqopqqppqpqqqppqpoqqqpqpqqppppppqqqpppppqqqpqpooo",
"qppqqqwuyyyyyyyyxxxspqqrqqqppqpoqqrrrrqqqqpqrppqqqqqqqqqrrrrrqppqppqrq",
"rrrrqqwtyyyuxxwwtvqqqqpqqrrrrrrqqqrrrsqqsqrrprqqrppqqpqqrrrqqqrrqqqppq",
"rrrrrrrrrrqpqqvqqqqrqvwrqqqrrrvqqvsrqqsrrrvqrqqqprqqrrrsrrrssssqrqqqqp",
"rrqrrrqrrrqrsrqrsrqrrpqswwsssqsssqrsqrvrrqqrqqrqqqqrvqrswvvsqwvqrqrqqq",
"sssvsssvsssrsvvvqqssrwvrqqswssswqrvvrvrrqqrvrvssrrqvvqrswtssvvwwssrrqq",
"swsrswsrswssrrrqswwrssrrwwwwwwwsswsrvrrrrrrrrrrrsrwwswsstvwssrrrvrqrvv",
"vsssssssvsssrrswssrrsxxxssswxxtwsssqrvwwsrvsrrswwvvsxxttwwwwwsswvvrrqq",
"wswsvswssstswwssrsssvtttxxwttsswtttxwwvrrwtxvwsswtttxtwsstxxwwwwvwwvrs",
"wxtvsswwwwvssrwwwwwsssswtxtttxxxxxxtwtwxxxxtwtxxtxwxtxxxxwttwxxwswxwxw",
"wwswwwwwrsrrwxwtttwwwwxwwxxxtswssstwsswttsttxxttwxxwwxwwwxwwwswwxwwwss",
"swtswwwwwxwxssswxxtwssssswxtxxwxxxxtxxtxwxxwxtwsstxxwwwwwwwwwwwwsssvxw",
"wsswswwwwwwxxxwttwwwwttxxwsstwxtxxwxxxxxwxttwwxxxxwtxxxxwwxwxxxxxxwxww",
"xxtsswswwwwwxxwwtwwwwwwwwwwxxwsstwxtxxxxxtwwxtxwwxwwxxwwwwwwssxwwxwssx",
"xxxtxsswswxxxxxwxxxtwwtwwxxtwttxxwtwwwwwtxxwxwtxxxxxxwwxwtwwwwwwwsvwww",
"tttxxwxtswswwwxxwwwwwwwwwtttxxxtwttxxxxxxxxxxwwxxtxxxxxxwwwwwwwwwwwwww",
"xxxttxxwxtswswwxxwwwwwwxwxxtwsttxxxxxxwxxxxxwxxxwxxxxtwwwxxxxwwwxxxxww"
};
