/* XPM */
static char *wind00[] = {
/* width height num_colors chars_per_pixel */
"    70    70       32            1",
/* colors */
". c #e8e8e8",
"# c #e6e6e6",
"a c #e1e1e1",
"b c #d8d8d8",
"c c #c3c3c3",
"d c #b9b9cf",
"e c #a6a5bc",
"f c #9894cc",
"g c #9796b2",
"h c #8b87c0",
"i c #8785a6",
"j c #7e7ab3",
"k c #7b77b5",
"l c #7874b1",
"m c #7672a7",
"n c #6f6ca6",
"o c #6e6c91",
"p c #626174",
"q c #615f99",
"r c #545390",
"s c #44448a",
"t c #3f3f83",
"u c #3c3c7a",
"v c #393a6a",
"w c #39394d",
"x c #37387c",
"y c #303171",
"z c #2a2b65",
"A c #282938",
"B c #212331",
"C c #202020",
"D c #1c1d29",
/* pixels */
"kkkkkklkllkkkkllllllllllllmmmmmmmnnnnnnnoqqnmqoooqrqqoqoooorrrrrrrrrrr",
"kkkkkkkkkkkkkkklllllllllllmmmmmmjnnnnnnnqqqmoooooqqqqqrororrrrrrrrrrrr",
"kkkkkkkkkkkkkkkkklllkjllllllmmmljmnnnnnnnqqnqooqqqqqqoqooorrrroororrrr",
"kkkkkkkkkkkkkkllkkkkkkkklllllmmllmmmmnnnnqqqqqqqoqqqqqqqqqorrrroooorrr",
"kkkhhkkkkkkkkkkkkkkkkkkkklllllllllllmmnnnnnnnqqqqoqoqqqoqqqqqqqqoqoorr",
"kkkhhkkkkkkkkkkkkkkkkkkkklllllllllllmmnmmnnnnnnqqqooooqqqqqqqqqqqooooo",
"kkkhhkkkkkkkkkkkkkkkkkklkklllllllllllmnmmmmnmnnnqqqnqooqqqqqqqqooooooo",
"kkkhhhhhfjkkhhjhkkkhkkkkkkjlklllljlmmmmmmnnnnnnnnnnqqqqqoqooqqqqqoqoor",
"hhkhffdffhhhhfffkkhhhkkkkkjkkjjlllllllmmmmmmmmmmnnnnqqqqoooooooqqqoooq",
"hhhffddddddddddfffhkhhkkkkkkjjjjjljjlllllmmmmmmmmnnnnnqqooooooqooqoooo",
"hhhhhfddbbbbbbbdddhhhhhkkkkkjjjjjjjjkklllllllmmmmmnnnnnnqqnqqqqooqooqo",
"hhhhfdfdbaaaa#aaabdffhhhhkkkkjkkkkkkjlllllllllllmmmooooonnnqqqnqnqooqo",
"hhhhdbbaa#.#######adfhhhhhkkkjkjkjkkjkljllkjmigeeddccccdonnnnnnnnnoooo",
"hhhhdbaa##########abfhhhhhkjjjjjkjjjjkjjljgdcbbbbbccccccinmnnnnmnnoooo",
"hhhffdbbaaaaaaaa###dhhhhhhhhhhhkjkjjkjjidbbbbbbbbbbbbbbbenmmmnmmmnnooo",
"hhfdfdddddbbdddbbaadfhhhhhhhhhhhjhkkjgdaabaaaabbccippppigommmmmmmnmmno",
"hffdddddfffdddddddffffhhhhhhhhhhhhjgdaaaaabcowwBAwpppppppommmmmmmmmmmm",
"ffdddddfffffffdddffffhhhhhhhhhhhhgdaaaaciwADwicbbbbbbbbbbegggeimmmmmmm",
"bbbbbdffffffffffffffhhhhhhhhhhhebaa#aewBCwebaaaabbbbbbbbbcdbbaabddeeeg",
"ddddddffffffffffffffhhhhhhhhheb###boACCpc#aaaaaaaabbbcccbbbabba###abbb",
"ffffffffffffffffffffhfhhhhheb##acwDCCpb##a##accipwAABDDDBAiaabbaaababb",
"ffffffffffffffffffffffhhhda##boACCCpb####bcpwBCApiecccccccebddcccdcbbc",
"ffffffffffffffffffffffhda#acpBCCCpb###acpBCDpcbaaaaaaaaaabbdddddddbbbb",
"ffffffffffffffffffffeda#coADCCCpb.##bgwDCwca######aaaaaaaabdddddddcbcc",
"ffffffffffffffffffdb#aewBCCCDpb#.#cpBCCwc########abbccccccccggeeeeeddd",
"fffffffffffffffdba#cpADCCCDia..agwDCCwc..##.#bcipwAADDDDDDDBieeeeeeeed",
"ffffffffddddba#acewBCCCCAia.#cpBCCCwc.#..#bgpwDDwpgcccbbcbcciggggggggg",
"fffffffd##abcgpwwABDDDAg#.bgwDCCCwc....aepACBpca#####aaaaaaaeggeeegggg",
"fffffffmwwwBBDBAAAABwe##cpBCCCCwc....cpACCwc#.#########aaaaaceeegggggg",
"dddfdffeAAAADBAwAwpc.biwDCCCCwc...acpBCCpb.....#...#abbbbbbbagggggggii",
"###a#aa#pABAAAwoc#acpBCCCCCpc...biwCCCpb......abeipwwAAABBBAwpggggggee",
"a##a#aa#eppica#acpwDCCCCDpb..#cpACCCwc.....bcpwACCAwogeccceegiggggggee",
"bbbaaaacaaaceipwABDDCCDpb..biwDCCCwc....#cpwDCApca#...#######aihghgggg",
"dddbbbbvwwABDDBAAABBBpb.#cpACCCCwc....bgwBCDpc.....##########aehhggedd",
"dddddddoAAABDBAAAAwga.bgwBCCCCwc....cpADCDga...............###cggddddd",
"bddddddeABDBAAAwib.acpACCCCCwc...aewBCCDi#........#abccegigegccgeeeeee",
"ddddfffewAAwoca.aciwBCCCCCwc...boADCCCpa......aceppwAAAAAAABBBApgiggge",
"ffffffg#...#bceppwDCCCCCwc..#cpBCCCCpa.....bepwABABAAABBBDDDDDDwiiiigg",
"fhffffgoipwwwwABBBDDDCwc..biwDCCCCpb.....cpwBBBBBBBBBBBDDDDDCCCBiiiiii",
"hhhhffgwBBADDDDBBBBBwc.#cpACCCCCwb....aepADDDBBDDDDDDBDDDDDDDDCDmjiiim",
"hhhhhhfvBBDBBBBAAwib.biwBCCCCCwc....biwBBBDDDDDBBDDDDDDDDDBDDDDDpjjjii",
"fffffffiBBDDBAwgb.acpACCCCCCwc...#cpwBDDDDDDDDDDDBAwvommmmmmnorvojjjhj",
"ffffffedppiec#.acpwBCCCCCCwc...agwABBBDDDDDDDDAvoighhjhjjjjjjjjjhhjjjj",
"ffffhfc###bccippwDDCCCCCwc...ciwABBDBDDDDDDBwoihhhhhhjjjjjjkkkjjjjjhjh",
"hhhhhhpwwpwAABBBBDDDDDwc..acpwABBBBBBDDDDApihhhhfffhhhhjkkkkkkkkjjkkkk",
"hhhhhhpAAAADDDBBBBDBpc..bipABBBBBBBBBDBwpjjhjhhhhhhljjjkkklljjllllljjl",
"hhhhhhiAABDDBBBBBwga.acpwAABBBBBBBBBBwoljlnljjjjjllkjlllllllllllllllll",
"hhhjjjiwBDDDDBwgb..bgpwAAAAABBBBBDAvmkkllkkkklllkllnnllnnnllllklnjllnn",
"lljjjjippppeca.#bcpwAAAAAAABBBBBwpmjklnnnnnnnllllnlllnnnlllnnqnnnlnnnn",
"jjllmi##..#abcgopwAAAAAAABBBBAwomljllnllnnnlnnnmnnnqqnnnqqnnnnnlnqlnnn",
"nnllnoppppppvwAAAAAAAAAAAAAAvqqnnqqmlmnnnnlnnqnqqqqqqqqqqnlnqrnlnnnnln",
"nnnqrqwwwwAAAAAAAAAAAAAAAzuqnqqqqqqqqqqqqqqqqqqqqqqqqrqnqrrqnnqqqnqqqq",
"rqqqqqzAAAAAAAAAAAAAAAwvsrqrrqrrqrrqqqqrrrrqqqqqqrsrqqrrrqqrrsrrqqrqqq",
"qrqrrruwwABBAAAAAAAAwurqrssrrsrsssrqrsrrrrrsrsssrrrrrsssrrsssqqrrsrqqq",
"srrsssswAAAAAAAAwzvtrsstsssrrsrqssststtsrsrstrqrtxssstssttsrrrttsrrsts",
"ttttsstvAAAwzvuuuxssssrssttttttssrsssstsssttrtxxsssssrsstssstxsssssrrs",
"ttttxtssstsrssxsssstsxytsrstttxssxxssrstxtxstsrsttsstttxtssssssttssssr",
"ttsttxxtstttutstutsttrrsttttxstutstxstxttstttttsssttxstttxsssssssstsss",
"uuuxtstuuttsuxxxssuutxxttttssxxxstxxtxtttttxtxxxxtsxxsttssxstttxxtttss",
"uyutuyyuutxutttsuyytuuuxutuuxttttuttxttuxxxxxxxtxtyytxxxxyxtssxstsstxx",
"xuuuyttyyuxtttuyuuttuyuuyyyttuyuuttstxyyutxxtttyyxxtxyxtttxttxtstxxsss",
"yuyutxutuuuuyyuutuuuxuuuttuuuuuuuuyyyyxttxxxyxyxxxxtxxyyxyxuuxxtxtsstt",
"yzvxutyyyyxtssuyvyyuuuuyyuuyvyyuuuuuuuuyyyxxxxtxxxxxxxttxxyxxyxxxxtxxs",
"yyuyyyyytuttyzyuuuuyyyzyyuuuuuuyyuuuuuyyyuuyzyyyuyyyyuuyxxtxyxxtxyyxxy",
"uyvuyyyyyzzzuuuyzzvyuuuuuuyyyyuyyyuyyuyyyyyyyyyyyyyuzzyyxyyxtuyxyxttxt",
"yuuyuyyvvvvvzzyvvuuyvvvzzyuuyvzzzzvvyyyyyyuyyyyyyyzzyyyyuyzyzzxyxxyxxx",
"zzvuuuvvvzyuvzvvvzzzzzzvyvzzvyuuuvzvvzzzzzzzyyzyuyyyyuyyzyyyuuyyyyyyyy",
"zzzvzzyzzuyvvzzzvuyuuuvvzzvvyzzzzzzyzyuuzzzzzyyyzzzzyzyyuuuxyyyyyyyyxt",
"vvvzzzvvyvvvzzzvzzvzzzzvzvyuuvzzzyyzyyzzzzvzzzzzzyzzzvzzzyyyyyyyyutuxy",
"zzzvvyzzzzzyuuvzzvzzyuyyvzzzzzvvyzzzzzzvzzzzzzvyyyzzzzzuyzzzzyyyyyzzzy"
};
