/* XPM */
static char *magick[] = {
/* columns rows colors chars-per-pixel */
"97 24 26 1",
"   c #befbbaeabefb",
".  c #aebaaaaaaeba",
"X  c #79e779e779e7",
"o  c #514451445144",
"O  c #410341034103",
"+  c gray22",
"@  c #492449244924",
"#  c #208120812081",
"$  c black",
"%  c #cf3ccb2bcf3c",
"&  c #965892489658",
"*  c #71c671c671c6",
"=  c gray38",
"-  c gray35",
";  c DimGray",
":  c gray19",
">  c #8e388a288e38",
",  c gray3",
"<  c #b6dab2cab6da",
"1  c #28a228a228a2",
"2  c #861782078617",
"3  c #186118611861",
"4  c #104010401040",
"5  c #c71bc30bc71b",
"6  c #a699a289a699",
"7  c #9e799a699e79",
/* pixels */
" .XoOOOOOOO++++++++++++++++++++++++++++++++++++++++++@@@@@@@@@ooooooo@@@@@@@@@OOOOOOOOOOOOOOO+#$$",
"% &*===============----------------------------------;;;;;;;;;********;;;;;;;;;;==============:#$",
"% >=ooooooo@@@@@@@@@@@@@@@@@@@@@@@@@@@@@@@@@@@@@@@@@@----------=======--------oo=;**;-ooooooo@#,$",
"%<*@+::::::::::::::1111111111111111111111111111111111++++++++++OOOOOOO++++++++-X2222X;-O::::::#$$",
"%.;################33333333333333333333333333333333331111111111:::::::111111:;2>&>2X*=-@+#####4$$",
"%.;################3333333333333333333333333333333333#111111111:::::::111111;2&&&2*=-o@+:#####,$$",
"%.;################3333333333333333333333333333333333#111111111:::::::11111o2&&>X;oO+::1#34###,$$",
"%.;#################333333333333333333333333333333333#111111111:::::::1111:*>&>X=@:1#3334,4###,$$",
"%.;#################333333333333333333333333333333333#111111111::::::::111@2&&X=O13444,,,4####,$$",
"%.;#################333333333333333333333333333333333#1111111111:::::::111=2&2;@134,,,,,,31:##,$$",
"%.;#################333333333333333333333333333333333#1111111111:::::::111;2>*o:#4,,,,,,431+##,$$",
"%.;#################333333333333333333333333333333333#1111111111:::::::111;22;@13,,,,,,,43:O##,$$",
"%.;##################33333333333333333333333333333333##111111111:::::::111-**-+#4,,,,,,,4#+@##,$$",
"%.;##################33333333333333333333333333333333##111111111:::::::111O;=o:34,,,,,,,41OO##,$$",
"%.;##################33333333333333333333333333333333##111111111:::::::1111--@:34,,,,,,43:o1##,$$",
"%.;##################33333333333333333333333333333333##111111111::::::::111O@O13,,,,,,431@o###,$$",
"%.;##################33333333333333333333333333333333##1111111111:::::::1111+:#4,,444431O-####,$$",
"%.;###################3333333333333333333333333333333##1111111111:::::::11111#3,4333#1:@=:####,$$",
"%.;###################3333333333333333333333333333333##1111111111:::::::11111143#1::+Ooo######,$$",
"%.;###################3333333333333333333333333333333###111111111:::::::11111111:+@oo@:#######,$$",
"56=###################3333333333333333333333333333333###111111111:::::::111111111#############,$$",
"7X+#44444444444,,,,,,,,,,,,,,,,,,,,,,,,,,,,,,,,,,,,,,4444433333333333333333333344444444444444,$$$",
"X-#,$$$$$$$$$$$$$$$$$$$$$$$$$$$$$$$$$$$$$$$$$$$$$$$$$$$$$$$$$$$$$,,,,,,,,$$$$$$$$$$$$$$$$$$$$$$$$",
";@#$$$$$$$$$$$$$$$$$$$$$$$$$$$$$$$$$$$$$$$$$$$$$$$$$$$$$$$$$$$$$$,,,,,,,,$$$$$$$$$$$$$$$$$$$$$$$$"
};
