/* XPM */
static char *g_wind02[] = {
/* width height num_colors chars_per_pixel */
"    70    70       30            1",
/* colors */
". c #e8e8e8",
"# c #e6e6e6",
"a c #d8d8d8",
"b c #c3c3c3",
"c c #bcbcbc",
"d c #a8a8a8",
"e c #9e9e9e",
"f c #9a9a9a",
"g c #919191",
"h c #8a8a8a",
"i c #848484",
"j c #828282",
"k c #7b7b7b",
"l c #767676",
"m c #727272",
"n c #646464",
"o c #686868",
"p c #5c5c5c",
"q c #4e4e4e",
"r c #494949",
"s c #454545",
"t c #414141",
"u c #3c3c3c",
"v c #424242",
"w c #3a3a3a",
"x c #333333",
"y c #2b2b2b",
"z c #242424",
"A c #202020",
"B c #1e1e1e",
/* pixels */
"ommmmmmmmmlmmmooolllkmmmlkkkllmoooommppokkmmppooooommmommmmmkoppppppqs",
"mnmmmmmmlllllomoolllkkkkklmmoooooomoooppoopmmpoooooommmmmmmmmooopokkmp",
"molkkkkklllllkklkkkkkjkkkkkmkkklllllloomopooopmommommmmmmmmmmmmoooooop",
"llkjjjijjjjjjkkkjjjjjjjjjjjjjkkkkkkkkkkloooooommmmmmmmmmnppppnmmoopppp",
"mlmiiifiiiijjjjjjjjjjedjjjjjjjjjjjjjfjjkkkkkoommmmmmmmnppppppppmmmkooo",
"mojidgcdiiiiiijjjjffedddddjjjjjjjjjjkhihhddhjkoolommmmpppppponnopomooo",
"mmoicccciggfiiijifdbbaaaaadjjjejjjjjjiffddddffllloooonppppnmkkmmnnpppp",
"mmogdcggggdfigiifdbaa#######aceijijkkdiiffffdchkkkkklonpppnnmmmmnnnnpp",
"nmmhiggggigkiiifdba##.#######aijjjjjjjkkfddddddjhkkkkkmnpponnnmmmmmmmk",
"nmmggbdggfkikhhcdba##########abiijiijjjjjkigihihfdfkhikomponnnmmmmkkkh",
"nkiggfccachkkhfdcb############bcgiiijjjjjjjikmmmkfddgdhlmmmnmmkmmmhhhf",
"mkkoeg##abhhhfddcaaadaaaaaaa##abbjjjijjjjjkkmmmmmhfddfikmmmmmkfedddddf",
"mkkhcgfaahhhhhaaaacbbbccbaabbddgiijjijjijjjkmkfddccbbbbcmmmmmkhdddcccc",
"mkknikgcaedfkdffdfdccffcbbaaiiiijiiiijiikkhddbaaaabbbbbbkmmnmkhdcfdccb",
"kkhffffbfdddcbfhhkdcbcfcfiiggggjijiijiihcaaaaaaaaaaaaaaafmmmnmmkdddddc",
"cccccefkdcddddhkkikhkhbbggggggggigjjjfc##a####aabbhnnnnhfkmmonmmhfdffc",
"aaaabcdbbbcdhkihiiihkkggggggggggggjfc#####abmuuzyunnnnnnnkmmmmkhdffkff",
"a###aaabaafifkhgiggfggggggggggggghc####bhuyBuhbaaaaaaaaaadmnmkhccdgjjk",
"caa###aaafhffefgfikggggggggggggda####duzAuda####aaaaaaaaabkmmkkdbacffh",
"ccaaa####aeeeefggfeegggggggggda###amyAAnb#########aaabbbaadmmmmfbaabcc",
"abaaba###cffeefggfeegegggggda###buBAAna######bbhnuyyzBBBzyhkmmmfcbacaa",
"aaabdba##cfffeeffeeeeegggc###amyAAAna####abnuzAynhdbbbbbbbdhmmmhdcbbcb",
"eccddfdceefffeeeeeeeeggc###bnzAAAna####bnzABnba##########aafkmmkffffda",
"eeefffeeeeefeeeeeeegfdb#bmyBAAAna.##afuBAub###############adkkkhkhhgdc",
"eeeeeeeeeeeeeeeeggca##duzAAABna#.#bnzAAub#########aabbbbbbbbkmkkmhhgfc",
"eeeeeeeeeeeeggcca##bnyBAAABh#..#fuBAAub..##.#abhnuyyBBBBBBBzkmihkhhhfd",
"eeeeeeeecccca###bduzAAAAyh#.#bnzAAAub.#..#afnuBBunfbbbaababbhhkhhhfhff",
"eeeeeeed###abfnuuyzBBByf#.afuBAAAub....#dnyAznb#############dhhhhffhhf",
"eeeeeegkuuuzzBzyyyyzud##bnzAAAAub....bnyAAub#.##############bfhhhhffff",
"dddecegdyyyyBzyuyunb.ahuBAAAAub...#bnzAAna.....#...##aaaaaaa#fhhhhffhh",
"ecca#ab#nyzyyyumb##bnzAAAAAnb...ahuAAAna......#adhnuuyyyzzzyunhhhhffdd",
"eddcacc#dnnhb###bnuBAAAABna..#bnyAAAub.....abnuyAAyumfdbbbddfhfhhhffdd",
"ddedbbcb###bdhnuyzBBAABna..ahuBAAAub....#bnuBAynb##...########hihiffff",
"fedddactuuyzBBzyyyzzzna.#bnyAAAAub....afuzABnb.....###########dggffdca",
"deccdcdmyyyzBzyyyyuf#.afuzAAAAub....bnyBABf#...............###bkhhccca",
"ddccccfdyzBzyyyuha.#bnyAAAAAub...#duzAABh#........##abbdfhfdfbbhhhdddd",
"dedceeiduyyumb#.#bhuzAAAAAub...amyBAAAn#......#bdnnuyyyyyyyzzzynhhhffd",
"deeeegk#...#abdnnuBAAAAAub..#bnzAAAAn#.....adnuyzyzyyyzzzBBBBBBuhhhhff",
"deeegjkmhnuuuuyzzzBBBAub..ahuBAAAAna.....bnuzzzzzzzzzzzBBBBBAAAzhhhkhh",
"ggggeekuzzyBBBBzzzzzub.#bnyAAAAAua....#dnyBBBzzBBBBBBzBBBBBBBBABkihhkm",
"ggggggktzzBzzzzyyuha.ahuzAAAAAub....ahuzzzBBBBBzzBBBBzzzzzyzzzzziiihhh",
"eeeeeeihzzBBzyufa.#bnyAAAAAAub...#bnuzBBBBBBBBBBzzyutpppljiijkliggiigi",
"eeeeeedcnnhdb#.#bnuzAAAAAAub...#fuyzzzBBBBBBBzytnhfiiigggeeegieeeigiii",
"eeeegeb###abbhnnuBBAAAAAub...bhuyzzBzBBBBBBzuskgggiiiiiggeeeeeeieeggig",
"ggggggnuunuyyzzzzBBBBBub..#bnuyzzzzzzBBBBynngggggigiiiggggegggeeegiijj",
"ggggggnyyyyBBBzzzzBznb..ahnyzzzzzzzzzBzunligiggggigjiiiiiggigggggijiij",
"gggggghyyzBBzzzzzuf#.#bnuyyzzzzzzzzzzuslijljiiiiijjiijjjjjjjjjjjjjjjjj",
"gggiiihuzBBBBzufa..afnuyyyyyzzzzzBywpjjjjjjjjjjjjjjkljjllljjjjjjlijjll",
"jjiiiihnnnndb#.#abnuyyyyyyyzzzzzunpijjllllllljjjjljjjllljjjllollljllll",
"iijjkh##..##abfmnuyyyyyyyzzzzyutojijjljjllljlllkllloollloollllljlojlll",
"lljjlmnnnnnntuyyyyyyyyyyyyyyxqpllookkklllljllolooooooooooljkopljlllljl",
"lllopouuuuyyyyyyyyyyyyyyyxwploooooppoppopoooooooooooopooopppoloooloooo",
"poooooxyyyyyyyyyyyyyyyuxspoppopppqppqpqqqppoooooooppooppppooooppoopooo",
"opopppxuuyzzyyyyyyyyuwqopqqppqpqqqppqpoqqqpqpqqppppppqqqpppppqqqpqpooo",
"qppqqqwuyyyyyyyyxxxspqqrqqqppqpoqqrrrrqqqqpqrppqqqqqqqqqrrrrrqppqppqrq",
"rrrrqqwtyyyuxxwwtvqqqqpqqrrrrrrqqqrrrvqqsqrrprqqrppqqpqqrrrqqqrrqqqppq",
"rrrrrrrrrrqpqqvqqqqrqvwrqqqrrrvqqvsrqqsrrrvqrqqqprqqrrrsrrrssssqrqqqqp",
"rrqrrrqrrrqrsrqrsrqrrpqswwsssqsssqrsqrvrrqqrqqrqqqqrvqrswvvsqwvqrqrqqq",
"sssvsssvsssrsvvvqqssrwvrqqswssswqrvvrvrrqqrvrvssrrqvvqrswtssvvwwssrrqq",
"swsrswsrswssrrrqswwrssrrwwwwwwwsswsrvrrrrrrrrrrrsrwwswsstvwssrrrvrqrvv",
"vsssssssvsssrrswssrrsxxxssswxxtwsssqrvwwsrvsrrswwvvsxxttwwwwwsswvvrrqq",
"wswsvswssstswwssrsssvtttxxwttsswtttxwwvrrwtxvwsswtttxtwsstxxwwwwvwwvrs",
"wxtvsswwwwvssrwwwwwsssswtxtttxxxxxxtwtwxxxxtwtxxtxwxtxxxxwttwxxwswxwxw",
"wwswwwwwrsrrwxwtttwwwwxwwxxxtswssstwsswttsttxxttwxxwwxwwwxwwwswwxwwwss",
"swtswwwwwxwxssswxxtwssssswxtxxwxxxxtxxtxwxxwxtwsstxxwwwwwwwwwwwwsssvxw",
"wsswswwwwwwxxxwttwwwwttxxwsstwxtxxwxxxxxwxttwwxxxxwtxxxxwwxwxxxxxxwxww",
"xxtsswswwwwwxxwwtwwwwwwwwwwxxwsstwxtxxxxxtwwxtxwwxwwxxwwwwwwssxwwxwssx",
"xxxtxsswswxxxxxwxxxtwwtwwxxtwttxxwtwwwwwtxxwxwtxxxxxxwwxwtwwwwwwwsvwww",
"tttxxwxtswswwwxxwwwwwwwwwtttxxxtwttxxxxxxxxxxwwxxtxxxxxxwwwwwwwwwwwwww",
"xxxttxxwxtswswwxxwwwwwwxwxxtwsttxxxxxxwxxxxxwxxxwxxxxtwwwxxxxwwwxxxxww"
};
