/* XPM */
static char *g_wind13[] = {
/* width height num_colors chars_per_pixel */
"    70    70       30            1",
/* colors */
". c #e8e8e8",
"# c #e6e6e6",
"a c #d8d8d8",
"b c #c3c3c3",
"c c #bcbcbc",
"d c #a8a8a8",
"e c #9e9e9e",
"f c #9a9a9a",
"g c #919191",
"h c #8a8a8a",
"i c #848484",
"j c #828282",
"k c #7b7b7b",
"l c #767676",
"m c #727272",
"n c #646464",
"o c #686868",
"p c #5c5c5c",
"q c #4e4e4e",
"r c #494949",
"s c #454545",
"t c #414141",
"u c #3c3c3c",
"v c #424242",
"w c #3a3a3a",
"x c #333333",
"y c #2b2b2b",
"z c #242424",
"A c #202020",
"B c #1e1e1e",
/* pixels */
"iiijiiiiijjkjikjkkliijjiddcddcggggiggggggggggggggggggijkikppcbcdfhppkd",
"jiiiiigedcedddddddiifiidccbaccddddfggggigggggggggggggggggffhabcdffhddb",
"iiiiiikedebcaabcdddfiifbbcbaaaaaacfggggggeegggggggegegggeccdcaddfffdff",
"iiiifcbdbbcbaaaaaacceigcbabbaaacefggggggggggggggfgfgececbaaaaadfcccdfd",
"iiicbbcbabbbbbaaaaaacggccbcbaacegegggggggggggggggggggecabacbacdbaaacdf",
"iiigbbccbbbbbbbabbaaaegfcaccbbeggegggggggggggggggggggfccccccedcbaaaacd",
"iggdbbcccdbbcbbbbaaaadfffedcdccfggggggggggggggggggggggeefgcefeddbaaaac",
"iggcccdgdcbbccbbbaaaabdeffeeecccgggggggggggggggegeggggfgffgfgffdbbaaab",
"iggbcdddccbbbaaaabbbaabcbaabcccceeefgggggggggggeeeegggggigedgggcbaabbb",
"gggbcccccdbbaaaaabccaaabaaaaacdedcccefgggggggggggeeefgggfeeegfdbba#abc",
"fggccccbccbbaaaacbbdbabaaaaaaaacbbcddffgggggggggggggfffffggggcbaaaa#ab",
"ggecbccbbbbaaaaabbbccbaabaaaaaababbbcdeegggggggfffggggffgggggcaaaa###b",
"gdcccccdbcbaaaaabbcccccbbcbbaaabaabbbcdddgggfffddccbbbbcfggggcbbaaaaac",
"fcdccbbeedccccaaabdcccccccccbaabcacccddegifcbaaaaaaaaaabfggggfdcbbbbcc",
"fffdcdceeeeddccbabcccccccdcccccbbcgfffihcaaaaaaaaaaaaaaadggggfggfccccc",
"ggfggfeggfffdeeecccbcfggggfdddfgggfgifc##a####aabbhnnnnhfgggggggggdbbc",
"ggffggghgggcbdggggfeggggggggggggggifc#####abmuuzyuunnnnnnhggggggggddab",
"gfgfgffffhdbbacggggggiiiigggggggifc####bhuyBuhbaaaaaaaaaaddggggggggeca",
"ggfffddcdaaaab#bbbbagggggggggggda####duzAuda####aaaaaaaaabbkgggggggffc",
"ffffdaa#aabaabaagfdggggggggggda###amyAAnb#########aaabbbaaaigggggggfgc",
"ffgdb#aabaabaaaadfgggggggggda###buBAAna######bbhnuyyzBBBzyhfigggggggff",
"fffca#abbcfffbaaccfggggggc###amyAAAna####abnuzAynhdbbbbbbbdcgggggggggf",
"fedbaabccchkiffdddfggggc###bnzAAAna####bnzABnba##########aaciggggggggg",
"fecbbbbcccfgiggggfffdca#bmyBAAAna.##afuBAub###############acfggggggggg",
"ffddcddddfgggggfdcca##duzAAABna#.#bnzAAub#########aabbbbbbbbfggggggggg",
"ffggiiggggiifcdca##bnyBAAABh#..#fuBAAub..##.#abhnuyyBBBBBBBzhigggggggf",
"fffgggggcccca###bduzAAAAyh#.#bnzAAAub.#..#afnuBBunfbbbaababbhigggggggf",
"ffffffgc###abfnuuyzBBByf#.afuBAAAub....#dnyAznb#############dfgggggggf",
"ffffeeekuuuzzBzyyyyzud##bnzAAAAub....bnyAAub#.##############bdiggggggf",
"fgffeeedyyyyBzyuyunb.ahuBAAAAub...#bnzAAna.....#...##aaaaaaa#fhggggggg",
"fffeeeeanyzyyyumb##bnzAAAAAnb...ahuAAAna......#adhnuuyyyzzzyunhigggggg",
"gfeeeedadnnhb###bnuBAAAABna..#bnyAAAub.....abnuyAAyumfdbbbddfhfigggggg",
"efeeeedc###bdhnuyzBBAABna..ahuBAAAub....#bnuBAynb##...########hhiggggg",
"eeeeeeetuuyzBBzyyyzzzna.#bnyAAAAub....afuzABnb.....###########dfkiigii",
"eeeeeeemyyyzBzyyyyuf#.afuzAAAAub....bnyBABf#...............###bfijjjjk",
"eeeeeeedyzBzyyyuha.#bnyAAAAAub...#duzAABh#........##abbdfhfdfbbfijjijk",
"eeeeeeeduyyumb#.#bhuzAAAAAub...amyBAAAn#......#bdnnuyyyyyyyzzzyniiiiii",
"feeeeee#...#abdnnuBAAAAAub..#bnzAAAAn#.....adnuyzyzyyyzzzBBBBBBuiiiiii",
"eeeeefemhnuuuuyzzzBBBAub..ahuBAAAAna.....bnuzzzzzzzzzzzBBBBBAAAzfiiiii",
"feeeeeeuzzyBBBBzzzzzub.#bnyAAAAAua....#dnyBBBzzBBBBBBzBBBBBBBBABgiiigi",
"geeeegetzzBzzzzyyuha.ahuzAAAAAub....ahuzzzBBBBBzzBBBBzAAAAzBBBBBggiiii",
"eeeeeeehzzBBzyufa.#bnyAAAAAAub...#bnuzBBBBBBBBBBzzyutpojiiggggggggiigi",
"eeeeeedcnnhdb#.#bnuzAAAAAAub...#fuyzzzBBBBBBBzytmkikkkiggggggggggggiii",
"eeeegeb###abbhnnuBBAAAAAub...bhuyzzBzBBBBBByumkjllllkeggggggggggggggig",
"ggggggnuunuyyzzzzBBBBBub..#bnuyzzzzzzBBBBynmkiiiiiiggggggggggggeegiijj",
"ggggggnyyyyBBBzzzzBznb..ahnyzzzzzzzzzBzunligiggggigjiiiiiggigiiiijkiij",
"gggggghyyzBBzzzzzuf#.#bnuyyzzzzzzzzzzuplkkjkjjjiijjjijjjkkkjjkkkkkkllj",
"gggiiihuzBBBBzufa..afnuyyyyyzzzzzBytpkllllloljjjjjjkkkklllloollloopppo",
"jjiiiihnnnndb#.#abnuyyyyyyyzzzzzunmllopppoollkkjjljjkllljjlpoollolpppp",
"iijjkh##..##abfmnuyyyyyyyzzzyyupmljkoooooppplllkllloollloooopppppppqqp",
"lljjlmnnnnnntuyyyyyyyyyyyyyyqmoollllloooooloooooppppppppppooqqqppooppp",
"qqoopouuuuyyyyyyyyyyyyyyyqpppppppppppppppoooooopppqqqqppppqqqqqqqsqpqq",
"qqoooowyyyyyyyyyyyyyyyuqpqqqqqqqqqppppppppppppppppppqqqqqqqqqqqqqqppqp",
"qqqpppwuuyzzyyyyyyyyuqpqrssssrrsrrrqqqqqrssrqqqqqqqqrsrrqppppqppppppsq",
"qpqqqqwuyyyyyyyyyqxxxpqrqqsrssssrssvsssssssswsqrrrssssqqssstwwwwwssrss",
"rrrrqqwtyyyuwwwwomqqqqprtvsssssrssvvwwwssrrrqvsvwsswqpqqrssssrvsssrqqs",
"rrrrrrrrrrqpqqvqqqqrqvwrssrssssssssrqqswvswrrqqrqrqrrrrsrrqrsssqrrsqqp",
"rrqrrrqrrrqqsrqrsrqrrpqssrpqsqsssssssssssssrrqrqsrsrsqsssssssvrqrqrqqq",
"sssssssssssrrrssqqssrwvqqrtvsssvrrssssrrqrsvrvsssssssrsswtssvswsstvwsr",
"swsrswsrswsssssrswwrssrssrssrsvrssrssrssrsvsvssrvrwwstsssssssrrrsrqrvv",
"vsssssssvsssrrswssrssvwwssswxtssssssssswxtswxssqrvsswxttwwtswsswvvrrqq",
"wswsvswssstswwssrsssvwsswwwtwsssvtsstswtwsstttwxttswwwwwwwxxwwwwvwwvrs",
"wxtvsswwwwvssrwwwwwsssswtwtwxtwsssswtwwwwwwwwwwwwxwxtxxxxwwwwxxwswxwxw",
"wwswwwwwrswwwwwwwwwwwwxwwxxxtswwwwxwwxxxtswwwwwxwwxwwwxwwwxxwwwwxwwwss",
"swtswwwwwxwxwwwwxxtwwwwwwwxtxxwwssssswxtxxwxxxxtxxwwxwwwwwwwwwwwswwvxw",
"wsswswwwwwwxxxwwwwwwwwwwwwsttwxwwwtwwwsttwxxwwwxxxwtxxxwwxxxxxxxxxwxww",
"xxtsswswwwtwwxwwwwwwwxwxwwwwwwswwxwxwwwwwwswwwxwwxwwxxxwwxwwwwxwwwwssx",
"xxxtxsswswwxwwwxwwwwwxxwwxxwxttwwxxwwxxwxttxxwtwxxxxwxxxwwwwwxxxwwwwww",
"tttxxwxtswswwwxxwxwxwwwwwtttxxxxwwwwwtttxxxtwttxxtxxxxxwxwxwwwwwxxxxww",
"xxxttxxwxtswswwxxwwwwwwxwxxtwstwwwwxwxxtwsttxxxxxxxxxtwwwxxxxwwwxxxxww"
};
