/* XPM */
static char *g_wind07[] = {
/* width height num_colors chars_per_pixel */
"    70    70       30            1",
/* colors */
". c #e8e8e8",
"# c #e6e6e6",
"a c #d8d8d8",
"b c #c3c3c3",
"c c #bcbcbc",
"d c #a8a8a8",
"e c #9e9e9e",
"f c #9a9a9a",
"g c #919191",
"h c #8a8a8a",
"i c #848484",
"j c #828282",
"k c #7b7b7b",
"l c #767676",
"m c #727272",
"n c #646464",
"o c #686868",
"p c #5c5c5c",
"q c #4e4e4e",
"r c #494949",
"s c #454545",
"t c #414141",
"u c #3c3c3c",
"v c #424242",
"w c #3a3a3a",
"x c #333333",
"y c #2b2b2b",
"z c #242424",
"A c #202020",
"B c #1e1e1e",
/* pixels */
"aacbcaaaaadaaaaaabbaaaaaaaacgkkklpoooomkkkkkkkkkkkkkkkkkkkopoopmmppppp",
"acaaaaaabbaaaaaaaaaaaaacaaaaaalkkkkjkjlkjjjoolmmmmmmmkpolooooppppppppp",
"abaaaaaaaabbaaaaaaaaaaacabbacaiijjjjjjkjjjjjjkmkhhmcaccflmmkkppppppopj",
"baaaaaaaaabcbcaaaaaaaaacbcbcdajjjjijjjjijjkkkkfkkkfddddcmmokkmnpppnmll",
"abbcbaaaaaaaaccbbaaaaaadaadcolkjjjiiiiiiijkkfkmmmmcbdbbbhmlkhopppppmhh",
"aacbaaaaaaaabbdffdbaaaaaacioojiiiiiiiiiiiihfdfkmkhfbbacbcmllgkkkcphdcb",
"bbccbaaaaaaaabcfhhfcbbbcacdkljjjiiiiiigfeddcddihhaaaabfcckkkkhkkhabbba",
"ccccdbbbaaaaaabdhhhhfhmccbcddfihjiiihdddddccccccbaa#aaabbdfkkkfhhkdaaa",
"ccdbbccdccbaaabdhkhfffcckbddccddcbdddbabcbccaaaada#a#aabbchkkhhkhfcabb",
"dccdbbdffdcbaabdhkfhfdfpmmmifgigcaabaaacacca#aabaa###cfddfhhkkkhffdddc",
"bcccbbdffffdccdkfhfhddgmkkkedfiiccaddaa#abcaa#daaaaadhhhhfkkkmmkdcffdh",
"baccbcdffffkhkkkdhfhhfikiiigcccccdddfda##aaa#abaaacgdfffddcbcffffdffhk",
"facbchihfhkkkkfffffmgiiiiiiidddcdddddkcaaaaa#cfddccbbbbccbbbbkdfffddfk",
"fabbdhjkkihfffhghigfiiikhiiijfgddcddhfbabddbbaaaaaaaaaabkkchbkkdhddfkd",
"ccddhmiiiiiihhiiiiiffffkhcccffdddcdhfddfcaaaaaaaaaaaaaaafmhfhddddbbccc",
"cadfkijijjiiiiiiiiiiiifhffccddddddfkffc##a####aabbhnnnnhfkkadfdfffcbbb",
"cbmmmkijiiiihhhiiiigigihfdcfdddddfhfc#####abmuuzyuunnnnnnmknmfkhfhddbb",
"ccmmimmmkmkjkkjiijjhdffigidfhfhkkhc####bhuyBuhbaaaaaaaaaafmpknnpnhhdbc",
"cccbfmmhfkkkmjiiijjififhheihkkhda####duzAuda####aaaaaaaaabmpponnnhccbb",
"bcccccfhfdkhhiiiiikjjiigdkhkida###amyAAnb#########aaabbbaaamnmkmmfbbab",
"cabaaacbecmkkkkiigjifiifechda###buBAAna######bbhnuyyzBBBzyfhnmojkkdccb",
"abcababacceffmmihfddfdgobc###amyAAAna####abnuzAynhdbbbbbbbddmpmidcdfhb",
"caabbbccccedfkkhiiiiiikc###bnzAAAna####bnzABnba##########aammmkjjlppmf",
"cccbabccbadfekkhghhidca#bmyBAAAna.##afuBAub###############ackkklokmmmk",
"ccccabdcaacffedcffca##duzAAABna#.#bnzAAub#########aabbbbbbbbkkkpohffhh",
"hcccccdbccfhffdca##bnyBAAABh#..#fuBAAub..##.#abhnuyyBBBBBBBzkokpphdffd",
"febbaabecccca###bduzAAAAyh#.#bnzAAAub.#..#afnuBBunfbbbaababbholpnmddfd",
"hcbbbabc###abfnuuyzBBByf#.afuBAAAub....#dnyAznb#############djpoophhff",
"hhhhcackuuuzzBzyyyyzud##bnzAAAAub....bnyAAub#.##############bfmmijjiff",
"fffffffdyyyyBzyuyunb.ahuBAAAAub...#bnzAAna.....#...##aaaaaaa#fopkjjifh",
"ffffffc#nyzyyyumb##bnzAAAAAnb...ahuAAAna......#adhnuuyyyzzzyunpppppmfm",
"kfcccdd#dnnhb###bnuBAAAABna..#bnyAAAub.....abnuyAAyumfdbbbddfhhpppmmfh",
"ifbbbbcb###bdhnuyzBBAABna..ahuBAAAub....#bnuBAynb##...########hppmmhhf",
"fgfdacctuuyzBBzyyyzzzna.#bnyAAAAub....afuzABnb.....###########dpnmmgfh",
"gfccbcdmyyyzBzyyyyuf#.afuzAAAAub....bnyBABf#...............###bhpkmkfg",
"ffbbbbcdyzBzyyyuha.#bnyAAAAAub...#duzAABh#........##abbdfhfdfbbfnmpmfd",
"dfbcddcduyyumb#.#bhuzAAAAAub...amyBAAAn#......#bdnnuyyyyyyyzzzynppnnff",
"fdbdhhh#...#abdnnuBAAAAAub..#bnzAAAAn#.....adnuyzyzyyyzzzBBBBBBukmmmhf",
"dddfgjkmhnuuuuyzzzBBBAub..ahuBAAAAna.....bnuzzzzzzzzzzzBBBBBAAAzkmmkhh",
"gedgeekuzzyBBBBzzzzzub.#bnyAAAAAua....#dnyBBBzzBBBBBBzBBBBBBBBABkmmhhm",
"ggfgggjtzzBzzzzyyuha.ahuzAAAAAub....ahuzzzBBBBBzzBBBBBBBBBzBBBBBiiiihh",
"eeeeeeghzzBBzyufa.#bnyAAAAAAub...#bnuzBBBBBBBBBBBzyutppolkjjkkliggiigi",
"eeeeeedcnnhdb#.#bnuzAAAAAAub...#fuyzzzBBBBBBBBytmkikkllkiiiggggggggiii",
"eeeegeb###abbhnnuBBAAAAAub...bhuyzzBzBBBBBBzupkjllllkegggeeeegegegggig",
"ggggggnuunuyyzzzzBBBBBub..#bnuyzzzzzzBBBBynmkiiiiiiggggggggggggeegiijj",
"ggggggnyyyyBBBzzzzBznb..ahnyzzzzzzzzzBzunligiggggigjiiiiiggigggggijiij",
"gggggghyyzBBzzzzzuf#.#bnuyyzzzzzzzzzzuplkkjkjjjiijjjijjjjjjjjjjjjjjjjj",
"gggiiihuzBBBBzufa..afnuyyyyyzzzzzBytpkllllloljjjjjjklkjllljjjjjjlijjll",
"jjiiiihnnnndb#.#abnuyyyyyyyzzzzzunpllopppoollkkjjljjjllljjjllollljllll",
"iijjkh##..##abfmnuyyyyyyyzzzzyutojjkoooooppplllkllloollloollllljlojkll",
"lljjlmnnnnnntuyyyyyyyyyyyyyyxqplloooooooooloooooooooppppppooqqqpploppp",
"lllopouuuuyyyyyyyyyyyyyyyxwploooooppoppppoooloopllqqqqppppqqqqqqqsqpqq",
"poooooxyyyyyyyyyyyyyyyuxspoppoppppooqqpooppoppoopppoppqqqqqqqqqqqqppqp",
"opopppxuuyzzyyyyyyyyuwqopqqppqpqqpoppoopqqpqpqqppppppqqqpppppqppppppsq",
"qppqqqwuyyyyyyyyxxxspqqrqqqppqpoqqrrrrqqqqpqrppqqqqqqqppppqsttsstssrss",
"rrrrqqwtyyyuxxwwtvqqqqpqqrrrrrrqqqrrrsqqsqrrprqqrppqqpqqrrqqqqrqqqqqqs",
"rrrrrrrrrrqpqqvqqqqrqvwrqqqrrrvqqvsrqqsrrrvqrqqqprqqrrrsrrqrsssqrqqqqp",
"rrqrrrqrrrqqsrqrsrqrrpqswwsssqsssqrsqrvrrqqrqqrqqqqrvqrswssrsvrqrqrqqq",
"sssvsssvsssrrrvvqqssrwvqqrtvsssvrrrsrvrrqqrvrvssrrqvvqrswtssvswsstvwsr",
"swsrswsrswssrrrqswwrssrssrswvsvsvssrvrrrrrrrrrrrsrwwswsstvwssrrrsrqrvv",
"vsssssssvsssrrswssrrswwwtsswxxwxxssqrwxssqswsrrvsvssxxttwwwwwsswvvrrqq",
"wswsvswssstswwssrsssvwttsrwttstwwwwwwwsrrwtwswsswtsswtwsstxxwwwwvwwvrs",
"wxtvsswwwwvssrwwwwwsssswwwtwwxtwwwxtwtwwwxxtwtxxtxwxtxxxxwttwxxwswxwxw",
"wwswwwwwrsrrwxwtttwwwwxwwxxxtswwwwwxxtwwtttwxxtwwwxwwxwwwxwwwswwxwwwss",
"swtswwwwwxwxssswxxtwssssswxtxxwxxxxtxxwwxxxwwwxsstxxwwwwwwwwwwwwsssvxw",
"wsswswwwwwwxxxwttwwwwttxxwsttwxtxxwxxxxxwxttwwxxxxwtxxxxwwxwxxxxxxwxww",
"xxtsswswwwtwwxwwtwwwwxwwwwwwwwsstwxwxxwwwtwwxtxwwxwwxxwwwwwwssxwwtwssx",
"xxxtxsswswwxwwwwwwwwwwwwwxxtwttxxwtwwwwwxxwwwwwwxxxxxwwxwtwwxxxxwwwwww",
"tttxxwxtswswwwxxwwwwwwwwwtttxxxtwttxxxxxxxxxxwwxxtxxxxxxwwxxxwwwwxxxww",
"xxxttxxwxtswswwxxwwwwwwxwxxtwsttxxxxxxwxxxxxwxxxwxxxxtwwwxxxxwwwxxxxww"
};
