/* XPM */
static char *roc_icon[] = {
/* width height num_colors chars_per_pixel */
"    90    80       41            1",
/* colors */
". c #cccccc",
"# c #171314",
"a c #333333",
"b c #999999",
"c c #3f4c5e",
"d c #222222",
"e c #faffff",
"f c #888888",
"g c #f5f5f5",
"h c #656565",
"i c #666666",
"j c #646464",
"k c #606060",
"l c #706c6c",
"m c #3f263b",
"n c #eeeeee",
"o c #ccc386",
"p c #bbbbbb",
"q c #c0c0c0",
"r c #aaaaaa",
"s c #8e9091",
"t c #949494",
"u c #6f6f6f",
"v c #555555",
"w c #777777",
"x c #7f7f7f",
"y c #7a6969",
"z c #7d7d7d",
"A c #d9d9d9",
"B c #404040",
"C c #444444",
"D c #484048",
"E c #4b4b4b",
"F c #afafaf",
"G c #ae5445",
"H c #b2b2b2",
"I c #8f806e",
"J c #fef6c8",
"K c #d2b48c",
"L c #969696",
"M c #979797",
/* pixels */
"xwzwwlwlxwliluukliwiiwiiuuujilllfklvikiivikikvuukvjliilkkwkkvkkivhjiifuilllluClklkklkkkjjk",
"zuzkzkiuzlwiwlullzvlujilihkzkjiiijklhvjuwjkvwiwuviiuujkkljvvklvkivjluvkikhjjkkihlzuliklklk",
"wkH...................................................................................rkjj",
"wwr...................................................................................Fiuk",
"wtF......eeeeeeeaaaaaaeeeeeeeeeeeeeHgeeggewggggegeeeeeeaeeeeeeaaaaaaaaaaaaaaaaaa......rkkk",
"zur......eeeeeeeaaaaaag####eee####gHg###Bgwk###ngg####eaF###qeaaaaaaaaaaaaaaaaaf......Ffww",
"uzr......eeeeeeeaaaaaag####ggg####gHg###mgwk###vgg####gar###kgaaaaaaaaaaaaaaaaab......Fvjj",
"wzH......eGt.GDeaaaaaago##ogggIk#IgHg###mgwk###vggDI#Dgar###kgaaaaaaaaaaaaaaaaab......rvkC",
"llH......eG.G.Deaaaaaag####ggg####gFn###mgwk###vgg####gaF###kgaaaaaaaaaaaaaaaaab......rivv",
"zwF......eG.pGDeaaaaaag####ggg####gFn###mgwk###vgg####gaF###kgaaaaaaaaaaaaaaaavb......Fvjv",
"lur......eG...Deaaaaaago##ogggIk#IgHg###mgwk###kggDI#DeaF###jeaaaaaaaaaaaaaaaabb......rkik",
"wuF......ettG.Decaaaaag####ggg####gHn###mgwk###kgg####eaF###jeaaaaaaaaaaaaaaaabb......rwkh",
"zlF......eG.GyDeccadddg####egg####gFg###mgik###kgg####edF###keddddddddddddaaaabb......biki",
"uwr......eGGGGDeccccddgo##oeggIk#ygFg###mgik###kggDI#DedF###keddddddddddddaaaabb......biku",
"lhH......eGGGGDgcccccdg####ggg####gpg###mejk###kgg####edF###ied#ddddddddddaaaxbb......ruik",
"wwr......eeeeeegcccccag####ggg####gpg###mgik###kgg####edF###ieddddddddddddaaabbb......Hkhi",
"uzH......eegggggcccccago##ogggIk#ygpg###mgik###kgeDI#DedF###jeddddddddddddaaabbb......rkkl",
"wkF......gggggggcccccBg####ggg####gpg###mguk###kge####edF###je#d#d####ddddaaabbb......rkii",
"sur......gggggggcccccBg####ggg####gpg###mguk###kgg####edF###jedddd#dd#ddddaavbbb......tkva",
"lzr......gzwwxAgcccccago##ogggyD#ygpg###mguk###kggDI#De#F###jedd#dd#ddddddaabbbb......sdvk",
"klF......gwgKxEgccccccg####ggg####gpg###mguk###vgg####gdr###kg#d#dd#ddddddaabbbb......tddd",
"lur......guLjxEgcccccag####ggg####gpg###mguk###vgg####g#r###kg##d#####adddaabbbb......tddd",
"wxF......gwwulEgcccccagggggggggggggpggggggugggggggggeggdeeeeee##d####dadddaabbbb......t#d#",
"wuH......ggffffgcccccagm##mngg####gpg###mguk###kgg####g#F###ied#d##d##addaaabbbb......td#d",
"ijr......gggggggcccccag####ngg####gpg###mguk###jee####edF###ue#ddddd#dadddaabbbb......td#d",
"hkF......gggggggcccccagt##tnggDm#mgpg###mguk###jeemk#me#F###ued#d##dddaa#daabbbb......tdd#",
"ilF......guuuxvncccccanm##mggg####gpg###mguk###kgg####e#F###ie#ddddd##aaddaabbbb......tddd",
"iib......gzgKuvncccccan####ggg####gpg###mguk###kgg####e#F###iedd##ddddadddaabbbb......t#dd",
"llH......gzrbwvgcccccanI##InnnDm#mnpg###mgik###kggmD#medF###ie##d#dd#daaddaabbbb......td#d",
"hir......nMCEBvgcccccanm##mnnn####npn###mguk###kgg####e#F###ie#####d#daaddaabbbb......sd##",
"izF......nnnnnnnccccccn####ggg####gpg###mgik###kee####e#F###ied###ddddaaddaabbbb......s#d#",
"ilr......nnnnnnncccccanI##Igggmm#mgpg###mguk###keemD#medF###ie##d#d#ddaaddaabbbb......sddd",
"wvr......nsMswnnccccccnm##mggg####gpg###mguk###kgg####e#F###ie#dddd#ddaaddaabbbb......td#d",
"uvr......nuLwzvncccccan####ggg####gpg###mguk###kgg####edF###ie###ddd#daaddaabbbb......s#d#",
"lvH......nwJKxvncccccanI##Igggmm#mgpg###mguk###jeemD#me#F###ueddddd###aaddaabbbb......s#dd",
"klr......nufbxvncccccanD##Dgggm###gpg###mguk###jee####edF###ue##dd#dd#aaddaabbbb......td#d",
"Eir......ggvvvvncccccag####nnn####gpg###mguk###kge####edF###ueddd#d###aaddaabbbb......t#dd",
"ukr......nggggnncccccanI##Innnmm#mgpg###mguk###kgemD##e#F###ueddd#ddd#aa#daabbbb......t#d#",
"llr......nnggggncccccanD##Dgggm##mepe###meuk###iee####edF###uedddd#dddaaddaabbbb......sd#d",
"kwH......nfbxsgncccccanBBBBgggCCEEepeEEEveuHEEEieeEEEEed.EEvuedddd#dddaaddaabbbb......td#d",
"kir......gzgKzvgcccccagggggggggggggpgeeeeeueeeeeeeeeeeedeeeeeedddd##ddaaddaabbbb......tddd",
"zkF......gutywvgcccccBgm##mggg####gpg###meuk###iee####e#F###ue#d#dddddaaddaabbbb......tddd",
"hvF......nizwuvncccccBg####eee####epe###meik###iee####e#F###ueddddddddaaddaabbbb......tdd#",
"iwF......nnppppncccccagI##IeeeDm#mepe###meuk###ieemD#me#F###ue###dddddaaddaabbbb......t#d#",
"vvr......nnnnnnncccccBnD##Dgggm###gpg###meuk###iee####edF###ue#dd#d#ddaaddaabbbb......b#d#",
"khr......nnnnnnncccccan####ngg####gpg###meik###iee####edF###uedddd#dddadddaabbbb......sddd",
"ijr......nnnnnnncccccagI##Igggmm#mgpg###meuk###ueemD#medF###uedddddd##adddaabbbb......t#dd",
"klr......nnnnnnncccccagD##Dgggm##mgpg###meuk###uee####edF###ue#dd#ddddaaddaabbbb......sd##",
"vwF......nnnnnngcccccag####gge####gpg###meuk###iee####edF###wedddddd#daaddaabbbb......tddd",
"klb......nnnnnnncccccagI##ygggmm#mgpg###meuk###ieemD##edF###uedddddd#daaddaabbbb......tddd",
"ukF......nnnnnngcccccagD##Dgggm##mgpg###meuk###iee####edF###ue#d#dddddaaddaabbbb......sddd",
"lvr......nnnnnnncccccag####ggg####gpg###meuk###iee####edF###ued##dd#ddaaddaabbbb......s#d#",
"luF......nnnnnngcccccagy##ygggmm#mepe###meuk###ueemD##edF###wed##d#d#daaddaabbbb......fddd",
"jlF......nnnnnnncccccagD##Dgggm##mepe###meuk###uee####eaF###wedddd#d#daaddaabbbb......s##d",
"ulF......gggggggcccccae####eee####epe###meuk###uee####eaF###wed#d#ddddaaddaabbbb......sdd#",
"kuF......gggggggcccccagy##yeeemm#meqe###meuk###uee#D##eaF###wed#####ddaaddaabbbb......s#dd",
"vkr......gngggggcccccagk##kgggm##mgpg###meuk###uee####edF###we#ddd###daaddaabbbb......tdd#",
"kwH......nnnngggccccccgEEEEgggEEEEgpgEEEveiqEEEueeEEEEedAvvvwedd#####dad#daabbbb......tddd",
"kur......nnnnnnnccccccgggggggggggggpgeeeeeueeeeeeeeeeeedeeeeeed#d##dd#aaddaabbbb......t###",
"kkr......nnnnnnncccccBgggggggggggggpgeeeeeueeeeeeeeeeeedeeeeee#d##d##daaddaabbbb......td##",
"ivH......nnnnnnncccccagggggggggggggpeeggeeueeeeeeeeeeeeaeeeeee#dd#dd#daaddaabbbb......td#d",
"wEF......nnnnnnnccccccgggggggggggggpeeeeeeueeeeeeeeeeeedeeeeeedddddd#daaddaabbbb......tdd#",
"ilb......nnnnnggcccccaggggggeeeeeeepeeeeeeueeeeeeeeeeeedeeeeeedaaaaaaaaaddaabbbb......s##d",
"kuH......nnnnnggcccccaggggggeeeeeeepeeeeeeieeeeeeeeeeeedeeeeeeddddddaadaddaabbbb......tdd#",
"jkF......nnnnnggcccccdggggggggggggepeeeeeeieeeeeeeeeeeedeeeeeeddddddddddddaabbbb......tddd",
"lkr......nggggggccccddgggggggggggeeFeeeeeeueeeeeeeeeeeedeeeeeeddddddddddddaabbbb......tddd",
"kjF......nngggngcccdddgggggggeeeeeeFeeeeeeueeeeeeeeeeeedeeeeeedddd#dddddddaabbbb......tdd#",
"Ckr......nnnnnngcaaaaagggggggeeeeeeHeeeeeeweeeeeeeeeeeeaeeeeeeaaaaaaaaaaaaaabbbb......s#dd",
"kiF......nnnnnngaaaaaagggggggeeeeeeHeeeeeeweeeeeeeeeeeeaeeeeeeaaaaaaaaaaaaaabbbb......sddd",
"klr......nggggggaaaaaagggggggeggeeeHeeeeeeweeeeeeeeeeeeaeeeeeeaaaaaaaaaaaaaabbbb......td##",
"jiF......nngggggaaaaaagggggggggggggHeeeeeeweeeeeeeeeeeeaeeeeeeaaaaaaaaaaawffbbbb......tddd",
"vvF......nnnnnngaaaaaagggggggggggggHeeeeeeweeeeeeeeeeeeaeeeeeeaaaaaaaaaffffffbbb......s##d",
"ikF......nnnnnnnaaaaaagggggggegggeeHeeeeeeweeeeeeeeeeeeaeeeeeeaaaaaaffffffffffbb......t#d#",
"kur......nnnnnnnaaaaalggggggggggggeHeeeeeeweeeeeeeeeeeeaeeeeeeaaaEfffffffffffffb......t##d",
"ikr......wswwwwwajfffffvaaaaaaCaaaaaEaaaaaaCaaaaaaaaaaaaEaaaaaaffffffffffffffffb......tddd",
"kit...................................................................................tddd",
"lkr...................................................................................tdd#",
"kkilulvkkwjklkijvkivkiilvd#d#dd#d#dd#dd#dddd#dd#ddd#####d##dd#dd#d##d#d##dd#dddd#ddd##d#d#",
"khuiwuikkkklkjkkukiwukiiuB#ddddd#ddddd#d######ddd#dd###ddddddddddd##dd##dd##d###d#dddddd#d",
"kjkwuflihlhjlkiuukuhikhwwuEdddd#ddd#ddddd#dddd#dd#dd#dd####d##d#dd##dddddddddd##dddd####d#"
};
SIMPLE  =                    T                                                  BITPIX  =                    8                                                  NAXIS   =                    2                                                  NAXIS1  =                   90                                                  NAXIS2  =                   80                                                  HISTORY Written by XV 3.10a                                                     END                                                                                                                                                                                                                                                                                                                                                                                                                                                                                                                                                                                                                                                                                                                                                                                                                                                                                                                                                                                                                                                                                                                                                                                                                                                                                                                                                                                                                                                                                                                                                                                                                                                                                                                                                                                                                                                                                                                                                                                                                                                                                                                                                                                                                                                                                                                                                                                                                                                                                             `d`woˆmfemedm`foo`oef`ewwoK"""""""""""""""""""""""""""""""""""""""""`eofwof````m`d``o`fwo`ffo@""""""""""""""""""""""""""""""""""""""""``fmomU``wd`m`fdU`fU`ffmU"""""""""""""""""""""""""""""""""""""m`ªÌÌÌÌÌÌÌÌÌÌÌÌÌÌÌÌÌÌÌÌÌÌÌÌÌÌÌÌÌÌÌÌÌÌÌÌÌÌÌÌÌÌÌÌÌÌÌÌÌÌÌÌÌÌÌÌÌÌÌÌÌÌÌÌÌÌÌÌÌÌÌÌÌÌÌÌÌÌÌÌÌÌÌ”""`f”ÌÌÌÌÌÌÌÌÌÌÌÌÌÌÌÌÌÌÌÌÌÌÌÌÌÌÌÌÌÌÌÌÌÌÌÌÌÌÌÌÌÌÌÌÌÌÌÌÌÌÌÌÌÌÌÌÌÌÌÌÌÌÌÌÌÌÌÌÌÌÌÌÌÌÌÌÌÌÌÌÌÌÌ”"""f`ªÌÌÌÌÌÌwwwwww3dˆˆˆˆˆU333333D33333K333333D333333333333K333333ˆˆˆˆˆˆˆˆˆˆˆˆˆˆˆˆ™ÌÌÌÌÌÌ”"""`oªÌÌÌÌÌÌîîîîîîî33333mõõõõõõõõõõõõı²ııııııwıııııııııııı3ıııııı333Kˆˆˆˆˆˆˆˆˆˆˆˆˆ™ÌÌÌÌÌÌ”"f`¯ÌÌÌÌÌÌîîîîîîî333333õõõõõõõıõõõıı²ııııııwıııııııııııı3ıııııı333333ˆˆˆˆˆˆˆˆˆˆ™™ÌÌÌÌÌÌ”"UU¯ÌÌÌÌÌÌîîîîîîõ333333õõõõõõõõõõõõõ²ııııııwıııııııııııı3ıııııı333333333ˆˆˆˆˆˆ™™™ÌÌÌÌÌÌ"df¯ÌÌÌÌÌÌîîõõõõõ333333õõõõõõõõõõõõõ²ııııııwıııııııııııı3ıııııı33333333333wˆˆ™™™™ÌÌÌÌÌÌ”"""`mªÌÌÌÌÌÌîõõõõõõ333333õõõõõõõıõõııı²ııııııwıııııııııııı3ıııııı33333333333333™™™™ÌÌÌÌÌÌ”"`f¯ÌÌÌÌÌÌîîîîîîõ333333õõõõõõõıııııı²ııııııwıııııııııııı3ıııııı33333333333333™™™™ÌÌÌÌÌÌ"""D`ªÌÌÌÌÌÌîîîîîîõJ33333õõõõõõõıııııı²ııııııwıııııııııııı3ıııııı33333333333333™™™™ÌÌÌÌÌÌ""`d¯ÌÌÌÌÌÌîîõõõîõJJJ"""õõõõõõõıııııı¯ııııııoıııııııııııı"ıııııı"""""""""""33™™™™ÌÌÌÌÌÌ”""m`ªÌÌÌÌÌÌîõõõõõõJJJJ""õõõõõõõõõõõıı¯ııııııoıııııııııııı"ıııııı""""""""""""33™™™™ÌÌÌÌÌÌ”"""d`¯ÌÌÌÌÌÌîîîîîõõJJJJJ"õõõõõõõõõõõõı»ııııııfıııııııııııı"ıııııı""""""""""""33™™™™ÌÌÌÌÌÌ”"""`o²ÌÌÌÌÌÌîîîîîõõJJJJJ3õõõõõõııııııı»ııııııfıııııııııııı"ıııııı""""""33"3""33™™™™ÌÌÌÌÌÌ”""fm™ÌÌÌÌÌÌîîîîîõõJJJJJ3õõõõõõııııııı»ııııııoıııııııııııı"ıııııı"333333333""33™™™™ÌÌÌÌÌÌ"wK¯ÌÌÌÌÌÌîîîîîîîJJJJJJõõõõõõõõõõõõõ»ııııııoıııııııııııı"ıııııı"""""""33""33™™™™ÌÌÌÌÌÌ”""fU²ÌÌÌÌÌÌîîîîîîîJJJJJ3õõõõõõõõõõõõõ»ııõõııoıııııııııııı3ıııııı"""""33""33™™™™ÌÌÌÌÌÌ”""``ªÌÌÌÌÌÌîîîîîîîJJJJJ@õõõõõõõõõõõõõ»õıııııoıııııııııııı"ıııııı"""33""33™™™™ÌÌÌÌÌÌ”"`oªÌÌÌÌÌÌîîîîîîîJJJJJJõõõõõõõõõõõõõ»õıııııoıııııııııııı"ıııııı""""33""33™™™™ÌÌÌÌÌÌ”`w²ÌÌÌÌÌÌîîîîõõõJJJJJJõKKKKõõõKKKKõ»õKKKUıfÀKKKoııKKKKı"ÙUUUwı"""3""33™™™™ÌÌÌÌÌÌ”"""U`ªÌÌÌÌÌÌõîõõõõõJJJJJ3õ``õõõ11õ»õ1ıo`oııı"¯wı""""33""33™™™™ÌÌÌÌÌÌ”""`o¯ÌÌÌÌÌÌõõõõõõõJJJJJ3õnnııı111ıÀı1ıo`oııDı3¯wı"""33""33™™™™ÌÌÌÌÌÌ""om¯ÌÌÌÌÌÌõõõõõõõJJJJJ3ııııı»ı1ıo`oııı3¯wı""""""33""33™™™™ÌÌÌÌÌÌ""dm¯ÌÌÌÌÌÌîîîîîîîJJJJJ3õDDõõõ11ı»ı1ıo`oııı3¯wı""""""33""33™™™™ÌÌÌÌÌÌ"mo¯ÌÌÌÌÌÌîîîîîîõJJJJJ3õnnõõõ111ı»ı1ıo`oıı1Dı"¯wı""""33""33™™™™ÌÌÌÌÌÌˆ"""mUªÌÌÌÌÌÌîîîîîîîJJJJJ3õõõõõ»õ1ıo`fııı"¯oı"""""33""33™™™™ÌÌÌÌÌÌ"o`¯ÌÌÌÌÌÌîîîîîîõJJJJJ3õDDõõõ11õ»õ1ıo`fııı"¯oı""""""33""33™™™™ÌÌÌÌÌÌ"""`m™ÌÌÌÌÌÌîîîîîîîJJJJJ3õ‚nõõõ111õ»õ1ıo`fıı1Dı"¯oı"""""""33""33™™™™ÌÌÌÌÌÌ”"""Uw¯ÌÌÌÌÌÌîîîîîîõJJJJJ3õõõıõ»õ1ıo`fııı"¯wı"""""""33""33™™™™ÌÌÌÌÌÌ”"""`mªÌÌÌÌÌÌîîîîîîîJJJJJ3õDDõõõ11õ»õ1ıo`oııı"¯oı""""""33""33™™™™ÌÌÌÌÌÌ"fdªÌÌÌÌÌÌîîîîîîîJJJJJ3õ‚‚õõõ111õ»õ1ıo`oıı1D1ı"¯oı""""""3"""33™™™™ÌÌÌÌÌÌ”""`eªÌÌÌÌÌÌîîîîîîîJJJJJ3îîõõõ»õ1ıf`fııı"¯oı"""""""3"""33™™™™ÌÌÌÌÌÌ"""UUªÌÌÌÌÌÌîîîîîîîJJJJJ@îDDõõõ1õ»õ1ıo`fııı"¯oı"""""33""33™™™™ÌÌÌÌÌÌ™"fw¯ÌÌÌÌÌÌîî»»»»îJJJJJ3õ‚‚ıııD11ı»ı1ıo`fıı1D1ı¯oı"""""33""33™™™™ÌÌÌÌÌÌ”"eU¯ÌÌÌÌÌÌîf}woUîJJJJJ@õıııı»ı1ıf`fııı¯oı""""""""33""33™™™™ÌÌÌÌÌÌ”""}`¯ÌÌÌÌÌÌõo”nwUõJJJJJ@õ11õõõõ»õ1ıo`fııı¯oı""""""33""33™™™™ÌÌÌÌÌÌ”"""`fªÌÌÌÌÌÌõ}õ¸}UõJJJJJ3õõõõõõõõõõõõõ»õıııııoıııııııııııı"ıııııı""""""33""33™™™™ÌÌÌÌÌÌ”"""`w²ÌÌÌÌÌÌîˆ™õîJJJJJ3î@@@@õõõDDKKı»ıKKKUıo²KKKfııKKKKı"ÌKKUoı"""""""33""33™™™™ÌÌÌÌÌÌ”""mmªÌÌÌÌÌÌîîõõõõîJJJJJ3îDDõõõ11ı»ı1ıo`fııı"¯oı"""""""33""33™™™™ÌÌÌÌÌÌ""o`ªÌÌÌÌÌÌîõõõõîîJJJJJ3î‚‚îîî111õ»õ1õo``õı1Dı¯oı""""""33"33™™™™ÌÌÌÌÌÌ”"KfªÌÌÌÌÌÌõõUUUUîJJJJJ3õîîîõ»õ1õo``õıı"¯oı""""33""33™™™™ÌÌÌÌÌÌ”""`mªÌÌÌÌÌÌîoˆ™UîJJJJJ3îDDõõõ1õ»õ1õo`dııı"¯oı""""33""33™™™™ÌÌÌÌÌÌ”""mU²ÌÌÌÌÌÌîwñ¸UîJJJJJ3î‚‚õõõ111õ»õ1õo`dıı1D1ı¯oı"""""33""33™™™™ÌÌÌÌÌÌ""oUªÌÌÌÌÌÌîo–w}UîJJJJJ3îõõõõ»õ1õo``õõı"¯fı""""33""33™™™™ÌÌÌÌÌÌ"wUªÌÌÌÌÌÌî—wîîJJJJJJî11õõõõ»õ1õo``õõı¯fı""""""33""33™™™™ÌÌÌÌÌÌ”""fmªÌÌÌÌÌÌîîîîîîîJJJJJ3î‚‚õõõ111õ»õ1õo``ıı1D1ı"¯fı""""33""33™™™™ÌÌÌÌÌÌ"""f}¯ÌÌÌÌÌÌîîîîîîîJJJJJJîõõõõ»õ1õf``ııı¯fı"""""33""33™™™™ÌÌÌÌÌÌ"efªÌÌÌÌÌÌî—DK@UõJJJJJ3î11îîîî»î1õo``õõı¯fı""33""33™™™™ÌÌÌÌÌÌ"mm²ÌÌÌÌÌÌõ}ª™wUõJJJJJ3î‚‚îîîD11î»õ1õf``õõ1D1ı"¯fı""""33""33™™™™ÌÌÌÌÌÌ”""ff™ÌÌÌÌÌÌõ}õ¸oUîJJJJJ3îõõõõ»õ1õo``õõı¯fı""""""3"""33™™™™ÌÌÌÌÌÌ”""fm¯ÌÌÌÌÌÌõoooUîJJJJJ3î11õõõõ»õ1õo``õõı¯fı"""""33""33™™™™ÌÌÌÌÌÌ”"""e`¯ÌÌÌÌÌÌõõõõõõõJJJJJ3õ””îõõD11õ»õ1õo`dıı1`1ı¯oı"""""33"33™™™™ÌÌÌÌÌÌ”""fdªÌÌÌÌÌÌõõõõõõõJJJJJ3õîõõõ»õ1õo`dııı"¯oı""""""3"""33™™™™ÌÌÌÌÌÌ”""wo²ÌÌÌÌÌÌõõˆˆˆˆõJJJJJ3õ11îõõõ»õ1õo``õõõ¯fı"""3""333™™™™ÌÌÌÌÌÌ”""w¯ÌÌÌÌÌÌõwwomKõJJJJJ3õõõõõõõõõõõõõ»õõõõõõoõõõõõõõõõıõõ"ıııııı""3"""33™™™™ÌÌÌÌÌÌ”"moªÌÌÌÌÌÌõo–dKõJJJJJ3õõõõõ»õ1õo`Uõõõª`õ"3"""33™™™™ÌÌÌÌÌÌ”"""`m¯ÌÌÌÌÌÌõwõ¸KõJJJJJJõõõõõ»õ1õo`Uõõõ"ª`õ"""""""""33™™™™ÌÌÌÌÌÌ”"""m}ªÌÌÌÌÌÌõ}wwÙõJJJJJ3õ¼¼õõõnDnõ»õ1õo``õõD‚Dı¯dı""""""""""33™™™™ÌÌÌÌÌÌ"U`oªÌÌÌÌÌÌõõõõõõõJJJJJ@õõõõõ»õ1õo``õõı"¯dı""""""""""33U™™™ÌÌÌÌÌÌ”`U3w`¯ÌÌÌÌÌÌõõõõõõõJJJJJ@õõõõõ»õ1õo``õıı"¯dı""""""333™™™ÌÌÌÌÌÌª`ffo}²ÌÌÌÌÌÌııõõõõõJJJJJ3õ¼¼õõõ‚`nõ»õ1õf``õıD‚Dı"¯dı""""""""""""333™™™ÌÌÌÌÌÌª``mwwªÌÌÌÌÌÌııııııõJJJJJ3õõõõõ»õ1õf``õõı"¯fı""""""""""""333™™™ÌÌÌÌÌÌ²`efme²ÌÌÌÌÌÌıppppDõJJJJJ"õõõõõ»õ1ıd``õõı"¯fı"""""""""""333™™ÌÌÌÌÌÌªof`owªÌÌÌÌÌÌıppppDıJJJJ""õ¼¼ıõõ‚`nõ¯õ1õf``õõD‚Dı"¯`ı""""""""""""3333™™ÌÌÌÌÌÌ™f`o}m¯ÌÌÌÌÌÌıpÌpnDıJJ3"""õıõõõ¯õ1õf``õõı"¯`ı""""""""""""3333™™ÌÌÌÌÌÌ™f`fwo¯ÌÌÌÌÌÌı””pÌDıJ33333õõõõõ²î1õw``õõı3¯dı3333333333333333™™ÌÌÌÌÌÌªw`emoªÌÌÌÌÌÌıpÌÌÌDı333333õ¼¼õõõ‚`‚õ²õ1õw``õõD‚Dı3¯dı3333333333333333™™ÌÌÌÌÌÌª`f`}w¯ÌÌÌÌÌÌıpÌ»pDı333333õõõõõ¯î1õw`Uõõõ3¯`õ3333333333333333U™ÌÌÌÌÌÌ¯UdUmm²ÌÌÌÌÌÌıpÌpÌDı333333õõõõõ¯î1õw`Uõõõ3¯`õ33333333333333333™ÌÌÌÌÌÌªfUUw}²ÌÌÌÌÌÌıp”ÌpDı333333õ¼¼õõõ‚`‚õ²õ1õw`UõõD‚Dõ3ª`õ33333333333333333™ÌÌÌÌÌÌªU`Do}ªÌÌÌÌÌÌııııııı333333õõõõõ²õ1õw`Uõõõ3ª`õ33333333333333333™ÌÌÌÌÌÌ¯Udd}oªÌÌÌÌÌÌııııııı333333õıııõ²õ@õw`îõõı3¯Àı33333333333333333ˆÌÌÌÌÌÌ¯ˆwww”¯ÌÌÌÌÌÌııııııı333333ııııııııııııı²õııõõıwõõõõıõıııııı3ıııııı333333333333333333ÌÌÌÌÌÌª```wwªÌÌÌÌÌÌÌÌÌÌÌÌÌÌÌÌÌÌÌÌÌÌÌÌÌÌÌÌÌÌÌÌÌÌÌÌÌÌÌÌÌÌÌÌÌÌÌÌÌÌÌÌÌÌÌÌÌÌÌÌÌÌÌÌÌÌÌÌÌÌÌÌÌÌÌÌÌÌÌÌÌÌÌ¯fo`w`²ÌÌÌÌÌÌÌÌÌÌÌÌÌÌÌÌÌÌÌÌÌÌÌÌÌÌÌÌÌÌÌÌÌÌÌÌÌÌÌÌÌÌÌÌÌÌÌÌÌÌÌÌÌÌÌÌÌÌÌÌÌÌÌÌÌÌÌÌÌÌÌÌÌÌÌÌÌÌÌÌÌÌÌª`dd}o}`}`fo}mwfwmomm}Umodfmfe`}`dfffd`meUdowd`UwfwoUffood``mdUU`mU`fUdmoU`f`edd``fem}omf`m`m`w}wwmwmwmfmoo`mfwffwffooodfmmmˆ`mUf`ffUf`f`Uoo`Udmffm``w``U``fUedffˆofmmmmoDm`m``m```dd`                                                                                                                                                                                                                                                                                                                                                                                                                                                                                                                                                                                                                                                                                                                                                                                                                                                                                                                                                                                                                                                                                                                                                                                                                                                                                                                                                                                                                                                                                                