#define logo03_width 64
#define logo03_height 64
static char logo03_bits[] = {
 0x00,0x00,0x00,0x00,0x00,0x00,0x00,0x00,0x00,0x00,0x00,0x00,0x00,0x00,0x00,
 0x00,0x00,0x00,0x00,0x00,0x00,0x00,0x00,0x00,0x00,0x00,0x00,0x00,0x00,0x00,
 0x00,0x00,0x00,0x00,0x00,0x00,0x00,0x00,0x00,0x00,0x00,0x00,0x00,0x00,0x00,
 0x00,0x00,0x00,0x00,0x00,0x00,0x00,0x00,0x00,0x00,0x00,0x00,0x00,0x00,0x00,
 0x00,0x00,0x00,0x00,0x00,0x00,0x00,0x00,0x00,0x00,0x00,0x00,0x00,0x00,0x00,
 0x00,0x00,0x00,0x00,0x00,0x00,0x00,0x00,0x00,0x00,0x00,0x00,0x00,0x00,0x00,
 0x00,0x00,0x00,0x00,0x00,0x00,0x00,0x00,0x00,0x00,0x00,0x00,0x00,0x00,0x00,
 0x00,0x00,0x00,0x00,0x00,0x00,0x00,0x00,0x00,0x00,0x00,0x00,0x00,0x00,0x00,
 0x00,0x00,0x00,0x00,0x00,0x00,0x00,0x00,0x00,0x00,0x00,0x00,0x00,0x00,0x00,
 0x00,0x00,0x00,0x00,0x00,0x00,0x00,0x00,0x00,0x00,0x00,0x00,0xc0,0x6c,0x03,
 0x00,0x00,0x00,0x00,0x00,0xa0,0xff,0x8f,0x00,0x00,0x00,0x00,0x00,0xe8,0xff,
 0x3f,0x02,0x00,0x00,0x00,0x00,0xf5,0x00,0xbf,0x00,0x00,0x00,0x00,0xa4,0x1c,
 0x00,0x48,0x40,0x00,0x00,0x00,0xd9,0x02,0xef,0x22,0x00,0x00,0x00,0x00,0x7c,
 0xb0,0xef,0x67,0x00,0x00,0x00,0x00,0x00,0xd8,0xff,0x7f,0x00,0x00,0x00,0x00,
 0x00,0xfa,0x80,0xdb,0x00,0x00,0x00,0x20,0xc0,0x43,0x00,0x18,0x02,0x00,0x00,
 0x00,0x56,0x4a,0x7c,0x86,0x00,0x00,0x00,0x00,0x3c,0xca,0xf7,0x67,0x00,0x00,
 0x00,0x00,0x00,0xd8,0xff,0x5f,0x01,0x00,0x00,0x00,0x00,0x7a,0x84,0xbe,0x00,
 0x00,0x00,0x20,0xc0,0x30,0x01,0xb0,0x00,0x00,0x00,0x40,0x51,0xa1,0xfa,0x04,
 0x08,0x00,0x00,0x00,0xdc,0x50,0xff,0x8f,0x00,0x00,0x00,0x00,0x00,0xf0,0xff,
 0x3f,0x02,0x00,0x00,0x00,0x80,0xb4,0x10,0xaf,0x40,0x00,0x00,0x20,0x80,0x1b,
 0x00,0x0a,0x01,0x00,0x00,0x00,0x73,0x82,0x77,0x44,0x00,0x00,0x00,0x00,0xd4,
 0xa4,0xff,0x8f,0x00,0x00,0x00,0x00,0x00,0xf8,0xfe,0x5f,0x08,0x00,0x00,0x00,
 0x00,0x5a,0x4a,0x1d,0x0c,0x00,0x00,0x00,0x80,0x37,0x00,0x14,0x10,0x00,0x00,
 0x80,0xe1,0x01,0x00,0x00,0x01,0x00,0x00,0x00,0x69,0x01,0x00,0x00,0x00,0x00,
 0x00,0x00,0x00,0x00,0x00,0x00,0x00,0x00,0x00,0x00,0x00,0x00,0x00,0x00,0x00,
 0x00,0x00,0x00,0x00,0x00,0x00,0x00,0x00,0x00,0x00,0x00,0x00,0x00,0x00,0x00,
 0x00,0x00,0x00,0x00,0x00,0x00,0x00,0x00,0x00,0x00,0x00,0x00,0x00,0x00,0x00,
 0x00,0x00,0x00,0x00,0x00,0x00,0x00,0x00,0x00,0x00,0x00,0x00,0x00,0x00,0x00,
 0x00,0x00,0x00,0x00,0x00,0x00,0x00,0x00,0x00,0x00,0x00,0x00,0x00,0x00,0x00,
 0x00,0x00,0x00,0x00,0x00,0x00,0x00,0x00,0x00,0x00,0x00,0x00,0x00,0x00,0x00,
 0x00,0x00,0x00,0x00,0x00,0x00,0x00,0x00,0x00,0x00,0x00,0x00,0x00,0x00,0x00,
 0x00,0x00,0x00,0x00,0x00,0x00,0x00,0x00,0x00,0x00,0x00,0x00,0x00,0x00,0x00,
 0x00,0x00,0x00,0x00,0x00,0x00,0x00,0x00,0x00,0x00,0x00,0x00,0x00,0x00,0x00,
 0x00,0x00,0x00,0x00,0x00,0x00,0x00,0x00,0x00,0x00,0x00,0x00,0x00,0x00,0x00,
 0x00,0x00};
